<?xml version="1.0" encoding="UTF-8" standalone="no"?>
<!-- Created with Inkscape (http://www.inkscape.org/) -->
<svg
   xmlns:dc="http://purl.org/dc/elements/1.1/"
   xmlns:cc="http://web.resource.org/cc/"
   xmlns:rdf="http://www.w3.org/1999/02/22-rdf-syntax-ns#"
   xmlns:svg="http://www.w3.org/2000/svg"
   xmlns="http://www.w3.org/2000/svg"
   xmlns:xlink="http://www.w3.org/1999/xlink"
   xmlns:sodipodi="http://inkscape.sourceforge.net/DTD/sodipodi-0.dtd"
   xmlns:inkscape="http://www.inkscape.org/namespaces/inkscape"
   width="10cm"
   height="10cm"
   id="svg2"
   sodipodi:version="0.32"
   inkscape:version="0.43"
   version="1.0"
   sodipodi:docbase="/home/dylan/src/mfgames/wordplay/src/themes/default"
   sodipodi:docname="character-0041.svg">
  <defs
     id="defs4">
    <linearGradient
       id="linearGradient3952">
      <stop
         style="stop-color:#f8f8f8;stop-opacity:1;"
         offset="0"
         id="stop3954" />
      <stop
         style="stop-color:#000000;stop-opacity:0;"
         offset="1"
         id="stop3956" />
    </linearGradient>
    <linearGradient
       id="linearGradient2184">
      <stop
         style="stop-color:#ffffff;stop-opacity:1;"
         offset="0"
         id="stop2186" />
      <stop
         style="stop-color:#101548;stop-opacity:1;"
         offset="1"
         id="stop2188" />
    </linearGradient>
    <linearGradient
       inkscape:collect="always"
       xlink:href="#linearGradient3952"
       id="linearGradient3958"
       x1="0"
       y1="177.16536"
       x2="144.44875"
       y2="183.59393"
       gradientUnits="userSpaceOnUse" />
    <radialGradient
       inkscape:collect="always"
       xlink:href="#linearGradient2184"
       id="radialGradient2213"
       cx="130.71428"
       cy="121.47358"
       fx="130.71428"
       fy="121.47358"
       r="141.92464"
       gradientUnits="userSpaceOnUse"
       gradientTransform="matrix(-6.599531e-3,1.392562,-1.327138,-6.289479e-3,292.789,-59.79021)" />
  </defs>
  <sodipodi:namedview
     id="base"
     pagecolor="#ffffff"
     bordercolor="#666666"
     borderopacity="1.0"
     inkscape:pageopacity="0"
     inkscape:pageshadow="2"
     inkscape:zoom="1.4"
     inkscape:cx="229.78709"
     inkscape:cy="173.93196"
     inkscape:document-units="cm"
     inkscape:current-layer="layer1"
     showguides="true"
     inkscape:guide-bbox="true"
     inkscape:window-width="1086"
     inkscape:window-height="861"
     inkscape:window-x="44"
     inkscape:window-y="69">
    <sodipodi:guide
       orientation="horizontal"
       position="177.14286"
       id="guide1307" />
    <sodipodi:guide
       orientation="vertical"
       position="177.14286"
       id="guide1309" />
    <sodipodi:guide
       orientation="vertical"
       position="35.433071"
       id="guide1311" />
    <sodipodi:guide
       orientation="vertical"
       position="318.89764"
       id="guide1313" />
    <sodipodi:guide
       orientation="horizontal"
       position="35.433071"
       id="guide1315" />
    <sodipodi:guide
       orientation="horizontal"
       position="318.89764"
       id="guide1317" />
  </sodipodi:namedview>
  <metadata
     id="metadata7">
    <rdf:RDF>
      <cc:Work
         rdf:about="">
        <dc:format>image/svg+xml</dc:format>
        <dc:type
           rdf:resource="http://purl.org/dc/dcmitype/StillImage" />
      </cc:Work>
    </rdf:RDF>
  </metadata>
  <g
     inkscape:label="Layer 1"
     inkscape:groupmode="layer"
     id="layer1">
    <path
       style="font-size:200px;font-style:normal;font-variant:normal;font-weight:normal;font-stretch:normal;text-align:start;line-height:125%;writing-mode:lr-tb;text-anchor:start;fill:#ffffff;fill-opacity:1;stroke:#000000;stroke-width:1px;stroke-linecap:butt;stroke-linejoin:miter;stroke-opacity:1;font-family:FairydustB"
       d="M 194.597,127.80013 C 197.39642,122.52681 198.79615,118.22994 198.79622,114.9095 C 198.79615,111.52421 198.43808,108.26901 197.722,105.14388 C 197.00579,101.95391 195.67116,98.242978 193.71809,94.011063 C 191.83001,89.779445 188.67247,86.003407 184.24544,82.682938 C 179.88341,79.297684 171.87561,75.684407 160.222,71.843094 C 172.59175,73.601075 181.41336,76.237792 186.68684,79.75325 C 191.96022,83.269034 195.83392,87.045072 198.30794,91.081375 C 200.78183,95.117981 203.41854,100.131 206.21809,106.12044 L 246.84309,202.80013 C 250.3586,211.58922 253.61381,218.71812 256.60872,224.18684 C 259.60338,229.65561 262.40286,233.10612 265.00716,234.53841 C 267.67629,235.9056 270.60598,236.58919 273.79622,236.58919 C 276.98618,236.58919 281.21795,235.35222 286.49153,232.87825 L 281.21809,242.93684 C 263.24921,242.2207 251.69324,242.2207 246.55013,242.93684 C 241.47189,243.65299 237.17502,244.33658 233.6595,244.98763 C 230.14378,245.70377 226.36774,246.84309 222.33138,248.40559 C 218.29483,250.03319 214.32348,251.7259 210.41731,253.48372 C 206.57609,255.24152 200.22844,259.79881 191.37434,267.15559 C 199.5123,257.65037 205.40422,251.85611 209.05013,249.77278 C 212.76098,247.68944 216.53702,245.73632 220.37825,243.91341 C 224.28441,242.15559 227.47451,240.69075 229.94856,239.51888 C 232.42242,238.2819 234.18023,236.88216 235.222,235.31966 C 236.26356,233.69206 236.62164,231.38087 236.29622,228.38606 C 235.9706,225.39129 234.83127,221.45249 232.87825,216.56966 C 230.92503,211.62177 227.66982,203.321 223.11263,191.66731 L 171.35481,203.87434 C 167.44853,213.37958 164.97457,219.98765 163.93294,223.69856 C 162.89124,227.34441 163.15166,230.24154 164.71419,232.38997 C 166.34176,234.47331 168.45764,235.61263 171.06184,235.80794 C 173.73107,235.93815 176.72586,235.58008 180.04622,234.73372 C 183.43159,233.82227 186.0032,231.80404 187.76106,228.67903 C 189.51882,225.48894 190.20241,222.3965 189.81184,219.40169 C 189.48627,216.40692 188.24929,212.98896 186.10091,209.14778 C 190.0071,212.66344 192.28574,216.0814 192.93684,219.40169 C 193.65293,222.72202 193.1321,226.49806 191.37434,230.72981 C 189.61648,234.96159 187.50059,237.95638 185.02669,239.71419 C 182.61778,241.472 176.92118,242.61132 167.93684,243.13216 C 158.95244,243.71809 150.32615,244.95507 142.05794,246.84309 C 133.78971,248.79621 126.04232,251.07486 118.81575,253.67903 C 111.58921,256.34829 104.46031,259.44073 97.429029,262.95638 C 90.397819,266.47198 80.534549,272.98239 67.839189,282.48763 C 79.492889,271.6152 88.672569,263.96547 95.378249,259.53841 C 102.01891,255.11131 109.14781,251.30272 116.76497,248.11263 C 124.31706,244.98762 130.11133,242.74153 134.14778,241.37434 C 138.18423,239.94205 141.6022,238.08659 144.40169,235.80794 C 147.20115,233.5293 151.59568,227.08399 157.58528,216.472 L 194.597,128.28841 L 194.597,127.80013 M 217.25325,180.63216 L 198.79622,137.37044 L 174.47981,194.30403 L 217.25325,181.12044 L 217.25325,180.63216"
       id="text2215" />
  </g>
</svg>
