<?xml version="1.0" encoding="UTF-8" standalone="no"?>
<!-- Created with Inkscape (http://www.inkscape.org/) -->
<svg
   xmlns:dc="http://purl.org/dc/elements/1.1/"
   xmlns:cc="http://web.resource.org/cc/"
   xmlns:rdf="http://www.w3.org/1999/02/22-rdf-syntax-ns#"
   xmlns:svg="http://www.w3.org/2000/svg"
   xmlns="http://www.w3.org/2000/svg"
   xmlns:xlink="http://www.w3.org/1999/xlink"
   xmlns:sodipodi="http://inkscape.sourceforge.net/DTD/sodipodi-0.dtd"
   xmlns:inkscape="http://www.inkscape.org/namespaces/inkscape"
   width="10cm"
   height="10cm"
   id="svg2"
   sodipodi:version="0.32"
   inkscape:version="0.43"
   version="1.0"
   sodipodi:docbase="/home/dylan/src/mfgames/wordplay/src/themes/default"
   sodipodi:docname="character-0057.svg">
  <defs
     id="defs4">
    <linearGradient
       id="linearGradient3952">
      <stop
         style="stop-color:#f8f8f8;stop-opacity:1;"
         offset="0"
         id="stop3954" />
      <stop
         style="stop-color:#000000;stop-opacity:0;"
         offset="1"
         id="stop3956" />
    </linearGradient>
    <linearGradient
       id="linearGradient2184">
      <stop
         style="stop-color:#ffffff;stop-opacity:1;"
         offset="0"
         id="stop2186" />
      <stop
         style="stop-color:#101548;stop-opacity:1;"
         offset="1"
         id="stop2188" />
    </linearGradient>
    <linearGradient
       inkscape:collect="always"
       xlink:href="#linearGradient3952"
       id="linearGradient3958"
       x1="0"
       y1="177.16536"
       x2="144.44875"
       y2="183.59393"
       gradientUnits="userSpaceOnUse" />
    <radialGradient
       inkscape:collect="always"
       xlink:href="#linearGradient2184"
       id="radialGradient2213"
       cx="130.71428"
       cy="121.47358"
       fx="130.71428"
       fy="121.47358"
       r="141.92464"
       gradientUnits="userSpaceOnUse"
       gradientTransform="matrix(-6.599531e-3,1.392562,-1.327138,-6.289479e-3,292.789,-59.79021)" />
  </defs>
  <sodipodi:namedview
     id="base"
     pagecolor="#ffffff"
     bordercolor="#666666"
     borderopacity="1.0"
     inkscape:pageopacity="0"
     inkscape:pageshadow="2"
     inkscape:zoom="1.4"
     inkscape:cx="229.78709"
     inkscape:cy="173.93196"
     inkscape:document-units="cm"
     inkscape:current-layer="layer1"
     showguides="true"
     inkscape:guide-bbox="true"
     inkscape:window-width="1086"
     inkscape:window-height="861"
     inkscape:window-x="44"
     inkscape:window-y="67">
    <sodipodi:guide
       orientation="horizontal"
       position="177.14286"
       id="guide1307" />
    <sodipodi:guide
       orientation="vertical"
       position="177.14286"
       id="guide1309" />
    <sodipodi:guide
       orientation="vertical"
       position="35.433071"
       id="guide1311" />
    <sodipodi:guide
       orientation="vertical"
       position="318.89764"
       id="guide1313" />
    <sodipodi:guide
       orientation="horizontal"
       position="35.433071"
       id="guide1315" />
    <sodipodi:guide
       orientation="horizontal"
       position="318.89764"
       id="guide1317" />
  </sodipodi:namedview>
  <metadata
     id="metadata7">
    <rdf:RDF>
      <cc:Work
         rdf:about="">
        <dc:format>image/svg+xml</dc:format>
        <dc:type
           rdf:resource="http://purl.org/dc/dcmitype/StillImage" />
      </cc:Work>
    </rdf:RDF>
  </metadata>
  <g
     inkscape:label="Layer 1"
     inkscape:groupmode="layer"
     id="layer1">
    <path
       style="font-size:200px;font-style:normal;font-variant:normal;font-weight:normal;font-stretch:normal;text-align:start;line-height:125%;writing-mode:lr-tb;text-anchor:start;fill:#ffffff;fill-opacity:1;stroke:#000000;stroke-width:1px;stroke-linecap:butt;stroke-linejoin:miter;stroke-opacity:1;font-family:FairydustB"
       d="M 66.227859,122.67316 C 74.821656,116.42328 81.657589,112.45193 86.735669,110.7591 C 91.813829,109.06652 97.217469,107.82954 102.94661,107.04816 C 108.67579,106.26704 114.86068,105.81131 121.5013,105.68098 C 128.14192,105.55089 134.97785,105.29048 142.00911,104.89973 C 149.04033,104.50923 155.29033,103.85819 160.75911,102.9466 C 166.22782,102.03527 169.67833,100.21236 171.11067,97.477851 C 172.54291,94.743611 173.12885,92.139451 172.86849,89.665351 C 172.60802,87.191539 171.43614,85.173311 169.35286,83.610664 C 171.69656,84.912895 173.12885,86.149873 173.64974,87.321601 C 174.17052,88.493621 174.36583,90.186327 174.23567,92.399731 C 174.10541,94.613411 173.71479,96.501421 173.0638,98.063791 C 172.41271,99.626421 171.56635,100.99361 170.52474,102.16535 C 169.48302,103.33735 168.05073,104.24881 166.22786,104.89973 C 164.4049,105.55089 162.32157,106.07173 159.97786,106.46223 C 157.63407,106.85298 155.61585,107.37381 153.92317,108.02473 C 152.23043,108.67589 151.05856,109.78266 150.40755,111.34504 C 149.75648,112.90766 149.43096,114.47016 149.43099,116.03254 C 149.43096,117.59515 159.19657,146.63158 178.72786,203.14191 L 201.77474,139.07941 C 197.08716,124.7566 194.02727,116.55349 192.59505,114.47004 C 191.16269,112.38682 189.8606,111.08474 188.6888,110.56379 C 187.51686,110.04308 185.62884,109.71756 183.02474,109.58723 C 180.42051,109.45714 178.53249,109.71756 177.36067,110.36848 C 176.18874,111.01964 175.01687,111.86599 173.84505,112.90754 C 172.67312,113.94932 171.69656,116.55349 170.91536,120.72004 C 170.65489,116.29307 170.91531,113.29828 171.69661,111.73566 C 172.47781,110.17329 173.58458,108.93631 175.01692,108.02473 C 176.44916,107.11339 178.33718,106.33214 180.68099,105.68098 C 183.02467,105.03006 185.23821,104.50923 187.32161,104.11848 C 189.40488,103.72798 191.94394,103.53267 194.9388,103.53254 C 197.93351,103.53267 203.85799,102.10038 212.71224,99.235661 C 212.45173,103.66288 212.32152,107.69933 212.32161,111.34504 C 212.32152,114.99099 222.47776,145.58992 242.79036,203.14191 C 262.32147,146.37117 272.21729,117.00922 272.47786,115.05598 C 272.73813,113.10297 272.67302,111.14985 272.28255,109.1966 C 271.89177,107.2436 271.17563,105.74621 270.13411,104.70441 C 269.0923,103.66288 267.72511,103.01183 266.03255,102.75129 C 264.3397,102.491 262.58189,102.491 260.75911,102.75129 C 258.93606,103.01183 257.37356,103.59777 256.07161,104.5091 C 254.76939,105.42069 253.53242,106.52746 252.36067,107.82941 C 251.18867,109.13162 249.43086,110.62901 247.08724,112.3216 C 244.74336,114.01443 242.26941,115.51182 239.66536,116.81379 C 237.06108,118.11599 234.52202,118.96234 232.04817,119.35285 C 229.57411,119.74359 224.43088,120.32953 216.61849,121.11066 C 224.17047,119.28786 228.98817,118.11599 231.07161,117.59504 C 233.15483,117.07432 235.23816,116.35818 237.32161,115.4466 C 239.40483,114.53526 241.16264,113.36339 242.59505,111.93098 C 244.02722,110.49881 245.78503,109.06652 247.86849,107.6341 C 249.95169,106.20194 251.83971,104.44412 253.53255,102.36066 C 255.22512,100.27746 257.04804,98.389441 259.0013,96.696601 C 260.95428,95.004031 263.10272,93.701951 265.44661,92.790351 C 267.79021,91.879031 270.52459,91.488411 273.64974,91.618481 C 276.77458,91.748821 279.05322,92.139451 280.48567,92.790351 C 281.9178,93.441531 283.21989,94.548301 284.39192,96.110661 C 285.56363,97.673301 286.47509,99.431111 287.1263,101.3841 C 287.77717,103.33735 288.10269,105.29048 288.10286,107.24348 C 288.10269,109.19672 287.77717,111.14985 287.1263,113.10285 C 286.47509,115.05609 285.62874,117.13942 284.58724,119.35285 C 283.54541,121.5665 282.30843,123.78004 280.8763,125.99348 C 279.44385,128.20712 275.21208,136.73576 268.18099,151.57941 L 240.05599,234.78254 C 237.97254,241.03253 236.41004,245.98044 235.36849,249.62629 C 234.32671,253.2721 231.85275,256.78772 227.94661,260.17316 C 224.04026,263.55855 219.35276,267.07417 213.88411,270.72004 C 219.35276,265.77209 223.0637,262.32157 225.01692,260.36848 C 226.96994,258.41532 228.59755,255.94137 229.89974,252.9466 C 231.20171,249.95179 232.30848,246.56638 233.22005,242.79035 C 234.13139,239.0143 234.45691,235.69399 234.19661,232.82941 C 233.93608,229.96483 233.15483,226.97004 231.85286,223.84504 L 205.68099,150.01691 L 176.38411,234.00129 C 174.30072,239.20961 172.47781,242.85544 170.91536,244.93879 C 169.35281,247.02211 167.46479,248.84502 165.2513,250.40754 C 163.03772,251.97002 160.23824,253.2721 156.85286,254.31379 C 161.54032,250.92835 164.53511,248.58461 165.83724,247.28254 C 167.13927,245.98044 168.05073,244.41794 168.57161,242.59504 C 169.0924,240.77211 169.35281,238.49347 169.35286,235.7591 C 169.35281,233.02473 169.1575,230.42056 168.76692,227.9466 C 168.37625,225.47265 155.94137,189.86071 131.46224,121.11066 C 129.63931,117.72536 127.75129,115.70713 125.79817,115.05598 C 123.84505,114.40505 121.82682,113.68891 119.74349,112.90754 C 117.66016,112.12641 114.99089,111.54047 111.73567,111.14973 C 108.48048,110.75922 105.74611,110.56391 103.53255,110.56379 C 101.31903,110.56391 99.105489,110.69412 96.891919,110.95441 C 94.678409,111.21495 92.139349,111.54047 89.274739,111.93098 C 86.410189,112.32172 83.415399,113.29828 80.290359,114.86066 C 77.165409,116.42328 72.608117,118.89724 66.618484,122.28254 L 66.227859,122.67316"
       id="text2215" />
  </g>
</svg>
