<?xml version="1.0" encoding="UTF-8" standalone="no"?>
<!-- Created with Inkscape (http://www.inkscape.org/) -->
<svg
   xmlns:dc="http://purl.org/dc/elements/1.1/"
   xmlns:cc="http://web.resource.org/cc/"
   xmlns:rdf="http://www.w3.org/1999/02/22-rdf-syntax-ns#"
   xmlns:svg="http://www.w3.org/2000/svg"
   xmlns="http://www.w3.org/2000/svg"
   xmlns:xlink="http://www.w3.org/1999/xlink"
   xmlns:sodipodi="http://inkscape.sourceforge.net/DTD/sodipodi-0.dtd"
   xmlns:inkscape="http://www.inkscape.org/namespaces/inkscape"
   width="10cm"
   height="10cm"
   id="svg2"
   sodipodi:version="0.32"
   inkscape:version="0.43"
   version="1.0"
   sodipodi:docbase="/home/dylan/src/mfgames/wordplay/src/themes/default"
   sodipodi:docname="character-0043.svg">
  <defs
     id="defs4">
    <linearGradient
       id="linearGradient3952">
      <stop
         style="stop-color:#f8f8f8;stop-opacity:1;"
         offset="0"
         id="stop3954" />
      <stop
         style="stop-color:#000000;stop-opacity:0;"
         offset="1"
         id="stop3956" />
    </linearGradient>
    <linearGradient
       id="linearGradient2184">
      <stop
         style="stop-color:#ffffff;stop-opacity:1;"
         offset="0"
         id="stop2186" />
      <stop
         style="stop-color:#101548;stop-opacity:1;"
         offset="1"
         id="stop2188" />
    </linearGradient>
    <linearGradient
       inkscape:collect="always"
       xlink:href="#linearGradient3952"
       id="linearGradient3958"
       x1="0"
       y1="177.16536"
       x2="144.44875"
       y2="183.59393"
       gradientUnits="userSpaceOnUse" />
    <radialGradient
       inkscape:collect="always"
       xlink:href="#linearGradient2184"
       id="radialGradient2213"
       cx="130.71428"
       cy="121.47358"
       fx="130.71428"
       fy="121.47358"
       r="141.92464"
       gradientUnits="userSpaceOnUse"
       gradientTransform="matrix(-6.599531e-3,1.392562,-1.327138,-6.289479e-3,292.789,-59.79021)" />
  </defs>
  <sodipodi:namedview
     id="base"
     pagecolor="#ffffff"
     bordercolor="#666666"
     borderopacity="1.0"
     inkscape:pageopacity="0"
     inkscape:pageshadow="2"
     inkscape:zoom="1.4"
     inkscape:cx="229.78709"
     inkscape:cy="173.93196"
     inkscape:document-units="cm"
     inkscape:current-layer="layer1"
     showguides="true"
     inkscape:guide-bbox="true"
     inkscape:window-width="1086"
     inkscape:window-height="861"
     inkscape:window-x="44"
     inkscape:window-y="67">
    <sodipodi:guide
       orientation="horizontal"
       position="177.14286"
       id="guide1307" />
    <sodipodi:guide
       orientation="vertical"
       position="177.14286"
       id="guide1309" />
    <sodipodi:guide
       orientation="vertical"
       position="35.433071"
       id="guide1311" />
    <sodipodi:guide
       orientation="vertical"
       position="318.89764"
       id="guide1313" />
    <sodipodi:guide
       orientation="horizontal"
       position="35.433071"
       id="guide1315" />
    <sodipodi:guide
       orientation="horizontal"
       position="318.89764"
       id="guide1317" />
  </sodipodi:namedview>
  <metadata
     id="metadata7">
    <rdf:RDF>
      <cc:Work
         rdf:about="">
        <dc:format>image/svg+xml</dc:format>
        <dc:type
           rdf:resource="http://purl.org/dc/dcmitype/StillImage" />
      </cc:Work>
    </rdf:RDF>
  </metadata>
  <g
     inkscape:label="Layer 1"
     inkscape:groupmode="layer"
     id="layer1">
    <path
       style="font-size:200px;font-style:normal;font-variant:normal;font-weight:normal;font-stretch:normal;text-align:start;line-height:125%;writing-mode:lr-tb;text-anchor:start;fill:#ffffff;fill-opacity:1;stroke:#000000;stroke-width:1px;stroke-linecap:butt;stroke-linejoin:miter;stroke-opacity:1;font-family:FairydustB"
       d="M 180.19849,184.90356 C 195.6932,179.56508 205.10074,174.45441 208.42115,169.57153 C 211.80646,164.62369 214.02,159.87109 215.06178,155.31371 C 216.10333,150.69141 216.00568,146.29689 214.76881,142.13012 C 213.53172,137.89846 211.31818,134.12242 208.12818,130.80199 C 205.00308,127.4167 200.60856,124.68233 194.94459,122.59887 C 189.34555,120.45056 184.07211,119.474 179.12428,119.66918 C 174.17629,119.79952 168.60989,121.1016 162.42506,123.57543 C 156.30522,126.04951 151.2271,129.59769 147.19068,134.21996 C 143.15419,138.77736 139.54091,144.57163 136.35084,151.60278 C 133.16071,158.63411 131.20758,166.54426 130.49146,175.33324 C 129.8404,184.12237 130.39378,192.5859 132.15162,200.72387 C 133.9094,208.79683 136.2857,215.47 139.28053,220.7434 C 142.27528,226.01686 146.21408,230.41139 151.09693,233.92699 C 156.0448,237.44263 161.57865,240.01424 167.69849,241.64184 C 173.88332,243.20434 180.23097,243.56242 186.74146,242.71606 C 193.3169,241.8046 199.24137,239.78638 204.5149,236.66137 C 209.78824,233.47128 213.56427,230.73691 215.84303,228.45824 C 218.12156,226.11452 221.44187,221.36192 225.80396,214.20043 C 230.23092,206.97391 236.18795,193.49736 243.67506,173.77074 C 237.94576,192.78122 234.29993,205.02079 232.73756,210.48949 C 231.17493,215.89317 228.24525,221.78509 223.94849,228.16528 C 219.71661,234.5455 214.70359,239.75383 208.90943,243.79028 C 203.11506,247.82673 196.34424,250.62621 188.59693,252.18871 C 180.84946,253.75121 172.93931,253.81631 164.86646,252.38403 C 156.7935,251.01684 149.92501,248.67309 144.26099,245.35278 C 138.662,241.96736 132.77008,236.95435 126.58521,230.31371 C 120.4003,223.60801 115.97322,215.24213 113.30396,205.21606 C 110.69979,195.12496 110.0162,185.00128 111.25318,174.84496 C 112.49016,164.62369 115.02922,155.63933 118.87037,147.89184 C 122.7766,140.14455 128.24535,133.27607 135.27662,127.28637 C 142.30783,121.29691 149.85991,117.26046 157.93287,115.17699 C 166.07083,113.02869 172.93931,112.14979 178.53834,112.54028 C 184.20232,112.86593 189.93148,114.16801 195.72584,116.44653 C 201.58512,118.7253 205.71923,119.86462 208.12818,119.86449 C 210.60204,119.86462 212.26219,118.6602 213.10865,116.25121 C 214.02,113.77739 212.71792,108.66672 209.2024,100.91918 C 217.34031,107.95057 222.02781,113.67973 223.2649,118.10668 C 224.50176,122.46879 225.38067,127.22139 225.90162,132.36449 C 226.42233,137.44273 225.9666,142.97658 224.53443,148.96606 C 223.10202,154.95573 221.66973,159.08984 220.23756,161.3684 C 218.87026,163.64713 215.97312,167.26041 211.54615,172.20824 C 207.18407,177.09113 199.89241,180.96482 189.67115,183.82934 L 180.19849,184.90356"
       id="text2215" />
  </g>
</svg>
