<?xml version="1.0" encoding="UTF-8" standalone="no"?>
<!-- Created with Inkscape (http://www.inkscape.org/) -->
<svg
   xmlns:dc="http://purl.org/dc/elements/1.1/"
   xmlns:cc="http://web.resource.org/cc/"
   xmlns:rdf="http://www.w3.org/1999/02/22-rdf-syntax-ns#"
   xmlns:svg="http://www.w3.org/2000/svg"
   xmlns="http://www.w3.org/2000/svg"
   xmlns:xlink="http://www.w3.org/1999/xlink"
   xmlns:sodipodi="http://inkscape.sourceforge.net/DTD/sodipodi-0.dtd"
   xmlns:inkscape="http://www.inkscape.org/namespaces/inkscape"
   width="10cm"
   height="10cm"
   id="svg2"
   sodipodi:version="0.32"
   inkscape:version="0.43"
   version="1.0"
   sodipodi:docbase="/home/dylan/src/mfgames/wordplay/src/themes/default"
   sodipodi:docname="character-0058.svg">
  <defs
     id="defs4">
    <linearGradient
       id="linearGradient3952">
      <stop
         style="stop-color:#f8f8f8;stop-opacity:1;"
         offset="0"
         id="stop3954" />
      <stop
         style="stop-color:#000000;stop-opacity:0;"
         offset="1"
         id="stop3956" />
    </linearGradient>
    <linearGradient
       id="linearGradient2184">
      <stop
         style="stop-color:#ffffff;stop-opacity:1;"
         offset="0"
         id="stop2186" />
      <stop
         style="stop-color:#101548;stop-opacity:1;"
         offset="1"
         id="stop2188" />
    </linearGradient>
    <linearGradient
       inkscape:collect="always"
       xlink:href="#linearGradient3952"
       id="linearGradient3958"
       x1="0"
       y1="177.16536"
       x2="144.44875"
       y2="183.59393"
       gradientUnits="userSpaceOnUse" />
    <radialGradient
       inkscape:collect="always"
       xlink:href="#linearGradient2184"
       id="radialGradient2213"
       cx="130.71428"
       cy="121.47358"
       fx="130.71428"
       fy="121.47358"
       r="141.92464"
       gradientUnits="userSpaceOnUse"
       gradientTransform="matrix(-6.599531e-3,1.392562,-1.327138,-6.289479e-3,292.789,-59.79021)" />
  </defs>
  <sodipodi:namedview
     id="base"
     pagecolor="#ffffff"
     bordercolor="#666666"
     borderopacity="1.0"
     inkscape:pageopacity="0"
     inkscape:pageshadow="2"
     inkscape:zoom="1.4"
     inkscape:cx="229.78709"
     inkscape:cy="173.93196"
     inkscape:document-units="cm"
     inkscape:current-layer="layer1"
     showguides="true"
     inkscape:guide-bbox="true"
     inkscape:window-width="1086"
     inkscape:window-height="861"
     inkscape:window-x="44"
     inkscape:window-y="67">
    <sodipodi:guide
       orientation="horizontal"
       position="177.14286"
       id="guide1307" />
    <sodipodi:guide
       orientation="vertical"
       position="177.14286"
       id="guide1309" />
    <sodipodi:guide
       orientation="vertical"
       position="35.433071"
       id="guide1311" />
    <sodipodi:guide
       orientation="vertical"
       position="318.89764"
       id="guide1313" />
    <sodipodi:guide
       orientation="horizontal"
       position="35.433071"
       id="guide1315" />
    <sodipodi:guide
       orientation="horizontal"
       position="318.89764"
       id="guide1317" />
  </sodipodi:namedview>
  <metadata
     id="metadata7">
    <rdf:RDF>
      <cc:Work
         rdf:about="">
        <dc:format>image/svg+xml</dc:format>
        <dc:type
           rdf:resource="http://purl.org/dc/dcmitype/StillImage" />
      </cc:Work>
    </rdf:RDF>
  </metadata>
  <g
     inkscape:label="Layer 1"
     inkscape:groupmode="layer"
     id="layer1">
    <path
       style="font-size:200px;font-style:normal;font-variant:normal;font-weight:normal;font-stretch:normal;text-align:start;line-height:125%;writing-mode:lr-tb;text-anchor:start;fill:#ffffff;fill-opacity:1;stroke:#000000;stroke-width:1px;stroke-linecap:butt;stroke-linejoin:miter;stroke-opacity:1;font-family:FairydustB"
       d="M 63.493484,132.04817 C 75.73312,125.27745 85.368527,120.85038 92.399734,118.76692 C 99.431013,116.68371 106.98309,114.99101 115.05598,113.6888 C 123.12891,112.38684 130.29036,111.60559 136.54036,111.34505 C 142.79035,111.08476 149.10544,111.08476 155.48567,111.34505 C 161.86585,111.60559 167.00907,111.28007 170.91536,110.36848 C 174.82156,109.45716 178.79291,108.28528 182.82942,106.85286 C 186.86582,105.4207 189.14447,103.66289 189.66536,101.57942 C 190.18613,99.49623 190.38144,97.282691 190.2513,94.938797 C 190.12103,92.595195 189.40488,90.77228 188.10286,89.470047 C 186.80072,88.168116 184.19655,86.996243 180.29036,85.954422 C 184.19655,86.214993 186.80072,86.670722 188.10286,87.321609 C 189.40488,87.972804 190.44655,88.884261 191.22786,90.055984 C 192.00905,91.228009 192.46477,92.790508 192.59505,94.743484 C 192.72519,96.696754 192.52988,98.649877 192.00911,100.60286 C 191.48821,102.55612 190.57676,104.44414 189.27473,106.26692 C 187.97259,108.08997 186.4752,109.39205 184.78255,110.17317 C 183.08978,110.95455 180.81114,111.7358 177.94661,112.51692 C 175.08198,113.2983 172.86844,114.66549 171.30598,116.61848 C 169.74344,118.57173 169.28771,120.45975 169.9388,122.28255 C 170.5898,124.10558 171.37105,126.25402 172.28255,128.72786 C 173.19396,131.20193 180.02989,141.68369 192.79036,160.17317 L 220.91536,125.40755 C 222.21735,121.241 222.60797,118.37642 222.08723,116.8138 C 221.56631,115.25142 220.65485,114.01444 219.35286,113.10286 C 218.05069,112.19153 216.42308,111.6707 214.47005,111.54036 C 212.51684,111.41028 210.69392,111.47538 209.0013,111.73567 C 207.30851,111.99622 205.5507,112.58215 203.72786,113.49348 C 201.90487,114.40507 200.53768,115.57694 199.6263,117.00911 C 198.71477,118.44152 197.47779,120.85038 195.91536,124.23567 L 197.47786,117.59505 C 199.56112,114.20976 201.12362,112.12643 202.16536,111.34505 C 203.20695,110.56393 204.57414,109.91289 206.26692,109.39192 C 207.95955,108.87122 210.49861,108.5457 213.88411,108.41536 C 217.26944,108.28528 221.89183,108.28528 227.7513,108.41536 C 233.61057,108.5457 238.10275,108.35039 241.22786,107.82942 C 244.35274,107.30872 247.67305,106.78789 251.1888,106.26692 C 254.7043,105.74622 258.35013,104.63945 262.1263,102.94661 C 265.9022,101.25404 269.28761,100.01706 272.28255,99.235672 C 275.27719,98.454564 277.75115,98.194148 279.70442,98.454422 C 281.65739,98.714981 283.4152,99.105605 284.97786,99.626297 C 286.5402,100.14727 288.49332,101.18894 290.83723,102.7513 C 287.97249,101.97019 285.69385,101.38425 284.0013,100.99348 C 282.30843,100.603 280.48552,100.5379 278.53255,100.79817 C 276.57927,101.05873 274.49594,101.57956 272.28255,102.36067 C 270.06886,103.14206 267.59491,103.98841 264.86067,104.89973 C 262.12616,105.81133 259.4569,106.85299 256.85286,108.02473 C 254.24857,109.19674 251.25378,110.56393 247.86848,112.1263 C 244.48295,113.68892 241.61837,115.51184 239.27473,117.59505 C 236.93088,119.6785 234.0663,122.73839 230.68098,126.77473 C 227.29547,130.8113 216.6184,144.54827 198.64973,167.98567 L 237.32161,225.79817 C 241.48816,229.1836 244.35274,231.33204 245.91536,232.24348 C 247.47774,233.15495 249.30066,233.67578 251.38411,233.80598 C 253.46732,233.9362 256.397,233.35026 260.17317,232.04817 C 263.94908,230.7461 267.13918,229.44402 269.74348,228.14192 L 266.22786,241.42317 C 238.62358,240.90234 222.15224,240.70703 216.8138,240.83723 C 211.47517,240.96744 207.04809,241.55338 203.53255,242.59505 C 200.01685,243.63671 195.85019,245.19921 191.03255,247.28255 C 186.21478,249.36587 182.50385,251.57941 179.89973,253.92317 C 177.29552,256.26691 174.04031,259.2617 170.13411,262.90755 C 176.38406,255.35545 180.87624,250.40754 183.61067,248.0638 C 186.34499,245.72004 189.33978,243.89713 192.59505,242.59505 C 195.85019,241.29296 198.77987,240.12109 201.38411,239.07942 C 203.9882,238.03776 206.26684,237.1263 208.22005,236.34505 C 210.17309,235.5638 211.8658,234.26172 213.29817,232.4388 C 214.73038,230.61589 215.38142,228.72787 215.2513,226.77473 C 215.121,224.82163 213.75382,222.41277 211.14973,219.54817 L 186.14973,181.65755 L 155.68098,221.89192 C 153.07679,226.57944 152.16534,229.76954 152.94661,231.46223 C 153.72783,233.15495 155.16012,234.19662 157.24348,234.58723 C 159.32679,234.97787 160.95439,234.97787 162.1263,234.58723 C 163.29814,234.19662 164.20959,233.48047 164.86067,232.4388 C 165.51168,231.39714 165.8372,230.16016 165.83723,228.72786 C 165.8372,227.29558 165.05595,225.27735 163.49348,222.67317 C 165.31636,223.97527 166.42313,225.14715 166.8138,226.1888 C 167.20438,227.23048 167.3997,228.59766 167.39973,230.29036 C 167.3997,231.98308 167.26949,233.61068 167.00911,235.17317 C 166.74865,236.73568 166.03251,237.77734 164.86067,238.29817 C 163.68876,238.81901 160.82418,239.40494 156.26692,240.05598 C 151.70961,240.70703 146.95701,240.90234 142.00911,240.64192 C 137.06118,240.38151 131.33202,240.57682 124.82161,241.22786 C 118.3112,241.8789 111.60548,243.63671 104.70442,246.5013 C 97.803411,249.36587 93.246124,251.4492 91.032547,252.7513 C 88.819045,254.05337 86.019568,256.2018 82.634109,259.19661 C 79.248742,262.19138 75.863329,265.25127 72.477859,268.3763 C 78.467493,261.60544 82.764363,256.98305 85.368484,254.50911 C 87.972692,252.03514 90.837272,249.8867 93.962234,248.0638 C 97.087266,246.24087 100.47268,244.28775 104.11848,242.20442 C 107.76434,240.12109 111.21486,238.55859 114.47005,237.51692 C 117.72527,236.47526 121.30599,235.30339 125.21223,234.0013 C 129.11848,232.69922 132.63411,231.20183 135.75911,229.50911 C 138.8841,227.81641 141.94399,225.40756 144.9388,222.28255 C 147.93357,219.15757 160.23824,203.66279 181.85286,175.79817 L 146.69661,124.6263 C 143.57159,122.02225 140.83722,120.32954 138.49348,119.54817 C 136.14973,118.76704 133.41535,118.116 130.29036,117.59505 C 127.16536,117.07434 122.93359,116.87903 117.59505,117.00911 C 112.25652,117.13944 107.1133,117.72538 102.16536,118.76692 C 97.217474,119.80871 92.595083,120.98058 88.298172,122.28255 C 84.001341,123.58475 75.73312,126.83995 63.493484,132.04817"
       id="text2215" />
  </g>
</svg>
