<?xml version="1.0" encoding="UTF-8" standalone="no"?>
<!-- Created with Inkscape (http://www.inkscape.org/) -->
<svg
   xmlns:dc="http://purl.org/dc/elements/1.1/"
   xmlns:cc="http://web.resource.org/cc/"
   xmlns:rdf="http://www.w3.org/1999/02/22-rdf-syntax-ns#"
   xmlns:svg="http://www.w3.org/2000/svg"
   xmlns="http://www.w3.org/2000/svg"
   xmlns:xlink="http://www.w3.org/1999/xlink"
   xmlns:sodipodi="http://inkscape.sourceforge.net/DTD/sodipodi-0.dtd"
   xmlns:inkscape="http://www.inkscape.org/namespaces/inkscape"
   width="10cm"
   height="10cm"
   id="svg2"
   sodipodi:version="0.32"
   inkscape:version="0.43"
   version="1.0"
   sodipodi:docbase="/home/dylan/src/mfgames/wordplay/src/themes/default"
   sodipodi:docname="character-004c.svg">
  <defs
     id="defs4">
    <linearGradient
       id="linearGradient3952">
      <stop
         style="stop-color:#f8f8f8;stop-opacity:1;"
         offset="0"
         id="stop3954" />
      <stop
         style="stop-color:#000000;stop-opacity:0;"
         offset="1"
         id="stop3956" />
    </linearGradient>
    <linearGradient
       id="linearGradient2184">
      <stop
         style="stop-color:#ffffff;stop-opacity:1;"
         offset="0"
         id="stop2186" />
      <stop
         style="stop-color:#101548;stop-opacity:1;"
         offset="1"
         id="stop2188" />
    </linearGradient>
    <linearGradient
       inkscape:collect="always"
       xlink:href="#linearGradient3952"
       id="linearGradient3958"
       x1="0"
       y1="177.16536"
       x2="144.44875"
       y2="183.59393"
       gradientUnits="userSpaceOnUse" />
    <radialGradient
       inkscape:collect="always"
       xlink:href="#linearGradient2184"
       id="radialGradient2213"
       cx="130.71428"
       cy="121.47358"
       fx="130.71428"
       fy="121.47358"
       r="141.92464"
       gradientUnits="userSpaceOnUse"
       gradientTransform="matrix(-6.599531e-3,1.392562,-1.327138,-6.289479e-3,292.789,-59.79021)" />
  </defs>
  <sodipodi:namedview
     id="base"
     pagecolor="#ffffff"
     bordercolor="#666666"
     borderopacity="1.0"
     inkscape:pageopacity="0"
     inkscape:pageshadow="2"
     inkscape:zoom="1.4"
     inkscape:cx="229.78709"
     inkscape:cy="173.93196"
     inkscape:document-units="cm"
     inkscape:current-layer="layer1"
     showguides="true"
     inkscape:guide-bbox="true"
     inkscape:window-width="1086"
     inkscape:window-height="861"
     inkscape:window-x="44"
     inkscape:window-y="67">
    <sodipodi:guide
       orientation="horizontal"
       position="177.14286"
       id="guide1307" />
    <sodipodi:guide
       orientation="vertical"
       position="177.14286"
       id="guide1309" />
    <sodipodi:guide
       orientation="vertical"
       position="35.433071"
       id="guide1311" />
    <sodipodi:guide
       orientation="vertical"
       position="318.89764"
       id="guide1313" />
    <sodipodi:guide
       orientation="horizontal"
       position="35.433071"
       id="guide1315" />
    <sodipodi:guide
       orientation="horizontal"
       position="318.89764"
       id="guide1317" />
  </sodipodi:namedview>
  <metadata
     id="metadata7">
    <rdf:RDF>
      <cc:Work
         rdf:about="">
        <dc:format>image/svg+xml</dc:format>
        <dc:type
           rdf:resource="http://purl.org/dc/dcmitype/StillImage" />
      </cc:Work>
    </rdf:RDF>
  </metadata>
  <g
     inkscape:label="Layer 1"
     inkscape:groupmode="layer"
     id="layer1">
    <path
       style="font-size:200px;font-style:normal;font-variant:normal;font-weight:normal;font-stretch:normal;text-align:start;line-height:125%;writing-mode:lr-tb;text-anchor:start;fill:#ffffff;fill-opacity:1;stroke:#000000;stroke-width:1px;stroke-linecap:butt;stroke-linejoin:miter;stroke-opacity:1;font-family:FairydustB"
       d="M 98.475392,129.26497 C 106.48324,123.40571 112.99365,119.69478 118.00664,118.13215 C 123.01968,116.56978 127.93504,115.39791 132.75274,114.61653 C 137.50534,113.83541 142.3556,113.24947 147.30352,112.85872 C 152.31652,112.46822 157.4272,112.27291 162.63555,112.27278 C 167.84385,112.27291 173.01963,112.17525 178.16289,111.97981 C 183.37118,111.78463 188.41675,111.65442 193.29961,111.58919 C 198.24747,111.45911 201.92585,110.80807 204.33477,109.63606 C 206.80866,108.46432 208.56647,106.96693 209.60821,105.14387 C 210.7149,103.25599 211.30084,101.04245 211.36602,98.503252 C 211.49615,95.899232 210.78001,93.620588 209.21758,91.667314 C 211.17063,94.011213 212.24485,96.322409 212.44024,98.600908 C 212.63547,100.87969 212.2774,103.3862 211.36602,106.12044 C 210.51959,108.85494 208.63157,110.90572 205.70196,112.27278 C 202.7722,113.6401 199.61465,114.48645 196.2293,114.81184 C 192.90893,115.07239 190.0118,115.85364 187.53789,117.15559 C 185.12899,118.39269 183.37118,120.44347 182.26446,123.30794 C 181.22274,126.10753 180.70191,131.73904 180.70196,140.20247 L 180.99492,224.47981 C 181.3855,227.80014 182.0691,230.11133 183.04571,231.4134 C 184.02222,232.65039 185.58472,233.43164 187.73321,233.75715 C 189.88159,234.01758 193.2019,234.21289 197.69414,234.34309 C 202.25137,234.4082 209.11985,234.21289 218.29961,233.75715 C 227.54431,233.23633 233.82686,232.45508 237.14727,231.4134 C 240.46748,230.30665 243.2344,228.54883 245.44805,226.13997 C 247.72658,223.66603 249.35419,221.32228 250.33086,219.10872 C 251.30731,216.8301 251.9909,214.03062 252.38164,210.71028 C 252.77215,207.3249 252.51174,204.06969 251.60039,200.94465 C 250.75392,197.8197 249.06122,195.3783 246.52227,193.62044 C 243.9831,191.86267 241.24873,191.04887 238.31914,191.17903 C 235.38936,191.24418 233.14327,191.96033 231.58086,193.32747 C 230.01827,194.6947 229.23702,196.45251 229.23711,198.6009 C 229.23702,200.74938 229.92061,202.31188 231.28789,203.2884 C 232.65498,204.265 233.92451,204.33011 235.09649,203.48372 C 236.26826,202.5723 236.8542,200.84704 236.8543,198.30794 C 237.24482,200.84704 236.88675,202.86527 235.78008,204.36262 C 234.73832,205.79495 233.56644,206.31578 232.26446,205.92512 C 231.02738,205.53453 229.75785,204.16735 228.45586,201.82356 C 227.15369,199.47985 226.89327,197.03845 227.67461,194.49934 C 228.52087,191.96033 230.5391,190.20252 233.7293,189.2259 C 236.98441,188.2494 240.30472,188.34705 243.69024,189.51887 C 247.14065,190.6908 249.87502,192.80668 251.89336,195.86653 C 253.97658,198.86136 255.21356,202.24678 255.6043,206.02278 C 255.9948,209.73375 255.9297,212.9564 255.40899,215.69075 C 254.95314,218.42515 254.3672,221.22462 253.65117,224.08919 C 253.00002,226.88868 251.82814,229.33008 250.13555,231.4134 C 248.50783,233.43164 246.81513,235.71029 245.05742,238.24934 C 243.29951,240.78841 242.12763,243.42512 241.5418,246.1595 C 240.95576,248.95897 240.76045,251.46548 240.95586,253.67903 C 241.15107,255.95766 242.12763,258.1712 243.88555,260.31965 L 239.78399,257.097 C 238.4167,252.80011 237.14717,248.47069 235.97539,244.10872 L 156.58086,243.9134 C 141.73711,244.49934 131.87384,245.67121 126.99102,247.42903 C 122.04312,249.18684 118.29963,251.23761 115.76055,253.58137 C 113.22151,255.92511 111.17073,258.95245 109.60821,262.6634 C 110.58479,258.36651 112.01708,255.14386 113.90508,252.99544 C 115.72802,250.84699 118.62515,248.73111 122.59649,246.64778 C 126.50275,244.56444 130.70196,243.22981 135.19414,242.64387 C 139.68633,242.05794 143.29961,241.43945 146.03399,240.7884 C 148.76835,240.07226 151.04699,239.32356 152.86992,238.54231 C 154.75793,237.76107 156.58084,236.49154 158.33867,234.73372 C 160.16157,232.97591 161.20323,231.12045 161.46367,229.16731 C 161.78917,227.2142 162.04959,223.89389 162.24492,219.20637 L 162.24492,126.04231 C 161.26834,122.52681 159.83605,119.89009 157.94805,118.13215 C 156.06001,116.37447 152.60949,115.49556 147.59649,115.49544 C 142.64856,115.49556 137.79831,115.78853 133.04571,116.37434 C 128.22801,116.9604 123.31265,118.00207 118.29961,119.49934 C 113.28661,120.93175 106.7762,124.18696 98.768362,129.26497 L 98.475392,129.26497"
       id="text2215" />
  </g>
</svg>
