<?xml version="1.0" encoding="UTF-8" standalone="no"?>
<!-- Created with Inkscape (http://www.inkscape.org/) -->
<svg
   xmlns:dc="http://purl.org/dc/elements/1.1/"
   xmlns:cc="http://web.resource.org/cc/"
   xmlns:rdf="http://www.w3.org/1999/02/22-rdf-syntax-ns#"
   xmlns:svg="http://www.w3.org/2000/svg"
   xmlns="http://www.w3.org/2000/svg"
   xmlns:xlink="http://www.w3.org/1999/xlink"
   xmlns:sodipodi="http://inkscape.sourceforge.net/DTD/sodipodi-0.dtd"
   xmlns:inkscape="http://www.inkscape.org/namespaces/inkscape"
   width="10cm"
   height="10cm"
   id="svg2"
   sodipodi:version="0.32"
   inkscape:version="0.43"
   version="1.0"
   sodipodi:docbase="/home/dylan/src/mfgames/wordplay/src/themes/default"
   sodipodi:docname="character-0055.svg">
  <defs
     id="defs4">
    <linearGradient
       id="linearGradient3952">
      <stop
         style="stop-color:#f8f8f8;stop-opacity:1;"
         offset="0"
         id="stop3954" />
      <stop
         style="stop-color:#000000;stop-opacity:0;"
         offset="1"
         id="stop3956" />
    </linearGradient>
    <linearGradient
       id="linearGradient2184">
      <stop
         style="stop-color:#ffffff;stop-opacity:1;"
         offset="0"
         id="stop2186" />
      <stop
         style="stop-color:#101548;stop-opacity:1;"
         offset="1"
         id="stop2188" />
    </linearGradient>
    <linearGradient
       inkscape:collect="always"
       xlink:href="#linearGradient3952"
       id="linearGradient3958"
       x1="0"
       y1="177.16536"
       x2="144.44875"
       y2="183.59393"
       gradientUnits="userSpaceOnUse" />
    <radialGradient
       inkscape:collect="always"
       xlink:href="#linearGradient2184"
       id="radialGradient2213"
       cx="130.71428"
       cy="121.47358"
       fx="130.71428"
       fy="121.47358"
       r="141.92464"
       gradientUnits="userSpaceOnUse"
       gradientTransform="matrix(-6.599531e-3,1.392562,-1.327138,-6.289479e-3,292.789,-59.79021)" />
  </defs>
  <sodipodi:namedview
     id="base"
     pagecolor="#ffffff"
     bordercolor="#666666"
     borderopacity="1.0"
     inkscape:pageopacity="0"
     inkscape:pageshadow="2"
     inkscape:zoom="1.4"
     inkscape:cx="229.78709"
     inkscape:cy="173.93196"
     inkscape:document-units="cm"
     inkscape:current-layer="layer1"
     showguides="true"
     inkscape:guide-bbox="true"
     inkscape:window-width="1086"
     inkscape:window-height="861"
     inkscape:window-x="44"
     inkscape:window-y="67">
    <sodipodi:guide
       orientation="horizontal"
       position="177.14286"
       id="guide1307" />
    <sodipodi:guide
       orientation="vertical"
       position="177.14286"
       id="guide1309" />
    <sodipodi:guide
       orientation="vertical"
       position="35.433071"
       id="guide1311" />
    <sodipodi:guide
       orientation="vertical"
       position="318.89764"
       id="guide1313" />
    <sodipodi:guide
       orientation="horizontal"
       position="35.433071"
       id="guide1315" />
    <sodipodi:guide
       orientation="horizontal"
       position="318.89764"
       id="guide1317" />
  </sodipodi:namedview>
  <metadata
     id="metadata7">
    <rdf:RDF>
      <cc:Work
         rdf:about="">
        <dc:format>image/svg+xml</dc:format>
        <dc:type
           rdf:resource="http://purl.org/dc/dcmitype/StillImage" />
      </cc:Work>
    </rdf:RDF>
  </metadata>
  <g
     inkscape:label="Layer 1"
     inkscape:groupmode="layer"
     id="layer1">
    <path
       style="font-size:200px;font-style:normal;font-variant:normal;font-weight:normal;font-stretch:normal;text-align:start;line-height:125%;writing-mode:lr-tb;text-anchor:start;fill:#ffffff;fill-opacity:1;stroke:#000000;stroke-width:1px;stroke-linecap:butt;stroke-linejoin:miter;stroke-opacity:1;font-family:FairydustB"
       d="M 79.560844,140.56381 C 86.201508,134.76965 92.744468,130.76575 99.189748,128.55209 C 105.56998,126.33867 111.4619,124.71107 116.86553,123.66928 C 122.26918,122.56264 128.61683,121.91159 135.9085,121.71615 C 143.26526,121.45587 150.13374,121.19545 156.51397,120.9349 C 162.95925,120.60951 168.68841,120.15378 173.70147,119.56772 C 178.71444,118.98191 182.97876,117.77748 186.49444,115.95443 C 190.01,114.13165 192.84203,110.909 194.99053,106.28646 C 194.40453,109.15119 193.36286,111.49494 191.86553,113.31772 C 190.36807,115.07566 188.34985,116.76837 185.81085,118.39584 C 183.33683,119.95847 179.98397,121.1629 175.75225,122.00912 C 171.58554,122.7905 167.84205,124.12513 164.52178,126.01303 C 161.20144,127.90117 158.9879,130.50534 157.88116,133.82553 C 156.77436,137.14595 156.12332,140.85689 155.92803,144.95834 C 155.73269,149.06 155.73269,155.83083 155.92803,165.27084 C 156.12332,174.71102 156.51394,186.46231 157.09991,200.52475 C 157.75092,214.52218 159.8668,224.54821 163.44757,230.60287 C 167.02825,236.59247 171.78085,240.59637 177.70538,242.61459 C 183.6298,244.56772 189.00089,245.54428 193.81866,245.54428 C 198.63629,245.54428 203.94228,244.66538 209.73663,242.90756 C 215.59591,241.08465 220.2183,238.31773 223.60382,234.60678 C 226.98913,230.89586 229.59329,225.52477 231.41632,218.4935 C 233.23912,211.46229 233.92272,202.9011 233.4671,192.8099 C 233.07636,182.65372 232.7834,171.78134 232.58819,160.19272 C 232.39277,148.53917 232.0347,140.3035 231.51397,135.48568 C 231.05814,130.6681 230.08157,127.38034 228.58428,125.6224 C 227.08679,123.79961 224.9709,122.59519 222.23663,122.00912 C 219.50216,121.35821 215.59591,121.32566 210.51788,121.91147 C 205.43967,122.49753 199.97093,125.9155 194.11163,132.16537 C 198.53864,126.17591 202.41233,122.43243 205.73272,120.9349 C 209.05295,119.43764 212.69878,118.29832 216.67022,117.51693 C 220.70658,116.67071 226.11022,116.4103 232.88116,116.73568 C 239.71698,116.99623 245.73911,117.12644 250.94757,117.12631 C 256.15577,117.12644 260.87581,116.4754 265.10772,115.17318 C 269.33935,113.87124 271.65054,112.24363 272.04132,110.29037 C 272.43179,108.27228 272.43179,106.44937 272.04132,104.82162 C 271.65054,103.19416 270.67398,102.1525 269.11163,101.69662 C 267.61409,101.17594 265.88883,101.4038 263.93585,102.38021 C 265.69352,100.81786 267.25602,100.03662 268.62335,100.03646 C 270.05549,100.03662 271.22737,100.29703 272.13897,100.81771 C 273.05028,101.27359 273.70132,102.2176 274.0921,103.64975 C 274.48257,105.01708 274.77554,106.70979 274.971,108.72787 C 275.23127,110.74624 274.9383,112.56916 274.0921,114.19662 C 273.3107,115.75926 272.20393,117.06134 270.77178,118.10287 C 269.40445,119.07957 267.71175,119.86081 265.69366,120.44662 C 263.67529,121.03269 261.46175,121.55352 259.05303,122.00912 C 256.64405,122.39987 254.03988,122.88816 251.24053,123.47397 C 248.44093,124.06003 246.12974,125.62253 244.30694,128.16147 C 242.54901,130.63554 241.44224,134.15117 240.98663,138.70834 C 240.59589,143.20064 240.33547,150.72016 240.20538,161.26693 C 240.14016,171.74878 240.14016,180.47273 240.20538,187.43881 C 240.33547,194.33991 240.30292,200.13417 240.10772,204.82162 C 239.91229,209.50916 239.42401,214.61983 238.64288,220.15365 C 237.86151,225.68753 236.16881,230.57034 233.56475,234.80209 C 230.96048,238.96877 227.73783,242.41929 223.89678,245.15365 C 220.05554,247.82293 215.36805,249.93881 209.83428,251.50131 C 204.36545,253.12891 198.50609,254.04037 192.25616,254.23568 C 186.0712,254.43099 180.40715,254.13802 175.26397,253.35678 C 170.1858,252.57553 164.94492,250.98048 159.54132,248.57162 C 154.13764,246.16277 149.93843,242.54949 146.94366,237.73178 C 143.94885,232.91409 141.6702,226.7943 140.10772,219.3724 C 138.61031,211.95057 137.89417,204.23573 137.95928,196.22787 C 138.08948,188.22012 138.15458,179.2032 138.1546,169.17709 C 138.15458,159.15114 138.08948,151.04568 137.95928,144.86068 C 137.89417,138.6108 137.50354,134.28137 136.78741,131.8724 C 136.13636,129.46367 134.24834,127.77096 131.12335,126.79428 C 127.99834,125.75274 124.25486,125.45977 119.89288,125.91537 C 115.4658,126.30612 110.6481,127.21758 105.43975,128.64975 C 100.23144,130.01705 95.967128,131.44934 92.646778,132.94662 C 89.326508,134.44413 84.866878,137.21106 79.267876,141.2474 L 79.560844,140.56381"
       id="text2215" />
  </g>
</svg>
