<?xml version="1.0" encoding="UTF-8" standalone="no"?>
<!-- Created with Inkscape (http://www.inkscape.org/) -->
<svg
   xmlns:dc="http://purl.org/dc/elements/1.1/"
   xmlns:cc="http://web.resource.org/cc/"
   xmlns:rdf="http://www.w3.org/1999/02/22-rdf-syntax-ns#"
   xmlns:svg="http://www.w3.org/2000/svg"
   xmlns="http://www.w3.org/2000/svg"
   xmlns:xlink="http://www.w3.org/1999/xlink"
   xmlns:sodipodi="http://inkscape.sourceforge.net/DTD/sodipodi-0.dtd"
   xmlns:inkscape="http://www.inkscape.org/namespaces/inkscape"
   width="10cm"
   height="10cm"
   id="svg2"
   sodipodi:version="0.32"
   inkscape:version="0.43"
   version="1.0"
   sodipodi:docbase="/home/dylan/src/mfgames/wordplay/src/themes/default"
   sodipodi:docname="character-0045.svg">
  <defs
     id="defs4">
    <linearGradient
       id="linearGradient3952">
      <stop
         style="stop-color:#f8f8f8;stop-opacity:1;"
         offset="0"
         id="stop3954" />
      <stop
         style="stop-color:#000000;stop-opacity:0;"
         offset="1"
         id="stop3956" />
    </linearGradient>
    <linearGradient
       id="linearGradient2184">
      <stop
         style="stop-color:#ffffff;stop-opacity:1;"
         offset="0"
         id="stop2186" />
      <stop
         style="stop-color:#101548;stop-opacity:1;"
         offset="1"
         id="stop2188" />
    </linearGradient>
    <linearGradient
       inkscape:collect="always"
       xlink:href="#linearGradient3952"
       id="linearGradient3958"
       x1="0"
       y1="177.16536"
       x2="144.44875"
       y2="183.59393"
       gradientUnits="userSpaceOnUse" />
    <radialGradient
       inkscape:collect="always"
       xlink:href="#linearGradient2184"
       id="radialGradient2213"
       cx="130.71428"
       cy="121.47358"
       fx="130.71428"
       fy="121.47358"
       r="141.92464"
       gradientUnits="userSpaceOnUse"
       gradientTransform="matrix(-6.599531e-3,1.392562,-1.327138,-6.289479e-3,292.789,-59.79021)" />
  </defs>
  <sodipodi:namedview
     id="base"
     pagecolor="#ffffff"
     bordercolor="#666666"
     borderopacity="1.0"
     inkscape:pageopacity="0"
     inkscape:pageshadow="2"
     inkscape:zoom="1.4"
     inkscape:cx="229.78709"
     inkscape:cy="173.93196"
     inkscape:document-units="cm"
     inkscape:current-layer="layer1"
     showguides="true"
     inkscape:guide-bbox="true"
     inkscape:window-width="1086"
     inkscape:window-height="861"
     inkscape:window-x="44"
     inkscape:window-y="67">
    <sodipodi:guide
       orientation="horizontal"
       position="177.14286"
       id="guide1307" />
    <sodipodi:guide
       orientation="vertical"
       position="177.14286"
       id="guide1309" />
    <sodipodi:guide
       orientation="vertical"
       position="35.433071"
       id="guide1311" />
    <sodipodi:guide
       orientation="vertical"
       position="318.89764"
       id="guide1313" />
    <sodipodi:guide
       orientation="horizontal"
       position="35.433071"
       id="guide1315" />
    <sodipodi:guide
       orientation="horizontal"
       position="318.89764"
       id="guide1317" />
  </sodipodi:namedview>
  <metadata
     id="metadata7">
    <rdf:RDF>
      <cc:Work
         rdf:about="">
        <dc:format>image/svg+xml</dc:format>
        <dc:type
           rdf:resource="http://purl.org/dc/dcmitype/StillImage" />
      </cc:Work>
    </rdf:RDF>
  </metadata>
  <g
     inkscape:label="Layer 1"
     inkscape:groupmode="layer"
     id="layer1">
    <path
       style="font-size:200px;font-style:normal;font-variant:normal;font-weight:normal;font-stretch:normal;text-align:start;line-height:125%;writing-mode:lr-tb;text-anchor:start;fill:#ffffff;fill-opacity:1;stroke:#000000;stroke-width:1px;stroke-linecap:butt;stroke-linejoin:miter;stroke-opacity:1;font-family:FairydustB"
       d="M 241.5996,90.83724 C 245.44064,91.162913 249.02137,92.497547 252.34179,94.841146 C 255.72709,97.119938 259.01485,100.11473 262.20507,103.82552 C 265.39505,107.53659 267.83645,111.41028 269.52929,115.44661 C 271.28697,119.41809 272.78437,124.85428 274.02148,131.7552 C 275.32343,138.59125 275.25832,145.55738 273.82617,152.65364 C 272.39374,159.68497 269.75702,167.39981 265.91601,175.79817 C 268.38984,164.92586 269.69192,157.47144 269.82226,153.43489 C 270.01744,149.39853 269.85468,145.78525 269.33398,142.59505 C 268.81301,139.33994 267.21796,135.46625 264.54882,130.97395 C 261.94453,126.41678 259.0474,123.25923 255.85742,121.5013 C 252.6672,119.6785 249.57475,118.60429 246.58007,118.27864 C 243.58518,117.95325 238.76747,117.95325 232.12695,118.27864 L 186.13085,118.27864 L 186.13085,171.11067 C 194.59434,169.35293 201.56048,168.21361 207.02929,167.6927 C 212.49797,167.17195 217.86906,167.17195 223.14257,167.6927 C 228.41592,168.21361 232.45237,169.19017 235.25195,170.62239 C 238.11643,172.05475 241.99013,175.2123 246.87304,180.09505 C 241.5995,177.29563 237.46539,175.47272 234.4707,174.6263 C 231.47581,173.71491 227.76488,173.09642 223.33788,172.77083 C 218.97583,172.38027 214.41854,172.44538 209.66601,172.96614 C 204.91334,173.48704 197.0683,177.62115 186.13085,185.36849 C 185.80529,200.86332 185.70763,212.12633 185.83788,219.15755 C 186.03315,226.18881 186.39122,230.42058 186.9121,231.85286 C 187.43289,233.22006 188.66987,234.35938 190.62304,235.27083 C 192.57611,236.11719 199.60735,236.63802 211.71679,236.83333 C 223.89118,237.02865 231.73623,236.76823 235.25195,236.05208 C 238.76747,235.33594 242.02268,234.39193 245.01757,233.22005 C 248.01225,231.98308 250.64897,230.64845 252.92773,229.21614 C 255.20626,227.78387 258.00573,225.57033 261.32617,222.57552 C 264.71146,219.58075 270.44062,212.90758 278.51367,202.55599 C 286.65154,192.20447 291.24138,181.91803 292.2832,171.69661 C 292.67367,178.01178 290.03695,187.51698 284.37304,200.21224 C 278.77394,212.84247 274.02134,222.0547 270.11523,227.84895 C 266.20885,233.64323 262.33516,238.59115 258.49413,242.6927 C 254.65287,246.72916 251.75574,249.88671 249.80273,252.16536 C 247.84949,254.44399 246.05913,256.26691 244.43163,257.63411 C 242.86903,259.06639 239.45107,261.01951 234.17773,263.49349 C 238.4094,260.36847 241.14377,257.99217 242.38085,256.36458 C 243.61773,254.80207 244.13856,252.9466 243.94335,250.79817 C 243.81304,248.71483 243.29221,247.05468 242.38085,245.8177 C 241.5344,244.58072 231.60602,243.86458 212.5957,243.66927 C 193.58523,243.53906 179.03446,243.63671 168.94335,243.96224 C 158.91729,244.35286 151.88605,244.71093 147.8496,245.03645 C 143.81314,245.36197 140.13476,245.88281 136.81445,246.59895 C 133.42904,247.3151 127.69987,249.78905 119.62695,254.02083 C 126.33269,248.35676 131.54102,244.90624 135.25195,243.66927 C 138.89778,242.43229 142.64127,241.55338 146.48242,241.03255 C 150.38865,240.51172 153.83917,239.92578 156.83398,239.27474 C 159.82875,238.55859 162.20505,237.22396 163.96288,235.27083 C 165.72067,233.31771 166.95765,228.46746 167.67382,220.72005 L 167.67382,142.59505 C 167.34827,134.84776 166.27405,129.67198 164.45117,127.0677 C 162.69333,124.39855 160.47979,122.70585 157.81054,121.98958 C 155.20636,121.27355 150.45376,120.65507 143.55273,120.13411 C 136.71679,119.6134 129.16472,120.06913 120.89648,121.5013 C 112.62828,122.86861 105.79234,124.88683 100.38867,127.55599 C 94.919959,130.16026 89.809287,133.22016 85.056633,136.73567 C 80.304088,140.2514 72.621804,148.38941 62.009758,161.14974 C 71.905659,146.30608 79.22987,136.96364 83.982414,133.12239 C 88.735069,129.21626 93.943397,125.70063 99.607419,122.57552 C 105.20641,119.38554 111.87958,117.07434 119.62695,115.64192 C 127.37435,114.20976 138.4746,112.81002 152.92773,111.4427 C 209.24276,111.44284 238.89768,111.28008 241.89257,110.95442 C 244.88726,110.56393 246.90548,109.68502 247.94726,108.3177 C 248.98882,106.88555 249.57475,105.19284 249.70507,103.23958 C 249.90027,101.2866 249.28178,99.170717 247.8496,96.891928 C 246.48231,94.61343 244.39898,92.757963 241.5996,91.325521 L 241.5996,90.83724"
       id="text2215" />
  </g>
</svg>
