<?xml version="1.0" encoding="UTF-8" standalone="no"?>
<!-- Created with Inkscape (http://www.inkscape.org/) -->
<svg
   xmlns:dc="http://purl.org/dc/elements/1.1/"
   xmlns:cc="http://web.resource.org/cc/"
   xmlns:rdf="http://www.w3.org/1999/02/22-rdf-syntax-ns#"
   xmlns:svg="http://www.w3.org/2000/svg"
   xmlns="http://www.w3.org/2000/svg"
   xmlns:xlink="http://www.w3.org/1999/xlink"
   xmlns:sodipodi="http://inkscape.sourceforge.net/DTD/sodipodi-0.dtd"
   xmlns:inkscape="http://www.inkscape.org/namespaces/inkscape"
   width="10cm"
   height="10cm"
   id="svg2"
   sodipodi:version="0.32"
   inkscape:version="0.43"
   version="1.0"
   sodipodi:docbase="/home/dylan/src/mfgames/wordplay/src/themes/default"
   sodipodi:docname="character-004b.svg">
  <defs
     id="defs4">
    <linearGradient
       id="linearGradient3952">
      <stop
         style="stop-color:#f8f8f8;stop-opacity:1;"
         offset="0"
         id="stop3954" />
      <stop
         style="stop-color:#000000;stop-opacity:0;"
         offset="1"
         id="stop3956" />
    </linearGradient>
    <linearGradient
       id="linearGradient2184">
      <stop
         style="stop-color:#ffffff;stop-opacity:1;"
         offset="0"
         id="stop2186" />
      <stop
         style="stop-color:#101548;stop-opacity:1;"
         offset="1"
         id="stop2188" />
    </linearGradient>
    <linearGradient
       inkscape:collect="always"
       xlink:href="#linearGradient3952"
       id="linearGradient3958"
       x1="0"
       y1="177.16536"
       x2="144.44875"
       y2="183.59393"
       gradientUnits="userSpaceOnUse" />
    <radialGradient
       inkscape:collect="always"
       xlink:href="#linearGradient2184"
       id="radialGradient2213"
       cx="130.71428"
       cy="121.47358"
       fx="130.71428"
       fy="121.47358"
       r="141.92464"
       gradientUnits="userSpaceOnUse"
       gradientTransform="matrix(-6.599531e-3,1.392562,-1.327138,-6.289479e-3,292.789,-59.79021)" />
  </defs>
  <sodipodi:namedview
     id="base"
     pagecolor="#ffffff"
     bordercolor="#666666"
     borderopacity="1.0"
     inkscape:pageopacity="0"
     inkscape:pageshadow="2"
     inkscape:zoom="1.4"
     inkscape:cx="229.78709"
     inkscape:cy="173.93196"
     inkscape:document-units="cm"
     inkscape:current-layer="layer1"
     showguides="true"
     inkscape:guide-bbox="true"
     inkscape:window-width="1086"
     inkscape:window-height="861"
     inkscape:window-x="44"
     inkscape:window-y="67">
    <sodipodi:guide
       orientation="horizontal"
       position="177.14286"
       id="guide1307" />
    <sodipodi:guide
       orientation="vertical"
       position="177.14286"
       id="guide1309" />
    <sodipodi:guide
       orientation="vertical"
       position="35.433071"
       id="guide1311" />
    <sodipodi:guide
       orientation="vertical"
       position="318.89764"
       id="guide1313" />
    <sodipodi:guide
       orientation="horizontal"
       position="35.433071"
       id="guide1315" />
    <sodipodi:guide
       orientation="horizontal"
       position="318.89764"
       id="guide1317" />
  </sodipodi:namedview>
  <metadata
     id="metadata7">
    <rdf:RDF>
      <cc:Work
         rdf:about="">
        <dc:format>image/svg+xml</dc:format>
        <dc:type
           rdf:resource="http://purl.org/dc/dcmitype/StillImage" />
      </cc:Work>
    </rdf:RDF>
  </metadata>
  <g
     inkscape:label="Layer 1"
     inkscape:groupmode="layer"
     id="layer1">
    <path
       style="font-size:200px;font-style:normal;font-variant:normal;font-weight:normal;font-stretch:normal;text-align:start;line-height:125%;writing-mode:lr-tb;text-anchor:start;fill:#ffffff;fill-opacity:1;stroke:#000000;stroke-width:1px;stroke-linecap:butt;stroke-linejoin:miter;stroke-opacity:1;font-family:FairydustB"
       d="M 71.555065,129.11848 C 82.10198,123.45454 91.34676,119.84126 99.28944,118.27864 C 107.23216,116.71627 113.84023,115.73971 119.11366,115.34895 C 124.45219,114.95846 131.12536,114.63294 139.13319,114.37239 C 147.14097,114.047 153.58628,113.65637 158.46913,113.20051 C 163.417,112.67981 167.25814,111.7358 169.99257,110.36848 C 172.72689,109.00143 175.26595,106.03919 177.60975,101.48176 C 175.85188,107.21107 174.09407,110.922 172.33632,112.61458 C 170.57845,114.24231 168.52767,115.41419 166.18397,116.1302 C 163.84018,116.78137 161.26856,117.46496 158.46913,118.18098 C 155.73471,118.83215 153.78159,120.00402 152.60975,121.69661 C 151.43784,123.32433 150.46128,128.14204 149.68007,136.14973 L 149.97303,176.77473 L 202.60975,130.29036 C 204.17217,128.14204 204.98597,126.18891 205.05116,124.43098 C 205.18128,122.67329 204.66045,121.1759 203.48866,119.93879 C 202.3167,118.63684 200.59144,118.0509 198.31288,118.18098 C 196.03415,118.24621 193.36489,118.57173 190.30507,119.15754 C 187.3102,119.74361 182.88312,121.40376 177.02382,124.13801 C 182.88312,120.4272 187.50552,118.18111 190.891,117.39973 C 194.34145,116.61861 197.92217,116.03267 201.63319,115.64192 C 205.40914,115.25142 209.05497,114.95846 212.57069,114.76301 C 216.08622,114.56783 219.40653,114.33997 222.53163,114.07942 C 225.65652,113.75403 229.82318,113.36341 235.03163,112.90754 C 240.23984,112.38684 244.04843,111.41028 246.45741,109.97786 C 248.93124,108.4806 250.68905,106.69024 251.73085,104.60676 C 252.83748,102.52357 253.03279,100.37514 252.31678,98.16145 C 251.66561,95.882955 250.36353,94.255352 248.41053,93.278638 C 250.75415,94.450664 252.3492,96.013163 253.19569,97.966138 C 254.10701,99.919409 254.10701,102.29571 253.19569,105.09504 C 252.3492,107.82956 250.59139,110.23841 247.92225,112.32161 C 245.31796,114.33997 242.48593,115.64205 239.42616,116.22786 C 236.43125,116.81392 233.63177,117.46496 231.02772,118.18098 C 228.48855,118.83215 225.3961,120.32954 221.75038,122.67317 C 218.16955,125.01704 200.23337,141.45583 167.94178,171.98958 L 228.391,231.95051 C 233.72943,236.05209 238.25416,238.78646 241.96522,240.15364 C 245.67603,241.52083 249.51717,242.49739 253.48866,243.08333 C 257.52498,243.66927 261.30102,243.63671 264.81678,242.98567 C 268.39736,242.26953 271.58746,240.70703 274.3871,238.29817 C 277.25152,235.82422 278.91167,232.89454 279.36757,229.50911 C 279.88824,226.05861 279.69292,222.7383 278.78163,219.54817 C 277.93511,216.29299 276.1773,214.01435 273.50819,212.71223 C 270.90387,211.41018 268.49502,211.21487 266.28163,212.12629 C 264.13304,213.03779 262.37523,214.43752 261.00819,216.32551 C 259.64086,218.14846 259.25024,220.03648 259.83632,221.98958 C 260.42211,223.94272 262.27758,225.30991 265.40272,226.09114 C 261.88695,225.70053 259.57576,224.33335 258.46913,221.98958 C 257.42732,219.64585 257.68774,217.3021 259.25038,214.95833 C 260.81273,212.61461 263.02627,210.79169 265.891,209.48958 C 268.75543,208.18753 271.65257,208.35029 274.58241,209.97786 C 277.51194,211.54039 279.79058,214.24221 281.41835,218.08333 C 283.11089,221.85939 283.50151,225.89585 282.59022,230.1927 C 281.7437,234.48959 279.79058,237.97266 276.73085,240.64192 C 273.7359,243.24609 270.22028,245.0039 266.18397,245.91536 C 262.14737,246.82681 252.83748,247.11978 238.25428,246.79426 C 223.67084,246.53385 213.64481,246.59895 208.17616,246.98958 C 202.70732,247.3802 196.8154,247.99869 190.50038,248.84504 C 184.25031,249.7565 178.42349,251.28645 173.01991,253.43489 C 167.68132,255.58332 162.63575,258.12238 157.88319,261.05208 C 162.44044,257.34113 167.38835,254.31379 172.72694,251.97004 C 178.13053,249.62629 183.20865,247.80338 187.96132,246.50129 C 192.77895,245.19921 196.45733,244.02734 198.99647,242.98567 C 201.60055,241.8789 203.03284,240.60937 203.29335,239.17708 C 203.61878,237.67969 203.71644,236.21485 203.58632,234.78254 C 203.52113,233.28516 202.21904,230.97397 199.68007,227.84895 L 149.97303,180.29036 C 149.973,213.75393 150.26597,231.46225 150.85194,233.41536 C 151.43784,235.36849 152.73993,236.83333 154.75819,237.80989 C 156.84148,238.78646 158.76206,239.27474 160.51991,239.27473 C 162.34278,239.27474 164.03549,239.07943 165.59803,238.68879 C 167.16048,238.29818 169.30892,236.83333 172.04335,234.29426 L 167.35585,246.01301 C 134.41312,245.8177 115.69569,245.98046 111.2035,246.50129 C 106.71133,247.02213 103.09805,247.70572 100.36366,248.55208 C 97.6293,249.46353 94.89493,250.89582 92.16053,252.84895 C 94.50431,250.11457 97.20613,248.1289 100.266,246.89192 C 103.26081,245.72004 107.00429,244.71093 111.49647,243.86458 C 115.98866,242.95312 119.40663,242.20442 121.75038,241.61848 C 124.09412,241.03255 125.91704,240.12109 127.21913,238.88411 C 128.5212,237.58203 129.46521,236.01953 130.05116,234.19661 C 130.63708,232.3086 131.02771,229.50912 131.22303,225.79817 L 131.22303,131.46223 C 130.8324,127.94672 130.18135,125.27746 129.26991,123.45442 C 128.42354,121.56652 126.79594,120.19934 124.3871,119.35286 C 122.04334,118.44153 119.27642,117.9858 116.08632,117.98567 C 112.83111,117.9858 107.29726,118.76705 99.48475,120.32942 C 91.60717,121.89204 82.19963,124.91938 71.262096,129.41145 L 71.555065,129.11848"
       id="text2215" />
  </g>
</svg>
