<?xml version="1.0" encoding="UTF-8" standalone="no"?>
<!-- Created with Inkscape (http://www.inkscape.org/) -->
<svg
   xmlns:dc="http://purl.org/dc/elements/1.1/"
   xmlns:cc="http://web.resource.org/cc/"
   xmlns:rdf="http://www.w3.org/1999/02/22-rdf-syntax-ns#"
   xmlns:svg="http://www.w3.org/2000/svg"
   xmlns="http://www.w3.org/2000/svg"
   xmlns:xlink="http://www.w3.org/1999/xlink"
   xmlns:sodipodi="http://inkscape.sourceforge.net/DTD/sodipodi-0.dtd"
   xmlns:inkscape="http://www.inkscape.org/namespaces/inkscape"
   width="10cm"
   height="10cm"
   id="svg2"
   sodipodi:version="0.32"
   inkscape:version="0.43"
   version="1.0"
   sodipodi:docbase="/home/dylan/src/mfgames/wordplay/src/themes/default"
   sodipodi:docname="character-004e.svg">
  <defs
     id="defs4">
    <linearGradient
       id="linearGradient3952">
      <stop
         style="stop-color:#f8f8f8;stop-opacity:1;"
         offset="0"
         id="stop3954" />
      <stop
         style="stop-color:#000000;stop-opacity:0;"
         offset="1"
         id="stop3956" />
    </linearGradient>
    <linearGradient
       id="linearGradient2184">
      <stop
         style="stop-color:#ffffff;stop-opacity:1;"
         offset="0"
         id="stop2186" />
      <stop
         style="stop-color:#101548;stop-opacity:1;"
         offset="1"
         id="stop2188" />
    </linearGradient>
    <linearGradient
       inkscape:collect="always"
       xlink:href="#linearGradient3952"
       id="linearGradient3958"
       x1="0"
       y1="177.16536"
       x2="144.44875"
       y2="183.59393"
       gradientUnits="userSpaceOnUse" />
    <radialGradient
       inkscape:collect="always"
       xlink:href="#linearGradient2184"
       id="radialGradient2213"
       cx="130.71428"
       cy="121.47358"
       fx="130.71428"
       fy="121.47358"
       r="141.92464"
       gradientUnits="userSpaceOnUse"
       gradientTransform="matrix(-6.599531e-3,1.392562,-1.327138,-6.289479e-3,292.789,-59.79021)" />
  </defs>
  <sodipodi:namedview
     id="base"
     pagecolor="#ffffff"
     bordercolor="#666666"
     borderopacity="1.0"
     inkscape:pageopacity="0"
     inkscape:pageshadow="2"
     inkscape:zoom="1.4"
     inkscape:cx="229.78709"
     inkscape:cy="173.93196"
     inkscape:document-units="cm"
     inkscape:current-layer="layer1"
     showguides="true"
     inkscape:guide-bbox="true"
     inkscape:window-width="1086"
     inkscape:window-height="861"
     inkscape:window-x="44"
     inkscape:window-y="67">
    <sodipodi:guide
       orientation="horizontal"
       position="177.14286"
       id="guide1307" />
    <sodipodi:guide
       orientation="vertical"
       position="177.14286"
       id="guide1309" />
    <sodipodi:guide
       orientation="vertical"
       position="35.433071"
       id="guide1311" />
    <sodipodi:guide
       orientation="vertical"
       position="318.89764"
       id="guide1313" />
    <sodipodi:guide
       orientation="horizontal"
       position="35.433071"
       id="guide1315" />
    <sodipodi:guide
       orientation="horizontal"
       position="318.89764"
       id="guide1317" />
  </sodipodi:namedview>
  <metadata
     id="metadata7">
    <rdf:RDF>
      <cc:Work
         rdf:about="">
        <dc:format>image/svg+xml</dc:format>
        <dc:type
           rdf:resource="http://purl.org/dc/dcmitype/StillImage" />
      </cc:Work>
    </rdf:RDF>
  </metadata>
  <g
     inkscape:label="Layer 1"
     inkscape:groupmode="layer"
     id="layer1">
    <path
       style="font-size:200px;font-style:normal;font-variant:normal;font-weight:normal;font-stretch:normal;text-align:start;line-height:125%;writing-mode:lr-tb;text-anchor:start;fill:#ffffff;fill-opacity:1;stroke:#000000;stroke-width:1px;stroke-linecap:butt;stroke-linejoin:miter;stroke-opacity:1;font-family:FairydustB"
       d="M 75.50322,126.25946 C 84.422546,121.24656 93.667329,117.79604 103.2376,115.9079 C 112.80794,114.02001 122.57355,112.35985 132.53448,110.92743 C 142.43031,109.43017 152.29358,108.51871 162.12432,108.19306 C 172.02012,107.86767 181.36256,108.3234 190.15166,109.56025 C 183.96672,109.951 180.15813,110.53694 178.72588,111.31806 C 177.35866,112.09943 176.60996,113.01089 176.47979,114.05243 C 176.41465,115.02912 176.77272,116.16844 177.55401,117.4704 C 178.33522,118.77261 190.41203,133.8442 213.78448,162.68525 C 237.22188,191.52644 249.23358,206.43528 249.81963,207.41181 C 249.4289,149.33898 249.03827,119.5213 248.64776,117.95868 C 248.25702,116.3312 247.15025,114.67105 245.32744,112.97821 C 243.56953,111.28563 240.90026,110.34162 237.31963,110.14618 C 233.73881,109.951 229.99532,110.56949 226.08916,112.00165 C 222.18283,113.36896 218.89507,115.15933 216.22588,117.37275 C 213.55654,119.5213 211.01748,123.68796 208.60869,129.87275 C 210.82216,123.29734 213.10081,118.77261 215.44463,116.29853 C 217.85341,113.75959 221.07606,111.74136 225.1126,110.24384 C 229.21407,108.74657 233.31563,107.86767 237.41729,107.60712 C 241.51875,107.28173 245.94583,107.11897 250.69854,107.11884 C 255.51613,107.11897 259.38982,106.98876 262.31963,106.72821 C 265.3143,106.40283 268.24398,106.0122 271.10869,105.55634 C 274.03825,105.03564 275.82861,103.89632 276.47979,102.13837 C 277.1958,100.31559 277.29345,98.557784 276.77276,96.864934 C 276.31689,95.172372 275.34033,94.065603 273.84307,93.544624 C 272.34554,93.023937 271.10856,93.186697 270.13213,94.032905 C 269.15544,94.8143 268.76481,96.604664 268.96026,99.404004 C 267.91846,96.40935 268.08122,94.326019 269.44854,93.153999 C 270.8807,91.917167 272.5734,91.624199 274.52666,92.275093 C 276.54475,92.861177 277.91194,94.260915 278.62823,96.474312 C 279.34423,98.622894 279.27913,100.93408 278.43291,103.4079 C 277.65152,105.88199 275.56819,107.6398 272.18291,108.68134 C 268.79737,109.65803 265.80258,111.05777 263.19854,112.88056 C 260.65935,114.63849 259.03175,116.85203 258.31573,119.52118 C 257.59946,122.19057 257.33904,142.60071 257.53448,180.75165 C 257.79477,218.83761 257.92498,239.50816 257.9251,242.76337 C 257.92498,246.08368 257.46925,249.27378 256.55791,252.33368 C 255.64634,255.45867 252.81431,258.81153 248.06182,262.39228 C 251.44712,257.83497 253.53045,254.25424 254.31182,251.65009 C 255.09295,249.04591 255.02785,246.24644 254.11651,243.25165 C 253.27004,240.25686 224.16851,203.83111 166.81182,133.97431 C 166.81179,190.54988 167.03966,220.82328 167.49541,224.79462 C 168.01622,228.76598 169.05788,231.4027 170.62041,232.70478 C 172.24798,234.00686 173.81048,234.75556 175.30791,234.95087 C 176.80527,235.14619 178.53053,235.14619 180.48369,234.95087 C 182.50188,234.75556 184.55266,233.87666 186.63604,232.31415 C 188.78443,230.68656 190.54224,229.15661 191.90948,227.72431 L 188.88213,240.32196 C 159.0644,239.73603 142.52796,239.73603 139.27276,240.32196 C 135.95245,240.9079 132.30662,241.68915 128.33526,242.66571 C 124.36392,243.64227 120.75064,245.23732 117.49541,247.45087 C 114.17513,249.6644 110.5293,252.95216 106.55791,257.31415 C 109.94336,252.10581 113.32877,248.26466 116.71416,245.79071 C 120.03449,243.31675 123.74543,241.36363 127.84698,239.93134 C 131.94855,238.56415 135.88734,237.55504 139.66338,236.904 C 143.43942,236.18785 146.72718,235.27639 149.52666,234.16962 C 152.32613,233.06286 154.34436,231.56546 155.58135,229.67743 C 156.88342,227.78942 157.72977,225.47823 158.12041,222.74384 C 158.57612,219.94438 158.64123,202.98476 158.31573,171.86493 C 157.99019,140.68014 157.56701,124.14369 157.04619,122.25556 C 156.59045,120.36766 155.71154,118.74005 154.40948,117.37275 C 153.10738,115.94058 151.70764,114.93146 150.21026,114.3454 C 148.77796,113.69449 143.04879,113.72704 133.02276,114.44306 C 122.93163,115.15933 113.16601,116.42886 103.72588,118.25165 C 94.220713,120.00958 84.715515,122.67885 75.210251,126.25946 L 75.50322,126.25946"
       id="text2215" />
  </g>
</svg>
