<?xml version="1.0" encoding="UTF-8" standalone="no"?>
<!-- Created with Inkscape (http://www.inkscape.org/) -->
<svg
   xmlns:dc="http://purl.org/dc/elements/1.1/"
   xmlns:cc="http://web.resource.org/cc/"
   xmlns:rdf="http://www.w3.org/1999/02/22-rdf-syntax-ns#"
   xmlns:svg="http://www.w3.org/2000/svg"
   xmlns="http://www.w3.org/2000/svg"
   xmlns:xlink="http://www.w3.org/1999/xlink"
   xmlns:sodipodi="http://inkscape.sourceforge.net/DTD/sodipodi-0.dtd"
   xmlns:inkscape="http://www.inkscape.org/namespaces/inkscape"
   width="10cm"
   height="10cm"
   id="svg2"
   sodipodi:version="0.32"
   inkscape:version="0.43"
   version="1.0"
   sodipodi:docbase="/home/dylan/src/mfgames/wordplay/src/themes/default"
   sodipodi:docname="character-005a.svg">
  <defs
     id="defs4">
    <linearGradient
       id="linearGradient3952">
      <stop
         style="stop-color:#f8f8f8;stop-opacity:1;"
         offset="0"
         id="stop3954" />
      <stop
         style="stop-color:#000000;stop-opacity:0;"
         offset="1"
         id="stop3956" />
    </linearGradient>
    <linearGradient
       id="linearGradient2184">
      <stop
         style="stop-color:#ffffff;stop-opacity:1;"
         offset="0"
         id="stop2186" />
      <stop
         style="stop-color:#101548;stop-opacity:1;"
         offset="1"
         id="stop2188" />
    </linearGradient>
    <linearGradient
       inkscape:collect="always"
       xlink:href="#linearGradient3952"
       id="linearGradient3958"
       x1="0"
       y1="177.16536"
       x2="144.44875"
       y2="183.59393"
       gradientUnits="userSpaceOnUse" />
    <radialGradient
       inkscape:collect="always"
       xlink:href="#linearGradient2184"
       id="radialGradient2213"
       cx="130.71428"
       cy="121.47358"
       fx="130.71428"
       fy="121.47358"
       r="141.92464"
       gradientUnits="userSpaceOnUse"
       gradientTransform="matrix(-6.599531e-3,1.392562,-1.327138,-6.289479e-3,292.789,-59.79021)" />
  </defs>
  <sodipodi:namedview
     id="base"
     pagecolor="#ffffff"
     bordercolor="#666666"
     borderopacity="1.0"
     inkscape:pageopacity="0"
     inkscape:pageshadow="2"
     inkscape:zoom="1.4"
     inkscape:cx="229.78709"
     inkscape:cy="173.93196"
     inkscape:document-units="cm"
     inkscape:current-layer="layer1"
     showguides="true"
     inkscape:guide-bbox="true"
     inkscape:window-width="1086"
     inkscape:window-height="861"
     inkscape:window-x="44"
     inkscape:window-y="67">
    <sodipodi:guide
       orientation="horizontal"
       position="177.14286"
       id="guide1307" />
    <sodipodi:guide
       orientation="vertical"
       position="177.14286"
       id="guide1309" />
    <sodipodi:guide
       orientation="vertical"
       position="35.433071"
       id="guide1311" />
    <sodipodi:guide
       orientation="vertical"
       position="318.89764"
       id="guide1313" />
    <sodipodi:guide
       orientation="horizontal"
       position="35.433071"
       id="guide1315" />
    <sodipodi:guide
       orientation="horizontal"
       position="318.89764"
       id="guide1317" />
  </sodipodi:namedview>
  <metadata
     id="metadata7">
    <rdf:RDF>
      <cc:Work
         rdf:about="">
        <dc:format>image/svg+xml</dc:format>
        <dc:type
           rdf:resource="http://purl.org/dc/dcmitype/StillImage" />
      </cc:Work>
    </rdf:RDF>
  </metadata>
  <g
     inkscape:label="Layer 1"
     inkscape:groupmode="layer"
     id="layer1">
    <path
       style="font-size:200px;font-style:normal;font-variant:normal;font-weight:normal;font-stretch:normal;text-align:start;line-height:125%;writing-mode:lr-tb;text-anchor:start;fill:#ffffff;fill-opacity:1;stroke:#000000;stroke-width:1px;stroke-linecap:butt;stroke-linejoin:miter;stroke-opacity:1;font-family:FairydustB"
       d="M 106.16927,188.93294 C 101.87239,184.05019 99.170572,180.72988 98.063802,178.972 C 97.022132,177.14916 95.915362,173.40567 94.743492,167.74153 C 93.571612,162.07756 93.311202,156.77157 93.962242,151.82356 C 94.678382,146.81064 95.524742,141.66742 96.501302,136.39388 C 97.477862,131.05545 99.170572,125.61926 101.57943,120.08528 C 104.05337,114.48646 107.30858,109.53855 111.34505,105.24153 C 115.38149,100.8797 121.11065,97.917461 128.53255,96.354811 C 122.86846,99.089335 119.09242,101.14011 117.20443,102.50716 C 115.38149,103.87449 114.17706,105.27423 113.59115,106.70638 C 113.00519,108.0737 112.80987,109.34323 113.00521,110.51497 C 113.2005,111.68698 113.81899,112.7612 114.86068,113.73763 C 115.96742,114.71432 117.79034,115.36536 120.32943,115.69075 C 122.86846,115.9513 126.7096,116.08151 131.85287,116.08138 C 137.06115,116.08151 142.95307,116.14661 149.52865,116.27669 C 156.1041,116.34193 162.77727,116.47213 169.54818,116.66731 C 176.31893,116.86276 182.73168,117.25338 188.78646,117.83919 C 194.84104,118.42526 199.85406,119.59713 203.82552,121.35481 C 207.86186,123.11275 211.44259,125.06587 214.56771,127.21419 C 217.75769,129.36275 220.91524,133.07368 224.04037,138.347 C 220.3293,134.05024 217.33451,131.28332 215.05599,130.04622 C 212.77722,128.74426 210.20561,127.99556 207.34115,127.80013 C 204.54155,127.60493 202.36057,127.96301 200.79818,128.87435 C 199.23557,129.72082 197.315,131.12056 195.03646,133.07356 C 192.82282,135.0268 167.43222,170.86661 118.86458,240.5931 C 157.21087,240.39779 178.43481,240.00717 182.53646,239.42122 C 186.70303,238.83529 189.69782,237.72852 191.52083,236.10091 C 193.40875,234.40821 195.52464,232.09702 197.86849,229.16731 C 200.21213,226.23765 202.36057,223.21031 204.3138,220.08528 C 206.26681,216.96031 208.87098,213.73766 212.1263,210.41731 C 215.38139,207.03194 219.77591,204.0697 225.3099,201.5306 C 230.90872,198.99158 237.22381,197.52674 244.25521,197.13606 C 251.3514,196.74549 258.02457,197.33143 264.27474,198.89388 C 258.21989,198.69861 252.58838,198.76372 247.38021,199.08919 C 242.17172,199.34965 237.54933,200.1309 233.51302,201.43294 C 229.54153,202.66996 225.60273,204.98116 221.69662,208.36653 C 217.79024,211.68688 214.50248,215.65823 211.83333,220.2806 C 209.16395,224.83791 207.53634,228.19077 206.95052,230.33919 C 206.36447,232.48764 203.53244,241.69987 198.45443,257.97591 C 198.84495,252.31184 197.80328,249.31705 195.32943,248.99153 C 192.92047,248.73112 157.82936,248.4707 90.055992,248.21028 L 178.82552,124.87044 C 168.40878,124.08931 160.07545,123.56848 153.82552,123.30794 C 147.57547,122.98254 141.97651,122.88489 137.02865,123.01497 C 132.14579,123.0802 127.84892,123.47082 124.13802,124.18685 C 120.42705,124.83801 116.87888,126.3354 113.49349,128.67903 C 110.17316,131.0229 107.47134,133.52941 105.38802,136.19856 C 103.36978,138.80284 101.57942,141.99294 100.01693,145.76888 C 98.454422,149.47991 97.510412,152.89788 97.184902,156.02278 C 96.924472,159.14787 96.924472,162.14266 97.184902,165.00716 C 97.510412,167.80672 97.966142,170.57364 98.552082,173.30794 C 99.138012,176.04239 99.723952,178.32103 100.3099,180.14388 C 100.89582,181.90176 102.84895,184.73378 106.16927,188.63997 L 106.16927,188.93294"
       id="text2215" />
  </g>
</svg>
