<?xml version="1.0" encoding="UTF-8" standalone="no"?>
<!-- Created with Inkscape (http://www.inkscape.org/) -->
<svg
   xmlns:dc="http://purl.org/dc/elements/1.1/"
   xmlns:cc="http://web.resource.org/cc/"
   xmlns:rdf="http://www.w3.org/1999/02/22-rdf-syntax-ns#"
   xmlns:svg="http://www.w3.org/2000/svg"
   xmlns="http://www.w3.org/2000/svg"
   xmlns:xlink="http://www.w3.org/1999/xlink"
   xmlns:sodipodi="http://inkscape.sourceforge.net/DTD/sodipodi-0.dtd"
   xmlns:inkscape="http://www.inkscape.org/namespaces/inkscape"
   width="10cm"
   height="10cm"
   id="svg2"
   sodipodi:version="0.32"
   inkscape:version="0.43"
   version="1.0"
   sodipodi:docbase="/home/dylan/src/mfgames/wordplay/src/themes/default"
   sodipodi:docname="character-0056.svg">
  <defs
     id="defs4">
    <linearGradient
       id="linearGradient3952">
      <stop
         style="stop-color:#f8f8f8;stop-opacity:1;"
         offset="0"
         id="stop3954" />
      <stop
         style="stop-color:#000000;stop-opacity:0;"
         offset="1"
         id="stop3956" />
    </linearGradient>
    <linearGradient
       id="linearGradient2184">
      <stop
         style="stop-color:#ffffff;stop-opacity:1;"
         offset="0"
         id="stop2186" />
      <stop
         style="stop-color:#101548;stop-opacity:1;"
         offset="1"
         id="stop2188" />
    </linearGradient>
    <linearGradient
       inkscape:collect="always"
       xlink:href="#linearGradient3952"
       id="linearGradient3958"
       x1="0"
       y1="177.16536"
       x2="144.44875"
       y2="183.59393"
       gradientUnits="userSpaceOnUse" />
    <radialGradient
       inkscape:collect="always"
       xlink:href="#linearGradient2184"
       id="radialGradient2213"
       cx="130.71428"
       cy="121.47358"
       fx="130.71428"
       fy="121.47358"
       r="141.92464"
       gradientUnits="userSpaceOnUse"
       gradientTransform="matrix(-6.599531e-3,1.392562,-1.327138,-6.289479e-3,292.789,-59.79021)" />
  </defs>
  <sodipodi:namedview
     id="base"
     pagecolor="#ffffff"
     bordercolor="#666666"
     borderopacity="1.0"
     inkscape:pageopacity="0"
     inkscape:pageshadow="2"
     inkscape:zoom="1.4"
     inkscape:cx="229.78709"
     inkscape:cy="173.93196"
     inkscape:document-units="cm"
     inkscape:current-layer="layer1"
     showguides="true"
     inkscape:guide-bbox="true"
     inkscape:window-width="1086"
     inkscape:window-height="861"
     inkscape:window-x="44"
     inkscape:window-y="67">
    <sodipodi:guide
       orientation="horizontal"
       position="177.14286"
       id="guide1307" />
    <sodipodi:guide
       orientation="vertical"
       position="177.14286"
       id="guide1309" />
    <sodipodi:guide
       orientation="vertical"
       position="35.433071"
       id="guide1311" />
    <sodipodi:guide
       orientation="vertical"
       position="318.89764"
       id="guide1313" />
    <sodipodi:guide
       orientation="horizontal"
       position="35.433071"
       id="guide1315" />
    <sodipodi:guide
       orientation="horizontal"
       position="318.89764"
       id="guide1317" />
  </sodipodi:namedview>
  <metadata
     id="metadata7">
    <rdf:RDF>
      <cc:Work
         rdf:about="">
        <dc:format>image/svg+xml</dc:format>
        <dc:type
           rdf:resource="http://purl.org/dc/dcmitype/StillImage" />
      </cc:Work>
    </rdf:RDF>
  </metadata>
  <g
     inkscape:label="Layer 1"
     inkscape:groupmode="layer"
     id="layer1">
    <path
       style="font-size:200px;font-style:normal;font-variant:normal;font-weight:normal;font-stretch:normal;text-align:start;line-height:125%;writing-mode:lr-tb;text-anchor:start;fill:#ffffff;fill-opacity:1;stroke:#000000;stroke-width:1px;stroke-linecap:butt;stroke-linejoin:miter;stroke-opacity:1;font-family:FairydustB"
       d="M 69.157544,126.77472 C 78.011768,121.04567 86.345093,116.94411 94.157544,114.47004 C 101.97007,111.9962 110.43361,109.97797 119.54817,108.41535 C 128.66275,106.85298 137.19139,106.07173 145.1341,106.0716 C 153.07679,106.07173 161.41012,106.13683 170.1341,106.26691 C 178.85802,106.39725 185.49864,105.42069 190.05598,103.33722 C 194.61321,101.25402 198.45435,98.910283 201.57942,96.305973 C 204.70435,93.701953 207.1783,89.925914 209.00129,84.977851 C 207.43872,89.665497 206.07153,92.985806 204.89973,94.938793 C 203.72778,96.892053 201.77466,98.975383 199.04035,101.18879 C 196.30592,103.40246 193.63665,104.96496 191.03254,105.87629 C 188.42832,106.78787 185.62884,107.76443 182.6341,108.80597 C 179.63927,109.84777 176.64448,110.62902 173.64973,111.14972 C 170.6549,111.67068 168.70178,112.84255 167.79035,114.66535 C 166.87886,116.48838 166.81376,119.8738 167.59504,124.8216 L 203.92317,209.1966 L 239.47004,123.64972 C 240.5116,120.00401 240.96733,116.94411 240.83723,114.47004 C 240.70691,111.9962 240.25119,110.23839 239.47004,109.1966 C 238.68869,108.15506 237.12619,107.37381 234.78254,106.85285 C 232.43869,106.33214 230.02984,106.33214 227.55598,106.85285 C 225.08193,107.37381 222.86839,108.41548 220.91535,109.97785 C 218.96214,111.54047 217.66006,113.36339 217.0091,115.4466 C 216.35798,117.53005 215.77204,119.61338 215.25129,121.6966 C 214.73038,123.78004 214.46996,125.79827 214.47004,127.75129 C 214.46996,129.70452 214.92569,132.04826 215.83723,134.78254 C 216.7486,137.51701 218.76683,140.18628 221.89192,142.79035 C 217.72517,140.44669 215.0559,138.10295 213.8841,135.7591 C 212.71215,133.41545 212.12621,130.68108 212.12629,127.55597 C 212.12621,124.43108 212.64705,120.78525 213.68879,116.61847 C 214.73038,112.45193 216.35798,109.39204 218.5716,107.43879 C 220.78506,105.48579 223.25901,103.85819 225.99348,102.55597 C 228.72776,101.25402 231.98296,100.47278 235.7591,100.21222 C 239.53504,99.951943 243.44129,99.951943 247.47785,100.21222 C 251.51419,100.47278 255.48554,100.53788 259.39192,100.40754 C 263.29804,100.27746 266.42303,99.756633 268.76692,98.845043 C 271.11053,97.933723 273.58449,96.957153 276.18879,95.915353 C 278.79281,94.873823 281.7876,92.009245 285.17317,87.321601 C 282.30843,92.530078 279.96469,95.850383 278.14192,97.282543 C 276.31886,98.714963 273.8449,100.34257 270.72004,102.16535 C 267.59491,103.9884 264.66522,105.5509 261.93098,106.85285 C 259.19648,108.15506 256.20169,111.08474 252.9466,115.64191 C 249.69128,120.19932 247.34753,124.30088 245.91535,127.9466 C 244.48295,131.59254 236.41004,151.6446 221.6966,188.10285 C 206.98299,224.56119 198.38925,245.45961 195.91535,250.79816 C 193.44134,256.13668 187.12624,262.32157 176.97004,269.35285 C 184.52207,262.06116 189.01426,257.24345 190.4466,254.89972 C 191.87884,252.55596 193.05071,249.95179 193.96223,247.08722 C 194.87363,244.22263 195.39446,241.48826 195.52473,238.8841 C 195.65488,236.27993 194.54811,232.11327 192.20442,226.3841 C 189.86061,220.65495 181.52729,201.18882 167.20442,167.98566 C 152.88148,134.78264 144.67836,117.07432 142.59504,114.86066 C 140.5117,112.64724 137.51691,111.34516 133.61067,110.95441 C 129.70442,110.56391 124.88672,110.62902 119.15754,111.14972 C 113.4284,111.67068 107.89455,112.51703 102.55598,113.68879 C 97.217474,114.86078 92.399774,116.22797 88.102857,117.79035 C 83.806033,119.35296 77.621143,122.47796 69.548169,127.16535 L 69.157544,126.77472"
       id="text2215" />
  </g>
</svg>
