<?xml version="1.0" encoding="UTF-8" standalone="no"?>
<!-- Created with Inkscape (http://www.inkscape.org/) -->
<svg
   xmlns:dc="http://purl.org/dc/elements/1.1/"
   xmlns:cc="http://web.resource.org/cc/"
   xmlns:rdf="http://www.w3.org/1999/02/22-rdf-syntax-ns#"
   xmlns:svg="http://www.w3.org/2000/svg"
   xmlns="http://www.w3.org/2000/svg"
   xmlns:xlink="http://www.w3.org/1999/xlink"
   xmlns:sodipodi="http://inkscape.sourceforge.net/DTD/sodipodi-0.dtd"
   xmlns:inkscape="http://www.inkscape.org/namespaces/inkscape"
   width="10cm"
   height="10cm"
   id="svg2"
   sodipodi:version="0.32"
   inkscape:version="0.43"
   version="1.0"
   sodipodi:docbase="/home/dylan/src/mfgames/wordplay/src/themes/default"
   sodipodi:docname="character-0051.svg">
  <defs
     id="defs4">
    <linearGradient
       id="linearGradient3952">
      <stop
         style="stop-color:#f8f8f8;stop-opacity:1;"
         offset="0"
         id="stop3954" />
      <stop
         style="stop-color:#000000;stop-opacity:0;"
         offset="1"
         id="stop3956" />
    </linearGradient>
    <linearGradient
       id="linearGradient2184">
      <stop
         style="stop-color:#ffffff;stop-opacity:1;"
         offset="0"
         id="stop2186" />
      <stop
         style="stop-color:#101548;stop-opacity:1;"
         offset="1"
         id="stop2188" />
    </linearGradient>
    <linearGradient
       inkscape:collect="always"
       xlink:href="#linearGradient3952"
       id="linearGradient3958"
       x1="0"
       y1="177.16536"
       x2="144.44875"
       y2="183.59393"
       gradientUnits="userSpaceOnUse" />
    <radialGradient
       inkscape:collect="always"
       xlink:href="#linearGradient2184"
       id="radialGradient2213"
       cx="130.71428"
       cy="121.47358"
       fx="130.71428"
       fy="121.47358"
       r="141.92464"
       gradientUnits="userSpaceOnUse"
       gradientTransform="matrix(-6.599531e-3,1.392562,-1.327138,-6.289479e-3,292.789,-59.79021)" />
  </defs>
  <sodipodi:namedview
     id="base"
     pagecolor="#ffffff"
     bordercolor="#666666"
     borderopacity="1.0"
     inkscape:pageopacity="0"
     inkscape:pageshadow="2"
     inkscape:zoom="1.4"
     inkscape:cx="229.78709"
     inkscape:cy="173.93196"
     inkscape:document-units="cm"
     inkscape:current-layer="layer1"
     showguides="true"
     inkscape:guide-bbox="true"
     inkscape:window-width="1086"
     inkscape:window-height="861"
     inkscape:window-x="44"
     inkscape:window-y="67">
    <sodipodi:guide
       orientation="horizontal"
       position="177.14286"
       id="guide1307" />
    <sodipodi:guide
       orientation="vertical"
       position="177.14286"
       id="guide1309" />
    <sodipodi:guide
       orientation="vertical"
       position="35.433071"
       id="guide1311" />
    <sodipodi:guide
       orientation="vertical"
       position="318.89764"
       id="guide1313" />
    <sodipodi:guide
       orientation="horizontal"
       position="35.433071"
       id="guide1315" />
    <sodipodi:guide
       orientation="horizontal"
       position="318.89764"
       id="guide1317" />
  </sodipodi:namedview>
  <metadata
     id="metadata7">
    <rdf:RDF>
      <cc:Work
         rdf:about="">
        <dc:format>image/svg+xml</dc:format>
        <dc:type
           rdf:resource="http://purl.org/dc/dcmitype/StillImage" />
      </cc:Work>
    </rdf:RDF>
  </metadata>
  <g
     inkscape:label="Layer 1"
     inkscape:groupmode="layer"
     id="layer1">
    <path
       style="font-size:200px;font-style:normal;font-variant:normal;font-weight:normal;font-stretch:normal;text-align:start;line-height:125%;writing-mode:lr-tb;text-anchor:start;fill:#ffffff;fill-opacity:1;stroke:#000000;stroke-width:1px;stroke-linecap:butt;stroke-linejoin:miter;stroke-opacity:1;font-family:FairydustB"
       d="M 121.98297,158.72706 C 117.94646,163.024 115.17954,166.99535 113.68219,170.64112 C 112.24985,174.287 111.66392,178.06304 111.92437,181.96925 C 112.24985,185.87553 113.19386,189.55392 114.7564,193.0044 C 116.38396,196.45495 119.08578,199.64505 122.86187,202.57472 C 126.63786,205.43932 131.48811,207.39244 137.41265,208.43409 C 143.33706,209.41067 148.90346,209.1828 154.11187,207.7505 C 159.32012,206.31822 163.42168,203.94192 166.41656,200.62159 C 169.47636,197.2362 172.14563,192.87423 174.42437,187.53565 C 176.76802,182.19715 178.36307,175.7193 179.20953,168.10206 C 180.12088,160.41983 180.12088,152.80265 179.20953,145.2505 C 178.36307,137.6985 176.76802,130.89512 174.42437,124.84034 C 172.14563,118.78576 169.34615,113.67509 166.02594,109.50831 C 162.70553,105.27666 158.50632,102.15166 153.42828,100.13331 C 148.35008,98.050096 141.90477,97.106086 134.09234,97.301276 C 126.34489,97.431606 119.50896,99.612596 113.58453,103.84425 C 107.66001,108.07613 102.87486,113.80529 99.229057,121.03175 C 95.583197,128.1933 93.467317,135.3222 92.881397,142.41847 C 92.295437,149.51489 92.002477,156.0253 92.002497,161.94972 C 92.002477,167.87425 93.076687,174.9706 95.225147,183.23878 C 97.438667,191.44194 99.977727,197.65938 102.84234,201.89112 C 105.70689,206.12291 109.54803,209.89895 114.36578,213.21925 C 119.18344,216.53957 124.55453,218.49269 130.47906,219.07862 C 136.40347,219.59946 142.75112,219.79477 149.52203,219.66456 C 156.35788,219.53436 161.63131,218.81821 165.34234,217.51612 C 169.11828,216.21405 172.24328,216.79998 174.71734,219.27393 C 177.19119,221.68279 178.26541,224.2544 177.94,226.98878 C 177.67947,229.78825 176.54015,232.68538 174.52203,235.68018 C 172.5037,238.74007 170.84354,241.50699 169.54156,243.98097 C 168.23938,246.4549 168.14172,248.99396 169.24859,251.59815 C 170.42037,254.20229 173.2524,255.99265 177.74469,256.96925 C 182.23676,258.01088 186.27322,258.36895 189.85406,258.04347 C 193.49977,257.78302 196.68987,256.93666 199.42437,255.5044 C 202.15862,254.07208 205.47893,251.66323 209.38531,248.27784 C 213.29142,244.95751 216.61173,241.6372 219.34625,238.3169 C 222.14558,234.99658 225.69375,232.68538 229.99078,231.38331 C 234.35259,230.08122 238.97499,229.20231 243.85797,228.74659 C 248.8057,228.35596 253.72106,228.64893 258.60406,229.6255 C 263.55178,230.66716 271.10386,234.37809 281.26031,240.75831 C 269.99709,235.81038 261.95673,232.97835 257.13922,232.26222 C 252.38643,231.54606 247.76404,231.54606 243.27203,232.26222 C 238.77967,232.97835 234.58046,234.11767 230.67437,235.68018 C 226.76797,237.30778 223.35,240.0747 220.42047,243.98097 C 217.55574,247.88719 214.5284,251.33771 211.33844,254.33253 C 208.2133,257.39239 204.46981,259.70359 200.10797,261.26612 C 195.74586,262.89369 191.02581,263.8377 185.94781,264.09815 C 180.93468,264.42363 176.54015,264.06556 172.76422,263.02393 C 168.98808,262.04733 165.4399,260.68015 162.11969,258.92237 C 158.79928,257.22963 156.03236,255.50437 153.8189,253.74659 C 151.67039,251.98875 149.00112,250.94708 145.81109,250.62159 C 142.68602,250.36115 138.22639,251.69578 132.43219,254.6255 C 137.90087,250.58901 142.4256,248.34292 146.0064,247.88722 C 149.65216,247.43146 152.35398,247.2036 154.11187,247.20362 C 155.8696,247.2036 157.46465,246.84553 158.89703,246.1294 C 160.32923,245.41324 161.11048,244.17626 161.24078,242.41847 C 161.3709,240.72574 161.5011,238.70751 161.6314,236.36378 C 161.82663,234.08512 161.33834,232.0669 160.16656,230.30909 C 158.9946,228.55127 157.59486,227.3143 155.96734,226.59815 C 154.40476,225.88201 151.54018,225.45883 147.37359,225.32862 C 143.20685,225.19841 138.58446,225.19841 133.5064,225.32862 C 128.42822,225.45883 121.68995,224.15675 113.29156,221.42237 C 104.89309,218.688 97.796737,214.35858 92.002497,208.43409 C 86.273317,202.44453 81.943887,195.70625 79.014217,188.21925 C 76.149627,180.66721 74.261607,171.55263 73.350147,160.8755 C 72.503797,150.19849 73.578017,140.36777 76.572807,131.38331 C 79.632697,122.39904 84.417847,114.29358 90.928277,107.0669 C 97.438667,99.840456 105.38137,95.087866 114.7564,92.809086 C 124.19645,90.465466 133.18082,89.651666 141.70953,90.367676 C 150.2381,91.083956 158.05059,93.330046 165.14703,97.105966 C 172.24328,100.88213 178.39562,105.96025 183.60406,112.34034 C 188.81228,118.65555 192.78363,126.59825 195.51812,136.16847 C 198.25237,145.67375 199.03362,155.43937 197.86187,165.46534 C 196.75498,175.42633 193.8904,183.95496 189.26812,191.05128 C 184.64561,198.14766 179.86046,203.42109 174.91265,206.87159 C 170.02974,210.32213 164.82141,212.56822 159.28765,213.60987 C 153.81882,214.58644 148.54539,215.07472 143.46734,215.07472 C 138.38915,215.07472 133.73421,214.00051 129.5025,211.85206 C 125.33578,209.70364 121.7876,207.26223 118.85797,204.52784 C 115.99334,201.72838 113.68214,198.37552 111.92437,194.46925 C 110.23162,190.56303 109.22251,186.39637 108.89703,181.96925 C 108.63657,177.47711 109.38527,173.50576 111.14312,170.05518 C 112.90089,166.53962 116.51417,162.76358 121.98297,158.72706"
       id="text2215" />
  </g>
</svg>
