<?xml version="1.0" encoding="UTF-8" standalone="no"?>
<!-- Created with Inkscape (http://www.inkscape.org/) -->
<svg
   xmlns:dc="http://purl.org/dc/elements/1.1/"
   xmlns:cc="http://web.resource.org/cc/"
   xmlns:rdf="http://www.w3.org/1999/02/22-rdf-syntax-ns#"
   xmlns:svg="http://www.w3.org/2000/svg"
   xmlns="http://www.w3.org/2000/svg"
   xmlns:xlink="http://www.w3.org/1999/xlink"
   xmlns:sodipodi="http://inkscape.sourceforge.net/DTD/sodipodi-0.dtd"
   xmlns:inkscape="http://www.inkscape.org/namespaces/inkscape"
   width="10cm"
   height="10cm"
   id="svg2"
   sodipodi:version="0.32"
   inkscape:version="0.43"
   version="1.0"
   sodipodi:docbase="/home/dylan/src/mfgames/wordplay/src/themes/default"
   sodipodi:docname="character-0048.svg">
  <defs
     id="defs4">
    <linearGradient
       id="linearGradient3952">
      <stop
         style="stop-color:#f8f8f8;stop-opacity:1;"
         offset="0"
         id="stop3954" />
      <stop
         style="stop-color:#000000;stop-opacity:0;"
         offset="1"
         id="stop3956" />
    </linearGradient>
    <linearGradient
       id="linearGradient2184">
      <stop
         style="stop-color:#ffffff;stop-opacity:1;"
         offset="0"
         id="stop2186" />
      <stop
         style="stop-color:#101548;stop-opacity:1;"
         offset="1"
         id="stop2188" />
    </linearGradient>
    <linearGradient
       inkscape:collect="always"
       xlink:href="#linearGradient3952"
       id="linearGradient3958"
       x1="0"
       y1="177.16536"
       x2="144.44875"
       y2="183.59393"
       gradientUnits="userSpaceOnUse" />
    <radialGradient
       inkscape:collect="always"
       xlink:href="#linearGradient2184"
       id="radialGradient2213"
       cx="130.71428"
       cy="121.47358"
       fx="130.71428"
       fy="121.47358"
       r="141.92464"
       gradientUnits="userSpaceOnUse"
       gradientTransform="matrix(-6.599531e-3,1.392562,-1.327138,-6.289479e-3,292.789,-59.79021)" />
  </defs>
  <sodipodi:namedview
     id="base"
     pagecolor="#ffffff"
     bordercolor="#666666"
     borderopacity="1.0"
     inkscape:pageopacity="0"
     inkscape:pageshadow="2"
     inkscape:zoom="1.4"
     inkscape:cx="229.78709"
     inkscape:cy="173.93196"
     inkscape:document-units="cm"
     inkscape:current-layer="layer1"
     showguides="true"
     inkscape:guide-bbox="true"
     inkscape:window-width="1086"
     inkscape:window-height="861"
     inkscape:window-x="44"
     inkscape:window-y="67">
    <sodipodi:guide
       orientation="horizontal"
       position="177.14286"
       id="guide1307" />
    <sodipodi:guide
       orientation="vertical"
       position="177.14286"
       id="guide1309" />
    <sodipodi:guide
       orientation="vertical"
       position="35.433071"
       id="guide1311" />
    <sodipodi:guide
       orientation="vertical"
       position="318.89764"
       id="guide1313" />
    <sodipodi:guide
       orientation="horizontal"
       position="35.433071"
       id="guide1315" />
    <sodipodi:guide
       orientation="horizontal"
       position="318.89764"
       id="guide1317" />
  </sodipodi:namedview>
  <metadata
     id="metadata7">
    <rdf:RDF>
      <cc:Work
         rdf:about="">
        <dc:format>image/svg+xml</dc:format>
        <dc:type
           rdf:resource="http://purl.org/dc/dcmitype/StillImage" />
      </cc:Work>
    </rdf:RDF>
  </metadata>
  <g
     inkscape:label="Layer 1"
     inkscape:groupmode="layer"
     id="layer1">
    <path
       style="font-size:200px;font-style:normal;font-variant:normal;font-weight:normal;font-stretch:normal;text-align:start;line-height:125%;writing-mode:lr-tb;text-anchor:start;fill:#ffffff;fill-opacity:1;stroke:#000000;stroke-width:1px;stroke-linecap:butt;stroke-linejoin:miter;stroke-opacity:1;font-family:FairydustB"
       d="M 61.336929,167.30208 C 70.060952,153.56519 79.338286,143.24619 89.16896,136.34505 C 98.99973,129.44412 108.34216,124.78918 117.1963,122.3802 C 125.98538,119.97147 133.73276,118.08345 140.43849,116.71614 C 147.20931,115.28398 154.50097,114.24231 162.31349,113.59114 C 170.12596,112.94023 178.94756,112.4845 188.77834,112.22395 C 198.609,111.96367 206.19363,112.87513 211.53224,114.95833 C 206.19363,114.69804 202.28738,114.76314 199.81349,115.15364 C 197.40457,115.47929 194.6702,115.96757 191.61037,116.61848 C 188.55042,117.26965 185.8486,118.70194 183.5049,120.91536 C 181.22621,123.06392 179.76136,126.12381 179.11037,130.09505 C 178.52439,134.00141 178.23142,138.20062 178.23146,142.6927 C 178.23142,147.18499 178.49183,159.88029 179.01271,180.77864 L 241.02443,170.8177 C 241.02432,155.2579 241.02432,144.80869 241.02443,139.47005 C 241.02432,134.06651 240.6337,129.70454 239.85255,126.38411 C 239.1363,123.06392 237.28084,120.58996 234.28615,118.96223 C 231.35636,117.26965 228.55689,116.55351 225.88771,116.8138 C 223.21835,117.07434 220.54908,117.79049 217.8799,118.96223 C 215.21055,120.06913 212.83425,121.9246 210.75099,124.52864 C 212.83425,121.20845 215.14544,118.7345 217.68459,117.10676 C 220.22356,115.41419 223.02304,114.24231 226.08302,113.59114 C 229.14282,112.94023 233.92798,112.4194 240.43849,112.02864 C 246.9488,111.63815 253.26389,111.37773 259.3838,111.24739 C 265.56857,111.11732 270.41882,110.56393 273.93459,109.58723 C 277.51517,108.5457 280.50996,107.14596 282.91896,105.38801 C 285.39277,103.56524 287.37844,101.44936 288.87599,99.040358 C 290.43834,96.566548 291.21959,94.125145 291.21974,91.716139 C 291.21959,89.307441 290.82896,86.703277 290.04787,83.903639 C 291.87063,86.963693 292.84719,89.76317 292.97755,92.302076 C 293.1076,94.84129 292.45656,97.608214 291.02443,100.60286 C 289.59198,103.53269 287.80162,106.26706 285.65334,108.80598 C 283.50475,111.34518 280.11934,113.39596 275.49709,114.95833 C 270.93966,116.45585 267.55424,117.92069 265.34084,119.35286 C 263.19227,120.72017 261.59722,122.99881 260.55568,126.1888 C 259.51389,129.37902 259.05816,132.43891 259.18849,135.36848 C 259.31858,138.29828 259.25347,169.51569 258.99318,229.02083 C 260.81597,234.42448 262.34592,237.45182 263.58302,238.10286 C 264.88498,238.6888 266.21961,239.24219 267.58693,239.76301 C 269.01909,240.28385 270.54903,240.60937 272.17677,240.73958 C 273.86934,240.86979 276.76647,239.40495 280.86818,236.34505 L 277.84084,247.47786 C 270.41882,246.43619 264.72222,245.91536 260.75099,245.91536 C 256.77952,245.91536 252.12457,245.91536 246.78615,245.91536 C 241.4475,245.91536 235.52303,246.24088 229.01271,246.89192 C 222.50221,247.54296 217.32643,248.55207 213.48537,249.91926 C 209.64415,251.35155 205.803,253.59764 201.96193,256.65755 C 205.28217,252.81639 208.60248,249.98436 211.92287,248.16145 C 215.2431,246.40364 218.3681,245.26432 221.29787,244.74348 C 224.22746,244.22265 226.83163,243.53906 229.11037,242.6927 C 231.45402,241.78125 233.70011,240.38151 235.84865,238.49348 C 238.06209,236.54037 239.46182,234.09896 240.04787,231.16926 C 240.6988,228.23959 241.02432,211.18232 241.02443,179.99739 L 179.01271,190.34895 L 179.01271,217.98567 C 179.72881,228.92319 180.54261,235.17318 181.45412,236.73567 C 182.36553,238.23307 183.76527,239.3724 185.65334,240.15364 C 187.60641,240.93489 189.33167,241.39062 190.82912,241.52083 C 192.39156,241.65104 194.18192,241.19531 196.20021,240.15364 C 198.28348,239.11198 200.33426,237.84245 202.35255,236.34505 L 198.93459,248.16145 C 193.01005,247.4453 187.37854,246.95702 182.04005,246.69661 C 176.70147,246.43619 170.38637,246.50129 163.09474,246.89192 C 155.80305,247.28254 149.22754,248.03124 143.36818,249.13801 C 137.5088,250.30988 131.1286,251.70962 124.22755,253.33723 C 117.32653,255.02993 111.82523,257.53644 107.72365,260.85676 C 103.62212,264.17706 100.30181,267.36716 97.76271,270.42708 C 99.58566,266.58591 102.613,262.87498 106.84474,259.29426 C 111.01143,255.71352 116.41507,252.84894 123.05568,250.70051 C 129.69631,248.55207 135.8812,246.72916 141.61037,245.23176 C 147.40462,243.66927 151.50618,242.17187 153.91505,240.73958 C 156.32389,239.30729 157.91894,237.45182 158.70021,235.17317 C 159.48144,232.89454 160.09992,229.0534 160.55568,223.64973 L 160.55568,130.1927 C 159.83951,127.13292 158.8955,124.91938 157.72365,123.55208 C 156.55175,122.11991 154.43587,121.1759 151.37599,120.72005 C 148.31608,120.19934 144.08432,120.39465 138.68068,121.30598 C 133.34214,122.15246 126.47366,123.81261 118.07521,126.28645 C 109.61169,128.69542 102.25493,131.75532 96.0049,135.46614 C 89.75494,139.17718 82.691148,144.67848 74.813491,151.97005 L 61.336929,167.30208"
       id="text2215" />
  </g>
</svg>
