<?xml version="1.0" encoding="UTF-8" standalone="no"?>
<!-- Created with Inkscape (http://www.inkscape.org/) -->
<svg
   xmlns:dc="http://purl.org/dc/elements/1.1/"
   xmlns:cc="http://web.resource.org/cc/"
   xmlns:rdf="http://www.w3.org/1999/02/22-rdf-syntax-ns#"
   xmlns:svg="http://www.w3.org/2000/svg"
   xmlns="http://www.w3.org/2000/svg"
   xmlns:xlink="http://www.w3.org/1999/xlink"
   xmlns:sodipodi="http://inkscape.sourceforge.net/DTD/sodipodi-0.dtd"
   xmlns:inkscape="http://www.inkscape.org/namespaces/inkscape"
   width="10cm"
   height="10cm"
   id="svg2"
   sodipodi:version="0.32"
   inkscape:version="0.43"
   version="1.0"
   sodipodi:docbase="/home/dylan/src/mfgames/wordplay/src/themes/default"
   sodipodi:docname="character-004f.svg">
  <defs
     id="defs4">
    <linearGradient
       id="linearGradient3952">
      <stop
         style="stop-color:#f8f8f8;stop-opacity:1;"
         offset="0"
         id="stop3954" />
      <stop
         style="stop-color:#000000;stop-opacity:0;"
         offset="1"
         id="stop3956" />
    </linearGradient>
    <linearGradient
       id="linearGradient2184">
      <stop
         style="stop-color:#ffffff;stop-opacity:1;"
         offset="0"
         id="stop2186" />
      <stop
         style="stop-color:#101548;stop-opacity:1;"
         offset="1"
         id="stop2188" />
    </linearGradient>
    <linearGradient
       inkscape:collect="always"
       xlink:href="#linearGradient3952"
       id="linearGradient3958"
       x1="0"
       y1="177.16536"
       x2="144.44875"
       y2="183.59393"
       gradientUnits="userSpaceOnUse" />
    <radialGradient
       inkscape:collect="always"
       xlink:href="#linearGradient2184"
       id="radialGradient2213"
       cx="130.71428"
       cy="121.47358"
       fx="130.71428"
       fy="121.47358"
       r="141.92464"
       gradientUnits="userSpaceOnUse"
       gradientTransform="matrix(-6.599531e-3,1.392562,-1.327138,-6.289479e-3,292.789,-59.79021)" />
  </defs>
  <sodipodi:namedview
     id="base"
     pagecolor="#ffffff"
     bordercolor="#666666"
     borderopacity="1.0"
     inkscape:pageopacity="0"
     inkscape:pageshadow="2"
     inkscape:zoom="1.4"
     inkscape:cx="229.78709"
     inkscape:cy="173.93196"
     inkscape:document-units="cm"
     inkscape:current-layer="layer1"
     showguides="true"
     inkscape:guide-bbox="true"
     inkscape:window-width="1086"
     inkscape:window-height="861"
     inkscape:window-x="44"
     inkscape:window-y="67">
    <sodipodi:guide
       orientation="horizontal"
       position="177.14286"
       id="guide1307" />
    <sodipodi:guide
       orientation="vertical"
       position="177.14286"
       id="guide1309" />
    <sodipodi:guide
       orientation="vertical"
       position="35.433071"
       id="guide1311" />
    <sodipodi:guide
       orientation="vertical"
       position="318.89764"
       id="guide1313" />
    <sodipodi:guide
       orientation="horizontal"
       position="35.433071"
       id="guide1315" />
    <sodipodi:guide
       orientation="horizontal"
       position="318.89764"
       id="guide1317" />
  </sodipodi:namedview>
  <metadata
     id="metadata7">
    <rdf:RDF>
      <cc:Work
         rdf:about="">
        <dc:format>image/svg+xml</dc:format>
        <dc:type
           rdf:resource="http://purl.org/dc/dcmitype/StillImage" />
      </cc:Work>
    </rdf:RDF>
  </metadata>
  <g
     inkscape:label="Layer 1"
     inkscape:groupmode="layer"
     id="layer1">
    <path
       style="font-size:200px;font-style:normal;font-variant:normal;font-weight:normal;font-stretch:normal;text-align:start;line-height:125%;writing-mode:lr-tb;text-anchor:start;fill:#ffffff;fill-opacity:1;stroke:#000000;stroke-width:1px;stroke-linecap:butt;stroke-linejoin:miter;stroke-opacity:1;font-family:FairydustB"
       d="M 210.0267,123.99876 C 209.63597,123.80356 210.1568,123.44549 211.5892,122.92454 C 213.02138,122.40383 214.58388,121.23195 216.2767,119.40891 C 218.0344,117.52102 220.34559,115.66555 223.21029,113.84251 C 226.07475,112.01972 229.03699,110.91295 232.09701,110.5222 C 235.22188,110.0666 238.31432,110.29446 241.37436,111.20579 C 244.43411,112.11738 247.494,114.72154 250.55404,119.01829 C 248.53567,116.41425 246.09426,114.65644 243.22983,113.74485 C 240.3651,112.76842 237.175,112.70332 233.65951,113.54954 C 230.20886,114.33092 227.34428,115.76321 225.06576,117.84641 C 222.8521,119.86477 220.08517,123.6408 216.76498,129.17454 C 218.39247,131.06267 220.73622,134.57829 223.79623,139.72141 C 226.92111,144.79964 229.19975,151.89598 230.63217,161.01048 C 232.06433,170.12513 232.29219,178.3608 231.31576,185.71751 C 230.40417,193.07433 228.45105,199.94281 225.45639,206.32298 C 222.52658,212.63811 219.10861,218.26962 215.20248,223.21751 C 211.36123,228.10034 207.7805,231.84382 204.46029,234.44798 C 201.20499,236.98705 197.26619,239.23314 192.64389,241.18626 C 188.0214,243.13938 182.87818,244.47402 177.2142,245.19016 C 171.61517,245.90631 165.7558,245.8412 159.63608,244.99485 C 153.51623,244.2136 147.59176,242.71621 141.86264,240.50266 C 136.13344,238.22402 130.89256,235.03392 126.13998,230.93235 C 121.45246,226.83081 117.25325,222.11076 113.54233,216.7722 C 109.89648,211.43369 107.29232,205.15114 105.72983,197.92454 C 104.16732,190.63292 103.58139,184.18762 103.97201,178.5886 C 104.42774,172.92461 105.20899,168.20456 106.31576,164.42845 C 107.48763,160.58738 109.37565,156.29051 111.97983,151.53782 C 114.64908,146.72021 116.60221,143.69287 117.8392,142.45579 C 119.07616,141.15381 120.67121,139.4611 122.62436,137.37766 C 124.57746,135.22933 126.88865,133.17856 129.55795,131.22532 C 132.22719,129.27231 134.57094,127.64471 136.5892,126.34251 C 138.6725,124.97544 141.01624,123.99888 143.62045,123.41282 C 146.28968,122.7619 148.86129,122.43638 151.33529,122.43626 C 153.8092,122.43638 156.21805,122.95721 158.56186,123.99876 C 160.90555,125.04054 162.69591,127.48195 163.93295,131.32298 C 162.30528,128.65382 160.15685,126.92856 157.48764,126.1472 C 154.81831,125.30096 151.95373,125.2033 148.89389,125.85423 C 145.83395,126.44028 143.35999,127.54705 141.47201,129.17454 C 139.64906,130.80226 137.69593,132.91814 135.61264,135.5222 C 133.59438,138.06136 132.03188,140.63297 130.92514,143.23704 C 129.81834,145.7762 128.77667,149.29182 127.80014,153.78391 C 126.88865,158.27619 126.27016,163.71238 125.94467,170.09251 C 125.68423,176.40768 125.81444,182.2996 126.33529,187.76829 C 126.8561,193.17198 128.02798,199.16156 129.85092,205.73704 C 131.6738,212.24749 134.18031,217.78134 137.37045,222.3386 C 140.56051,226.83081 144.304,230.41153 148.60092,233.08079 C 152.89774,235.75007 157.58524,237.63809 162.66342,238.74485 C 167.80658,239.85163 172.72194,239.85163 177.40951,238.74485 C 182.16204,237.63809 186.52401,235.55475 190.49545,232.49485 C 194.53181,229.36987 198.2753,225.00789 201.72592,219.40891 C 205.17634,213.74488 207.25967,209.28525 207.97592,206.03001 C 208.75706,202.70974 209.50576,198.96625 210.22201,194.79954 C 210.93805,190.56782 211.32867,185.91288 211.39389,180.8347 C 211.52399,175.69153 211.23102,170.25534 210.51498,164.5261 C 209.79873,158.79702 208.39899,151.63557 206.31576,143.04173 L 207.87826,139.62376 C 205.66462,141.9025 203.93936,143.3999 202.70248,144.11595 C 201.4654,144.83219 200.00056,144.01839 198.30795,141.67454 C 196.68025,139.33089 195.86645,136.79183 195.86654,134.05735 C 195.86645,131.25798 194.69458,128.52361 192.35092,125.85423 C 190.00708,123.18508 186.97974,120.97154 183.26889,119.2136 C 179.62298,117.45591 175.16334,116.4468 169.88998,116.18626 C 164.68158,115.86086 160.09175,115.79576 156.12045,115.99095 C 152.14904,116.18638 147.26624,117.22805 141.47201,119.11595 C 135.74281,120.93898 131.18552,123.02232 127.80014,125.36595 C 124.4798,127.70981 121.97329,129.69549 120.28061,131.32298 C 118.65298,132.95069 116.66731,135.22933 114.32358,138.15891 C 111.97981,141.0236 108.46419,147.24104 103.7767,156.81126 C 105.59961,148.41292 108.20378,141.67464 111.5892,136.59641 C 114.9746,131.4533 118.8483,126.99367 123.21029,123.21751 C 127.63735,119.37649 132.19464,116.4468 136.88217,114.42845 C 141.56963,112.34524 146.77796,110.8153 152.50717,109.8386 C 158.30138,108.79707 164.61648,108.439 171.45248,108.76438 C 178.35345,109.09004 184.79875,110.32702 190.78842,112.47532 C 196.84301,114.62389 203.25576,118.46503 210.0267,123.99876"
       id="text2215" />
  </g>
</svg>
