<?xml version="1.0" encoding="UTF-8" standalone="no"?>
<!-- Created with Inkscape (http://www.inkscape.org/) -->
<svg
   xmlns:dc="http://purl.org/dc/elements/1.1/"
   xmlns:cc="http://web.resource.org/cc/"
   xmlns:rdf="http://www.w3.org/1999/02/22-rdf-syntax-ns#"
   xmlns:svg="http://www.w3.org/2000/svg"
   xmlns="http://www.w3.org/2000/svg"
   xmlns:xlink="http://www.w3.org/1999/xlink"
   xmlns:sodipodi="http://inkscape.sourceforge.net/DTD/sodipodi-0.dtd"
   xmlns:inkscape="http://www.inkscape.org/namespaces/inkscape"
   width="10cm"
   height="10cm"
   id="svg2"
   sodipodi:version="0.32"
   inkscape:version="0.43"
   version="1.0"
   sodipodi:docbase="/home/dylan/src/mfgames/wordplay/src/themes/default"
   sodipodi:docname="character-0049.svg">
  <defs
     id="defs4">
    <linearGradient
       id="linearGradient3952">
      <stop
         style="stop-color:#f8f8f8;stop-opacity:1;"
         offset="0"
         id="stop3954" />
      <stop
         style="stop-color:#000000;stop-opacity:0;"
         offset="1"
         id="stop3956" />
    </linearGradient>
    <linearGradient
       id="linearGradient2184">
      <stop
         style="stop-color:#ffffff;stop-opacity:1;"
         offset="0"
         id="stop2186" />
      <stop
         style="stop-color:#101548;stop-opacity:1;"
         offset="1"
         id="stop2188" />
    </linearGradient>
    <linearGradient
       inkscape:collect="always"
       xlink:href="#linearGradient3952"
       id="linearGradient3958"
       x1="0"
       y1="177.16536"
       x2="144.44875"
       y2="183.59393"
       gradientUnits="userSpaceOnUse" />
    <radialGradient
       inkscape:collect="always"
       xlink:href="#linearGradient2184"
       id="radialGradient2213"
       cx="130.71428"
       cy="121.47358"
       fx="130.71428"
       fy="121.47358"
       r="141.92464"
       gradientUnits="userSpaceOnUse"
       gradientTransform="matrix(-6.599531e-3,1.392562,-1.327138,-6.289479e-3,292.789,-59.79021)" />
  </defs>
  <sodipodi:namedview
     id="base"
     pagecolor="#ffffff"
     bordercolor="#666666"
     borderopacity="1.0"
     inkscape:pageopacity="0"
     inkscape:pageshadow="2"
     inkscape:zoom="1.4"
     inkscape:cx="229.78709"
     inkscape:cy="173.93196"
     inkscape:document-units="cm"
     inkscape:current-layer="layer1"
     showguides="true"
     inkscape:guide-bbox="true"
     inkscape:window-width="1086"
     inkscape:window-height="861"
     inkscape:window-x="44"
     inkscape:window-y="67">
    <sodipodi:guide
       orientation="horizontal"
       position="177.14286"
       id="guide1307" />
    <sodipodi:guide
       orientation="vertical"
       position="177.14286"
       id="guide1309" />
    <sodipodi:guide
       orientation="vertical"
       position="35.433071"
       id="guide1311" />
    <sodipodi:guide
       orientation="vertical"
       position="318.89764"
       id="guide1313" />
    <sodipodi:guide
       orientation="horizontal"
       position="35.433071"
       id="guide1315" />
    <sodipodi:guide
       orientation="horizontal"
       position="318.89764"
       id="guide1317" />
  </sodipodi:namedview>
  <metadata
     id="metadata7">
    <rdf:RDF>
      <cc:Work
         rdf:about="">
        <dc:format>image/svg+xml</dc:format>
        <dc:type
           rdf:resource="http://purl.org/dc/dcmitype/StillImage" />
      </cc:Work>
    </rdf:RDF>
  </metadata>
  <g
     inkscape:label="Layer 1"
     inkscape:groupmode="layer"
     id="layer1">
    <path
       style="font-size:200px;font-style:normal;font-variant:normal;font-weight:normal;font-stretch:normal;text-align:start;line-height:125%;writing-mode:lr-tb;text-anchor:start;fill:#ffffff;fill-opacity:1;stroke:#000000;stroke-width:1px;stroke-linecap:butt;stroke-linejoin:miter;stroke-opacity:1;font-family:FairydustB"
       d="M 125.89583,130.58333 C 132.14585,126.09126 137.06121,122.93371 140.64192,121.11067 C 144.15756,119.22278 148.22657,117.75794 152.84895,116.71614 C 157.40625,115.6095 162.77733,114.92591 168.96223,114.66536 C 175.14711,114.33997 181.49476,114.24231 188.0052,114.37239 C 194.58069,114.43763 199.62625,114.43763 203.14192,114.37239 C 206.6575,114.24231 210.36843,114.047 214.27473,113.78645 C 218.24603,113.46107 221.20826,112.61471 223.16145,111.24739 C 225.11451,109.88034 226.31894,108.35039 226.77473,106.65755 C 227.2955,104.96498 227.3606,102.55613 226.97005,99.430984 C 227.94654,102.55613 228.33716,105.06264 228.14192,106.95052 C 227.94654,108.83867 227.16529,110.66159 225.79817,112.41927 C 224.43092,114.17721 223.06373,115.44674 221.69661,116.22786 C 220.32936,117.00924 218.01816,117.59518 214.76302,117.98567 C 211.50775,118.37643 208.74083,119.22278 206.46223,120.52473 C 204.24865,121.76184 202.68615,124.00793 201.77473,127.26302 C 200.92834,130.45324 200.53771,133.54568 200.60286,136.54036 C 200.73302,139.47015 200.89578,170.88288 201.09114,230.77864 C 202.26297,235.07553 203.27208,237.67969 204.11848,238.59114 C 205.0299,239.4375 206.29943,240.21875 207.92708,240.93489 C 209.61973,241.58594 211.01947,241.91146 212.1263,241.91145 C 213.23301,241.91146 214.50254,241.58594 215.93489,240.93489 C 217.43223,240.21875 219.3528,239.27474 221.69661,238.10286 L 219.9388,247.28255 L 166.42317,246.69661 C 161.73567,247.08723 157.63411,247.57551 154.11848,248.16145 C 150.60287,248.74739 147.64063,249.62629 145.23177,250.79817 C 142.75782,251.97004 140.51173,253.33723 138.49348,254.89973 L 141.22786,251.38411 C 146.11068,248.45442 150.27735,246.59895 153.72786,245.8177 C 157.11328,244.97135 159.97786,244.25521 162.32161,243.66927 C 164.66535,243.08333 167.20441,242.66016 169.9388,242.39973 C 172.67316,242.07422 174.82159,241.29297 176.38411,240.05598 C 178.01169,238.75391 179.41143,237.09375 180.58333,235.07552 C 181.75518,232.9922 182.34112,229.99741 182.34114,226.09114 L 181.7552,125.60286 C 180.97393,123.25923 180.02992,121.66418 178.92317,120.8177 C 177.88148,119.90637 174.56118,119.22278 168.96223,118.76692 C 163.36327,118.24622 158.3177,118.37643 153.82552,119.15755 C 149.33334,119.93892 145.26433,121.1108 141.61848,122.67317 C 137.97267,124.23579 132.73179,126.87251 125.89583,130.58333"
       id="text2215" />
  </g>
</svg>
