<?xml version="1.0" encoding="UTF-8" standalone="no"?>
<!-- Created with Inkscape (http://www.inkscape.org/) -->
<svg
   xmlns:dc="http://purl.org/dc/elements/1.1/"
   xmlns:cc="http://web.resource.org/cc/"
   xmlns:rdf="http://www.w3.org/1999/02/22-rdf-syntax-ns#"
   xmlns:svg="http://www.w3.org/2000/svg"
   xmlns="http://www.w3.org/2000/svg"
   xmlns:xlink="http://www.w3.org/1999/xlink"
   xmlns:sodipodi="http://inkscape.sourceforge.net/DTD/sodipodi-0.dtd"
   xmlns:inkscape="http://www.inkscape.org/namespaces/inkscape"
   width="10cm"
   height="10cm"
   id="svg2"
   sodipodi:version="0.32"
   inkscape:version="0.43"
   version="1.0"
   sodipodi:docbase="/home/dylan/src/mfgames/wordplay/src/themes/default"
   sodipodi:docname="character-0052.svg">
  <defs
     id="defs4">
    <linearGradient
       id="linearGradient3952">
      <stop
         style="stop-color:#f8f8f8;stop-opacity:1;"
         offset="0"
         id="stop3954" />
      <stop
         style="stop-color:#000000;stop-opacity:0;"
         offset="1"
         id="stop3956" />
    </linearGradient>
    <linearGradient
       id="linearGradient2184">
      <stop
         style="stop-color:#ffffff;stop-opacity:1;"
         offset="0"
         id="stop2186" />
      <stop
         style="stop-color:#101548;stop-opacity:1;"
         offset="1"
         id="stop2188" />
    </linearGradient>
    <linearGradient
       inkscape:collect="always"
       xlink:href="#linearGradient3952"
       id="linearGradient3958"
       x1="0"
       y1="177.16536"
       x2="144.44875"
       y2="183.59393"
       gradientUnits="userSpaceOnUse" />
    <radialGradient
       inkscape:collect="always"
       xlink:href="#linearGradient2184"
       id="radialGradient2213"
       cx="130.71428"
       cy="121.47358"
       fx="130.71428"
       fy="121.47358"
       r="141.92464"
       gradientUnits="userSpaceOnUse"
       gradientTransform="matrix(-6.599531e-3,1.392562,-1.327138,-6.289479e-3,292.789,-59.79021)" />
  </defs>
  <sodipodi:namedview
     id="base"
     pagecolor="#ffffff"
     bordercolor="#666666"
     borderopacity="1.0"
     inkscape:pageopacity="0"
     inkscape:pageshadow="2"
     inkscape:zoom="1.4"
     inkscape:cx="229.78709"
     inkscape:cy="173.93196"
     inkscape:document-units="cm"
     inkscape:current-layer="layer1"
     showguides="true"
     inkscape:guide-bbox="true"
     inkscape:window-width="1086"
     inkscape:window-height="861"
     inkscape:window-x="44"
     inkscape:window-y="67">
    <sodipodi:guide
       orientation="horizontal"
       position="177.14286"
       id="guide1307" />
    <sodipodi:guide
       orientation="vertical"
       position="177.14286"
       id="guide1309" />
    <sodipodi:guide
       orientation="vertical"
       position="35.433071"
       id="guide1311" />
    <sodipodi:guide
       orientation="vertical"
       position="318.89764"
       id="guide1313" />
    <sodipodi:guide
       orientation="horizontal"
       position="35.433071"
       id="guide1315" />
    <sodipodi:guide
       orientation="horizontal"
       position="318.89764"
       id="guide1317" />
  </sodipodi:namedview>
  <metadata
     id="metadata7">
    <rdf:RDF>
      <cc:Work
         rdf:about="">
        <dc:format>image/svg+xml</dc:format>
        <dc:type
           rdf:resource="http://purl.org/dc/dcmitype/StillImage" />
      </cc:Work>
    </rdf:RDF>
  </metadata>
  <g
     inkscape:label="Layer 1"
     inkscape:groupmode="layer"
     id="layer1">
    <path
       style="font-size:200px;font-style:normal;font-variant:normal;font-weight:normal;font-stretch:normal;text-align:start;line-height:125%;writing-mode:lr-tb;text-anchor:start;fill:#ffffff;fill-opacity:1;stroke:#000000;stroke-width:1px;stroke-linecap:butt;stroke-linejoin:miter;stroke-opacity:1;font-family:FairydustB"
       d="M 116.96028,155.09907 C 117.67638,155.61998 119.27143,156.27102 121.74543,157.05219 C 124.28445,157.83352 127.73496,158.81008 132.097,159.98188 C 138.02141,162.2606 144.17375,160.66555 150.55403,155.19672 C 156.99926,149.72806 160.22191,142.76192 160.222,134.29829 C 160.22191,126.03016 157.61775,119.32444 152.4095,114.1811 C 147.2662,108.97289 140.43026,106.36873 131.90168,106.3686 C 128.12559,106.36873 123.01492,106.98721 116.56965,108.22407 L 116.96028,155.09907 M 10.319655,123.84907 C 24.772832,116.94814 35.189484,112.42341 41.569654,110.27485 C 47.949894,108.06143 56.413424,106.10831 66.960284,104.41547 C 77.507154,102.65779 89.649074,101.55102 103.38606,101.09516 C 117.123,100.63956 128.77663,100.57446 138.347,100.89985 C 147.91724,101.1604 155.50186,102.39738 161.1009,104.61079 C 166.76487,106.75935 170.80133,109.49372 173.21028,112.81391 C 175.68414,116.13434 177.93023,119.91038 179.94856,124.14204 C 182.03179,128.30881 182.91069,132.63823 182.58528,137.13032 C 182.32475,141.6226 180.95757,145.98457 178.48371,150.21626 C 176.00966,154.383 172.88466,157.63821 169.10871,159.98188 C 165.39769,162.2606 161.78441,164.11606 158.26887,165.54829 C 154.81827,166.98064 151.36775,167.69679 147.91731,167.69672 C 165.82086,191.7202 176.36773,206.27097 179.55793,211.34907 C 182.74793,216.42721 186.00314,220.43111 189.32356,223.36079 C 192.70886,226.22538 197.3638,228.95975 203.2884,231.56391 C 209.21275,234.10297 214.38852,235.79568 218.81575,236.64204 C 223.30779,237.55349 228.93929,238.59516 235.71028,239.76704 C 242.54605,240.9389 248.27521,241.52484 252.89778,241.52485 C 257.51999,241.52484 263.31426,241.36208 270.28059,241.03657 C 277.24653,240.77614 284.89627,240.28786 293.22981,239.57172 C 301.62802,238.85557 308.4314,237.61859 313.63996,235.86079 C 318.84805,234.10297 323.63321,231.92199 327.99543,229.31782 C 332.35716,226.71366 337.69569,221.66809 344.01106,214.1811 C 337.69569,222.83996 332.35716,228.63423 327.99543,231.56391 C 323.63321,234.42849 318.91316,236.70714 313.83528,238.39985 C 308.82202,240.15765 301.88844,241.52484 293.0345,242.50141 C 284.24523,243.54307 276.59549,244.19411 270.08528,244.45454 C 263.57467,244.78005 257.7153,244.94281 252.50715,244.94282 C 247.29865,244.94281 239.74657,244.42197 229.8509,243.38032 C 220.02003,242.40375 211.91457,241.10166 205.5345,239.47407 C 199.21927,237.91156 193.45756,236.60948 188.24934,235.56782 C 183.0409,234.59125 177.89768,233.94021 172.81965,233.61469 C 167.80654,233.35428 164.12816,233.87511 161.7845,235.17719 C 159.44066,236.47927 157.25967,238.26964 155.24153,240.54829 C 153.22322,242.89203 152.63728,245.30088 153.48371,247.77485 C 154.39509,250.24879 156.28311,251.84384 159.14778,252.56001 C 162.07738,253.27613 164.68154,251.61598 166.96028,247.57954 C 164.35602,251.61598 161.45889,253.6342 158.26887,253.63422 C 155.14379,253.6342 152.93025,252.10426 151.62825,249.04438 C 150.32609,246.04958 150.5865,242.79437 152.4095,239.27876 C 154.29744,235.82823 156.47843,233.38683 158.95246,231.95454 C 161.42634,230.52225 163.80264,229.51313 166.08137,228.92719 C 168.42503,228.34126 169.72711,227.56001 169.98762,226.58344 C 170.31305,225.54178 157.16202,206.07566 130.5345,168.18501 L 117.54621,165.54829 L 117.93684,218.47797 C 119.10867,222.51444 120.99669,225.34647 123.6009,226.97407 C 126.20502,228.53657 128.64642,228.95975 130.92512,228.2436 C 133.26881,227.52746 136.32871,225.8673 140.10481,223.26313 L 137.46809,234.10297 C 111.42639,233.25662 94.434224,233.19152 86.491534,233.90766 C 78.548824,234.62381 71.485024,236.1212 65.300124,238.39985 C 59.050144,240.74359 53.744154,243.51052 49.382154,246.70063 C 53.418634,242.66416 57.324884,239.53917 61.100904,237.32563 C 64.876954,235.17719 68.880864,233.61469 73.112624,232.63813 C 77.279294,231.59646 81.315744,230.65246 85.222004,229.8061 C 89.128234,228.89464 92.285784,227.52746 94.694654,225.70454 C 97.168594,223.81652 98.698544,219.38945 99.284504,212.42329 L 98.893874,114.76704 C 97.136044,110.7307 94.011044,108.12654 89.518874,106.95454 C 85.026674,105.78279 77.572254,105.94555 67.155594,107.44282 C 56.738944,108.87523 48.275414,110.60049 41.764964,112.6186 C 35.254594,114.63695 24.935592,118.38043 10.807937,123.84907 L 10.319655,123.84907"
       id="text2215" />
  </g>
</svg>
