<?xml version="1.0" encoding="UTF-8" standalone="no"?>
<!-- Created with Inkscape (http://www.inkscape.org/) -->
<svg
   xmlns:dc="http://purl.org/dc/elements/1.1/"
   xmlns:cc="http://web.resource.org/cc/"
   xmlns:rdf="http://www.w3.org/1999/02/22-rdf-syntax-ns#"
   xmlns:svg="http://www.w3.org/2000/svg"
   xmlns="http://www.w3.org/2000/svg"
   xmlns:xlink="http://www.w3.org/1999/xlink"
   xmlns:sodipodi="http://inkscape.sourceforge.net/DTD/sodipodi-0.dtd"
   xmlns:inkscape="http://www.inkscape.org/namespaces/inkscape"
   width="10cm"
   height="10cm"
   id="svg2"
   sodipodi:version="0.32"
   inkscape:version="0.43"
   version="1.0"
   sodipodi:docbase="/home/dylan/src/mfgames/wordplay/src/themes/default"
   sodipodi:docname="character-004a.svg">
  <defs
     id="defs4">
    <linearGradient
       id="linearGradient3952">
      <stop
         style="stop-color:#f8f8f8;stop-opacity:1;"
         offset="0"
         id="stop3954" />
      <stop
         style="stop-color:#000000;stop-opacity:0;"
         offset="1"
         id="stop3956" />
    </linearGradient>
    <linearGradient
       id="linearGradient2184">
      <stop
         style="stop-color:#ffffff;stop-opacity:1;"
         offset="0"
         id="stop2186" />
      <stop
         style="stop-color:#101548;stop-opacity:1;"
         offset="1"
         id="stop2188" />
    </linearGradient>
    <linearGradient
       inkscape:collect="always"
       xlink:href="#linearGradient3952"
       id="linearGradient3958"
       x1="0"
       y1="177.16536"
       x2="144.44875"
       y2="183.59393"
       gradientUnits="userSpaceOnUse" />
    <radialGradient
       inkscape:collect="always"
       xlink:href="#linearGradient2184"
       id="radialGradient2213"
       cx="130.71428"
       cy="121.47358"
       fx="130.71428"
       fy="121.47358"
       r="141.92464"
       gradientUnits="userSpaceOnUse"
       gradientTransform="matrix(-6.599531e-3,1.392562,-1.327138,-6.289479e-3,292.789,-59.79021)" />
  </defs>
  <sodipodi:namedview
     id="base"
     pagecolor="#ffffff"
     bordercolor="#666666"
     borderopacity="1.0"
     inkscape:pageopacity="0"
     inkscape:pageshadow="2"
     inkscape:zoom="1.4"
     inkscape:cx="229.78709"
     inkscape:cy="173.93196"
     inkscape:document-units="cm"
     inkscape:current-layer="layer1"
     showguides="true"
     inkscape:guide-bbox="true"
     inkscape:window-width="1086"
     inkscape:window-height="861"
     inkscape:window-x="44"
     inkscape:window-y="67">
    <sodipodi:guide
       orientation="horizontal"
       position="177.14286"
       id="guide1307" />
    <sodipodi:guide
       orientation="vertical"
       position="177.14286"
       id="guide1309" />
    <sodipodi:guide
       orientation="vertical"
       position="35.433071"
       id="guide1311" />
    <sodipodi:guide
       orientation="vertical"
       position="318.89764"
       id="guide1313" />
    <sodipodi:guide
       orientation="horizontal"
       position="35.433071"
       id="guide1315" />
    <sodipodi:guide
       orientation="horizontal"
       position="318.89764"
       id="guide1317" />
  </sodipodi:namedview>
  <metadata
     id="metadata7">
    <rdf:RDF>
      <cc:Work
         rdf:about="">
        <dc:format>image/svg+xml</dc:format>
        <dc:type
           rdf:resource="http://purl.org/dc/dcmitype/StillImage" />
      </cc:Work>
    </rdf:RDF>
  </metadata>
  <g
     inkscape:label="Layer 1"
     inkscape:groupmode="layer"
     id="layer1">
    <path
       style="font-size:200px;font-style:normal;font-variant:normal;font-weight:normal;font-stretch:normal;text-align:start;line-height:125%;writing-mode:lr-tb;text-anchor:start;fill:#ffffff;fill-opacity:1;stroke:#000000;stroke-width:1px;stroke-linecap:butt;stroke-linejoin:miter;stroke-opacity:1;font-family:FairydustB"
       d="M 126.94296,129.72591 C 130.45858,126.40572 135.17863,123.63879 141.10311,121.42513 C 147.02757,119.21171 153.44033,117.64922 160.34139,116.73763 C 167.3075,115.8263 172.74369,115.37057 176.64999,115.37044 C 180.55619,115.37057 185.14602,115.33802 190.41952,115.27279 C 195.75799,115.14271 201.22674,115.04505 206.82577,114.97982 C 212.42464,114.84974 216.98193,114.62188 220.49764,114.29622 C 224.01317,113.97083 226.42202,113.05938 227.72421,111.56185 C 229.02619,110.06459 230.06785,108.43699 230.84921,106.67904 C 231.63035,104.85626 231.95587,103.09845 231.82577,101.4056 C 231.76056,99.713037 230.8491,97.564602 229.09139,94.960286 C 231.23973,97.108873 232.57436,99.061996 233.0953,100.81966 C 233.61603,102.51251 233.55092,104.66095 232.89999,107.26497 C 232.31395,109.86928 231.17462,112.21302 229.48202,114.29622 C 227.78921,116.37969 225.86864,117.74687 223.7203,118.39779 C 221.63687,118.98385 219.19547,119.43958 216.39608,119.76497 C 213.59652,120.02552 211.54574,120.70911 210.24374,121.81575 C 208.94157,122.92265 207.99756,124.42004 207.41171,126.30794 C 206.82569,128.19608 206.53272,130.40962 206.5328,132.94857 C 206.53272,135.42264 206.43507,162.40829 206.23983,213.9056 C 206.23975,217.55146 205.91423,220.5788 205.26327,222.98763 C 204.67725,225.3314 203.63559,227.87046 202.13827,230.60482 C 200.6408,233.2741 198.68768,236.23634 196.27889,239.49154 C 193.86997,242.68164 190.97284,245.67643 187.58749,248.47591 C 184.20201,251.27538 180.58874,253.61913 176.74764,255.50716 C 172.97156,257.46027 168.15385,258.6647 162.29452,259.12044 C 156.50022,259.64126 151.12913,259.34829 146.18124,258.24154 C 141.29841,257.13475 137.0992,255.31184 133.58358,252.77279 C 130.13306,250.29882 127.75676,247.36914 126.45467,243.98372 C 125.15259,240.59831 124.66431,237.50587 124.98983,234.70638 C 125.25025,231.84181 126.19426,229.17254 127.82186,226.69857 C 129.38436,224.15953 131.27238,222.36916 133.48592,221.32747 C 135.69946,220.22073 138.14086,219.63479 140.81014,219.56966 C 143.5445,219.43948 145.79059,220.12307 147.54842,221.62044 C 149.37132,223.11786 150.57575,225.00588 151.16171,227.2845 C 151.81272,229.56317 151.78017,231.58139 151.06405,233.33919 C 150.41299,235.03191 149.50153,236.23634 148.32967,236.95247 C 147.22289,237.66863 145.82315,238.28712 144.13046,238.80794 C 142.43773,239.26368 140.58227,238.8405 138.56405,237.53841 C 136.61092,236.23634 135.73201,234.54363 135.92733,232.46029 C 136.12264,230.31186 136.90389,228.78192 138.27108,227.87044 C 139.70336,226.959 141.1682,226.56838 142.66561,226.69857 C 144.16299,226.76369 145.36742,227.31708 146.27889,228.35872 C 147.19033,229.3353 147.54841,231.02801 147.35311,233.43685 C 148.32965,231.61395 148.62262,229.82358 148.23202,228.06575 C 147.84137,226.24286 146.7346,225.03843 144.91171,224.45247 C 143.08877,223.86656 141.23331,223.7689 139.3453,224.1595 C 137.45727,224.55015 135.89477,225.59182 134.6578,227.2845 C 133.48592,228.97723 132.70467,230.99546 132.31405,233.33919 C 131.92342,235.61785 132.15129,237.9616 132.99764,240.37044 C 133.9091,242.7793 135.56925,244.73242 137.97811,246.22982 C 140.38695,247.72721 143.67471,248.86653 147.84139,249.64779 C 152.07314,250.49414 156.59788,250.75455 161.41561,250.42904 C 166.23328,250.10351 170.4976,249.45247 174.20858,248.47591 C 177.91947,247.49935 180.97936,246.26237 183.38827,244.76497 C 185.79707,243.20248 187.29446,241.47722 187.88046,239.58919 C 188.46633,237.70118 188.7593,234.86915 188.75936,231.0931 L 188.17342,128.55404 C 186.80618,124.97343 185.24368,122.49947 183.48592,121.13216 C 181.79316,119.7 178.63561,118.98385 174.01327,118.98372 C 169.45594,118.98385 163.56401,119.50468 156.33749,120.54622 C 149.1109,121.52291 143.38174,122.72734 139.14999,124.1595 C 134.98331,125.52681 128.89608,129.00988 120.88827,134.60872 L 126.94296,129.72591"
       id="text2215" />
  </g>
</svg>
