<?xml version="1.0" encoding="UTF-8" standalone="no"?>
<!-- Created with Inkscape (http://www.inkscape.org/) -->
<svg
   xmlns:dc="http://purl.org/dc/elements/1.1/"
   xmlns:cc="http://web.resource.org/cc/"
   xmlns:rdf="http://www.w3.org/1999/02/22-rdf-syntax-ns#"
   xmlns:svg="http://www.w3.org/2000/svg"
   xmlns="http://www.w3.org/2000/svg"
   xmlns:xlink="http://www.w3.org/1999/xlink"
   xmlns:sodipodi="http://inkscape.sourceforge.net/DTD/sodipodi-0.dtd"
   xmlns:inkscape="http://www.inkscape.org/namespaces/inkscape"
   width="10cm"
   height="10cm"
   id="svg2"
   sodipodi:version="0.32"
   inkscape:version="0.43"
   version="1.0"
   sodipodi:docbase="/home/dylan/src/mfgames/wordplay/src/themes/default"
   sodipodi:docname="character-0053.svg">
  <defs
     id="defs4">
    <linearGradient
       id="linearGradient3952">
      <stop
         style="stop-color:#f8f8f8;stop-opacity:1;"
         offset="0"
         id="stop3954" />
      <stop
         style="stop-color:#000000;stop-opacity:0;"
         offset="1"
         id="stop3956" />
    </linearGradient>
    <linearGradient
       id="linearGradient2184">
      <stop
         style="stop-color:#ffffff;stop-opacity:1;"
         offset="0"
         id="stop2186" />
      <stop
         style="stop-color:#101548;stop-opacity:1;"
         offset="1"
         id="stop2188" />
    </linearGradient>
    <linearGradient
       inkscape:collect="always"
       xlink:href="#linearGradient3952"
       id="linearGradient3958"
       x1="0"
       y1="177.16536"
       x2="144.44875"
       y2="183.59393"
       gradientUnits="userSpaceOnUse" />
    <radialGradient
       inkscape:collect="always"
       xlink:href="#linearGradient2184"
       id="radialGradient2213"
       cx="130.71428"
       cy="121.47358"
       fx="130.71428"
       fy="121.47358"
       r="141.92464"
       gradientUnits="userSpaceOnUse"
       gradientTransform="matrix(-6.599531e-3,1.392562,-1.327138,-6.289479e-3,292.789,-59.79021)" />
  </defs>
  <sodipodi:namedview
     id="base"
     pagecolor="#ffffff"
     bordercolor="#666666"
     borderopacity="1.0"
     inkscape:pageopacity="0"
     inkscape:pageshadow="2"
     inkscape:zoom="1.4"
     inkscape:cx="229.78709"
     inkscape:cy="173.93196"
     inkscape:document-units="cm"
     inkscape:current-layer="layer1"
     showguides="true"
     inkscape:guide-bbox="true"
     inkscape:window-width="1086"
     inkscape:window-height="861"
     inkscape:window-x="44"
     inkscape:window-y="67">
    <sodipodi:guide
       orientation="horizontal"
       position="177.14286"
       id="guide1307" />
    <sodipodi:guide
       orientation="vertical"
       position="177.14286"
       id="guide1309" />
    <sodipodi:guide
       orientation="vertical"
       position="35.433071"
       id="guide1311" />
    <sodipodi:guide
       orientation="vertical"
       position="318.89764"
       id="guide1313" />
    <sodipodi:guide
       orientation="horizontal"
       position="35.433071"
       id="guide1315" />
    <sodipodi:guide
       orientation="horizontal"
       position="318.89764"
       id="guide1317" />
  </sodipodi:namedview>
  <metadata
     id="metadata7">
    <rdf:RDF>
      <cc:Work
         rdf:about="">
        <dc:format>image/svg+xml</dc:format>
        <dc:type
           rdf:resource="http://purl.org/dc/dcmitype/StillImage" />
      </cc:Work>
    </rdf:RDF>
  </metadata>
  <g
     inkscape:label="Layer 1"
     inkscape:groupmode="layer"
     id="layer1">
    <path
       style="font-size:200px;font-style:normal;font-variant:normal;font-weight:normal;font-stretch:normal;text-align:start;line-height:125%;writing-mode:lr-tb;text-anchor:start;fill:#ffffff;fill-opacity:1;stroke:#000000;stroke-width:1px;stroke-linecap:butt;stroke-linejoin:miter;stroke-opacity:1;font-family:FairydustB"
       d="M 124.90954,170.91536 C 126.08142,181.72272 127.18818,189.79563 128.22985,195.13411 C 129.27152,200.4727 130.6387,205.16019 132.33141,209.19661 C 134.08922,213.168 136.36786,217.00914 139.16735,220.72005 C 141.96682,224.3659 145.25457,227.62111 149.03063,230.48567 C 152.80665,233.35027 156.94076,235.66147 161.43297,237.41927 C 165.99023,239.11198 170.74283,240.38151 175.69079,241.22786 C 180.70376,242.07422 185.03318,242.30208 188.67907,241.91146 C 192.38994,241.45573 196.23108,240.51172 200.2025,239.07942 C 204.23889,237.64714 207.23368,235.10808 209.18688,231.46224 C 211.13992,227.75132 212.14904,223.94273 212.21422,220.03646 C 212.34435,216.13024 211.10737,212.25654 208.50329,208.41536 C 205.96415,204.50915 197.3053,198.0964 182.52672,189.17708 C 167.81314,180.25788 157.5267,173.61726 151.66735,169.25521 C 145.87306,164.8282 142.25978,160.36857 140.8275,155.8763 C 139.3952,151.3191 139.19989,146.89202 140.24157,142.59505 C 141.28322,138.29828 142.74807,134.35948 144.6361,130.77864 C 146.58921,127.19803 149.51889,123.97538 153.42516,121.11067 C 157.33138,118.24622 161.43294,115.93502 165.72985,114.17708 C 170.02668,112.4194 174.9746,111.50794 180.5736,111.44271 C 186.23761,111.31263 190.66468,111.76836 193.85485,112.80989 C 197.04489,113.85169 199.74671,114.89336 201.96032,115.93489 C 204.23889,116.91158 206.02925,117.46497 207.33141,117.59505 C 208.69852,117.66028 209.67508,117.23711 210.2611,116.32552 C 210.91206,115.41419 210.91206,114.20976 210.2611,112.71224 C 209.67508,111.14987 209.15425,109.35951 208.6986,107.34114 C 208.3079,105.25795 208.14514,103.30483 208.21032,101.48177 C 208.34045,99.593891 209.9355,96.501446 212.99547,92.204421 C 210.32612,96.110821 209.1868,99.919411 209.5775,103.6302 C 210.03315,107.27618 212.24669,111.31263 216.21813,115.73958 C 220.2545,120.10169 222.82611,124.39856 223.93297,128.63021 C 225.03965,132.79699 225.85345,137.09386 226.37438,141.52083 C 226.89512,145.94801 226.79746,150.01702 226.08141,153.72786 C 225.36517,157.37378 224.03054,160.17326 222.0775,162.1263 C 220.12429,164.07951 218.00841,165.41414 215.72985,166.13021 C 213.51622,166.84643 211.27013,167.00919 208.99157,166.61849 C 206.77795,166.16284 204.59696,165.08862 202.4486,163.39583 C 200.30009,161.6381 198.96546,159.48967 198.44469,156.95052 C 197.92379,154.34644 197.95634,152.1329 198.54235,150.30989 C 199.19332,148.42197 201.47196,146.27353 205.37829,143.86458 C 201.66728,146.53395 199.74671,149.82171 199.61657,153.72786 C 199.55139,157.5691 201.40686,160.36857 205.18297,162.1263 C 208.95894,163.88419 212.08393,164.20971 214.55797,163.10286 C 217.03185,161.93107 218.56179,159.81519 219.14782,156.75521 C 219.79877,153.6954 219.76622,150.17978 219.05016,146.20833 C 218.33393,142.17198 216.47846,138.07042 213.48375,133.90364 C 210.48888,129.67199 206.68029,126.28658 202.05797,123.74739 C 197.43551,121.14335 192.35739,119.71106 186.8236,119.45052 C 181.3548,119.12512 176.47199,119.67851 172.17516,121.11067 C 167.87825,122.54309 164.29752,124.3009 161.43297,126.38411 C 158.56836,128.40246 156.81055,131.07173 156.15954,134.39192 C 155.57357,137.64724 156.19206,140.90245 158.015,144.15755 C 159.903,147.41286 163.19075,151.09124 167.87829,155.19271 C 172.56574,159.29435 179.49933,163.81909 188.67907,168.76692 C 197.92379,173.64981 205.248,177.5235 210.65172,180.38802 C 216.12039,183.25266 220.28705,186.44277 223.15172,189.95833 C 226.01621,193.4089 228.00189,197.38025 229.10875,201.87239 C 230.28053,206.36462 229.98756,212.22399 228.22985,219.45052 C 226.47194,226.612 223.28184,232.3086 218.65954,236.54036 C 214.10216,240.70703 208.89383,243.76693 203.03454,245.72005 C 197.17509,247.60807 191.28317,248.48697 185.35875,248.35677 C 179.43423,248.29166 174.35611,247.60807 170.12438,246.30599 C 165.95768,244.9388 162.44206,243.70182 159.5775,242.59505 C 156.71289,241.48828 154.66212,240.9349 153.42516,240.93489 C 152.18816,240.9349 151.40691,241.8138 151.08141,243.57161 C 150.82097,245.26432 151.60222,247.60807 153.42516,250.60286 C 155.24805,253.59765 157.78711,255.84374 161.04235,257.34114 C 164.36263,258.90363 168.49674,260.49868 173.44469,262.1263 C 168.30143,261.47524 163.93945,260.49868 160.35875,259.19661 C 156.778,257.89452 152.31837,254.57421 146.97985,249.23567 C 141.6413,243.89713 137.7025,237.64714 135.16344,230.48567 C 132.62438,223.32424 130.5736,216.3581 129.0111,209.58724 C 127.4486,202.81645 125.95121,189.92583 124.51891,170.91536 L 124.90954,170.91536"
       id="text2215" />
  </g>
</svg>
