<?xml version="1.0" encoding="UTF-8" standalone="no"?>
<!-- Created with Inkscape (http://www.inkscape.org/) -->
<svg
   xmlns:dc="http://purl.org/dc/elements/1.1/"
   xmlns:cc="http://web.resource.org/cc/"
   xmlns:rdf="http://www.w3.org/1999/02/22-rdf-syntax-ns#"
   xmlns:svg="http://www.w3.org/2000/svg"
   xmlns="http://www.w3.org/2000/svg"
   xmlns:xlink="http://www.w3.org/1999/xlink"
   xmlns:sodipodi="http://inkscape.sourceforge.net/DTD/sodipodi-0.dtd"
   xmlns:inkscape="http://www.inkscape.org/namespaces/inkscape"
   width="10cm"
   height="10cm"
   id="svg2"
   sodipodi:version="0.32"
   inkscape:version="0.43"
   version="1.0"
   sodipodi:docbase="/home/dylan/src/mfgames/wordplay/src/themes/default"
   sodipodi:docname="character-0046.svg">
  <defs
     id="defs4">
    <linearGradient
       id="linearGradient3952">
      <stop
         style="stop-color:#f8f8f8;stop-opacity:1;"
         offset="0"
         id="stop3954" />
      <stop
         style="stop-color:#000000;stop-opacity:0;"
         offset="1"
         id="stop3956" />
    </linearGradient>
    <linearGradient
       id="linearGradient2184">
      <stop
         style="stop-color:#ffffff;stop-opacity:1;"
         offset="0"
         id="stop2186" />
      <stop
         style="stop-color:#101548;stop-opacity:1;"
         offset="1"
         id="stop2188" />
    </linearGradient>
    <linearGradient
       inkscape:collect="always"
       xlink:href="#linearGradient3952"
       id="linearGradient3958"
       x1="0"
       y1="177.16536"
       x2="144.44875"
       y2="183.59393"
       gradientUnits="userSpaceOnUse" />
    <radialGradient
       inkscape:collect="always"
       xlink:href="#linearGradient2184"
       id="radialGradient2213"
       cx="130.71428"
       cy="121.47358"
       fx="130.71428"
       fy="121.47358"
       r="141.92464"
       gradientUnits="userSpaceOnUse"
       gradientTransform="matrix(-6.599531e-3,1.392562,-1.327138,-6.289479e-3,292.789,-59.79021)" />
  </defs>
  <sodipodi:namedview
     id="base"
     pagecolor="#ffffff"
     bordercolor="#666666"
     borderopacity="1.0"
     inkscape:pageopacity="0"
     inkscape:pageshadow="2"
     inkscape:zoom="1.4"
     inkscape:cx="229.78709"
     inkscape:cy="173.93196"
     inkscape:document-units="cm"
     inkscape:current-layer="layer1"
     showguides="true"
     inkscape:guide-bbox="true"
     inkscape:window-width="1086"
     inkscape:window-height="861"
     inkscape:window-x="44"
     inkscape:window-y="67">
    <sodipodi:guide
       orientation="horizontal"
       position="177.14286"
       id="guide1307" />
    <sodipodi:guide
       orientation="vertical"
       position="177.14286"
       id="guide1309" />
    <sodipodi:guide
       orientation="vertical"
       position="35.433071"
       id="guide1311" />
    <sodipodi:guide
       orientation="vertical"
       position="318.89764"
       id="guide1313" />
    <sodipodi:guide
       orientation="horizontal"
       position="35.433071"
       id="guide1315" />
    <sodipodi:guide
       orientation="horizontal"
       position="318.89764"
       id="guide1317" />
  </sodipodi:namedview>
  <metadata
     id="metadata7">
    <rdf:RDF>
      <cc:Work
         rdf:about="">
        <dc:format>image/svg+xml</dc:format>
        <dc:type
           rdf:resource="http://purl.org/dc/dcmitype/StillImage" />
      </cc:Work>
    </rdf:RDF>
  </metadata>
  <g
     inkscape:label="Layer 1"
     inkscape:groupmode="layer"
     id="layer1">
    <path
       style="font-size:200px;font-style:normal;font-variant:normal;font-weight:normal;font-stretch:normal;text-align:start;line-height:125%;writing-mode:lr-tb;text-anchor:start;fill:#ffffff;fill-opacity:1;stroke:#000000;stroke-width:1px;stroke-linecap:butt;stroke-linejoin:miter;stroke-opacity:1;font-family:FairydustB"
       d="M 70.724525,165.88607 C 82.182927,150.52159 91.297502,140.23514 98.068275,135.0267 C 104.83916,129.75338 110.53576,126.10755 115.15812,124.0892 C 119.78055,122.0711 126.06309,120.21563 134.00578,118.52279 C 141.88339,116.83022 153.01619,116.08152 167.40421,116.2767 C 181.85731,116.40704 193.21797,116.40704 201.48624,116.2767 C 209.81952,116.14662 220.6919,116.01641 234.10343,115.88607 C 247.51479,115.756 254.96921,114.9422 256.46671,113.44467 C 258.02911,111.8823 258.87546,110.09194 259.00578,108.07357 C 259.13588,105.99038 258.87546,103.9396 258.22453,101.92123 C 257.57338,99.838041 254.93666,97.396637 250.31437,94.597007 C 255.97833,96.354971 260.40541,98.535959 263.59562,101.13998 C 266.78561,103.67918 269.8455,106.80418 272.77531,110.51498 C 275.70487,114.22605 278.04862,118.58803 279.80656,123.60092 C 281.62934,128.54895 282.80122,133.75728 283.32218,139.22592 C 283.84288,144.69477 283.64757,150.26117 282.73624,155.92514 C 281.82465,161.52418 279.09028,170.70386 274.53312,183.4642 C 277.33247,169.92261 278.86242,160.61272 279.12296,155.53451 C 279.38325,150.39138 278.602,144.95519 276.77921,139.22592 C 275.02128,133.43176 272.93795,129.3302 270.52921,126.92123 C 268.12024,124.5125 264.73483,123.08021 260.37296,122.62436 C 256.01088,122.10365 252.65802,121.90834 250.31437,122.03842 C 248.03563,122.10365 229.80648,122.1362 195.62687,122.13607 L 195.62687,175.84701 C 208.38723,173.76375 216.98097,172.52677 221.40812,172.13607 C 225.90023,171.74552 230.22965,171.87573 234.3964,172.5267 C 238.62808,173.17781 242.33902,174.41479 245.52921,176.23764 C 248.71922,177.99552 252.62547,181.6739 257.24796,187.27279 C 251.38849,182.45515 246.92886,179.65567 243.86906,178.87436 C 240.80907,178.09317 237.35855,177.50724 233.51749,177.11654 C 229.67627,176.72599 225.77002,176.79109 221.79874,177.31186 C 217.82732,177.83276 213.53045,179.26505 208.90812,181.60873 C 204.35077,183.88744 200.0539,186.06843 196.01749,188.1517 L 195.91984,231.70639 C 196.44063,235.28713 196.83125,237.66343 197.09171,238.83529 C 197.35208,240.00718 198.4914,240.85353 200.50968,241.37436 C 202.59296,241.89519 204.51353,241.89519 206.2714,241.37436 C 208.09426,240.78842 209.88462,240.26759 211.64249,239.81186 C 213.46535,239.29103 216.55779,238.37957 220.91984,237.07748 L 216.62296,248.21029 C 211.02394,248.21029 205.78306,248.21029 200.90031,248.21029 C 196.08255,248.21029 189.63725,248.14519 181.56437,248.01498 C 173.55653,247.88477 166.52529,248.14519 160.47062,248.79623 C 154.48103,249.44727 149.46802,250.32618 145.43156,251.43295 C 141.33,252.60482 135.56829,255.37174 128.1464,259.73373 C 135.30787,254.06966 141.00448,250.39128 145.23624,248.69857 C 149.40291,247.07097 154.22062,245.70378 159.68937,244.59701 C 165.22321,243.42514 169.25966,241.9603 171.79874,240.20248 C 174.40289,238.37957 175.99794,235.12437 176.5839,230.43686 C 177.23492,225.68427 177.62554,209.60356 177.75578,182.19467 C 177.88596,154.7208 177.30002,138.99816 175.99796,135.0267 C 174.76096,131.05546 172.287,128.25598 168.57609,126.62826 C 164.86514,124.93568 159.42894,123.95911 152.26749,123.69857 C 145.10604,123.43828 138.10735,123.89401 131.2714,125.06576 C 124.37039,126.23776 117.92508,128.22343 111.93546,131.02279 C 105.88082,133.82239 99.858691,137.66353 93.869056,142.54623 C 87.879536,147.36404 80.1647,155.14398 70.724525,165.88607"
       id="text2215" />
  </g>
</svg>
