<?xml version="1.0" encoding="UTF-8" standalone="no"?>
<!-- Created with Inkscape (http://www.inkscape.org/) -->
<svg
   xmlns:dc="http://purl.org/dc/elements/1.1/"
   xmlns:cc="http://web.resource.org/cc/"
   xmlns:rdf="http://www.w3.org/1999/02/22-rdf-syntax-ns#"
   xmlns:svg="http://www.w3.org/2000/svg"
   xmlns="http://www.w3.org/2000/svg"
   xmlns:xlink="http://www.w3.org/1999/xlink"
   xmlns:sodipodi="http://inkscape.sourceforge.net/DTD/sodipodi-0.dtd"
   xmlns:inkscape="http://www.inkscape.org/namespaces/inkscape"
   width="10cm"
   height="10cm"
   id="svg2"
   sodipodi:version="0.32"
   inkscape:version="0.43"
   version="1.0"
   sodipodi:docbase="/home/dylan/src/mfgames/wordplay/src/themes/default"
   sodipodi:docname="character-0054.svg">
  <defs
     id="defs4">
    <linearGradient
       id="linearGradient3952">
      <stop
         style="stop-color:#f8f8f8;stop-opacity:1;"
         offset="0"
         id="stop3954" />
      <stop
         style="stop-color:#000000;stop-opacity:0;"
         offset="1"
         id="stop3956" />
    </linearGradient>
    <linearGradient
       id="linearGradient2184">
      <stop
         style="stop-color:#ffffff;stop-opacity:1;"
         offset="0"
         id="stop2186" />
      <stop
         style="stop-color:#101548;stop-opacity:1;"
         offset="1"
         id="stop2188" />
    </linearGradient>
    <linearGradient
       inkscape:collect="always"
       xlink:href="#linearGradient3952"
       id="linearGradient3958"
       x1="0"
       y1="177.16536"
       x2="144.44875"
       y2="183.59393"
       gradientUnits="userSpaceOnUse" />
    <radialGradient
       inkscape:collect="always"
       xlink:href="#linearGradient2184"
       id="radialGradient2213"
       cx="130.71428"
       cy="121.47358"
       fx="130.71428"
       fy="121.47358"
       r="141.92464"
       gradientUnits="userSpaceOnUse"
       gradientTransform="matrix(-6.599531e-3,1.392562,-1.327138,-6.289479e-3,292.789,-59.79021)" />
  </defs>
  <sodipodi:namedview
     id="base"
     pagecolor="#ffffff"
     bordercolor="#666666"
     borderopacity="1.0"
     inkscape:pageopacity="0"
     inkscape:pageshadow="2"
     inkscape:zoom="1.4"
     inkscape:cx="229.78709"
     inkscape:cy="173.93196"
     inkscape:document-units="cm"
     inkscape:current-layer="layer1"
     showguides="true"
     inkscape:guide-bbox="true"
     inkscape:window-width="1086"
     inkscape:window-height="861"
     inkscape:window-x="44"
     inkscape:window-y="67">
    <sodipodi:guide
       orientation="horizontal"
       position="177.14286"
       id="guide1307" />
    <sodipodi:guide
       orientation="vertical"
       position="177.14286"
       id="guide1309" />
    <sodipodi:guide
       orientation="vertical"
       position="35.433071"
       id="guide1311" />
    <sodipodi:guide
       orientation="vertical"
       position="318.89764"
       id="guide1313" />
    <sodipodi:guide
       orientation="horizontal"
       position="35.433071"
       id="guide1315" />
    <sodipodi:guide
       orientation="horizontal"
       position="318.89764"
       id="guide1317" />
  </sodipodi:namedview>
  <metadata
     id="metadata7">
    <rdf:RDF>
      <cc:Work
         rdf:about="">
        <dc:format>image/svg+xml</dc:format>
        <dc:type
           rdf:resource="http://purl.org/dc/dcmitype/StillImage" />
      </cc:Work>
    </rdf:RDF>
  </metadata>
  <g
     inkscape:label="Layer 1"
     inkscape:groupmode="layer"
     id="layer1">
    <path
       style="font-size:200px;font-style:normal;font-variant:normal;font-weight:normal;font-stretch:normal;text-align:start;line-height:125%;writing-mode:lr-tb;text-anchor:start;fill:#ffffff;fill-opacity:1;stroke:#000000;stroke-width:1px;stroke-linecap:butt;stroke-linejoin:miter;stroke-opacity:1;font-family:FairydustB"
       d="M 254.21614,96.061844 C 257.14572,95.86668 259.71733,96.257304 261.93098,97.233719 C 264.20951,98.210427 265.93477,99.512509 267.10677,101.13997 C 268.27852,102.70261 269.25508,104.62318 270.03645,106.90169 C 270.81758,109.11536 271.46862,111.78463 271.98958,114.9095 C 272.51029,118.03463 272.7056,120.96431 272.57552,123.69856 C 272.44518,126.43306 271.59883,130.07888 270.03645,134.63606 C 268.47383,139.12836 265.08842,144.6622 259.8802,151.23763 C 254.73687,157.74813 250.21213,162.33797 246.30598,165.00716 C 242.39964,167.6114 239.3072,170.31322 237.02864,173.11263 C 234.74991,175.84707 233.02465,178.93951 231.85286,182.38997 C 230.6809,185.77544 229.89965,190.16997 229.50911,195.57356 C 229.1184,200.91215 229.54158,205.30667 230.77864,208.75716 C 232.08064,212.20771 234.06632,214.71422 236.73567,216.27669 C 239.40485,217.83921 242.52985,218.81578 246.11067,219.20638 C 249.7564,219.59702 252.55588,219.10874 254.50911,217.74153 C 256.46213,216.37437 258.25249,214.77932 259.8802,212.95638 C 261.5728,211.06839 262.54936,209.14782 262.80989,207.19466 C 263.1353,205.17647 263.29806,203.15824 263.29817,201.13997 C 263.29806,199.05668 263.03764,197.29887 262.51692,195.86653 C 262.06108,194.36919 260.95431,192.90434 259.19661,191.472 C 257.43869,189.97466 255.29025,189.22596 252.7513,189.22591 C 255.87619,188.83534 258.05718,189.03065 259.29427,189.81184 C 260.59624,190.59315 261.73556,191.63481 262.71223,192.93684 C 263.68868,194.17387 264.37227,195.96424 264.76302,198.30794 C 265.15352,200.65173 265.28373,202.80017 265.15364,204.75325 C 265.08842,206.70641 264.50248,208.78974 263.39583,211.00325 C 262.35405,213.15172 260.759,215.16995 258.61067,217.05794 C 256.46213,218.88088 254.31369,220.15041 252.16536,220.86653 C 250.01682,221.5176 247.90094,221.81056 245.8177,221.74544 C 243.79938,221.61525 241.6835,221.32228 239.47005,220.86653 C 237.32152,220.34572 234.91267,219.10874 232.24348,217.15559 C 229.63924,215.2025 227.84887,212.69599 226.87239,209.63606 C 225.89575,206.5762 225.30981,203.54886 225.11458,200.55403 C 224.91919,197.49418 224.95174,194.30408 225.21223,190.98372 C 225.53768,187.66346 226.77466,184.11529 228.92317,180.33919 C 231.07153,176.49811 233.28507,173.50332 235.5638,171.35481 C 237.84235,169.14135 239.60016,167.51374 240.83723,166.472 C 242.13922,165.36531 244.38532,163.70515 247.57552,161.49153 C 250.83062,159.21297 253.04416,157.19474 254.21614,155.43684 C 255.38791,153.67912 256.85275,151.53069 258.61067,148.99153 C 260.36837,146.45257 261.34493,144.27158 261.54036,142.44856 C 261.73556,140.56065 261.86577,138.54242 261.93098,136.39388 C 262.06108,134.18044 261.67045,131.67394 260.75911,128.87434 C 259.91264,126.00988 258.70822,123.50337 257.14583,121.35481 C 255.58322,119.2065 253.72775,117.80676 251.57942,117.15559 C 249.43088,116.43958 237.87491,117.25338 216.91145,119.597 L 216.91145,230.92513 C 217.88795,233.26889 218.89706,234.89649 219.9388,235.80794 C 221.0455,236.6543 222.38013,237.4681 223.9427,238.24934 C 225.50513,239.0306 227.06762,239.42122 228.6302,239.42122 C 230.19262,239.42122 231.72257,239.29102 233.22005,239.03059 C 234.71736,238.70508 236.2473,237.95638 237.80989,236.7845 C 239.3723,235.61263 241.32542,234.44076 243.66927,233.26888 L 241.03255,246.25716 C 237.32152,245.86653 233.38272,245.4108 229.21614,244.88997 C 225.1145,244.43424 221.40357,244.23893 218.08333,244.30403 C 214.76295,244.43424 207.30853,244.72721 195.72005,245.18294 C 184.19657,245.70377 174.98434,246.68033 168.08333,248.11263 C 161.24738,249.61002 152.65364,253.09308 142.30208,258.56184 L 156.07161,250.65169 C 163.55857,247.33137 168.31117,245.3457 170.32942,244.69466 C 172.41273,244.10872 175.44007,243.42513 179.41145,242.64388 C 183.44788,241.86263 186.76819,241.04883 189.37239,240.20247 C 192.04162,239.29102 194.1575,237.66341 195.72005,235.31966 C 197.2825,232.97592 198.19396,230.43686 198.45442,227.70247 C 198.77989,224.96811 198.94265,188.93299 198.9427,119.597 C 175.50518,122.13618 162.61456,123.86144 160.27083,124.77278 C 157.92707,125.61925 155.81119,126.59582 153.92317,127.70247 C 152.03515,128.74425 149.72395,130.43696 146.98958,132.78059 C 144.25521,135.12445 141.48828,137.79372 138.6888,140.78841 C 135.82423,143.71819 132.73178,147.23382 129.41145,151.33528 C 126.09116,155.43693 120.65497,160.67781 113.10286,167.05794 C 105.55082,173.37311 95.036507,177.9304 81.559891,180.72981 C 93.474008,176.3679 101.09119,173.01504 104.41145,170.67122 C 107.73181,168.32754 110.98701,165.85359 114.17708,163.24934 C 117.30211,160.58016 120.00393,157.84578 122.28255,155.04622 C 124.49611,152.18173 127.26304,148.5359 130.58333,144.10872 C 133.90366,139.68174 136.89844,135.0268 139.5677,130.14388 C 142.17188,125.26118 148.09635,116.34192 157.34114,103.38606 C 161.638,106.18568 165.67446,108.43177 169.45052,110.12434 C 173.29164,111.75208 180.25778,112.24036 190.34895,111.58919 C 200.44005,110.87317 209.13144,110.41745 216.42317,110.222 C 223.77987,110.02682 231.82022,109.6362 240.54427,109.05013 C 249.26812,108.46432 255.09494,107.94349 258.02473,107.48763 C 260.95431,106.96693 262.71212,106.12058 263.29817,104.94856 C 263.88399,103.77683 263.98165,102.53985 263.59114,101.23763 C 263.2004,99.935686 262.41915,98.959124 261.24739,98.307938 C 260.0754,97.591938 257.73166,96.843241 254.21614,96.061844"
       id="text2215" />
  </g>
</svg>
