<?xml version="1.0" encoding="UTF-8" standalone="no"?>
<!-- Created with Inkscape (http://www.inkscape.org/) -->
<svg
   xmlns:dc="http://purl.org/dc/elements/1.1/"
   xmlns:cc="http://web.resource.org/cc/"
   xmlns:rdf="http://www.w3.org/1999/02/22-rdf-syntax-ns#"
   xmlns:svg="http://www.w3.org/2000/svg"
   xmlns="http://www.w3.org/2000/svg"
   xmlns:xlink="http://www.w3.org/1999/xlink"
   xmlns:sodipodi="http://inkscape.sourceforge.net/DTD/sodipodi-0.dtd"
   xmlns:inkscape="http://www.inkscape.org/namespaces/inkscape"
   width="10cm"
   height="10cm"
   id="svg2"
   sodipodi:version="0.32"
   inkscape:version="0.43"
   version="1.0"
   sodipodi:docbase="/home/dylan/src/mfgames/wordplay/src/themes/default"
   sodipodi:docname="character-004d.svg">
  <defs
     id="defs4">
    <linearGradient
       id="linearGradient3952">
      <stop
         style="stop-color:#f8f8f8;stop-opacity:1;"
         offset="0"
         id="stop3954" />
      <stop
         style="stop-color:#000000;stop-opacity:0;"
         offset="1"
         id="stop3956" />
    </linearGradient>
    <linearGradient
       id="linearGradient2184">
      <stop
         style="stop-color:#ffffff;stop-opacity:1;"
         offset="0"
         id="stop2186" />
      <stop
         style="stop-color:#101548;stop-opacity:1;"
         offset="1"
         id="stop2188" />
    </linearGradient>
    <linearGradient
       inkscape:collect="always"
       xlink:href="#linearGradient3952"
       id="linearGradient3958"
       x1="0"
       y1="177.16536"
       x2="144.44875"
       y2="183.59393"
       gradientUnits="userSpaceOnUse" />
    <radialGradient
       inkscape:collect="always"
       xlink:href="#linearGradient2184"
       id="radialGradient2213"
       cx="130.71428"
       cy="121.47358"
       fx="130.71428"
       fy="121.47358"
       r="141.92464"
       gradientUnits="userSpaceOnUse"
       gradientTransform="matrix(-6.599531e-3,1.392562,-1.327138,-6.289479e-3,292.789,-59.79021)" />
  </defs>
  <sodipodi:namedview
     id="base"
     pagecolor="#ffffff"
     bordercolor="#666666"
     borderopacity="1.0"
     inkscape:pageopacity="0"
     inkscape:pageshadow="2"
     inkscape:zoom="1.4"
     inkscape:cx="229.78709"
     inkscape:cy="173.93196"
     inkscape:document-units="cm"
     inkscape:current-layer="layer1"
     showguides="true"
     inkscape:guide-bbox="true"
     inkscape:window-width="1086"
     inkscape:window-height="861"
     inkscape:window-x="44"
     inkscape:window-y="67">
    <sodipodi:guide
       orientation="horizontal"
       position="177.14286"
       id="guide1307" />
    <sodipodi:guide
       orientation="vertical"
       position="177.14286"
       id="guide1309" />
    <sodipodi:guide
       orientation="vertical"
       position="35.433071"
       id="guide1311" />
    <sodipodi:guide
       orientation="vertical"
       position="318.89764"
       id="guide1313" />
    <sodipodi:guide
       orientation="horizontal"
       position="35.433071"
       id="guide1315" />
    <sodipodi:guide
       orientation="horizontal"
       position="318.89764"
       id="guide1317" />
  </sodipodi:namedview>
  <metadata
     id="metadata7">
    <rdf:RDF>
      <cc:Work
         rdf:about="">
        <dc:format>image/svg+xml</dc:format>
        <dc:type
           rdf:resource="http://purl.org/dc/dcmitype/StillImage" />
      </cc:Work>
    </rdf:RDF>
  </metadata>
  <g
     inkscape:label="Layer 1"
     inkscape:groupmode="layer"
     id="layer1">
    <path
       style="font-size:200px;font-style:normal;font-variant:normal;font-weight:normal;font-stretch:normal;text-align:start;line-height:125%;writing-mode:lr-tb;text-anchor:start;fill:#ffffff;fill-opacity:1;stroke:#000000;stroke-width:1px;stroke-linecap:butt;stroke-linejoin:miter;stroke-opacity:1;font-family:FairydustB"
       d="M 67.595039,129.55793 C 72.282585,125.6518 77.263045,122.78722 82.536445,120.96418 C 87.809915,119.07628 93.050795,117.54634 98.259105,116.37433 C 103.46745,115.20259 109.68489,114.48644 116.91145,114.2259 C 124.20311,113.90051 131.49477,113.73775 138.78645,113.73762 C 146.14319,113.73775 152.16532,113.44478 156.85286,112.85871 C 161.60541,112.2729 166.52077,111.29634 171.59895,109.92902 C 176.67701,108.56197 179.89967,106.83671 181.26692,104.75324 C 182.63404,102.67005 183.35018,100.55417 183.41536,98.405583 C 183.5455,96.257295 182.53638,93.913547 180.38801,91.374333 C 183.12232,93.913547 184.58716,96.452607 184.78254,98.99152 C 184.97779,101.53073 184.32675,103.93958 182.82942,106.21808 C 181.39706,108.49687 177.88144,110.5802 172.28254,112.46808 C 166.74864,114.29113 162.45177,115.69087 159.39192,116.6673 C 156.33198,117.64399 154.70438,118.81587 154.50911,120.18293 C 154.31376,121.55024 154.80204,123.69867 155.97395,126.62824 L 198.06379,215.98371 C 228.0116,151.53068 243.11575,118.78332 243.37629,117.74152 C 243.70169,116.63488 243.50637,115.59321 242.79036,114.61652 C 242.13919,113.64009 241.13007,113.0216 239.76301,112.76105 C 238.3957,112.43567 236.86576,112.43567 235.17317,112.76105 C 233.48034,113.0216 231.68998,113.60754 229.80208,114.51887 C 227.97905,115.36535 224.62618,117.22082 219.74348,120.08527 C 214.86057,122.88487 210.85667,124.54503 207.73176,125.06574 C 204.60667,125.52159 201.0585,125.84711 197.08723,126.0423 C 193.1809,126.23773 186.052,124.57758 175.70051,121.06183 C 186.24732,123.60102 193.44132,124.77289 197.28254,124.57746 C 201.1236,124.38227 204.54157,123.79633 207.53645,122.81965 C 210.59625,121.84321 214.66526,120.05285 219.74348,117.44855 C 224.8215,114.77941 228.23946,112.82629 229.99739,111.58918 C 231.75508,110.28723 234.78242,109.05025 239.07942,107.87824 C 243.44127,106.7065 246.82668,106.18567 249.23567,106.31574 C 251.70949,106.38098 254.1509,106.41354 256.55989,106.4134 C 259.0337,106.41354 262.61443,106.86926 267.30208,107.78058 C 272.05452,108.62708 275.50504,109.92916 277.65364,111.68683 C 279.80191,113.44478 281.55972,115.3979 282.92708,117.54621 C 284.29409,119.69477 284.97769,121.51769 284.97786,123.01496 C 284.97769,124.44737 284.81493,126.04242 284.48958,127.80012 C 284.22899,129.55804 283.44774,131.08799 282.14583,132.38996 C 280.90868,133.62705 278.82535,134.14788 275.89583,133.95246 C 278.82535,132.97601 280.68082,131.9669 281.46223,130.92512 C 282.24331,129.81846 282.66649,128.58148 282.73176,127.21418 C 282.8618,125.84711 282.82925,124.44737 282.63411,123.01496 C 282.43863,121.51769 281.49462,120.1505 279.80208,118.9134 C 278.17431,117.61144 276.4165,117.0255 274.52864,117.15558 C 272.70556,117.22082 270.98031,117.80675 269.35286,118.9134 C 267.7902,119.95519 266.55323,121.81066 265.64192,124.4798 C 264.79542,127.08409 264.37224,131.41351 264.37239,137.46808 L 264.66536,231.21808 C 265.64177,234.73372 266.78109,237.07747 268.08333,238.24933 C 269.38525,239.42122 270.94775,240.30012 272.77083,240.88605 C 274.65869,241.47199 276.22119,241.56965 277.45833,241.17902 C 278.76025,240.7884 280.19254,240.07226 281.7552,239.03058 C 283.31753,237.92382 284.97769,236.7845 286.73567,235.61262 L 285.27083,246.25715 C 280.77847,246.25715 276.80712,246.25715 273.35676,246.25715 C 269.97119,246.25715 265.86963,246.25715 261.05208,246.25715 C 256.23423,246.25715 249.59361,246.2897 241.1302,246.3548 C 232.73165,246.48501 225.50509,246.94074 219.45051,247.72199 C 213.39573,248.50324 207.4387,250.06574 201.57942,252.40949 C 207.24339,249.4798 213.03765,247.36392 218.96223,246.06183 C 224.95171,244.75975 229.31368,243.88085 232.04817,243.42512 C 234.84753,242.90428 237.45169,242.05793 239.86067,240.88605 C 242.3345,239.71418 243.9621,238.24934 244.74348,236.49152 C 245.5246,234.73372 245.94778,232.55273 246.01301,229.94855 C 246.14309,227.2793 246.01288,195.08532 245.62239,133.36652 L 192.98567,248.6009 C 190.44653,252.50714 188.4283,255.24151 186.93098,256.80402 C 185.49862,258.36651 182.63404,260.41729 178.33723,262.95637 L 183.61067,257.9759 L 187.41926,252.99543 L 189.17708,244.40168 L 187.71223,237.07746 L 140.15364,133.65949 C 139.9583,197.33141 139.8932,229.91602 139.95833,231.4134 C 140.08851,232.8457 140.54424,234.4082 141.32551,236.1009 C 142.10674,237.72851 143.11585,238.90038 144.35286,239.61652 C 145.65491,240.26757 147.0221,240.88606 148.45442,241.47199 C 149.95178,242.05793 151.41662,242.31835 152.84895,242.25324 C 154.34631,242.12304 155.81115,241.63475 157.24348,240.7884 C 158.74083,239.87694 159.68484,238.44465 160.07551,236.49152 C 160.46609,234.53841 160.46609,232.7806 160.07551,231.21808 C 159.68484,229.6556 158.31766,227.99545 155.97395,226.23762 C 158.51297,227.40951 160.17312,228.93945 160.95442,230.82746 C 161.73562,232.65039 161.93094,234.63606 161.54036,236.78449 C 161.14969,238.93293 160.27078,240.65819 158.90364,241.96027 C 157.53641,243.19725 156.36453,244.07616 155.38801,244.59699 C 154.41141,245.05272 152.78381,245.41079 150.5052,245.67121 C 148.29163,245.86652 145.94788,245.96418 143.47395,245.96418 C 141.06507,245.96418 135.43357,245.99673 126.57942,246.06183 C 117.79035,246.19204 110.82422,246.74543 105.68098,247.72199 C 100.47266,248.69855 95.622405,249.96808 91.130195,251.53058 C 86.572935,253.09308 81.071635,256.12042 74.626285,260.61262 C 80.290385,255.53448 85.335955,252.05141 89.763005,250.1634 C 94.190115,248.34048 98.519535,246.84308 102.75129,245.67121 C 106.91797,244.43423 110.75911,243.49022 114.27473,242.83918 C 117.79035,242.12304 121.01301,241.27668 123.9427,240.30012 C 126.93748,239.32356 128.8255,237.72851 129.60676,235.51496 C 130.388,233.23633 130.90883,230.53451 131.16926,227.40949 C 131.49477,224.28451 131.65753,191.86267 131.65754,130.14387 C 131.2669,124.87055 129.6393,121.55024 126.77473,120.18293 C 123.91014,118.81587 120.65493,117.93696 117.00911,117.54621 C 113.42838,117.15571 109.26172,117.15571 104.50911,117.54621 C 99.691405,117.93696 94.938805,118.78332 90.251285,120.08527 C 85.498715,121.32237 81.527365,122.68956 78.337225,124.18683 C 75.082055,125.61925 71.598985,127.40961 67.888008,129.55793 L 67.595039,129.55793"
       id="text2215" />
  </g>
</svg>
