<?xml version="1.0" encoding="UTF-8" standalone="no"?>
<!-- Created with Inkscape (http://www.inkscape.org/) -->
<svg
   xmlns:dc="http://purl.org/dc/elements/1.1/"
   xmlns:cc="http://web.resource.org/cc/"
   xmlns:rdf="http://www.w3.org/1999/02/22-rdf-syntax-ns#"
   xmlns:svg="http://www.w3.org/2000/svg"
   xmlns="http://www.w3.org/2000/svg"
   xmlns:xlink="http://www.w3.org/1999/xlink"
   xmlns:sodipodi="http://inkscape.sourceforge.net/DTD/sodipodi-0.dtd"
   xmlns:inkscape="http://www.inkscape.org/namespaces/inkscape"
   version="1.0"
   x="0.0000000"
   y="0.0000000"
   width="600pt"
   height="600pt"
   id="svg1"
   sodipodi:version="0.32"
   inkscape:version="0.43"
   sodipodi:docname="completed.svg"
   sodipodi:docbase="/home/dylan/src/mfgames/wordplay/src/themes/default">
  <sodipodi:namedview
     id="base"
     pagecolor="#ffffff"
     bordercolor="#666666"
     borderopacity="1.0"
     inkscape:pageopacity="0.0"
     inkscape:pageshadow="2"
     inkscape:window-width="1268"
     inkscape:window-height="927"
     inkscape:zoom="0.79328542"
     inkscape:cx="498.99004"
     inkscape:cy="329.36107"
     inkscape:window-x="0"
     inkscape:window-y="32"
     inkscape:current-layer="svg1" />
  <defs
     id="defs3">
    <linearGradient
       id="linearGradient9509">
      <stop
         style="stop-color:#ff1100;stop-opacity:1.0000000;"
         offset="0.0000000"
         id="stop9511" />
      <stop
         style="stop-color:#ec7f0d;stop-opacity:0.74901961;"
         offset="0.31944445"
         id="stop9523" />
      <stop
         style="stop-color:#f2ef0b;stop-opacity:0.75503355;"
         offset="1.0000000"
         id="stop9513" />
    </linearGradient>
    <linearGradient
       id="linearGradient1933">
      <stop
         style="stop-color:#000000;stop-opacity:1.0000000;"
         offset="0.0000000"
         id="stop1934" />
      <stop
         style="stop-color:#000000;stop-opacity:0.0000000;"
         offset="1.0000000"
         id="stop1935" />
    </linearGradient>
    <linearGradient
       id="linearGradient1853">
      <stop
         style="stop-color:#000000;stop-opacity:1.0000000;"
         offset="0.0000000"
         id="stop1854" />
      <stop
         style="stop-color:#000000;stop-opacity:1.0000000;"
         offset="0.75000000"
         id="stop1857" />
      <stop
         style="stop-color:#000000;stop-opacity:0.0000000;"
         offset="1.0000000"
         id="stop1855" />
    </linearGradient>
    <linearGradient
       id="linearGradient1818">
      <stop
         style="stop-color:#ffffff;stop-opacity:1.0000000;"
         offset="0.0000000"
         id="stop1819" />
      <stop
         style="stop-color:#ffffff;stop-opacity:0.0000000;"
         offset="1.0000000"
         id="stop1820" />
    </linearGradient>
    <linearGradient
       id="linearGradient1779">
      <stop
         style="stop-color:#a3a3a3;stop-opacity:1.0000000;"
         offset="0.0000000"
         id="stop1780" />
      <stop
         style="stop-color:#696969;stop-opacity:1.0000000;"
         offset="1.0000000"
         id="stop1781" />
    </linearGradient>
    <linearGradient
       id="linearGradient1774">
      <stop
         style="stop-color:#dddddd;stop-opacity:1.0000000;"
         offset="0.0000000"
         id="stop1775" />
      <stop
         style="stop-color:#7e7e7e;stop-opacity:1.0000000;"
         offset="1.0000000"
         id="stop1776" />
    </linearGradient>
    <radialGradient
       cx="51.248581"
       cy="268.4118"
       r="731.7937"
       fx="51.248581"
       fy="268.4118"
       id="radialGradient1777"
       xlink:href="#linearGradient1774"
       gradientUnits="userSpaceOnUse" />
    <radialGradient
       cx="273.40897"
       cy="429.82834"
       r="309.13065"
       fx="273.40897"
       fy="429.82834"
       id="radialGradient1783"
       xlink:href="#linearGradient1779"
       gradientUnits="userSpaceOnUse"
       gradientTransform="scale(1.16781,0.856303)" />
    <radialGradient
       cx="273.40897"
       cy="429.82834"
       r="309.13065"
       fx="273.40897"
       fy="429.82834"
       id="radialGradient1791"
       xlink:href="#linearGradient1779"
       gradientUnits="userSpaceOnUse"
       gradientTransform="scale(1.16781,0.856303)" />
    <radialGradient
       cx="273.40897"
       cy="429.82834"
       r="309.13065"
       fx="273.40897"
       fy="429.82834"
       id="radialGradient1808"
       xlink:href="#linearGradient1779"
       gradientUnits="userSpaceOnUse"
       gradientTransform="scale(1.16781,0.856303)" />
    <radialGradient
       cx="124.39809"
       cy="120.82286"
       r="102.26605"
       fx="124.39809"
       fy="120.82286"
       id="radialGradient1821"
       xlink:href="#linearGradient1818"
       gradientUnits="userSpaceOnUse"
       gradientTransform="scale(2.041928,0.489733)" />
    <radialGradient
       cx="124.39809"
       cy="120.82286"
       r="102.26605"
       fx="124.39809"
       fy="120.82286"
       id="radialGradient1823"
       xlink:href="#linearGradient1818"
       gradientUnits="userSpaceOnUse"
       gradientTransform="matrix(2.017789,0.417213,-7.508032e-2,0.64498,56.37947,-73.48796)" />
    <linearGradient
       x1="306.00488"
       y1="106.64762"
       x2="357.44598"
       y2="623.50452"
       id="linearGradient1843"
       xlink:href="#linearGradient1818"
       gradientUnits="userSpaceOnUse"
       gradientTransform="scale(1.165229,0.8582)" />
    <radialGradient
       cx="73.053459"
       cy="-32.464005"
       r="424.45444"
       fx="73.053459"
       fy="-32.464005"
       id="radialGradient1856"
       xlink:href="#linearGradient1853"
       gradientUnits="userSpaceOnUse"
       gradientTransform="scale(0.985868,1.014335)" />
    <radialGradient
       cx="41.74744"
       cy="36.821472"
       r="308.78711"
       fx="41.74744"
       fy="36.821472"
       id="radialGradient1932"
       xlink:href="#linearGradient1853"
       gradientUnits="userSpaceOnUse" />
    <linearGradient
       x1="362.58627"
       y1="226.79573"
       x2="449.89706"
       y2="226.79573"
       id="linearGradient1936"
       xlink:href="#linearGradient1933"
       gradientUnits="userSpaceOnUse"
       gradientTransform="scale(0.707107,1.414214)" />
    <radialGradient
       cx="-120.99171"
       cy="57.971275"
       r="388.16248"
       fx="-120.99171"
       fy="57.971275"
       id="radialGradient1939"
       xlink:href="#linearGradient1853"
       gradientUnits="userSpaceOnUse" />
    <radialGradient
       inkscape:collect="always"
       xlink:href="#linearGradient1853"
       id="radialGradient4474"
       gradientUnits="userSpaceOnUse"
       cx="-120.99171"
       cy="57.971275"
       fx="-120.99171"
       fy="57.971275"
       r="388.16248"
       gradientTransform="matrix(0.875291,0,0,0.875291,857.4058,476.586)" />
    <radialGradient
       inkscape:collect="always"
       xlink:href="#linearGradient1818"
       id="radialGradient4492"
       gradientUnits="userSpaceOnUse"
       gradientTransform="matrix(2.017789,0.417213,-7.508032e-2,0.64498,632.2013,114.59)"
       cx="124.39809"
       cy="120.82286"
       fx="124.39809"
       fy="120.82286"
       r="102.26605" />
    <radialGradient
       inkscape:collect="always"
       xlink:href="#linearGradient1818"
       id="radialGradient4495"
       gradientUnits="userSpaceOnUse"
       gradientTransform="matrix(2.041928,0,0,0.489733,575.8218,188.078)"
       cx="124.39809"
       cy="120.82286"
       fx="124.39809"
       fy="120.82286"
       r="102.26605" />
    <radialGradient
       inkscape:collect="always"
       xlink:href="#linearGradient1779"
       id="radialGradient4498"
       gradientUnits="userSpaceOnUse"
       gradientTransform="matrix(1.16781,0,0,0.856303,575.8218,188.078)"
       cx="273.40897"
       cy="429.82834"
       fx="273.40897"
       fy="429.82834"
       r="309.13065" />
    <radialGradient
       inkscape:collect="always"
       xlink:href="#linearGradient1779"
       id="radialGradient4501"
       gradientUnits="userSpaceOnUse"
       gradientTransform="matrix(1.16781,0,0,0.856303,575.8218,188.078)"
       cx="273.40897"
       cy="429.82834"
       fx="273.40897"
       fy="429.82834"
       r="309.13065" />
    <radialGradient
       inkscape:collect="always"
       xlink:href="#linearGradient1779"
       id="radialGradient4505"
       gradientUnits="userSpaceOnUse"
       gradientTransform="matrix(1.16781,0,0,0.856303,575.8218,188.078)"
       cx="273.40897"
       cy="429.82834"
       fx="273.40897"
       fy="429.82834"
       r="309.13065" />
    <radialGradient
       inkscape:collect="always"
       xlink:href="#linearGradient1774"
       id="radialGradient4509"
       gradientUnits="userSpaceOnUse"
       cx="51.248581"
       cy="268.4118"
       fx="51.248581"
       fy="268.4118"
       r="731.7937"
       gradientTransform="matrix(0.875291,0,0,0.875291,857.4058,476.586)" />
    <radialGradient
       inkscape:collect="always"
       xlink:href="#linearGradient1818"
       id="radialGradient4627"
       gradientUnits="userSpaceOnUse"
       gradientTransform="matrix(2.041928,0,0,0.489733,-743.3052,263.9979)"
       cx="124.39809"
       cy="120.82286"
       fx="124.39809"
       fy="120.82286"
       r="102.26605" />
    <radialGradient
       inkscape:collect="always"
       xlink:href="#linearGradient1774"
       id="radialGradient4649"
       gradientUnits="userSpaceOnUse"
       gradientTransform="matrix(0.875291,0,0,0.875291,-291.4715,649.6647)"
       cx="51.248581"
       cy="268.4118"
       fx="51.248581"
       fy="268.4118"
       r="731.7937" />
    <pattern
       id="pattern8726"
       patternTransform="translate(-46.35091,-236.0580)"
       height="242.14364"
       width="352.98051"
       patternUnits="userSpaceOnUse">
      <g
         transform="translate(48.13364,237.8407)"
         id="g8728">
        <path
           style="fill:#ebab2f;fill-opacity:0.45497629;fill-rule:evenodd;stroke:none;stroke-width:1.0000000px;stroke-linecap:butt;stroke-linejoin:miter;stroke-opacity:1.0000000"
           d="M 213.92765,2.4845800 C 16.936020,-18.908170 55.264690,11.398240 30.306480,-2.8636000 C 5.3482600,-17.125440 54.373330,-104.47920 48.133790,-113.39285 C 43.676960,-157.06973 20.501470,-136.56835 16.936010,-163.30929 C 19.610110,-152.61291 28.523750,-172.22294 37.437400,-174.00567 C 44.568320,-179.35386 42.785590,-182.02795 30.306480,-191.83297 C 20.501470,-202.52934 38.328770,-204.31207 49.025150,-209.66026 C 59.721530,-215.00845 107.85522,-193.61569 107.85522,-193.61569 C 107.85522,-193.61569 75.766100,-202.52935 64.178350,-185.59341 C 52.590600,-168.65748 50.807870,-149.93881 66.852450,-132.11152 C 87.353840,-122.30650 78.440190,-157.96109 68.635180,-157.96110 C 90.919300,-165.98338 98.050230,-44.757750 112.31205,-78.629620 C 140.83573,-81.303720 115.87750,-83.977810 144.40118,-92.000090 C 150.64073,-98.239640 146.18391,-116.06694 130.13934,-120.52377 C 114.09478,-124.98059 114.09478,-142.80789 111.42069,-155.28700 C 129.24798,-137.45970 153.31484,-117.84967 171.14213,-130.32878 C 188.96943,-142.80789 151.53210,-143.69926 149.74937,-173.11430 C 177.38169,-170.44021 180.05578,-185.59341 177.38168,-205.20344 C 193.42625,-171.33157 212.14492,-170.44020 185.40397,-103.58784 C 158.66302,-36.735470 196.10035,-90.217370 213.03628,-64.367780 C 195.20898,-53.671400 163.88404,-72.580840 213.92765,2.4845800 z "
           id="path8730"
           sodipodi:nodetypes="ccccccccccccccccccccs" />
        <path
           style="fill:#ebab2f;fill-opacity:0.45497629;fill-rule:evenodd;stroke:none;stroke-width:1.0000000px;stroke-linecap:butt;stroke-linejoin:miter;stroke-opacity:1.0000000"
           d="M -48.133640,-1.9722300 C 38.328760,-68.824600 65.069720,-45.649110 39.220120,-72.390060 C 13.370540,-99.131010 32.089210,-42.975020 7.1309900,-102.69647 C -17.827230,-162.41792 -33.871800,-126.76332 -16.044500,-170.44020 C 1.7828000,-214.11708 -65.069570,-198.07252 3.5655300,-226.59619 C 72.200640,-255.11987 8.9137200,-223.92209 13.370540,-193.61568 C 17.827370,-163.30928 45.459680,-151.72153 20.501460,-155.28699 C -4.4567600,-158.85245 41.894220,-95.565540 71.309270,-71.498690 C 100.72431,-47.431840 109.63796,-120.52377 108.74660,-83.977800 C 107.85523,-47.431840 95.376120,-37.626830 106.96387,-26.930450 C 118.55161,-16.234070 159.55440,-25.147720 163.11986,-36.735460 C 166.68532,-48.323210 189.86080,-61.693680 172.03351,-76.846890 C 154.20621,-92.000090 163.11986,-85.760530 141.72710,-107.15329 C 120.33434,-128.54605 123.00844,-142.80789 87.353840,-155.28700 C 51.699230,-167.76611 65.069710,-152.61290 65.069710,-152.61290 C 65.069710,-152.61290 49.916500,-156.17836 37.437390,-179.35384 C 24.958290,-202.52933 43.676950,-197.18114 66.852440,-187.37612 C 89.136570,-198.07251 58.830160,-191.83295 85.571110,-202.52933 C 112.31206,-213.22571 86.462480,-182.91931 90.919300,-174.00566 C 95.376120,-165.09201 157.77167,-190.94159 136.37891,-154.39563 C 114.98615,-117.84967 139.05300,-174.00566 180.94715,-135.67697 C 222.84130,-97.348280 218.38448,-171.33157 217.49312,-141.02516 C 216.60175,-110.71875 192.53490,-116.06694 213.92766,-84.869170 C 235.32041,-53.671400 278.99729,-78.629620 243.34270,-103.58783 C 207.68810,-128.54605 231.75496,-138.35106 225.51540,-154.39563 C 219.27585,-170.44020 153.31484,-157.96109 186.29534,-188.26750 C 219.27585,-218.57391 170.25078,-228.37892 198.77445,-223.03073 C 227.29813,-217.68254 240.66860,-208.76889 254.03907,-162.41791 C 267.40955,-116.06694 278.99730,-126.76332 272.75774,-104.47920 C 266.51819,-82.195070 299.49869,-24.256350 283.45412,-8.2117900 C 267.40955,7.8327800 274.54047,5.1586900 171.14214,1.5932300 C 67.743810,-1.9722300 -48.133640,-1.9722300 -48.133640,-1.9722300 z "
           id="path8732"
           sodipodi:nodetypes="cccccccccccccccccccccccccccccccc" />
        <path
           sodipodi:nodetypes="ccccccccccccccccccccccc"
           id="path8734"
           d="M -19.609950,-6.4290600 C -39.219980,-34.061370 -25.849510,-15.342710 -13.370400,-41.192290 C -0.89129000,-67.041870 -52.590460,-97.348280 -36.545890,-127.65468 C -20.501320,-157.96109 -46.350900,-65.259140 -3.5653900,-95.565540 C 39.220130,-125.87195 -73.091850,-157.06973 13.370550,-223.92209 C -18.718600,-165.98337 62.395620,-224.81346 3.5655300,-176.67975 C -6.2394800,-144.59062 23.175560,-81.303710 48.133780,-52.780030 C 33.871940,-107.15329 16.044640,-186.48477 58.830160,-174.00565 C 48.133780,-166.87474 29.415110,-140.13379 64.178340,-120.52377 C 107.85522,-126.76332 122.11706,-37.626820 121.22569,-65.259140 C 120.33433,-92.891450 147.96664,-142.80789 128.35661,-149.93881 C 108.74659,-157.06973 117.66023,-182.91931 77.548820,-185.59340 C 129.24798,-204.31207 93.593380,-218.57391 49.025140,-200.74661 C 82.897000,-226.59619 99.832930,-267.59897 123.00842,-187.37613 C 146.18391,-107.15329 176.49032,-169.54884 159.55438,-106.26193 C 207.68809,-88.434630 123.00842,-213.22572 215.71037,-179.35385 C 114.09477,-143.69925 260.27862,-122.30650 229.97221,-171.33157 C 199.66580,-220.35664 208.57946,-220.35663 304.84687,-210.55162 C 239.77723,-187.37614 221.05856,-226.59618 252.25634,-129.43741 C 214.81901,-20.690890 281.67138,-67.041870 274.54045,-164.20064 C 290.58502,-159.74382 286.12821,-18.908160 244.23405,-14.451340 C 202.33990,-9.9945100 242.45132,-2.8636000 153.31483,-12.668610 C 64.178350,-22.473630 -19.609950,-6.4290600 -19.609950,-6.4290600 z "
           style="fill:#df131a;fill-opacity:0.38862559;fill-rule:evenodd;stroke:none;stroke-width:1.0000000px;stroke-linecap:butt;stroke-linejoin:miter;stroke-opacity:1.0000000" />
      </g>
    </pattern>
    <linearGradient
       gradientUnits="userSpaceOnUse"
       y2="87.138023"
       x2="124.81966"
       y1="293.28061"
       x1="122.06423"
       gradientTransform="matrix(1.086897,0,0,0.92005,847.688,338.2618)"
       id="linearGradient9521"
       xlink:href="#linearGradient9509"
       inkscape:collect="always" />
    <radialGradient
       r="731.7937"
       fy="268.4118"
       fx="51.248581"
       cy="268.4118"
       cx="51.248581"
       gradientTransform="matrix(0.875291,0,0,0.875291,857.4058,476.586)"
       gradientUnits="userSpaceOnUse"
       id="radialGradient9658"
       xlink:href="#linearGradient1774"
       inkscape:collect="always" />
    <radialGradient
       r="309.13065"
       fy="429.82834"
       fx="273.40897"
       cy="429.82834"
       cx="273.40897"
       gradientTransform="matrix(1.16781,0,0,0.856303,575.8218,188.078)"
       gradientUnits="userSpaceOnUse"
       id="radialGradient9660"
       xlink:href="#linearGradient1779"
       inkscape:collect="always" />
    <radialGradient
       r="309.13065"
       fy="429.82834"
       fx="273.40897"
       cy="429.82834"
       cx="273.40897"
       gradientTransform="matrix(1.16781,0,0,0.856303,575.8218,188.078)"
       gradientUnits="userSpaceOnUse"
       id="radialGradient9662"
       xlink:href="#linearGradient1779"
       inkscape:collect="always" />
    <radialGradient
       r="309.13065"
       fy="429.82834"
       fx="273.40897"
       cy="429.82834"
       cx="273.40897"
       gradientTransform="matrix(1.16781,0,0,0.856303,575.8218,188.078)"
       gradientUnits="userSpaceOnUse"
       id="radialGradient9664"
       xlink:href="#linearGradient1779"
       inkscape:collect="always" />
    <radialGradient
       r="102.26605"
       fy="120.82286"
       fx="124.39809"
       cy="120.82286"
       cx="124.39809"
       gradientTransform="matrix(2.041928,0,0,0.489733,575.8218,188.078)"
       gradientUnits="userSpaceOnUse"
       id="radialGradient9666"
       xlink:href="#linearGradient1818"
       inkscape:collect="always" />
    <radialGradient
       r="102.26605"
       fy="120.82286"
       fx="124.39809"
       cy="120.82286"
       cx="124.39809"
       gradientTransform="matrix(2.017789,0.417213,-7.508032e-2,0.64498,632.2013,114.59)"
       gradientUnits="userSpaceOnUse"
       id="radialGradient9668"
       xlink:href="#linearGradient1818"
       inkscape:collect="always" />
    <radialGradient
       r="388.16248"
       fy="57.971275"
       fx="-120.99171"
       cy="57.971275"
       cx="-120.99171"
       gradientTransform="matrix(0.875291,0,0,0.875291,857.4058,476.586)"
       gradientUnits="userSpaceOnUse"
       id="radialGradient9670"
       xlink:href="#linearGradient1853"
       inkscape:collect="always" />
    <linearGradient
       y2="87.138023"
       x2="124.81966"
       y1="293.28061"
       x1="122.06423"
       gradientTransform="matrix(1.086897,0,0,0.92005,847.688,338.2618)"
       gradientUnits="userSpaceOnUse"
       id="linearGradient9672"
       xlink:href="#linearGradient9509"
       inkscape:collect="always" />
    <linearGradient
       inkscape:collect="always"
       xlink:href="#linearGradient9509"
       id="linearGradient1390"
       gradientUnits="userSpaceOnUse"
       gradientTransform="matrix(1.285838,0,0,1.088452,166.0686,110.2699)"
       x1="122.06423"
       y1="293.28061"
       x2="124.81966"
       y2="87.138023" />
    <radialGradient
       inkscape:collect="always"
       xlink:href="#linearGradient1774"
       id="radialGradient1418"
       gradientUnits="userSpaceOnUse"
       gradientTransform="matrix(0.875291,0,0,0.875291,857.4058,476.586)"
       cx="51.248581"
       cy="268.4118"
       fx="51.248581"
       fy="268.4118"
       r="731.7937" />
    <radialGradient
       inkscape:collect="always"
       xlink:href="#linearGradient1779"
       id="radialGradient1420"
       gradientUnits="userSpaceOnUse"
       gradientTransform="matrix(1.16781,0,0,0.856303,575.8218,188.078)"
       cx="273.40897"
       cy="429.82834"
       fx="273.40897"
       fy="429.82834"
       r="309.13065" />
    <radialGradient
       inkscape:collect="always"
       xlink:href="#linearGradient1779"
       id="radialGradient1422"
       gradientUnits="userSpaceOnUse"
       gradientTransform="matrix(1.16781,0,0,0.856303,575.8218,188.078)"
       cx="273.40897"
       cy="429.82834"
       fx="273.40897"
       fy="429.82834"
       r="309.13065" />
    <radialGradient
       inkscape:collect="always"
       xlink:href="#linearGradient1779"
       id="radialGradient1424"
       gradientUnits="userSpaceOnUse"
       gradientTransform="matrix(1.16781,0,0,0.856303,575.8218,188.078)"
       cx="273.40897"
       cy="429.82834"
       fx="273.40897"
       fy="429.82834"
       r="309.13065" />
    <radialGradient
       inkscape:collect="always"
       xlink:href="#linearGradient1818"
       id="radialGradient1426"
       gradientUnits="userSpaceOnUse"
       gradientTransform="matrix(2.041928,0,0,0.489733,575.8218,188.078)"
       cx="124.39809"
       cy="120.82286"
       fx="124.39809"
       fy="120.82286"
       r="102.26605" />
    <radialGradient
       inkscape:collect="always"
       xlink:href="#linearGradient1818"
       id="radialGradient1428"
       gradientUnits="userSpaceOnUse"
       gradientTransform="matrix(2.017789,0.417213,-7.508032e-2,0.64498,632.2013,114.59)"
       cx="124.39809"
       cy="120.82286"
       fx="124.39809"
       fy="120.82286"
       r="102.26605" />
    <radialGradient
       inkscape:collect="always"
       xlink:href="#linearGradient1853"
       id="radialGradient1430"
       gradientUnits="userSpaceOnUse"
       gradientTransform="matrix(0.875291,0,0,0.875291,857.4058,476.586)"
       cx="-120.99171"
       cy="57.971275"
       fx="-120.99171"
       fy="57.971275"
       r="388.16248" />
    <radialGradient
       inkscape:collect="always"
       xlink:href="#linearGradient1853"
       id="radialGradient1433"
       gradientUnits="userSpaceOnUse"
       gradientTransform="matrix(1.035501,0,0,1.035501,276.6897,281.294)"
       cx="-120.99171"
       cy="57.971275"
       fx="-120.99171"
       fy="57.971275"
       r="388.16248" />
    <radialGradient
       inkscape:collect="always"
       xlink:href="#linearGradient1818"
       id="radialGradient1451"
       gradientUnits="userSpaceOnUse"
       gradientTransform="matrix(2.387117,0.493578,-8.882272e-2,0.763035,10.2647,-146.9603)"
       cx="124.39809"
       cy="120.82286"
       fx="124.39809"
       fy="120.82286"
       r="102.26605" />
    <radialGradient
       inkscape:collect="always"
       xlink:href="#linearGradient1818"
       id="radialGradient1454"
       gradientUnits="userSpaceOnUse"
       gradientTransform="matrix(2.415674,0,0,0.579372,-56.43428,-60.02136)"
       cx="124.39809"
       cy="120.82286"
       fx="124.39809"
       fy="120.82286"
       r="102.26605" />
    <radialGradient
       inkscape:collect="always"
       xlink:href="#linearGradient1779"
       id="radialGradient1457"
       gradientUnits="userSpaceOnUse"
       gradientTransform="matrix(1.381561,0,0,1.013037,-56.43428,-60.02136)"
       cx="273.40897"
       cy="429.82834"
       fx="273.40897"
       fy="429.82834"
       r="309.13065" />
    <radialGradient
       inkscape:collect="always"
       xlink:href="#linearGradient1779"
       id="radialGradient1460"
       gradientUnits="userSpaceOnUse"
       gradientTransform="matrix(1.381561,0,0,1.013037,-56.43428,-60.02136)"
       cx="273.40897"
       cy="429.82834"
       fx="273.40897"
       fy="429.82834"
       r="309.13065" />
    <radialGradient
       inkscape:collect="always"
       xlink:href="#linearGradient1779"
       id="radialGradient1464"
       gradientUnits="userSpaceOnUse"
       gradientTransform="matrix(1.381561,0,0,1.013037,-56.43428,-60.02136)"
       cx="273.40897"
       cy="429.82834"
       fx="273.40897"
       fy="429.82834"
       r="309.13065" />
    <radialGradient
       inkscape:collect="always"
       xlink:href="#linearGradient1774"
       id="radialGradient1468"
       gradientUnits="userSpaceOnUse"
       gradientTransform="matrix(1.035501,0,0,1.035501,276.6897,281.294)"
       cx="51.248581"
       cy="268.4118"
       fx="51.248581"
       fy="268.4118"
       r="731.7937" />
    <radialGradient
       inkscape:collect="always"
       xlink:href="#linearGradient1818"
       id="radialGradient1501"
       gradientUnits="userSpaceOnUse"
       gradientTransform="matrix(2.041928,0,0,0.489733,-743.3052,263.9979)"
       cx="124.39809"
       cy="120.82286"
       fx="124.39809"
       fy="120.82286"
       r="102.26605" />
    <radialGradient
       inkscape:collect="always"
       xlink:href="#linearGradient1774"
       id="radialGradient1503"
       gradientUnits="userSpaceOnUse"
       gradientTransform="matrix(1.035501,0,0,1.035501,276.6897,281.294)"
       cx="51.248581"
       cy="268.4118"
       fx="51.248581"
       fy="268.4118"
       r="731.7937" />
    <radialGradient
       inkscape:collect="always"
       xlink:href="#linearGradient1779"
       id="radialGradient1505"
       gradientUnits="userSpaceOnUse"
       gradientTransform="matrix(1.381561,0,0,1.013037,-56.43428,-60.02136)"
       cx="273.40897"
       cy="429.82834"
       fx="273.40897"
       fy="429.82834"
       r="309.13065" />
    <radialGradient
       inkscape:collect="always"
       xlink:href="#linearGradient1779"
       id="radialGradient1507"
       gradientUnits="userSpaceOnUse"
       gradientTransform="matrix(1.381561,0,0,1.013037,-56.43428,-60.02136)"
       cx="273.40897"
       cy="429.82834"
       fx="273.40897"
       fy="429.82834"
       r="309.13065" />
    <radialGradient
       inkscape:collect="always"
       xlink:href="#linearGradient1779"
       id="radialGradient1509"
       gradientUnits="userSpaceOnUse"
       gradientTransform="matrix(1.381561,0,0,1.013037,-56.43428,-60.02136)"
       cx="273.40897"
       cy="429.82834"
       fx="273.40897"
       fy="429.82834"
       r="309.13065" />
    <radialGradient
       inkscape:collect="always"
       xlink:href="#linearGradient1818"
       id="radialGradient1511"
       gradientUnits="userSpaceOnUse"
       gradientTransform="matrix(2.415674,0,0,0.579372,-56.43428,-60.02136)"
       cx="124.39809"
       cy="120.82286"
       fx="124.39809"
       fy="120.82286"
       r="102.26605" />
    <radialGradient
       inkscape:collect="always"
       xlink:href="#linearGradient1818"
       id="radialGradient1513"
       gradientUnits="userSpaceOnUse"
       gradientTransform="matrix(2.387117,0.493578,-8.882272e-2,0.763035,10.2647,-146.9603)"
       cx="124.39809"
       cy="120.82286"
       fx="124.39809"
       fy="120.82286"
       r="102.26605" />
    <radialGradient
       inkscape:collect="always"
       xlink:href="#linearGradient1853"
       id="radialGradient1515"
       gradientUnits="userSpaceOnUse"
       gradientTransform="matrix(1.035501,0,0,1.035501,276.6897,281.294)"
       cx="-120.99171"
       cy="57.971275"
       fx="-120.99171"
       fy="57.971275"
       r="388.16248" />
    <linearGradient
       inkscape:collect="always"
       xlink:href="#linearGradient9509"
       id="linearGradient1517"
       gradientUnits="userSpaceOnUse"
       gradientTransform="matrix(1.285838,0,0,1.088452,166.0686,110.2699)"
       x1="122.06423"
       y1="293.28061"
       x2="124.81966"
       y2="87.138023" />
  </defs>
  <metadata
     id="metadata56">
    <rdf:RDF>
      <cc:Work
         rdf:about="">
        <dc:title>moons</dc:title>
        <dc:description>5 basic moon phases, easily changed to be more specific</dc:description>
        <dc:subject>
          <rdf:Bag>
            <rdf:li>phases</rdf:li>
            <rdf:li>moon</rdf:li>
            <rdf:li>lunar</rdf:li>
            <rdf:li>space</rdf:li>
            <rdf:li>weathersym</rdf:li>
          </rdf:Bag>
        </dc:subject>
        <dc:publisher>
          <cc:Agent
             rdf:about="http://www.openclipart.org">
            <dc:title>A.J. Ashton</dc:title>
          </cc:Agent>
        </dc:publisher>
        <dc:creator>
          <cc:Agent
             rdf:about="">
            <dc:title>A.J. Ashton</dc:title>
          </cc:Agent>
        </dc:creator>
        <dc:rights>
          <cc:Agent
             rdf:about="">
            <dc:title>A.J. Ashton</dc:title>
          </cc:Agent>
        </dc:rights>
        <dc:date />
        <dc:format>image/svg+xml</dc:format>
        <dc:type
           rdf:resource="http://purl.org/dc/dcmitype/StillImage" />
        <cc:license
           rdf:resource="http://web.resource.org/cc/PublicDomain">
          <dc:date />
        </cc:license>
        <dc:language>en</dc:language>
      </cc:Work>
      <cc:License
         rdf:about="Public Domain">
        <cc:permits
           rdf:resource="http://web.resource.org/cc/Reproduction" />
        <cc:permits
           rdf:resource="http://web.resource.org/cc/Distribution" />
        <cc:permits
           rdf:resource="http://web.resource.org/cc/DerivativeWorks" />
      </cc:License>
    </rdf:RDF>
  </metadata>
  <rect
     style="opacity:1;fill:#760000;fill-opacity:1;fill-rule:evenodd;stroke:none;stroke-width:0.99212599;stroke-miterlimit:4;stroke-dasharray:none;stroke-opacity:0.46698112"
     id="rect1418"
     width="752.56647"
     height="753.82703"
     x="0.73939908"
     y="-0.56646419" />
  <path
     style="font-size:300px;font-style:normal;font-variant:normal;font-weight:normal;font-stretch:normal;text-align:start;line-height:125%;writing-mode:lr-tb;text-anchor:start;fill:#ffffff;fill-opacity:1;stroke:#000000;stroke-width:1px;stroke-linecap:butt;stroke-linejoin:miter;stroke-opacity:1;font-family:FairydustB;fill-rule:evenodd"
     d="M 155.12695,114.54672 C 169.28695,116.79303 178.85726,120.01569 183.83789,124.21469 C 188.81818,128.41412 193.11506,133.00395 196.72852,137.98422 C 200.43927,142.96488 202.9295,148.23831 204.19922,153.80453 C 205.56621,159.37112 205.76153,167.42775 204.78516,177.97446 C 203.90606,188.52148 199.8045,200.53318 192.48047,214.00961 C 196.77716,196.72459 197.16779,183.98047 193.65234,175.77719 C 190.13654,167.47658 185.98616,161.61721 181.20117,158.19907 C 176.51351,154.68362 171.09359,151.70511 164.94141,149.26352 C 158.78892,146.72464 151.56236,144.52738 143.26172,142.67172 C 135.05847,140.71879 127.0995,139.93754 119.38477,140.32797 C 111.76748,140.71879 104.05264,142.8184 96.240234,146.6268 C 88.42766,150.43558 81.249933,155.90432 74.707031,163.03305 C 68.164008,170.16212 62.79292,179 58.59375,189.54672 C 54.394491,199.99607 51.708946,210.78708 50.537109,221.91977 C 49.365199,233.05268 49.462855,244.08783 50.830078,255.02524 C 52.197227,265.86515 55.273396,275.63076 60.058594,284.32211 C 64.843699,292.9159 71.435489,300.58191 79.833984,307.32016 C 88.330004,313.9608 95.800699,318.84361 102.24609,321.9686 C 108.78897,324.99595 116.35732,326.80259 124.95117,327.38852 C 133.5448,327.97446 142.82214,327.29087 152.7832,325.33774 C 163.52524,282.4667 168.60336,258.44328 168.01758,253.26743 C 167.43149,248.09173 165.13657,243.40423 161.13281,239.20493 C 157.12876,235.00581 149.95104,231.78315 139.59961,229.53696 C 129.24793,227.19331 118.4081,226.31441 107.08008,226.90024 C 95.849527,227.38863 86.669849,229.09761 79.541016,232.02719 C 72.509707,234.85932 65.136667,238.17963 57.421875,241.98813 C 63.964794,236.61713 70.947208,231.92964 78.369141,227.92563 C 85.8886,223.92183 95.26359,220.99215 106.49414,219.13657 C 117.82216,217.18356 129.05262,216.207 140.18555,216.20688 C 151.31822,216.207 161.86509,217.18356 171.82617,219.13657 C 181.78694,220.99215 191.25959,223.58004 200.24414,226.90024 C 209.22832,230.123 217.91972,234.02924 226.31836,238.61899 C 217.91972,237.05658 212.25566,236.66596 209.32617,237.44711 C 206.49395,238.22846 203.90606,240.18158 201.5625,243.30649 C 199.31622,246.33392 196.63068,256.49016 193.50586,273.77524 C 190.47834,290.96278 189.25764,300.92371 189.84375,303.65805 C 190.42951,306.2948 191.74787,307.61315 193.79883,307.61313 C 195.94708,307.61315 198.09552,307.32019 200.24414,306.73422 C 202.39239,306.14831 206.00567,305.85534 211.08398,305.85532 C 216.25956,305.85534 221.533,306.73425 226.9043,308.49203 C 232.27517,310.15221 236.57204,312.83776 239.79492,316.54868 C 243.11501,320.16197 244.77516,324.65415 244.77539,330.02524 C 243.21266,325.33775 240.72243,321.67564 237.30469,319.03891 C 233.8865,316.40221 229.39432,314.40026 223.82812,313.03305 C 218.26151,311.66589 213.28105,311.66589 208.88672,313.03305 C 204.492,314.40026 199.99981,316.59752 195.41016,319.62485 C 190.82014,322.6522 184.96077,325.72837 177.83203,328.85336 C 170.70297,331.88071 163.47641,334.02914 156.15234,335.29868 C 148.92565,336.66586 140.72253,337.54477 131.54297,337.93539 C 122.36317,338.32601 113.91592,337.83773 106.20117,336.47055 C 98.5839,335.20102 89.013597,332.27133 77.490234,327.68149 C 66.064401,323.09165 57.177691,318.01353 50.830078,312.44711 C 44.482391,306.88073 37.939429,298.4823 31.201172,287.2518 C 24.560536,275.92373 20.361322,264.79093 18.603516,253.85336 C 16.943356,242.91595 17.041012,231.3437 18.896484,219.13657 C 20.849602,206.83201 25.244129,194.96678 32.080078,183.54086 C 39.013647,172.01759 46.679655,162.6426 55.078125,155.41586 C 63.574169,148.09183 73.144472,142.23246 83.789062,137.83774 C 94.531169,133.34575 106.29874,131.19732 119.0918,131.39243 C 131.9823,131.58794 142.72448,133.15044 151.31836,136.07993 C 160.00962,138.91215 165.96664,140.71879 169.18945,141.49985 C 172.50961,142.28129 175.48812,141.84184 178.125,140.18149 C 180.85921,138.42387 181.98225,136.0313 181.49414,133.00375 C 181.10335,129.87896 176.56234,125.4356 167.87109,119.67368 L 155.12695,114.54672 M 403.27148,295.74789 C 395.75178,296.33387 388.4764,297.40809 381.44531,298.97055 C 374.51157,300.53308 369.04282,302.33972 365.03906,304.39047 C 361.13268,306.34362 357.47057,308.7362 354.05273,311.56821 C 350.63464,314.3026 347.11902,317.23229 343.50586,320.35727 C 339.99012,323.48228 336.62098,326.119 333.39844,328.26743 C 330.17568,330.31821 327.05068,332.07602 324.02344,333.54086 C 320.996,335.00571 317.77334,336.0311 314.35547,336.61703 C 310.93741,337.30063 308.05656,336.32406 305.71289,333.68735 C 303.46672,331.05063 302.14836,325.67954 301.75781,317.57407 C 296.87493,315.71862 293.06634,315.71862 290.33203,317.57407 C 287.69525,319.42955 285.10736,321.62681 282.56836,324.16586 C 280.1269,326.70493 277.19721,328.80454 273.7793,330.46469 C 270.45894,332.12485 266.79683,333.34555 262.79297,334.1268 C 258.88668,335.00571 253.80856,334.51742 247.55859,332.66196 C 241.30858,330.70883 236.52343,327.73032 233.20312,323.72641 C 229.88281,319.62486 227.73437,315.03502 226.75781,309.95688 C 225.78125,304.87878 225.78125,299.99597 226.75781,295.30844 C 227.73437,290.52333 229.44335,286.32411 231.88477,282.71078 C 234.42382,279.09756 237.45116,275.53311 240.9668,272.01743 C 244.58006,268.40421 248.53513,265.66984 252.83203,263.8143 C 257.22653,261.9589 262.06051,260.49406 267.33398,259.41977 C 272.70503,258.34563 277.68549,258.10149 282.27539,258.68735 C 286.86517,259.1757 290.28314,260.10344 292.5293,261.47055 C 294.87298,262.83781 296.4843,264.83976 297.36328,267.47641 C 298.33977,270.01554 298.73039,272.60342 298.53516,275.24008 C 298.33977,277.87686 297.41204,280.17178 295.75195,282.12485 C 294.09173,284.07802 291.84564,285.05458 289.01367,285.05453 C 286.18158,285.05458 284.03314,284.32216 282.56836,282.85727 C 281.10346,281.39248 280.37104,278.9999 280.37109,275.67953 C 281.83588,278.9999 283.49603,281.05068 285.35156,281.83188 C 287.30462,282.51552 289.16009,282.51552 290.91797,281.83188 C 292.67571,281.05068 293.79876,279.3417 294.28711,276.70493 C 294.87298,273.97061 294.72649,271.67569 293.84766,269.82016 C 293.06634,267.8671 291.30853,266.3046 288.57422,265.13266 C 285.83978,263.8632 282.27533,263.32609 277.88086,263.52133 C 273.48628,263.71671 269.77534,264.59562 266.74805,266.15805 C 263.81832,267.72062 261.03512,269.67374 258.39844,272.01743 C 255.76169,274.26358 253.66208,277.04678 252.09961,280.36703 C 250.53708,283.6874 249.85349,288.22841 250.04883,293.99008 C 250.24411,299.75183 251.46482,304.43933 253.71094,308.05258 C 256.05466,311.66589 258.7402,314.25377 261.76758,315.81625 C 264.79488,317.37877 267.87105,318.16002 270.99609,318.16 C 274.12104,318.16002 276.95307,317.23229 279.49219,315.3768 C 282.12885,313.52135 284.61908,312.15417 286.96289,311.27524 C 289.40423,310.2987 291.16204,309.56628 292.23633,309.07797 C 293.31048,308.49206 296.58196,308.00378 302.05078,307.61313 C 302.24602,259.46867 302.09953,233.19917 301.61133,228.80453 C 301.22063,224.41011 300.14641,220.35738 298.38867,216.64633 C 296.63079,212.83786 293.35931,209.56638 288.57422,206.83188 C 283.789,203.99998 279.83393,202.53513 276.70898,202.43735 C 273.58393,202.33982 270.2148,203.12107 266.60156,204.7811 C 263.0859,206.44138 260.88864,208.44333 260.00977,210.78696 C 259.22848,213.03317 258.64254,215.37692 258.25195,217.81821 C 257.86129,220.16207 257.95895,222.06637 258.54492,223.5311 C 259.13082,224.99605 260.15621,226.1191 261.62109,226.90024 C 263.0859,227.58394 265.18551,227.19331 267.91992,225.72836 C 266.25972,225.72847 264.84371,225.33785 263.67188,224.55649 C 262.49996,223.67769 262.01168,222.35933 262.20703,220.60141 C 262.49996,218.74606 263.37887,217.28121 264.84375,216.20688 C 266.30855,215.03512 268.11519,214.69333 270.26367,215.18149 C 272.41206,215.66989 274.02339,216.98825 275.09766,219.13657 C 276.17182,221.18746 276.70893,223.48238 276.70898,226.02133 C 276.70893,228.46284 276.26948,230.46479 275.39062,232.02719 C 274.60932,233.58979 273.09565,235.24995 270.84961,237.00766 C 268.70113,238.66791 266.11324,239.74213 263.08594,240.23032 C 260.05856,240.71869 257.12887,240.76752 254.29688,240.3768 C 251.46482,239.98627 248.8281,238.66791 246.38672,236.42172 C 244.04295,234.07807 242.33397,231.44136 241.25977,228.51157 C 240.28319,225.58199 239.79491,222.84761 239.79492,220.30844 C 239.79491,217.67184 240.1367,214.88864 240.82031,211.95883 C 241.60155,209.02927 243.01756,206.34372 245.06836,203.90219 C 247.21677,201.36326 249.90232,199.26365 253.125,197.60336 C 256.34762,195.84569 259.37496,194.67381 262.20703,194.08774 C 265.13668,193.50194 268.11519,193.16014 271.14258,193.06235 C 274.16987,192.96483 277.92963,193.16014 282.42188,193.64828 C 286.914,194.13671 291.30853,195.01561 295.60547,196.285 C 299.90227,197.55467 303.90617,199.41014 307.61719,201.85141 C 311.32804,204.19529 314.59952,207.22263 317.43164,210.93344 C 320.26358,214.54684 322.16787,217.86715 323.14453,220.89438 C 324.21865,223.82418 324.90224,227.29097 325.19531,231.29477 C 325.58584,235.29877 325.68349,241.20697 325.48828,249.01938 C 325.29287,256.83196 325.3417,268.45304 325.63477,283.88266 C 325.92763,299.31238 326.70888,308.44323 327.97852,311.27524 C 329.24794,314.00963 331.44521,315.57213 334.57031,315.96274 C 337.6952,316.25572 340.57606,315.71862 343.21289,314.35141 C 345.94714,312.98424 348.77917,311.1776 351.70898,308.93149 C 354.63854,306.58777 357.61705,304.58581 360.64453,302.92563 C 363.67174,301.2655 367.91978,299.80066 373.38867,298.5311 C 378.95492,297.2616 383.64242,296.43153 387.45117,296.04086 C 391.35725,295.65028 396.72834,295.65028 403.56445,296.04086 L 403.27148,295.74789 M 281.68945,222.50571 C 294.67777,221.04098 305.41995,219.67379 313.91602,218.40414 C 322.31446,217.13473 329.19922,215.03512 334.57031,212.10532 C 339.9414,209.17575 345.55663,206.58787 351.41602,204.34164 C 357.27537,201.99803 362.98825,199.36131 368.55469,196.43149 C 374.12105,193.50194 379.49214,191.64647 384.66797,190.86508 C 389.94135,190.08398 396.92376,190.18163 405.61523,191.15805 C 395.0683,194.86913 389.25776,198.18944 388.18359,201.11899 C 387.10932,204.04881 385.79096,208.88278 384.22852,215.62094 L 383.78906,223.97055 C 388.76948,221.13863 393.01752,217.96481 396.5332,214.44907 C 400.04876,210.93356 403.4179,207.32029 406.64062,203.60922 C 409.96086,199.89842 413.37883,197.06639 416.89453,195.11313 C 420.41007,193.06249 424.31632,192.0371 428.61328,192.03696 C 432.91006,192.0371 436.66982,192.37889 439.89258,193.06235 C 443.21278,193.64842 446.38661,195.30858 449.41406,198.04282 C 452.53894,200.77732 454.93152,203.60935 456.5918,206.53891 C 458.25183,209.46872 459.7655,211.95895 461.13281,214.00961 C 462.59753,215.96286 463.47643,219.28316 463.76953,223.97055 C 473.04674,214.69333 479.44321,208.83396 482.95898,206.39243 C 486.47446,203.95115 491.6014,201.41209 498.33984,198.77524 C 505.17561,196.13866 511.52326,195.1621 517.38281,195.84555 C 523.242,196.43163 527.53887,197.89647 530.27344,200.24008 C 533.10527,202.48631 535.35136,204.83005 537.01172,207.27133 C 538.67167,209.71286 540.33182,213.17966 541.99219,217.67172 C 543.74979,222.16402 544.87284,226.94917 545.36133,232.02719 C 545.8494,237.10541 546.14237,243.79486 546.24023,252.09555 C 546.43533,260.39641 546.28885,267.57413 545.80078,273.62875 C 545.31229,279.58584 545.21463,285.98232 545.50781,292.81821 C 545.89822,299.55652 546.43533,305.31824 547.11914,310.10336 C 547.90018,314.88854 549.07205,318.16002 550.63477,319.91782 C 552.19705,321.57798 554.44314,322.79869 557.37305,323.57993 C 560.30251,324.26353 563.13454,324.31236 565.86914,323.72641 C 568.70094,323.14048 572.70484,320.99205 577.88086,317.2811 L 572.90039,337.20297 C 555.61501,335.64047 544.82401,334.76157 540.52734,334.56625 C 536.23027,334.4686 529.05254,335.24985 518.99414,336.91 C 508.93537,338.57016 494.3846,344.96663 475.3418,356.09946 C 484.61899,349.9471 491.6014,345.30843 496.28906,342.18344 C 501.07405,339.15609 505.71272,336.27524 510.20508,333.54086 C 514.69708,330.70883 517.87091,327.43735 519.72656,323.72641 C 521.58184,320.01549 522.70489,314.00963 523.0957,305.70883 C 523.58379,297.40809 523.73028,287.25185 523.53516,275.24008 C 523.43731,263.22843 523.14434,252.77923 522.65625,243.89243 C 522.26544,234.90815 521.19122,228.02339 519.43359,223.23813 C 517.77325,218.45309 514.74591,215.13278 510.35156,213.27719 C 506.05451,211.42184 501.36702,210.98239 496.28906,211.95883 C 491.21078,212.83786 486.76742,214.44919 482.95898,216.79282 C 479.15024,219.13668 473.38853,224.11714 465.67383,231.73422 C 465.6737,279.48818 465.72252,305.75769 465.82031,310.54282 C 466.01549,315.32799 467.23619,318.79478 469.48242,320.94321 C 471.82603,323.09165 473.92564,324.36118 475.78125,324.7518 C 477.63657,325.04478 480.41977,325.04478 484.13086,324.7518 C 487.84164,324.36118 490.23422,323.18931 491.30859,321.23618 C 492.38265,319.18541 492.91976,316.79283 492.91992,314.05844 C 492.91976,311.32409 491.69906,308.3944 489.25781,305.26938 C 492.87093,308.00378 494.92171,310.83581 495.41016,313.76547 C 495.89827,316.69518 495.65413,319.42955 494.67773,321.9686 C 493.79867,324.41001 492.87093,326.55845 491.89453,328.41391 C 491.01547,330.26938 489.01352,331.58774 485.88867,332.36899 C 482.86118,333.05258 478.46665,333.39438 472.70508,333.39438 C 467.04088,333.39438 460.44909,333.19907 452.92969,332.80844 C 445.41004,332.32016 439.01357,332.85727 433.74023,334.41977 C 428.4667,335.98227 423.87686,338.03305 419.9707,340.57211 C 416.16203,343.20882 411.96281,346.67562 407.37305,350.9725 C 412.93937,343.94124 417.23624,339.25375 420.26367,336.91 C 423.38858,334.56625 426.61123,332.32016 429.93164,330.17172 C 433.34951,328.02329 436.27919,324.89829 438.7207,320.79672 C 441.25966,316.59752 442.82216,311.66589 443.4082,306.0018 C 444.09169,300.24012 444.18934,293.5995 443.70117,286.07993 C 443.21278,278.56045 443.01747,270.35733 443.11523,261.47055 C 443.31044,252.48626 443.11512,244.67376 442.5293,238.03305 C 441.94325,231.39253 441.162,226.21675 440.18555,222.50571 C 439.30653,218.79488 437.84169,215.96286 435.79102,214.00961 C 433.83779,211.95895 431.29873,210.49411 428.17383,209.61508 C 425.14639,208.63864 421.92374,208.49216 418.50586,209.17563 C 415.08781,209.76169 412.20695,210.98239 409.86328,212.83774 C 407.61711,214.69333 404.78508,216.84176 401.36719,219.28305 C 397.94915,221.72457 392.23627,226.21675 384.22852,232.75961 C 383.34956,266.35343 382.95893,286.07997 383.05664,291.9393 C 383.2519,297.70106 383.88667,303.46277 384.96094,309.22446 C 386.0351,314.88854 387.49995,318.89244 389.35547,321.23618 C 391.21088,323.48228 393.65228,325.09361 396.67969,326.07016 C 399.80462,326.94907 402.44134,327.3397 404.58984,327.24203 C 406.73821,327.04673 408.6425,326.02134 410.30273,324.16586 C 412.06047,322.31041 413.37883,318.94127 414.25781,314.05844 C 414.64836,318.35533 414.50187,321.52916 413.81836,323.57993 C 413.23234,325.53306 412.25578,327.43735 410.88867,329.29282 C 409.52141,331.14829 407.56828,332.41782 405.0293,333.10141 C 402.58782,333.68735 399.12103,333.98032 394.62891,333.98032 C 390.23432,333.98032 386.08393,333.83383 382.17773,333.54086 C 378.3691,333.15024 374.12105,332.9061 369.43359,332.80844 C 364.84372,332.61313 360.20505,332.95493 355.51758,333.83383 C 350.92772,334.81039 343.55468,336.95883 333.39844,340.27914 C 323.2422,343.6971 314.64846,347.65218 307.61719,352.14438 C 300.48831,356.63654 292.62699,361.51935 284.0332,366.79282 C 293.89652,358.10139 301.90433,351.90022 308.05664,348.1893 C 314.209,344.57601 320.36134,341.30453 326.51367,338.37485 C 332.66602,335.44516 338.18359,332.80844 343.06641,330.46469 C 348.04686,328.12095 351.90428,324.75181 354.63867,320.35727 C 357.47068,315.8651 359.08201,309.90807 359.47266,302.48618 C 359.96091,295.06434 360.20505,286.81239 360.20508,277.73032 C 360.20505,268.64835 360.05857,258.10149 359.76562,246.08969 C 359.47263,234.07807 358.83786,226.16792 357.86133,222.35922 C 356.9824,218.45309 354.78513,216.06051 351.26953,215.18149 C 347.75389,214.20505 343.99413,214.59567 339.99023,216.35336 C 335.98633,218.01363 331.54297,219.33199 326.66016,220.30844 C 321.6797,221.18746 316.01564,221.87105 309.66797,222.35922 C 303.32034,222.74996 293.70121,222.79879 280.81055,222.50571 L 281.68945,222.50571 M 487.79297,285.3475 C 512.40241,272.45694 530.4688,264.25382 541.99219,260.73813 C 553.51565,257.22258 567.48048,254.09758 583.88672,251.36313 C 586.23046,244.72259 587.89061,239.05854 588.86719,234.37094 C 589.84374,229.68355 592.77342,224.01949 597.65625,217.37875 C 602.53904,210.73825 609.86325,205.36716 619.62891,201.26547 C 629.39448,197.16405 639.74603,195.60155 650.68359,196.57797 C 661.62101,197.55467 669.72647,199.80076 675,203.31625 C 680.27333,206.83201 684.5702,212.30075 687.89062,219.7225 C 691.21082,227.14449 693.45691,236.71479 694.62891,248.43344 L 602.05078,259.56625 C 602.05075,271.28507 603.12497,280.36709 605.27344,286.81235 C 607.42184,293.2577 610.54684,298.62879 614.64844,302.92563 C 618.74996,307.22253 624.02339,310.44518 630.46875,312.5936 C 636.914,314.74205 644.43353,315.23033 653.02734,314.05844 C 661.62101,312.88659 667.96866,310.93346 672.07031,308.19907 C 676.17177,305.46472 679.29677,302.43738 681.44531,299.11703 C 683.59364,295.79676 685.15614,292.28114 686.13281,288.57016 C 687.10926,284.85927 689.55067,282.41787 693.45703,281.24594 C 697.36316,280.07412 701.56237,279.29287 706.05469,278.90219 C 710.54674,278.51162 714.55064,278.80459 718.06641,279.7811 C 721.58189,280.75771 726.85532,284.76162 733.88672,291.79282 C 725.68344,286.32411 719.14048,283.39443 714.25781,283.00375 C 709.37487,282.61318 704.98034,283.49209 701.07422,285.64047 C 697.16785,287.78896 693.55457,292.28114 690.23438,299.11703 C 686.91395,305.953 684.08192,312.88659 681.73828,319.91782 C 679.39443,326.94907 676.85537,333.98032 674.12109,341.01157 C 671.38662,348.0428 667.96866,354.48811 663.86719,360.3475 C 659.76554,366.20685 654.88273,371.38262 649.21875,375.87485 C 643.55462,380.36699 636.13275,384.07792 626.95312,387.00766 C 617.7734,389.93729 606.34763,392.37869 592.67578,394.33188 C 604.3945,391.20682 615.72262,387.20292 626.66016,382.32016 C 637.59759,377.4373 645.70305,371.48028 650.97656,364.44907 C 656.24992,357.41779 659.8632,351.94905 661.81641,348.04282 C 663.76944,344.13656 663.67179,341.01156 661.52344,338.66782 C 659.37492,336.32406 656.64054,335.73813 653.32031,336.91 C 649.99993,338.08187 643.06634,337.78891 632.51953,336.0311 C 621.97261,334.27328 613.86715,331.44126 608.20312,327.535 C 602.53904,323.62876 597.46092,316.79283 592.96875,307.02719 C 588.47655,297.2616 585.2539,282.02724 583.30078,261.32407 C 568.06641,262.49601 554.88283,264.15617 543.75,266.30453 C 532.61723,268.45304 513.96491,274.80069 487.79297,285.3475 M 601.46484,246.67563 L 667.08984,236.12875 C 666.69913,231.44136 665.33194,227.24214 662.98828,223.5311 C 660.64445,219.82027 655.56633,217.18356 647.75391,215.62094 C 639.94134,214.05856 632.81244,214.54684 626.36719,217.08578 C 619.92183,219.62496 615.42965,222.35933 612.89062,225.28891 C 610.35153,228.2187 606.73825,235.15229 602.05078,246.08969 L 601.46484,246.67563"
     id="text2293" />
  <path
     style="font-size:300px;font-style:normal;font-variant:normal;font-weight:normal;font-stretch:normal;text-align:start;line-height:125%;writing-mode:lr-tb;text-anchor:start;fill:#ffffff;fill-opacity:1;fill-rule:evenodd;stroke:#000000;stroke-width:1px;stroke-linecap:butt;stroke-linejoin:miter;stroke-opacity:1;font-family:FairydustB"
     d="M 249.75586,395.80481 C 249.16976,395.51202 249.95101,394.97491 252.09961,394.19348 C 254.24788,393.41241 256.59163,391.6546 259.13086,388.92004 C 261.7674,386.0882 265.2342,383.305 269.53125,380.57043 C 273.82794,377.83626 278.27129,376.1761 282.86133,375.58997 C 287.54863,374.90657 292.18729,375.24837 296.77734,376.61536 C 301.36697,377.98274 305.95681,381.88899 310.54688,388.33411 C 307.51931,384.42805 303.8572,381.79133 299.56055,380.42395 C 295.26346,378.9593 290.47831,378.86165 285.20508,380.13098 C 280.0291,381.30305 275.73223,383.45149 272.31445,386.57629 C 268.99396,389.60382 264.84357,395.26788 259.86328,403.56848 C 262.30451,406.40068 265.82013,411.67411 270.41016,419.38879 C 275.09747,427.00613 278.51543,437.65065 280.66406,451.32239 C 282.8123,464.99437 283.1541,477.34788 281.68945,488.38293 C 280.32207,499.41817 277.39239,509.72089 272.90039,519.29114 C 268.50568,528.76384 263.37873,537.2111 257.51953,544.63293 C 251.75765,551.95718 246.38656,557.5724 241.40625,561.47864 C 236.52329,565.28724 230.61509,568.65638 223.68164,571.58606 C 216.74792,574.51575 209.03308,576.5177 200.53711,577.59192 C 192.13857,578.66613 183.34951,578.56848 174.16992,577.29895 C 164.99016,576.12707 156.10345,573.88098 147.50977,570.56067 C 138.91596,567.14271 131.05464,562.35756 123.92578,556.2052 C 116.8945,550.05288 110.59568,542.97281 105.0293,534.96497 C 99.560534,526.9572 95.654287,517.53338 93.310547,506.69348 C 90.966792,495.75606 90.087887,486.0881 90.673828,477.68958 C 91.357417,469.19359 92.529291,462.11352 94.189453,456.44934 C 95.947256,450.68775 98.779284,444.24244 102.68555,437.1134 C 106.68943,429.88699 109.61912,425.34597 111.47461,423.49036 C 113.33005,421.53738 115.72263,418.99832 118.65234,415.87317 C 121.582,412.65067 125.04879,409.57451 129.05273,406.64465 C 133.05659,403.71514 136.57222,401.27373 139.59961,399.32043 C 142.72455,397.26983 146.24017,395.80499 150.14648,394.9259 C 154.15032,393.94952 158.00774,393.46124 161.71875,393.46106 C 165.42961,393.46124 169.04289,394.24249 172.55859,395.80481 C 176.07413,397.36749 178.75967,401.02959 180.61523,406.79114 C 178.17374,402.7874 174.95108,400.19952 170.94727,399.02747 C 166.94328,397.75811 162.64641,397.61163 158.05664,398.58801 C 153.46673,399.46709 149.7558,401.12725 146.92383,403.56848 C 144.1894,406.01006 141.25971,409.18388 138.13477,413.08997 C 135.10737,416.89872 132.76363,420.75614 131.10352,424.66223 C 129.44332,428.47097 127.88082,433.7444 126.41602,440.48254 C 125.04879,447.22095 124.12106,455.37524 123.63281,464.94543 C 123.24215,474.41819 123.43746,483.25607 124.21875,491.45911 C 124.99996,499.56465 126.75777,508.54902 129.49219,518.41223 C 132.22652,528.1779 135.98628,536.47868 140.77148,543.31458 C 145.55658,550.05288 151.17181,555.42397 157.61719,559.42786 C 164.06242,563.43177 171.09367,566.2638 178.71094,567.92395 C 186.42568,569.58411 193.79872,569.58411 200.83008,567.92395 C 207.95886,566.2638 214.50182,563.13881 220.45898,558.54895 C 226.51353,553.86147 232.12876,547.31851 237.30469,538.92004 C 242.48031,530.42399 245.60531,523.73455 246.67969,518.85168 C 247.8514,513.87128 248.97445,508.25605 250.04883,502.00598 C 251.12288,495.6584 251.70882,488.67599 251.80664,481.05872 C 252.00179,473.34397 251.56233,465.18968 250.48828,456.59583 C 249.4139,448.0022 247.31429,437.26003 244.18945,424.36926 L 246.5332,419.24231 C 243.21273,422.66043 240.62485,424.90652 238.76953,425.98059 C 236.91391,427.05496 234.71665,425.83426 232.17773,422.31848 C 229.73618,418.80301 228.51548,414.99442 228.51562,410.8927 C 228.51548,406.69365 226.75767,402.59209 223.24219,398.58801 C 219.72643,394.58429 215.18542,391.26398 209.61914,388.62708 C 204.15027,385.99055 197.46083,384.47687 189.55078,384.08606 C 181.73819,383.59797 174.85343,383.50031 168.89648,383.79309 C 162.93938,384.08625 155.61517,385.64875 146.92383,388.48059 C 138.33003,391.21515 131.4941,394.34015 126.41602,397.85559 C 121.43551,401.37139 117.67575,404.3499 115.13672,406.79114 C 112.69529,409.23271 109.71677,412.65067 106.20117,417.04504 C 102.68553,421.34207 97.412098,430.66823 90.380859,445.02356 C 93.115228,432.42605 97.021474,422.31863 102.09961,414.70129 C 107.17771,406.98662 112.98825,400.29717 119.53125,394.63293 C 126.17184,388.8714 133.00777,384.47687 140.03906,381.44934 C 147.07025,378.32454 154.88274,376.02962 163.47656,374.56458 C 172.16788,373.00228 181.64053,372.46517 191.89453,372.95325 C 202.24598,373.44173 211.91394,375.2972 220.89844,378.51965 C 229.98033,381.7425 239.59946,387.50422 249.75586,395.80481 M 182.8125,482.37708 C 198.14462,469.97484 211.52351,461.72289 222.94922,457.62122 C 234.2774,453.51977 245.80082,450.10181 257.51953,447.36731 C 269.2383,444.63306 281.10352,443.02174 293.11523,442.53333 C 305.22459,442.04518 316.16208,441.5569 325.92773,441.06848 C 335.69331,440.58033 344.48236,439.50612 352.29492,437.84583 C 360.10735,436.18581 366.25969,430.17995 370.75195,419.82825 C 367.52922,427.64089 364.84367,432.91433 362.69531,435.64856 C 360.64446,438.38307 358.15423,440.33619 355.22461,441.50793 C 352.29486,442.67994 348.63275,443.85182 344.23828,445.02356 C 339.8437,446.09791 336.81636,447.22095 335.15625,448.3927 C 333.49605,449.46704 332.51949,451.469 332.22656,454.39856 C 331.93355,457.32836 343.01752,486.62521 365.47852,542.28918 C 390.18544,483.40256 401.95301,452.83618 400.78125,450.58997 C 399.70692,448.24634 397.99794,446.7815 395.6543,446.19543 C 393.4081,445.51197 390.33193,445.75611 386.42578,446.92786 C 382.51944,448.0022 375.19522,452.44556 364.45312,460.25793 C 372.55851,452.15259 378.95499,446.97681 383.64258,444.73059 C 388.42763,442.38697 393.31044,440.97096 398.29102,440.48254 C 403.36902,439.9944 408.49597,439.70143 413.67188,439.60364 C 418.94518,439.40846 425.04869,438.4319 431.98242,436.67395 C 439.01352,434.81862 446.2889,430.32644 453.80859,423.19739 C 447.65609,430.32644 443.16391,435.06276 440.33203,437.40637 C 437.59751,439.6526 432.81235,441.99635 425.97656,444.43762 C 419.14049,446.87916 412.15808,456.74243 405.0293,474.02747 L 356.10352,592.67981 C 348.29095,600.10166 342.52924,604.93564 338.81836,607.18176 C 335.10737,609.52548 329.15035,610.55087 320.94727,610.25793 C 330.41988,607.62118 336.66987,605.08212 339.69727,602.64075 C 342.82221,600.19932 345.70307,597.17197 348.33984,593.55872 C 350.9765,590.04308 352.58783,585.64855 353.17383,580.37512 C 353.85736,575.19934 346.19135,554.64272 330.17578,518.7052 C 314.25779,482.76779 304.83397,462.74828 301.9043,458.64661 C 299.07225,454.54516 295.99609,451.85962 292.67578,450.58997 C 289.35547,449.2229 285.54688,448.53931 281.25,448.53918 C 276.85548,448.53931 269.38478,449.61353 258.83789,451.76184 C 248.1934,453.9104 237.20708,456.64477 225.87891,459.96497 C 214.4532,463.18773 200.09774,470.9514 182.8125,483.25598 L 182.8125,482.37708 M 338.81836,526.46887 C 363.4278,513.57831 381.49419,505.37519 393.01758,501.8595 C 404.54104,498.34395 418.50587,495.21895 434.91211,492.4845 C 437.25585,485.84396 438.916,480.1799 439.89258,475.49231 C 440.86913,470.80491 443.79881,465.14086 448.68164,458.50012 C 453.56443,451.85962 460.88864,446.48853 470.6543,442.38684 C 480.41987,438.28541 490.77142,436.72292 501.70898,437.69934 C 512.6464,438.67604 520.75186,440.92213 526.02539,444.43762 C 531.29872,447.95337 535.59559,453.42212 538.91602,460.84387 C 542.23621,468.26585 544.4823,477.83616 545.6543,489.55481 L 453.07617,500.68762 C 453.07615,512.40643 454.15036,521.48846 456.29883,527.93372 C 458.44723,534.37907 461.57223,539.75016 465.67383,544.047 C 469.77535,548.3439 475.04878,551.56655 481.49414,553.71497 C 487.93939,555.86342 495.45892,556.3517 504.05273,555.17981 C 512.6464,554.00796 518.99405,552.05483 523.0957,549.32043 C 527.19717,546.58609 530.32216,543.55875 532.4707,540.2384 C 534.61903,536.91813 536.18153,533.40251 537.1582,529.69153 C 538.13465,525.98064 540.57606,523.53924 544.48242,522.36731 C 548.38855,521.19549 552.58776,520.41424 557.08008,520.02356 C 561.57213,519.63299 565.57603,519.92596 569.0918,520.90247 C 572.60728,521.87908 577.88071,525.88298 584.91211,532.91418 C 576.70883,527.44548 570.16587,524.5158 565.2832,524.12512 C 560.40026,523.73455 556.00573,524.61345 552.09961,526.76184 C 548.19324,528.91032 544.57996,533.40251 541.25977,540.2384 C 537.93934,547.07437 535.10731,554.00796 532.76367,561.03918 C 530.41982,568.07044 527.88076,575.10168 525.14648,582.13293 C 522.41201,589.16417 518.99405,595.60948 514.89258,601.46887 C 510.79093,607.32821 505.90812,612.50399 500.24414,616.99622 C 494.58001,621.48836 487.15814,625.19929 477.97852,628.12903 C 468.79879,631.05866 457.37302,633.50006 443.70117,635.45325 C 455.41989,632.32819 466.74801,628.32429 477.68555,623.44153 C 488.62298,618.55867 496.72845,612.60165 502.00195,605.57043 C 507.27531,598.53916 510.88859,593.07042 512.8418,589.16418 C 514.79483,585.25792 514.69718,582.13293 512.54883,579.78918 C 510.40031,577.44543 507.66593,576.8595 504.3457,578.03137 C 501.02532,579.20324 494.09173,578.91027 483.54492,577.15247 C 472.998,575.39465 464.89254,572.56262 459.22852,568.65637 C 453.56443,564.75013 448.48631,557.9142 443.99414,548.14856 C 439.50194,538.38297 436.27929,523.14861 434.32617,502.44543 C 419.0918,503.61738 405.90822,505.27754 394.77539,507.4259 C 383.64262,509.57441 364.9903,515.92206 338.81836,526.46887 M 452.49023,487.797 L 518.11523,477.25012 C 517.72452,472.56272 516.35733,468.36351 514.01367,464.65247 C 511.66984,460.94164 506.59172,458.30493 498.7793,456.74231 C 490.96673,455.17993 483.83783,455.66821 477.39258,458.20715 C 470.94722,460.74633 466.45504,463.4807 463.91602,466.41028 C 461.37692,469.34007 457.76364,476.27366 453.07617,487.21106 L 452.49023,487.797 M 473.87695,468.46106 C 490.77154,466.99632 503.71098,465.18968 512.69531,463.04114 C 521.67971,460.89281 530.56642,458.50024 539.35547,455.8634 C 548.14453,453.12915 556.64062,449.71118 564.84375,445.6095 C 573.14451,441.41041 582.32418,437.65065 592.38281,434.3302 C 602.44135,430.91238 610.49798,429.7405 616.55273,430.81458 C 611.18158,431.88894 606.88471,433.06081 603.66211,434.3302 C 600.4394,435.50221 597.90034,437.16237 596.04492,439.31067 C 594.28706,441.45924 593.11519,444.3401 592.5293,447.95325 C 592.04097,451.56665 592.33394,458.20727 593.4082,467.87512 C 599.85346,458.20727 605.22455,450.88306 609.52148,445.90247 C 613.81829,440.82447 619.82415,437.40651 627.53906,435.64856 C 635.35148,433.89089 641.55264,434.0862 646.14258,436.2345 C 650.82998,438.38307 654.3456,442.4358 656.68945,448.3927 C 659.03309,454.2522 659.27723,459.96508 657.42188,465.53137 C 655.66395,471.09788 652.83193,474.85764 648.92578,476.81067 C 645.01943,478.76389 641.35733,480.03342 637.93945,480.61926 C 634.5214,481.10764 631.34757,480.47287 628.41797,478.71497 C 625.58586,476.95725 623.63274,475.00413 622.55859,472.85559 C 621.4843,470.6096 621.09368,467.87523 621.38672,464.65247 C 621.77727,461.42992 623.0468,459.03735 625.19531,457.47473 C 627.34367,455.81469 630.32218,455.42407 634.13086,456.30286 C 637.93936,457.18188 639.25772,461.72289 638.08594,469.9259 C 640.91788,462.79711 641.55264,457.47485 639.99023,453.95911 C 638.42764,450.34595 636.27921,448.29517 633.54492,447.80676 C 630.90812,447.22095 628.46672,447.46509 626.2207,448.53918 C 624.07219,449.61353 621.38665,451.42017 618.16406,453.95911 C 614.94134,456.40063 612.35345,458.98852 610.40039,461.72278 C 608.44721,464.45726 602.78315,472.80686 593.4082,486.77161 C 594.18941,531.98649 595.11714,555.96108 596.19141,558.69543 C 597.26558,561.33217 599.02339,563.67591 601.46484,565.72668 C 604.00385,567.67982 607.12885,567.8263 610.83984,566.16614 C 614.64837,564.50599 620.16594,562.45521 627.39258,560.01379 L 624.16992,578.32434 C 613.72064,577.93371 603.17377,577.54309 592.5293,577.15247 C 581.98239,576.8595 569.62888,577.59192 555.46875,579.34973 C 541.3086,581.20519 524.36526,584.96496 504.63867,590.62903 C 521.1426,584.18371 533.44728,579.59387 541.55273,576.8595 C 549.56055,574.22278 556.05468,570.65833 561.03516,566.16614 C 566.11326,561.67396 568.99412,556.10756 569.67773,549.46692 C 570.45896,542.82633 570.84959,535.3068 570.84961,526.90833 C 570.84959,518.41229 570.89841,509.96503 570.99609,501.56653 C 571.19138,493.16817 570.99607,484.23263 570.41016,474.75989 C 569.92185,465.18968 568.2617,459.33032 565.42969,457.18176 C 562.59764,455.03344 559.37499,454.2522 555.76172,454.83801 C 552.14843,455.32641 544.97071,457.27954 534.22852,460.69739 C 523.48635,464.11547 514.50199,466.2639 507.27539,467.1427 C 500.04888,468.02171 488.72076,468.80296 473.29102,469.48645 L 473.87695,468.46106"
     id="text2297" />
</svg>
