<?xml version="1.0" encoding="UTF-8" standalone="no"?>
<!-- Created with Inkscape (http://www.inkscape.org/) -->
<svg
   xmlns:dc="http://purl.org/dc/elements/1.1/"
   xmlns:cc="http://web.resource.org/cc/"
   xmlns:rdf="http://www.w3.org/1999/02/22-rdf-syntax-ns#"
   xmlns:svg="http://www.w3.org/2000/svg"
   xmlns="http://www.w3.org/2000/svg"
   xmlns:xlink="http://www.w3.org/1999/xlink"
   xmlns:sodipodi="http://inkscape.sourceforge.net/DTD/sodipodi-0.dtd"
   xmlns:inkscape="http://www.inkscape.org/namespaces/inkscape"
   width="10cm"
   height="25cm"
   id="svg4001"
   sodipodi:version="0.32"
   inkscape:version="0.43"
   version="1.0"
   sodipodi:docbase="/home/dylan/src/mfgames/wordplay/src/themes/default"
   sodipodi:docname="burning.svg">
  <defs
     id="defs4003">
    <radialGradient
       inkscape:collect="always"
       xlink:href="#linearGradient19076"
       id="radialGradient23495"
       gradientUnits="userSpaceOnUse"
       gradientTransform="matrix(2.7304e-7,-0.999997,2.000055,5.42668e-7,-177.1761,354.3301)"
       cx="177.16534"
       cy="177.16582"
       fx="177.16534"
       fy="177.16582"
       r="88.377121" />
    <radialGradient
       inkscape:collect="always"
       xlink:href="#linearGradient17316"
       id="radialGradient23493"
       gradientUnits="userSpaceOnUse"
       gradientTransform="matrix(1.065198e-14,0.999995,-2,2.172646e-14,-8.421063e-4,9.497463e-6)"
       cx="1.0694882e-10"
       cy="-0.00042105324"
       fx="1.0694882e-10"
       fy="-0.00042105324"
       r="88.377121" />
    <radialGradient
       inkscape:collect="always"
       xlink:href="#linearGradient19076"
       id="radialGradient23515"
       gradientUnits="userSpaceOnUse"
       gradientTransform="matrix(2.7304e-7,-0.999997,2.000055,5.42668e-7,-177.1761,354.3301)"
       cx="177.16534"
       cy="177.16582"
       fx="177.16534"
       fy="177.16582"
       r="88.377121" />
    <radialGradient
       inkscape:collect="always"
       xlink:href="#linearGradient17316"
       id="radialGradient23513"
       gradientUnits="userSpaceOnUse"
       gradientTransform="matrix(1.065198e-14,0.999995,-2,2.172646e-14,-8.421063e-4,9.497463e-6)"
       cx="1.0694882e-10"
       cy="-0.00042105324"
       fx="1.0694882e-10"
       fy="-0.00042105324"
       r="88.377121" />
    <linearGradient
       id="linearGradient19076">
      <stop
         style="stop-color:#000000;stop-opacity:1;"
         offset="0"
         id="stop19078" />
      <stop
         style="stop-color:#000000;stop-opacity:0;"
         offset="1"
         id="stop19080" />
    </linearGradient>
    <radialGradient
       inkscape:collect="always"
       xlink:href="#linearGradient19076"
       id="radialGradient23511"
       gradientUnits="userSpaceOnUse"
       gradientTransform="matrix(2.7304e-7,-0.999997,2.000055,5.42668e-7,-177.1761,354.3301)"
       cx="177.16534"
       cy="177.16582"
       fx="177.16534"
       fy="177.16582"
       r="88.377121" />
    <linearGradient
       id="linearGradient17316">
      <stop
         id="stop17318"
         offset="0"
         style="stop-color:#ffffff;stop-opacity:1;" />
      <stop
         id="stop17320"
         offset="1"
         style="stop-color:#ffffff;stop-opacity:0;" />
    </linearGradient>
    <radialGradient
       inkscape:collect="always"
       xlink:href="#linearGradient17316"
       id="radialGradient23509"
       gradientUnits="userSpaceOnUse"
       gradientTransform="matrix(1.065198e-14,0.999995,-2,2.172646e-14,-8.421063e-4,9.497463e-6)"
       cx="1.0694882e-10"
       cy="-0.00042105324"
       fx="1.0694882e-10"
       fy="-0.00042105324"
       r="88.377121" />
    <linearGradient
       id="linearGradient11248">
      <stop
         id="stop11250"
         offset="0"
         style="stop-color:#df6542;stop-opacity:1;" />
      <stop
         id="stop11252"
         offset="1"
         style="stop-color:#541616;stop-opacity:1;" />
    </linearGradient>
    <linearGradient
       id="linearGradient11242">
      <stop
         style="stop-color:#e0a441;stop-opacity:1;"
         offset="0"
         id="stop11244" />
      <stop
         style="stop-color:#982828;stop-opacity:1;"
         offset="1"
         id="stop11246" />
    </linearGradient>
    <linearGradient
       id="linearGradient11236">
      <stop
         id="stop11238"
         offset="0"
         style="stop-color:#b91f1f;stop-opacity:1;" />
      <stop
         id="stop11240"
         offset="1"
         style="stop-color:#541624;stop-opacity:1;" />
    </linearGradient>
    <linearGradient
       id="linearGradient8465">
      <stop
         style="stop-color:#df4242;stop-opacity:1;"
         offset="0"
         id="stop8467" />
      <stop
         style="stop-color:#541616;stop-opacity:1;"
         offset="1"
         id="stop8469" />
    </linearGradient>
    <linearGradient
       id="linearGradient7582">
      <stop
         id="stop7584"
         offset="0"
         style="stop-color:#000000;stop-opacity:1;" />
      <stop
         id="stop7586"
         offset="1"
         style="stop-color:#000000;stop-opacity:0;" />
    </linearGradient>
    <linearGradient
       id="linearGradient6689">
      <stop
         style="stop-color:#ffffff;stop-opacity:1;"
         offset="0"
         id="stop6691" />
      <stop
         style="stop-color:#ffffff;stop-opacity:0;"
         offset="1"
         id="stop6693" />
    </linearGradient>
    <linearGradient
       id="linearGradient4919">
      <stop
         style="stop-color:#f4f3db;stop-opacity:1;"
         offset="0"
         id="stop4921" />
      <stop
         id="stop4931"
         offset="0.30000001"
         style="stop-color:#eae8bb;stop-opacity:1;" />
      <stop
         style="stop-color:#eae8bb;stop-opacity:1;"
         offset="0.69999999"
         id="stop4933" />
      <stop
         id="stop4927"
         offset="1"
         style="stop-color:#c9c34e;stop-opacity:1;" />
    </linearGradient>
    <linearGradient
       inkscape:collect="always"
       xlink:href="#linearGradient6689"
       id="linearGradient6699"
       x1="-0.0027778889"
       y1="88.576546"
       x2="177.16077"
       y2="88.576546"
       gradientUnits="userSpaceOnUse" />
    <linearGradient
       inkscape:collect="always"
       xlink:href="#linearGradient6689"
       id="linearGradient6703"
       gradientUnits="userSpaceOnUse"
       x1="-0.0027778889"
       y1="88.576546"
       x2="177.16077"
       y2="88.576546"
       gradientTransform="matrix(0,1,-1,0,177.1555,-2.447048e-3)" />
    <linearGradient
       inkscape:collect="always"
       xlink:href="#linearGradient7582"
       id="linearGradient6707"
       gradientUnits="userSpaceOnUse"
       gradientTransform="matrix(-1,0,0,-1,177.158,177.1531)"
       x1="-0.0027778889"
       y1="88.576546"
       x2="177.16077"
       y2="88.576546" />
    <linearGradient
       inkscape:collect="always"
       xlink:href="#linearGradient7582"
       id="linearGradient7590"
       gradientUnits="userSpaceOnUse"
       gradientTransform="matrix(0,-1,1,0,2.429418e-3,177.1555)"
       x1="-0.0027778889"
       y1="88.576546"
       x2="177.16077"
       y2="88.576546" />
    <linearGradient
       inkscape:collect="always"
       xlink:href="#linearGradient8465"
       id="linearGradient8471"
       x1="17.969959"
       y1="18.086069"
       x2="159.65485"
       y2="158.83362"
       gradientUnits="userSpaceOnUse"
       gradientTransform="translate(2.781875e-3,3.383789e-3)" />
    <linearGradient
       inkscape:collect="always"
       xlink:href="#linearGradient11242"
       id="linearGradient10353"
       gradientUnits="userSpaceOnUse"
       gradientTransform="translate(177.1681,177.1688)"
       x1="17.969959"
       y1="18.086069"
       x2="159.65485"
       y2="158.83362" />
    <linearGradient
       inkscape:collect="always"
       xlink:href="#linearGradient11248"
       id="linearGradient10357"
       gradientUnits="userSpaceOnUse"
       gradientTransform="translate(2.747292e-3,177.1688)"
       x1="17.969959"
       y1="18.086069"
       x2="159.65485"
       y2="158.83362" />
    <linearGradient
       inkscape:collect="always"
       xlink:href="#linearGradient11236"
       id="linearGradient10361"
       gradientUnits="userSpaceOnUse"
       gradientTransform="translate(177.1681,8.914661e-3)"
       x1="17.969959"
       y1="18.086069"
       x2="159.65485"
       y2="158.83362" />
    <radialGradient
       inkscape:collect="always"
       xlink:href="#linearGradient19076"
       id="radialGradient1373"
       gradientUnits="userSpaceOnUse"
       gradientTransform="matrix(2.7304e-7,-0.999997,2.000055,5.42668e-7,-177.2386,354.2676)"
       cx="177.16534"
       cy="177.16582"
       fx="177.16534"
       fy="177.16582"
       r="88.377121" />
    <radialGradient
       inkscape:collect="always"
       xlink:href="#linearGradient17316"
       id="radialGradient1376"
       gradientUnits="userSpaceOnUse"
       gradientTransform="matrix(1.065198e-14,0.999995,-2,2.172646e-14,-6.334211e-2,-6.2511e-2)"
       cx="1.0694882e-10"
       cy="-0.00042105324"
       fx="1.0694882e-10"
       fy="-0.00042105324"
       r="88.377121" />
    <linearGradient
       inkscape:collect="always"
       xlink:href="#linearGradient8465"
       id="linearGradient1566"
       gradientUnits="userSpaceOnUse"
       gradientTransform="translate(2.781875e-3,354.3341)"
       x1="17.969959"
       y1="18.086069"
       x2="159.65485"
       y2="158.83362" />
    <radialGradient
       inkscape:collect="always"
       xlink:href="#linearGradient17316"
       id="radialGradient1568"
       gradientUnits="userSpaceOnUse"
       gradientTransform="matrix(1.065198e-14,0.999995,-2,2.172646e-14,-6.334211e-2,354.2682)"
       cx="1.0694882e-10"
       cy="-0.00042105324"
       fx="1.0694882e-10"
       fy="-0.00042105324"
       r="88.377121" />
    <radialGradient
       inkscape:collect="always"
       xlink:href="#linearGradient19076"
       id="radialGradient1570"
       gradientUnits="userSpaceOnUse"
       gradientTransform="matrix(2.7304e-7,-0.999997,2.000055,5.42668e-7,-177.2386,708.5983)"
       cx="177.16534"
       cy="177.16582"
       fx="177.16534"
       fy="177.16582"
       r="88.377121" />
    <linearGradient
       inkscape:collect="always"
       xlink:href="#linearGradient11236"
       id="linearGradient1572"
       gradientUnits="userSpaceOnUse"
       gradientTransform="translate(177.1681,354.3396)"
       x1="17.969959"
       y1="18.086069"
       x2="159.65485"
       y2="158.83362" />
    <radialGradient
       inkscape:collect="always"
       xlink:href="#linearGradient17316"
       id="radialGradient1574"
       gradientUnits="userSpaceOnUse"
       gradientTransform="matrix(1.065198e-14,0.999995,-2,2.172646e-14,177.1021,354.2682)"
       cx="1.0694882e-10"
       cy="-0.00042105324"
       fx="1.0694882e-10"
       fy="-0.00042105324"
       r="88.377121" />
    <radialGradient
       inkscape:collect="always"
       xlink:href="#linearGradient19076"
       id="radialGradient1576"
       gradientUnits="userSpaceOnUse"
       gradientTransform="matrix(2.7304e-7,-0.999997,2.000055,5.42668e-7,-7.32e-2,708.5983)"
       cx="177.16534"
       cy="177.16582"
       fx="177.16534"
       fy="177.16582"
       r="88.377121" />
    <linearGradient
       inkscape:collect="always"
       xlink:href="#linearGradient11242"
       id="linearGradient1578"
       gradientUnits="userSpaceOnUse"
       gradientTransform="translate(177.1681,531.4995)"
       x1="17.969959"
       y1="18.086069"
       x2="159.65485"
       y2="158.83362" />
    <radialGradient
       inkscape:collect="always"
       xlink:href="#linearGradient17316"
       id="radialGradient1580"
       gradientUnits="userSpaceOnUse"
       gradientTransform="matrix(1.065198e-14,0.999995,-2,2.172646e-14,177.1021,531.4336)"
       cx="1.0694882e-10"
       cy="-0.00042105324"
       fx="1.0694882e-10"
       fy="-0.00042105324"
       r="88.377121" />
    <radialGradient
       inkscape:collect="always"
       xlink:href="#linearGradient19076"
       id="radialGradient1582"
       gradientUnits="userSpaceOnUse"
       gradientTransform="matrix(2.7304e-7,-0.999997,2.000055,5.42668e-7,-7.32e-2,885.7637)"
       cx="177.16534"
       cy="177.16582"
       fx="177.16534"
       fy="177.16582"
       r="88.377121" />
    <linearGradient
       inkscape:collect="always"
       xlink:href="#linearGradient11248"
       id="linearGradient1584"
       gradientUnits="userSpaceOnUse"
       gradientTransform="translate(2.747292e-3,531.4995)"
       x1="17.969959"
       y1="18.086069"
       x2="159.65485"
       y2="158.83362" />
    <radialGradient
       inkscape:collect="always"
       xlink:href="#linearGradient17316"
       id="radialGradient1586"
       gradientUnits="userSpaceOnUse"
       gradientTransform="matrix(1.065198e-14,0.999995,-2,2.172646e-14,-6.334211e-2,531.4336)"
       cx="1.0694882e-10"
       cy="-0.00042105324"
       fx="1.0694882e-10"
       fy="-0.00042105324"
       r="88.377121" />
    <radialGradient
       inkscape:collect="always"
       xlink:href="#linearGradient19076"
       id="radialGradient1588"
       gradientUnits="userSpaceOnUse"
       gradientTransform="matrix(2.7304e-7,-0.999997,2.000055,5.42668e-7,-177.2386,885.7637)"
       cx="177.16534"
       cy="177.16582"
       fx="177.16534"
       fy="177.16582"
       r="88.377121" />
  </defs>
  <sodipodi:namedview
     id="base"
     pagecolor="#ffffff"
     bordercolor="#666666"
     borderopacity="1.0"
     inkscape:pageopacity="0.0"
     inkscape:pageshadow="2"
     inkscape:zoom="1.0710332"
     inkscape:cx="177.16444"
     inkscape:cy="242.28937"
     inkscape:document-units="px"
     inkscape:current-layer="layer1"
     inkscape:showpageshadow="false"
     showguides="true"
     inkscape:guide-bbox="true"
     showgrid="true"
     gridtolerance="2mm"
     gridspacingy="0.1mm"
     gridspacingx="0.1mm"
     gridoriginy="0mm"
     gridoriginx="0mm"
     inkscape:window-width="1280"
     inkscape:window-height="940"
     inkscape:window-x="0"
     inkscape:window-y="31">
    <sodipodi:guide
       orientation="vertical"
       position="0"
       id="guide4009" />
    <sodipodi:guide
       orientation="vertical"
       position="17.716535"
       id="guide4011" />
    <sodipodi:guide
       orientation="horizontal"
       position="177.16535"
       id="guide4013" />
    <sodipodi:guide
       orientation="horizontal"
       position="159.44882"
       id="guide4015" />
    <sodipodi:guide
       orientation="vertical"
       position="159.44882"
       id="guide4937" />
    <sodipodi:guide
       orientation="horizontal"
       position="17.716535"
       id="guide4939" />
    <sodipodi:guide
       orientation="vertical"
       position="88.582677"
       id="guide8479" />
  </sodipodi:namedview>
  <metadata
     id="metadata4006">
    <rdf:RDF>
      <cc:Work
         rdf:about="">
        <dc:format>image/svg+xml</dc:format>
        <dc:type
           rdf:resource="http://purl.org/dc/dcmitype/StillImage" />
      </cc:Work>
    </rdf:RDF>
  </metadata>
  <g
     inkscape:label="Layer 1"
     inkscape:groupmode="layer"
     id="layer1">
    <path
       style="opacity:1;fill:url(#linearGradient8471);fill-opacity:1;fill-rule:evenodd;stroke:#000000;stroke-width:0.1;stroke-miterlimit:4;stroke-dasharray:none;stroke-opacity:1"
       d="M 8.409028,0.065883789 C 3.765534,0.30153999 0.065277975,4.144922 0.065277975,8.8471338 C 0.065277975,8.8660938 0.065157975,8.8907018 0.065277975,8.9096338 C 0.066117975,9.0421608 0.058626975,9.1848038 0.065277975,9.3158838 L 0.065277975,167.84713 C 0.059576975,167.95948 0.066715975,168.07746 0.065277975,168.19088 L 0.065277975,168.25338 C 0.065157975,168.27231 0.065277975,168.29692 0.065277975,168.31588 C 0.065277975,173.16978 3.99314,177.09713 8.846528,177.09713 C 8.884445,177.09713 8.933724,177.09761 8.9715279,177.09713 L 168.25278,177.09713 C 168.27171,177.09725 168.29632,177.09713 168.31528,177.09713 C 173.16867,177.09713 177.09653,173.16977 177.09653,168.31588 C 177.09653,168.29692 177.09665,168.27231 177.09653,168.25338 C 177.09545,168.08299 177.10719,167.92135 177.09653,167.75338 L 177.09653,9.4408838 L 177.09653,8.9096338 C 177.09658,8.8970058 177.09653,8.8910238 177.09653,8.8783838 C 177.09653,4.0244882 173.16867,0.065883789 168.31528,0.065883789 C 168.29632,0.065883789 168.27171,0.065763689 168.25278,0.065883789 L 8.9715279,0.065883789 C 8.933724,0.065404289 8.884445,0.065883789 8.846528,0.065883789 C 8.69486,0.065883789 8.558818,0.058281889 8.409028,0.065883789 z "
       id="path4017" />
    <path
       id="path10351"
       d="M 185.57438,177.23125 C 180.93089,177.46691 177.23063,181.31029 177.23063,186.0125 C 177.23063,186.03146 177.23051,186.05607 177.23063,186.075 C 177.23147,186.20753 177.22398,186.35017 177.23063,186.48125 L 177.23063,345.0125 C 177.22493,345.12485 177.23207,345.24283 177.23063,345.35625 L 177.23063,345.41875 C 177.23051,345.43768 177.23063,345.46229 177.23063,345.48125 C 177.23063,350.33515 181.15849,354.2625 186.01188,354.2625 C 186.0498,354.2625 186.09908,354.26298 186.13688,354.2625 L 345.41813,354.2625 C 345.43706,354.26262 345.46167,354.2625 345.48063,354.2625 C 350.33402,354.2625 354.26188,350.33514 354.26188,345.48125 C 354.26188,345.46229 354.262,345.43768 354.26188,345.41875 C 354.2608,345.24836 354.27254,345.08672 354.26188,344.91875 L 354.26188,186.60625 L 354.26188,186.075 C 354.26193,186.06238 354.26188,186.05639 354.26188,186.04375 C 354.26188,181.18986 350.33402,177.23125 345.48063,177.23125 C 345.46167,177.23125 345.43706,177.23113 345.41813,177.23125 L 186.13688,177.23125 C 186.09908,177.23077 186.0498,177.23125 186.01188,177.23125 C 185.86021,177.23125 185.72417,177.22365 185.57438,177.23125 z "
       style="opacity:1;fill:url(#linearGradient10353);fill-opacity:1;fill-rule:evenodd;stroke:#000000;stroke-width:0.1;stroke-miterlimit:4;stroke-dasharray:none;stroke-opacity:1" />
    <path
       style="opacity:1;fill:url(#linearGradient10357);fill-opacity:1;fill-rule:evenodd;stroke:#000000;stroke-width:0.1;stroke-miterlimit:4;stroke-dasharray:none;stroke-opacity:1"
       d="M 8.4090275,177.23125 C 3.7655375,177.46691 0.065277532,181.31029 0.065277532,186.0125 C 0.065277532,186.03146 0.065157532,186.05607 0.065277532,186.075 C 0.066117532,186.20753 0.058627532,186.35017 0.065277532,186.48125 L 0.065277532,345.0125 C 0.059577532,345.12485 0.066717532,345.24283 0.065277532,345.35625 L 0.065277532,345.41875 C 0.065157532,345.43768 0.065277532,345.46229 0.065277532,345.48125 C 0.065277532,350.33515 3.9931375,354.2625 8.8465275,354.2625 C 8.8844475,354.2625 8.9337275,354.26298 8.9715275,354.2625 L 168.25278,354.2625 C 168.27171,354.26262 168.29632,354.2625 168.31528,354.2625 C 173.16867,354.2625 177.09653,350.33514 177.09653,345.48125 C 177.09653,345.46229 177.09665,345.43768 177.09653,345.41875 C 177.09545,345.24836 177.10719,345.08672 177.09653,344.91875 L 177.09653,186.60625 L 177.09653,186.075 C 177.09658,186.06238 177.09653,186.05639 177.09653,186.04375 C 177.09653,181.18986 173.16867,177.23125 168.31528,177.23125 C 168.29632,177.23125 168.27171,177.23113 168.25278,177.23125 L 8.9715275,177.23125 C 8.9337275,177.23077 8.8844475,177.23125 8.8465275,177.23125 C 8.6948575,177.23125 8.5588175,177.22365 8.4090275,177.23125 z "
       id="path10355" />
    <path
       id="path10359"
       d="M 185.57438,0.071414361 C 180.93089,0.30707056 177.23063,4.1504526 177.23063,8.8526647 C 177.23063,8.8716247 177.23051,8.8962327 177.23063,8.9151647 C 177.23147,9.0476917 177.22398,9.1903347 177.23063,9.3214147 L 177.23063,167.85266 C 177.22493,167.96501 177.23207,168.08299 177.23063,168.19641 L 177.23063,168.25891 C 177.23051,168.27784 177.23063,168.30245 177.23063,168.32141 C 177.23063,173.17531 181.15849,177.10266 186.01188,177.10266 C 186.0498,177.10266 186.09908,177.10314 186.13688,177.10266 L 345.41813,177.10266 C 345.43706,177.10278 345.46167,177.10266 345.48063,177.10266 C 350.33402,177.10266 354.26188,173.1753 354.26188,168.32141 C 354.26188,168.30245 354.262,168.27784 354.26188,168.25891 C 354.2608,168.08852 354.27254,167.92688 354.26188,167.75891 L 354.26188,9.4464147 L 354.26188,8.9151647 C 354.26193,8.9025367 354.26188,8.8965547 354.26188,8.8839147 C 354.26188,4.0300188 350.33402,0.071414361 345.48063,0.071414361 C 345.46167,0.071414361 345.43706,0.071294261 345.41813,0.071414361 L 186.13688,0.071414361 C 186.09908,0.070934861 186.0498,0.071414361 186.01188,0.071414361 C 185.86021,0.071414361 185.72417,0.063812461 185.57438,0.071414361 z "
       style="opacity:1;fill:url(#linearGradient10361);fill-opacity:1;fill-rule:evenodd;stroke:#000000;stroke-width:0.1;stroke-miterlimit:4;stroke-dasharray:none;stroke-opacity:1" />
    <path
       style="fill:url(#radialGradient1376);fill-opacity:1;fill-rule:evenodd;stroke:none;stroke-width:0.1;stroke-miterlimit:4;stroke-dasharray:none;stroke-opacity:1"
       d="M 8.12778,0.003368331 C 3.5865196,0.34565833 0.002779552,4.1558783 0.002779552,8.7846183 C 0.002769552,8.8035753 0.002659552,8.8281863 0.002779552,8.8471183 C 0.003609552,8.9796423 -0.003870448,9.1222883 0.002779552,9.2533683 L 0.002779552,167.78462 C -0.002930448,167.89696 0.004219552,168.01495 0.002779552,168.12837 L 0.002779552,168.19087 C 0.002649552,168.20979 0.002779552,168.23441 0.002779552,168.25337 C 0.002769552,172.20854 2.5986696,175.52713 6.1902796,176.62837 C 98.800606,173.39809 173.37393,98.857728 176.62778,6.2533683 C 176.62284,6.2371133 176.63281,6.2070833 176.62778,6.1908683 C 175.51677,2.6073633 172.19616,0.003368331 168.25278,0.003368331 C 168.23381,0.003365331 168.20921,0.003248331 168.19028,0.003368331 L 8.90903,0.003368331 C 8.87122,0.002885331 8.82195,0.003368331 8.78403,0.003368331 C 8.63235,0.003365331 8.49632,-0.004233669 8.34653,0.003368331 C 8.27398,0.007050331 8.19986,-0.002064669 8.12778,0.003368331 z "
       id="path15548" />
    <path
       style="fill:url(#radialGradient1373);fill-opacity:1;fill-rule:evenodd;stroke:none;stroke-width:0.1;stroke-miterlimit:4;stroke-dasharray:none;stroke-opacity:1"
       d="M 168.91257,177.03696 C 173.45383,176.69467 177.03757,172.88445 177.03757,168.25571 C 177.03758,168.23676 177.03769,168.21214 177.03757,168.19321 C 177.03674,168.06069 177.04422,167.91804 177.03757,167.78696 L 177.03757,9.2557085 C 177.04328,9.1433685 177.03613,9.0253785 177.03757,8.9119585 L 177.03757,8.8494585 C 177.0377,8.8305385 177.03757,8.8059185 177.03757,8.7869585 C 177.03758,4.8317885 174.44168,1.5131985 170.85007,0.4119585 C 78.239746,3.6422385 3.666426,78.182598 0.41257598,170.78696 C 0.41751598,170.80322 0.40754598,170.83325 0.41257598,170.84946 C 1.523586,174.43297 4.844196,177.03696 8.787576,177.03696 C 8.806546,177.03697 8.831146,177.03708 8.850076,177.03696 L 168.13132,177.03696 C 168.16913,177.03745 168.2184,177.03696 168.25632,177.03696 C 168.408,177.03697 168.54403,177.04456 168.69382,177.03696 C 168.76637,177.03328 168.84049,177.0424 168.91257,177.03696 z "
       id="path19960" />
    <g
       transform="translate(177.1029,-6.25205e-2)"
       id="g23487">
      <path
         style="opacity:1;fill:url(#radialGradient23493);fill-opacity:1;fill-rule:evenodd;stroke:none;stroke-width:0.1;stroke-miterlimit:4;stroke-dasharray:none;stroke-opacity:1"
         d="M 8.19028,0.065888831 C 3.6490196,0.40817883 0.065279552,4.2183988 0.065279552,8.8471388 C 0.065269552,8.8660958 0.065159552,8.8907068 0.065279552,8.9096388 C 0.066109552,9.0421628 0.058629552,9.1848088 0.065279552,9.3158888 L 0.065279552,167.84714 C 0.059569552,167.95948 0.066719552,168.07747 0.065279552,168.19089 L 0.065279552,168.25339 C 0.065149552,168.27231 0.065279552,168.29693 0.065279552,168.31589 C 0.065269552,172.27106 2.6611696,175.58965 6.2527796,176.69089 C 98.863106,173.46061 173.43643,98.920249 176.69028,6.3158888 C 176.68534,6.2996338 176.69531,6.2696038 176.69028,6.2533888 C 175.57927,2.6698838 172.25866,0.065888831 168.31528,0.065888831 C 168.29631,0.065885831 168.27171,0.065768831 168.25278,0.065888831 L 8.97153,0.065888831 C 8.93372,0.065405831 8.88445,0.065888831 8.84653,0.065888831 C 8.69485,0.065885831 8.55882,0.058286831 8.40903,0.065888831 C 8.33648,0.069570831 8.26236,0.060455831 8.19028,0.065888831 z "
         id="path23489" />
      <path
         id="path23491"
         d="M 168.97507,177.09948 C 173.51633,176.75719 177.10007,172.94697 177.10007,168.31823 C 177.10008,168.29928 177.10019,168.27466 177.10007,168.25573 C 177.09924,168.12321 177.10672,167.98056 177.10007,167.84948 L 177.10007,9.318229 C 177.10578,9.205889 177.09863,9.087899 177.10007,8.974479 L 177.10007,8.911979 C 177.1002,8.893059 177.10007,8.868439 177.10007,8.849479 C 177.10008,4.894309 174.50418,1.575719 170.91257,0.474479 C 78.302246,3.704759 3.728926,78.245119 0.47507598,170.84948 C 0.48001598,170.86574 0.47004598,170.89577 0.47507598,170.91198 C 1.586086,174.49549 4.906696,177.09948 8.850076,177.09948 C 8.869046,177.09949 8.893646,177.0996 8.912576,177.09948 L 168.19382,177.09948 C 168.23163,177.09997 168.2809,177.09948 168.31882,177.09948 C 168.4705,177.09949 168.60653,177.10708 168.75632,177.09948 C 168.82887,177.0958 168.90299,177.10492 168.97507,177.09948 z "
         style="opacity:1;fill:url(#radialGradient23495);fill-opacity:1;fill-rule:evenodd;stroke:none;stroke-width:0.1;stroke-miterlimit:4;stroke-dasharray:none;stroke-opacity:1" />
    </g>
    <g
       transform="translate(-6.25e-2,177.1029)"
       id="g23497">
      <path
         style="opacity:1;fill:url(#radialGradient23509);fill-opacity:1;fill-rule:evenodd;stroke:none;stroke-width:0.1;stroke-miterlimit:4;stroke-dasharray:none;stroke-opacity:1"
         d="M 8.19028,0.065888831 C 3.6490196,0.40817883 0.065279552,4.2183988 0.065279552,8.8471388 C 0.065269552,8.8660958 0.065159552,8.8907068 0.065279552,8.9096388 C 0.066109552,9.0421628 0.058629552,9.1848088 0.065279552,9.3158888 L 0.065279552,167.84714 C 0.059569552,167.95948 0.066719552,168.07747 0.065279552,168.19089 L 0.065279552,168.25339 C 0.065149552,168.27231 0.065279552,168.29693 0.065279552,168.31589 C 0.065269552,172.27106 2.6611696,175.58965 6.2527796,176.69089 C 98.863106,173.46061 173.43643,98.920249 176.69028,6.3158888 C 176.68534,6.2996338 176.69531,6.2696038 176.69028,6.2533888 C 175.57927,2.6698838 172.25866,0.065888831 168.31528,0.065888831 C 168.29631,0.065885831 168.27171,0.065768831 168.25278,0.065888831 L 8.97153,0.065888831 C 8.93372,0.065405831 8.88445,0.065888831 8.84653,0.065888831 C 8.69485,0.065885831 8.55882,0.058286831 8.40903,0.065888831 C 8.33648,0.069570831 8.26236,0.060455831 8.19028,0.065888831 z "
         id="path23499" />
      <path
         id="path23501"
         d="M 168.97507,177.09948 C 173.51633,176.75719 177.10007,172.94697 177.10007,168.31823 C 177.10008,168.29928 177.10019,168.27466 177.10007,168.25573 C 177.09924,168.12321 177.10672,167.98056 177.10007,167.84948 L 177.10007,9.318229 C 177.10578,9.205889 177.09863,9.087899 177.10007,8.974479 L 177.10007,8.911979 C 177.1002,8.893059 177.10007,8.868439 177.10007,8.849479 C 177.10008,4.894309 174.50418,1.575719 170.91257,0.474479 C 78.302246,3.704759 3.728926,78.245119 0.47507598,170.84948 C 0.48001598,170.86574 0.47004598,170.89577 0.47507598,170.91198 C 1.586086,174.49549 4.906696,177.09948 8.850076,177.09948 C 8.869046,177.09949 8.893646,177.0996 8.912576,177.09948 L 168.19382,177.09948 C 168.23163,177.09997 168.2809,177.09948 168.31882,177.09948 C 168.4705,177.09949 168.60653,177.10708 168.75632,177.09948 C 168.82887,177.0958 168.90299,177.10492 168.97507,177.09948 z "
         style="opacity:1;fill:url(#radialGradient23511);fill-opacity:1;fill-rule:evenodd;stroke:none;stroke-width:0.1;stroke-miterlimit:4;stroke-dasharray:none;stroke-opacity:1" />
    </g>
    <g
       id="g23503"
       transform="translate(177.1029,177.1029)">
      <path
         id="path23505"
         d="M 8.19028,0.065888831 C 3.6490196,0.40817883 0.065279552,4.2183988 0.065279552,8.8471388 C 0.065269552,8.8660958 0.065159552,8.8907068 0.065279552,8.9096388 C 0.066109552,9.0421628 0.058629552,9.1848088 0.065279552,9.3158888 L 0.065279552,167.84714 C 0.059569552,167.95948 0.066719552,168.07747 0.065279552,168.19089 L 0.065279552,168.25339 C 0.065149552,168.27231 0.065279552,168.29693 0.065279552,168.31589 C 0.065269552,172.27106 2.6611696,175.58965 6.2527796,176.69089 C 98.863106,173.46061 173.43643,98.920249 176.69028,6.3158888 C 176.68534,6.2996338 176.69531,6.2696038 176.69028,6.2533888 C 175.57927,2.6698838 172.25866,0.065888831 168.31528,0.065888831 C 168.29631,0.065885831 168.27171,0.065768831 168.25278,0.065888831 L 8.97153,0.065888831 C 8.93372,0.065405831 8.88445,0.065888831 8.84653,0.065888831 C 8.69485,0.065885831 8.55882,0.058286831 8.40903,0.065888831 C 8.33648,0.069570831 8.26236,0.060455831 8.19028,0.065888831 z "
         style="opacity:1;fill:url(#radialGradient23513);fill-opacity:1;fill-rule:evenodd;stroke:none;stroke-width:0.1;stroke-miterlimit:4;stroke-dasharray:none;stroke-opacity:1" />
      <path
         style="opacity:1;fill:url(#radialGradient23515);fill-opacity:1;fill-rule:evenodd;stroke:none;stroke-width:0.1;stroke-miterlimit:4;stroke-dasharray:none;stroke-opacity:1"
         d="M 168.97507,177.09948 C 173.51633,176.75719 177.10007,172.94697 177.10007,168.31823 C 177.10008,168.29928 177.10019,168.27466 177.10007,168.25573 C 177.09924,168.12321 177.10672,167.98056 177.10007,167.84948 L 177.10007,9.318229 C 177.10578,9.205889 177.09863,9.087899 177.10007,8.974479 L 177.10007,8.911979 C 177.1002,8.893059 177.10007,8.868439 177.10007,8.849479 C 177.10008,4.894309 174.50418,1.575719 170.91257,0.474479 C 78.302246,3.704759 3.728926,78.245119 0.47507598,170.84948 C 0.48001598,170.86574 0.47004598,170.89577 0.47507598,170.91198 C 1.586086,174.49549 4.906696,177.09948 8.850076,177.09948 C 8.869046,177.09949 8.893646,177.0996 8.912576,177.09948 L 168.19382,177.09948 C 168.23163,177.09997 168.2809,177.09948 168.31882,177.09948 C 168.4705,177.09949 168.60653,177.10708 168.75632,177.09948 C 168.82887,177.0958 168.90299,177.10492 168.97507,177.09948 z "
         id="path23507" />
    </g>
    <g
       id="g1534"
       transform="matrix(1,0,0,0.75,0,132.8733)">
      <path
         style="fill:url(#linearGradient1566);fill-opacity:1;fill-rule:evenodd;stroke:#000000;stroke-width:0.1;stroke-miterlimit:4;stroke-dasharray:none;stroke-opacity:1"
         d="M 8.409028,354.39662 C 3.765534,354.63228 0.065277975,358.47566 0.065277975,363.17787 C 0.065277975,363.19683 0.065157975,363.22144 0.065277975,363.24037 C 0.066117975,363.3729 0.058626975,363.51554 0.065277975,363.64662 L 0.065277975,522.17787 C 0.059576975,522.29022 0.066715975,522.4082 0.065277975,522.52162 L 0.065277975,522.58412 C 0.065157975,522.60305 0.065277975,522.62766 0.065277975,522.64662 C 0.065277975,527.50052 3.99314,531.42787 8.846528,531.42787 C 8.884445,531.42787 8.933724,531.42835 8.9715279,531.42787 L 168.25278,531.42787 C 168.27171,531.42799 168.29632,531.42787 168.31528,531.42787 C 173.16867,531.42787 177.09653,527.50051 177.09653,522.64662 C 177.09653,522.62766 177.09665,522.60305 177.09653,522.58412 C 177.09545,522.41373 177.10719,522.25209 177.09653,522.08412 L 177.09653,363.77162 L 177.09653,363.24037 C 177.09658,363.22775 177.09653,363.22176 177.09653,363.20912 C 177.09653,358.35523 173.16867,354.39662 168.31528,354.39662 C 168.29632,354.39662 168.27171,354.3965 168.25278,354.39662 L 8.9715279,354.39662 C 8.933724,354.39614 8.884445,354.39662 8.846528,354.39662 C 8.69486,354.39662 8.558818,354.38902 8.409028,354.39662 z "
         id="path1382" />
      <path
         style="fill:url(#radialGradient1568);fill-opacity:1;fill-rule:evenodd;stroke:none;stroke-width:0.1;stroke-miterlimit:4;stroke-dasharray:none;stroke-opacity:1"
         d="M 8.12778,354.33411 C 3.5865196,354.6764 0.002779552,358.48662 0.002779552,363.11536 C 0.002769552,363.13431 0.002659552,363.15893 0.002779552,363.17786 C 0.003609552,363.31038 -0.003870448,363.45303 0.002779552,363.58411 L 0.002779552,522.11536 C -0.002930448,522.2277 0.004219552,522.34569 0.002779552,522.45911 L 0.002779552,522.52161 C 0.002649552,522.54053 0.002779552,522.56515 0.002779552,522.58411 C 0.002769552,526.53928 2.5986696,529.85787 6.1902796,530.95911 C 98.800606,527.72883 173.37393,453.18847 176.62778,360.58411 C 176.62284,360.56785 176.63281,360.53782 176.62778,360.52161 C 175.51677,356.9381 172.19616,354.33411 168.25278,354.33411 C 168.23381,354.3341 168.20921,354.33399 168.19028,354.33411 L 8.90903,354.33411 C 8.87122,354.33362 8.82195,354.33411 8.78403,354.33411 C 8.63235,354.3341 8.49632,354.32651 8.34653,354.33411 C 8.27398,354.33779 8.19986,354.32867 8.12778,354.33411 z "
         id="path1390" />
      <path
         style="fill:url(#radialGradient1570);fill-opacity:1;fill-rule:evenodd;stroke:none;stroke-width:0.1;stroke-miterlimit:4;stroke-dasharray:none;stroke-opacity:1"
         d="M 168.91257,531.3677 C 173.45383,531.02541 177.03757,527.21519 177.03757,522.58645 C 177.03758,522.5675 177.03769,522.54288 177.03757,522.52395 C 177.03674,522.39143 177.04422,522.24878 177.03757,522.1177 L 177.03757,363.58645 C 177.04328,363.47411 177.03613,363.35612 177.03757,363.2427 L 177.03757,363.1802 C 177.0377,363.16128 177.03757,363.13666 177.03757,363.1177 C 177.03758,359.16253 174.44168,355.84394 170.85007,354.7427 C 78.239746,357.97298 3.666426,432.51334 0.41257598,525.1177 C 0.41751598,525.13396 0.40754598,525.16399 0.41257598,525.1802 C 1.523586,528.76371 4.844196,531.3677 8.787576,531.3677 C 8.806546,531.36771 8.831146,531.36782 8.850076,531.3677 L 168.13132,531.3677 C 168.16913,531.36819 168.2184,531.3677 168.25632,531.3677 C 168.408,531.36771 168.54403,531.3753 168.69382,531.3677 C 168.76637,531.36402 168.84049,531.37314 168.91257,531.3677 z "
         id="path1392" />
    </g>
    <g
       id="g1551"
       transform="matrix(1,0,0,0.5625,0,232.5288)">
      <path
         id="path1388"
         d="M 185.57438,354.40215 C 180.93089,354.63781 177.23063,358.48119 177.23063,363.1834 C 177.23063,363.20236 177.23051,363.22697 177.23063,363.2459 C 177.23147,363.37843 177.22398,363.52107 177.23063,363.65215 L 177.23063,522.1834 C 177.22493,522.29575 177.23207,522.41373 177.23063,522.52715 L 177.23063,522.58965 C 177.23051,522.60858 177.23063,522.63319 177.23063,522.65215 C 177.23063,527.50605 181.15849,531.4334 186.01188,531.4334 C 186.0498,531.4334 186.09908,531.43388 186.13688,531.4334 L 345.41813,531.4334 C 345.43706,531.43352 345.46167,531.4334 345.48063,531.4334 C 350.33402,531.4334 354.26188,527.50604 354.26188,522.65215 C 354.26188,522.63319 354.262,522.60858 354.26188,522.58965 C 354.2608,522.41926 354.27254,522.25762 354.26188,522.08965 L 354.26188,363.77715 L 354.26188,363.2459 C 354.26193,363.23328 354.26188,363.22729 354.26188,363.21465 C 354.26188,358.36076 350.33402,354.40215 345.48063,354.40215 C 345.46167,354.40215 345.43706,354.40203 345.41813,354.40215 L 186.13688,354.40215 C 186.09908,354.40167 186.0498,354.40215 186.01188,354.40215 C 185.86021,354.40215 185.72417,354.39455 185.57438,354.40215 z "
         style="fill:url(#linearGradient1572);fill-opacity:1;fill-rule:evenodd;stroke:#000000;stroke-width:0.1;stroke-miterlimit:4;stroke-dasharray:none;stroke-opacity:1" />
      <path
         id="path1396"
         d="M 185.29318,354.33409 C 180.75192,354.67638 177.16818,358.4866 177.16818,363.11534 C 177.16817,363.1343 177.16806,363.15891 177.16818,363.17784 C 177.16901,363.31036 177.16153,363.45301 177.16818,363.58409 L 177.16818,522.11534 C 177.16247,522.22768 177.16962,522.34567 177.16818,522.45909 L 177.16818,522.52159 C 177.16805,522.54051 177.16818,522.56513 177.16818,522.58409 C 177.16817,526.53926 179.76407,529.85785 183.35568,530.95909 C 275.96601,527.72881 350.53933,453.18845 353.79318,360.58409 C 353.78824,360.56783 353.79821,360.5378 353.79318,360.52159 C 352.68217,356.93808 349.36156,354.33409 345.41818,354.33409 C 345.39921,354.33409 345.37461,354.33397 345.35568,354.33409 L 186.07443,354.33409 C 186.03662,354.33361 185.98735,354.33409 185.94943,354.33409 C 185.79775,354.33409 185.66172,354.32649 185.51193,354.33409 C 185.43938,354.33777 185.36526,354.32866 185.29318,354.33409 z "
         style="fill:url(#radialGradient1574);fill-opacity:1;fill-rule:evenodd;stroke:none;stroke-width:0.1;stroke-miterlimit:4;stroke-dasharray:none;stroke-opacity:1" />
      <path
         style="fill:url(#radialGradient1576);fill-opacity:1;fill-rule:evenodd;stroke:none;stroke-width:0.1;stroke-miterlimit:4;stroke-dasharray:none;stroke-opacity:1"
         d="M 346.07797,531.36768 C 350.61923,531.02539 354.20297,527.21517 354.20297,522.58643 C 354.20298,522.56748 354.20309,522.54286 354.20297,522.52393 C 354.20214,522.39141 354.20962,522.24876 354.20297,522.11768 L 354.20297,363.58643 C 354.20868,363.47409 354.20153,363.3561 354.20297,363.24268 L 354.20297,363.18018 C 354.2031,363.16126 354.20297,363.13664 354.20297,363.11768 C 354.20298,359.16251 351.60708,355.84392 348.01547,354.74268 C 255.40515,357.97296 180.83183,432.51332 177.57798,525.11768 C 177.58292,525.13394 177.57295,525.16397 177.57798,525.18018 C 178.68899,528.76369 182.0096,531.36768 185.95298,531.36768 C 185.97195,531.36769 185.99655,531.3678 186.01548,531.36768 L 345.29672,531.36768 C 345.33453,531.36817 345.3838,531.36768 345.42172,531.36768 C 345.5734,531.36769 345.70943,531.37528 345.85922,531.36768 C 345.93177,531.364 346.00589,531.37312 346.07797,531.36768 z "
         id="path1398" />
    </g>
    <g
       id="g1561"
       transform="matrix(1,0,0,0.316406,-1.06937e-10,484.3957)">
      <path
         style="fill:url(#linearGradient1584);fill-opacity:1;fill-rule:evenodd;stroke:#000000;stroke-width:0.1;stroke-miterlimit:4;stroke-dasharray:none;stroke-opacity:1"
         d="M 8.4090275,531.56199 C 3.7655375,531.79765 0.065277532,535.64103 0.065277532,540.34324 C 0.065277532,540.3622 0.065157532,540.38681 0.065277532,540.40574 C 0.066117532,540.53827 0.058627532,540.68091 0.065277532,540.81199 L 0.065277532,699.34324 C 0.059577532,699.45559 0.066717532,699.57357 0.065277532,699.68699 L 0.065277532,699.74949 C 0.065157532,699.76842 0.065277532,699.79303 0.065277532,699.81199 C 0.065277532,704.66589 3.9931375,708.59324 8.8465275,708.59324 C 8.8844475,708.59324 8.9337275,708.59372 8.9715275,708.59324 L 168.25278,708.59324 C 168.27171,708.59336 168.29632,708.59324 168.31528,708.59324 C 173.16867,708.59324 177.09653,704.66588 177.09653,699.81199 C 177.09653,699.79303 177.09665,699.76842 177.09653,699.74949 C 177.09545,699.5791 177.10719,699.41746 177.09653,699.24949 L 177.09653,540.93699 L 177.09653,540.40574 C 177.09658,540.39312 177.09653,540.38713 177.09653,540.37449 C 177.09653,535.5206 173.16867,531.56199 168.31528,531.56199 C 168.29632,531.56199 168.27171,531.56187 168.25278,531.56199 L 8.9715275,531.56199 C 8.9337275,531.56151 8.8844475,531.56199 8.8465275,531.56199 C 8.6948575,531.56199 8.5588175,531.55439 8.4090275,531.56199 z "
         id="path1386" />
      <path
         id="path1402"
         d="M 8.12778,531.49949 C 3.5865196,531.84178 0.002779552,535.652 0.002779552,540.28074 C 0.002769552,540.2997 0.002659552,540.32431 0.002779552,540.34324 C 0.003609552,540.47576 -0.003870448,540.61841 0.002779552,540.74949 L 0.002779552,699.28074 C -0.002930448,699.39308 0.004219552,699.51107 0.002779552,699.62449 L 0.002779552,699.68699 C 0.002649552,699.70591 0.002779552,699.73053 0.002779552,699.74949 C 0.002769552,703.70466 2.5986696,707.02325 6.1902796,708.12449 C 98.800606,704.89421 173.37393,630.35385 176.62778,537.74949 C 176.62284,537.73323 176.63281,537.7032 176.62778,537.68699 C 175.51677,534.10348 172.19616,531.49949 168.25278,531.49949 C 168.23381,531.49949 168.20921,531.49937 168.19028,531.49949 L 8.90903,531.49949 C 8.87122,531.49901 8.82195,531.49949 8.78403,531.49949 C 8.63235,531.49949 8.49632,531.49189 8.34653,531.49949 C 8.27398,531.50317 8.19986,531.49406 8.12778,531.49949 z "
         style="fill:url(#radialGradient1586);fill-opacity:1;fill-rule:evenodd;stroke:none;stroke-width:0.1;stroke-miterlimit:4;stroke-dasharray:none;stroke-opacity:1" />
      <path
         style="fill:url(#radialGradient1588);fill-opacity:1;fill-rule:evenodd;stroke:none;stroke-width:0.1;stroke-miterlimit:4;stroke-dasharray:none;stroke-opacity:1"
         d="M 168.91257,708.53308 C 173.45383,708.19079 177.03757,704.38057 177.03757,699.75183 C 177.03758,699.73288 177.03769,699.70826 177.03757,699.68933 C 177.03674,699.55681 177.04422,699.41416 177.03757,699.28308 L 177.03757,540.75183 C 177.04328,540.63949 177.03613,540.5215 177.03757,540.40808 L 177.03757,540.34558 C 177.0377,540.32666 177.03757,540.30204 177.03757,540.28308 C 177.03758,536.32791 174.44168,533.00932 170.85007,531.90808 C 78.239746,535.13836 3.666426,609.67872 0.41257598,702.28308 C 0.41751598,702.29934 0.40754598,702.32937 0.41257598,702.34558 C 1.523586,705.92909 4.844196,708.53308 8.787576,708.53308 C 8.806546,708.53309 8.831146,708.5332 8.850076,708.53308 L 168.13132,708.53308 C 168.16913,708.53357 168.2184,708.53308 168.25632,708.53308 C 168.408,708.53309 168.54403,708.54068 168.69382,708.53308 C 168.76637,708.5294 168.84049,708.53852 168.91257,708.53308 z "
         id="path1404" />
    </g>
    <g
       id="g1556"
       transform="matrix(1,0,0,0.237305,1.86249e-6,540.4462)">
      <path
         id="path1384"
         d="M 185.57438,531.56199 C 180.93089,531.79765 177.23063,535.64103 177.23063,540.34324 C 177.23063,540.3622 177.23051,540.38681 177.23063,540.40574 C 177.23147,540.53827 177.22398,540.68091 177.23063,540.81199 L 177.23063,699.34324 C 177.22493,699.45559 177.23207,699.57357 177.23063,699.68699 L 177.23063,699.74949 C 177.23051,699.76842 177.23063,699.79303 177.23063,699.81199 C 177.23063,704.66589 181.15849,708.59324 186.01188,708.59324 C 186.0498,708.59324 186.09908,708.59372 186.13688,708.59324 L 345.41813,708.59324 C 345.43706,708.59336 345.46167,708.59324 345.48063,708.59324 C 350.33402,708.59324 354.26188,704.66588 354.26188,699.81199 C 354.26188,699.79303 354.262,699.76842 354.26188,699.74949 C 354.2608,699.5791 354.27254,699.41746 354.26188,699.24949 L 354.26188,540.93699 L 354.26188,540.40574 C 354.26193,540.39312 354.26188,540.38713 354.26188,540.37449 C 354.26188,535.5206 350.33402,531.56199 345.48063,531.56199 C 345.46167,531.56199 345.43706,531.56187 345.41813,531.56199 L 186.13688,531.56199 C 186.09908,531.56151 186.0498,531.56199 186.01188,531.56199 C 185.86021,531.56199 185.72417,531.55439 185.57438,531.56199 z "
         style="fill:url(#linearGradient1578);fill-opacity:1;fill-rule:evenodd;stroke:#000000;stroke-width:0.1;stroke-miterlimit:4;stroke-dasharray:none;stroke-opacity:1" />
      <path
         style="fill:url(#radialGradient1580);fill-opacity:1;fill-rule:evenodd;stroke:none;stroke-width:0.1;stroke-miterlimit:4;stroke-dasharray:none;stroke-opacity:1"
         d="M 185.29318,531.49949 C 180.75192,531.84178 177.16818,535.652 177.16818,540.28074 C 177.16817,540.2997 177.16806,540.32431 177.16818,540.34324 C 177.16901,540.47576 177.16153,540.61841 177.16818,540.74949 L 177.16818,699.28074 C 177.16247,699.39308 177.16962,699.51107 177.16818,699.62449 L 177.16818,699.68699 C 177.16805,699.70591 177.16818,699.73053 177.16818,699.74949 C 177.16817,703.70466 179.76407,707.02325 183.35568,708.12449 C 275.96601,704.89421 350.53933,630.35385 353.79318,537.74949 C 353.78824,537.73323 353.79821,537.7032 353.79318,537.68699 C 352.68217,534.10348 349.36156,531.49949 345.41818,531.49949 C 345.39921,531.49949 345.37461,531.49937 345.35568,531.49949 L 186.07443,531.49949 C 186.03662,531.49901 185.98735,531.49949 185.94943,531.49949 C 185.79775,531.49949 185.66172,531.49189 185.51193,531.49949 C 185.43938,531.50317 185.36526,531.49406 185.29318,531.49949 z "
         id="path1408" />
      <path
         id="path1410"
         d="M 346.07797,708.53308 C 350.61923,708.19079 354.20297,704.38057 354.20297,699.75183 C 354.20298,699.73288 354.20309,699.70826 354.20297,699.68933 C 354.20214,699.55681 354.20962,699.41416 354.20297,699.28308 L 354.20297,540.75183 C 354.20868,540.63949 354.20153,540.5215 354.20297,540.40808 L 354.20297,540.34558 C 354.2031,540.32666 354.20297,540.30204 354.20297,540.28308 C 354.20298,536.32791 351.60708,533.00932 348.01547,531.90808 C 255.40515,535.13836 180.83183,609.67872 177.57798,702.28308 C 177.58292,702.29934 177.57295,702.32937 177.57798,702.34558 C 178.68899,705.92909 182.0096,708.53308 185.95298,708.53308 C 185.97195,708.53309 185.99655,708.5332 186.01548,708.53308 L 345.29672,708.53308 C 345.33453,708.53357 345.3838,708.53308 345.42172,708.53308 C 345.5734,708.53309 345.70943,708.54068 345.85922,708.53308 C 345.93177,708.5294 346.00589,708.53852 346.07797,708.53308 z "
         style="fill:url(#radialGradient1582);fill-opacity:1;fill-rule:evenodd;stroke:none;stroke-width:0.1;stroke-miterlimit:4;stroke-dasharray:none;stroke-opacity:1" />
    </g>
  </g>
</svg>
