<?xml version="1.0" encoding="UTF-8" standalone="no"?>
<!-- Created with Inkscape (http://www.inkscape.org/) -->
<svg
   xmlns:dc="http://purl.org/dc/elements/1.1/"
   xmlns:cc="http://web.resource.org/cc/"
   xmlns:rdf="http://www.w3.org/1999/02/22-rdf-syntax-ns#"
   xmlns:svg="http://www.w3.org/2000/svg"
   xmlns="http://www.w3.org/2000/svg"
   xmlns:xlink="http://www.w3.org/1999/xlink"
   xmlns:sodipodi="http://inkscape.sourceforge.net/DTD/sodipodi-0.dtd"
   xmlns:inkscape="http://www.inkscape.org/namespaces/inkscape"
   width="5cm"
   height="5cm"
   id="svg4001"
   sodipodi:version="0.32"
   inkscape:version="0.43"
   version="1.0"
   sodipodi:docbase="/home/dylan/src/mfgames/wordplay/src/themes/default"
   sodipodi:docname="contagious.svg">
  <defs
     id="defs4003">
    <linearGradient
       id="linearGradient19076">
      <stop
         style="stop-color:#000000;stop-opacity:1;"
         offset="0"
         id="stop19078" />
      <stop
         style="stop-color:#000000;stop-opacity:0;"
         offset="1"
         id="stop19080" />
    </linearGradient>
    <linearGradient
       id="linearGradient17316">
      <stop
         id="stop17318"
         offset="0"
         style="stop-color:#ffffff;stop-opacity:1;" />
      <stop
         id="stop17320"
         offset="1"
         style="stop-color:#ffffff;stop-opacity:0;" />
    </linearGradient>
    <linearGradient
       id="linearGradient16429">
      <stop
         style="stop-color:#ffffff;stop-opacity:1;"
         offset="0"
         id="stop16431" />
      <stop
         style="stop-color:none"
         offset="1"
         id="stop16433" />
    </linearGradient>
    <linearGradient
       id="linearGradient8465">
      <stop
         style="stop-color:#fff835;stop-opacity:1;"
         offset="0"
         id="stop8467" />
      <stop
         style="stop-color:#e4d011;stop-opacity:1;"
         offset="1"
         id="stop8469" />
    </linearGradient>
    <linearGradient
       id="linearGradient7582">
      <stop
         id="stop7584"
         offset="0"
         style="stop-color:#000000;stop-opacity:1;" />
      <stop
         id="stop7586"
         offset="1"
         style="stop-color:#000000;stop-opacity:0;" />
    </linearGradient>
    <linearGradient
       id="linearGradient6689">
      <stop
         style="stop-color:#ffffff;stop-opacity:1;"
         offset="0"
         id="stop6691" />
      <stop
         style="stop-color:#ffffff;stop-opacity:0;"
         offset="1"
         id="stop6693" />
    </linearGradient>
    <linearGradient
       id="linearGradient4919">
      <stop
         style="stop-color:#f4f3db;stop-opacity:1;"
         offset="0"
         id="stop4921" />
      <stop
         id="stop4931"
         offset="0.30000001"
         style="stop-color:#eae8bb;stop-opacity:1;" />
      <stop
         style="stop-color:#eae8bb;stop-opacity:1;"
         offset="0.69999999"
         id="stop4933" />
      <stop
         id="stop4927"
         offset="1"
         style="stop-color:#c9c34e;stop-opacity:1;" />
    </linearGradient>
    <linearGradient
       inkscape:collect="always"
       xlink:href="#linearGradient6689"
       id="linearGradient6699"
       x1="-0.0027778889"
       y1="88.576546"
       x2="177.16077"
       y2="88.576546"
       gradientUnits="userSpaceOnUse" />
    <linearGradient
       inkscape:collect="always"
       xlink:href="#linearGradient6689"
       id="linearGradient6703"
       gradientUnits="userSpaceOnUse"
       x1="-0.0027778889"
       y1="88.576546"
       x2="177.16077"
       y2="88.576546"
       gradientTransform="matrix(0,1,-1,0,177.1555,-2.447048e-3)" />
    <linearGradient
       inkscape:collect="always"
       xlink:href="#linearGradient7582"
       id="linearGradient6707"
       gradientUnits="userSpaceOnUse"
       gradientTransform="matrix(-1,0,0,-1,177.158,177.1531)"
       x1="-0.0027778889"
       y1="88.576546"
       x2="177.16077"
       y2="88.576546" />
    <linearGradient
       inkscape:collect="always"
       xlink:href="#linearGradient7582"
       id="linearGradient7590"
       gradientUnits="userSpaceOnUse"
       gradientTransform="matrix(0,-1,1,0,2.429418e-3,177.1555)"
       x1="-0.0027778889"
       y1="88.576546"
       x2="177.16077"
       y2="88.576546" />
    <radialGradient
       inkscape:collect="always"
       xlink:href="#linearGradient19076"
       id="radialGradient18201"
       gradientUnits="userSpaceOnUse"
       gradientTransform="matrix(2.682822e-6,-1.994277,2,2.69052e-6,511.0618,1198.658)"
       cx="476.5748"
       cy="71.418839"
       fx="476.5748"
       fy="71.418839"
       r="54.501389" />
    <radialGradient
       inkscape:collect="always"
       xlink:href="#linearGradient19076"
       id="radialGradient20841"
       cx="177.16534"
       cy="177.16582"
       fx="177.16534"
       fy="177.16582"
       r="88.377121"
       gradientTransform="matrix(2.7304e-7,-0.999997,2.000055,5.42668e-7,-177.1761,354.3301)"
       gradientUnits="userSpaceOnUse" />
    <radialGradient
       inkscape:collect="always"
       xlink:href="#linearGradient17316"
       id="radialGradient21724"
       cx="1.0694882e-10"
       cy="-0.00042105324"
       fx="1.0694882e-10"
       fy="-0.00042105324"
       r="88.377121"
       gradientTransform="matrix(1.065198e-14,0.999995,-2,2.172646e-14,-8.421063e-4,9.497463e-6)"
       gradientUnits="userSpaceOnUse" />
  </defs>
  <sodipodi:namedview
     id="base"
     pagecolor="#ffffff"
     bordercolor="#666666"
     borderopacity="1.0"
     inkscape:pageopacity="0.0"
     inkscape:pageshadow="2"
     inkscape:zoom="4.2841332"
     inkscape:cx="88.58268"
     inkscape:cy="88.58268"
     inkscape:document-units="px"
     inkscape:current-layer="layer1"
     inkscape:showpageshadow="false"
     showguides="true"
     inkscape:guide-bbox="true"
     showgrid="true"
     gridtolerance="2mm"
     gridspacingy="0.1mm"
     gridspacingx="0.1mm"
     gridoriginy="0mm"
     gridoriginx="0mm"
     inkscape:window-width="1280"
     inkscape:window-height="940"
     inkscape:window-x="0"
     inkscape:window-y="31">
    <sodipodi:guide
       orientation="vertical"
       position="0"
       id="guide4009" />
    <sodipodi:guide
       orientation="vertical"
       position="17.716535"
       id="guide4011" />
    <sodipodi:guide
       orientation="horizontal"
       position="177.16535"
       id="guide4013" />
    <sodipodi:guide
       orientation="horizontal"
       position="159.44882"
       id="guide4015" />
    <sodipodi:guide
       orientation="vertical"
       position="159.44882"
       id="guide4937" />
    <sodipodi:guide
       orientation="horizontal"
       position="17.716535"
       id="guide4939" />
    <sodipodi:guide
       orientation="vertical"
       position="88.582677"
       id="guide8479" />
    <sodipodi:guide
       orientation="horizontal"
       position="88.582677"
       id="guide20843" />
  </sodipodi:namedview>
  <metadata
     id="metadata4006">
    <rdf:RDF>
      <cc:Work
         rdf:about="">
        <dc:format>image/svg+xml</dc:format>
        <dc:type
           rdf:resource="http://purl.org/dc/dcmitype/StillImage" />
      </cc:Work>
    </rdf:RDF>
  </metadata>
  <g
     inkscape:label="Layer 1"
     inkscape:groupmode="layer"
     id="layer1">
    <path
       style="opacity:1;fill:#fffd0c;fill-opacity:1;fill-rule:evenodd;stroke:#000000;stroke-width:0.1;stroke-miterlimit:4;stroke-dasharray:none;stroke-opacity:1"
       d="M 8.409028,0.065883789 C 3.765534,0.30153999 0.065277975,4.144922 0.065277975,8.8471338 C 0.065277975,8.8660938 0.065157975,8.8907018 0.065277975,8.9096338 C 0.066117975,9.0421608 0.058626975,9.1848038 0.065277975,9.3158838 L 0.065277975,167.84713 C 0.059576975,167.95948 0.066715975,168.07746 0.065277975,168.19088 L 0.065277975,168.25338 C 0.065157975,168.27231 0.065277975,168.29692 0.065277975,168.31588 C 0.065277975,173.16978 3.99314,177.09713 8.846528,177.09713 C 8.884445,177.09713 8.933724,177.09761 8.9715279,177.09713 L 168.25278,177.09713 C 168.27171,177.09725 168.29632,177.09713 168.31528,177.09713 C 173.16867,177.09713 177.09653,173.16977 177.09653,168.31588 C 177.09653,168.29692 177.09665,168.27231 177.09653,168.25338 C 177.09545,168.08299 177.10719,167.92135 177.09653,167.75338 L 177.09653,9.4408838 L 177.09653,8.9096338 C 177.09658,8.8970058 177.09653,8.8910238 177.09653,8.8783838 C 177.09653,4.0244882 173.16867,0.065883789 168.31528,0.065883789 C 168.29632,0.065883789 168.27171,0.065763689 168.25278,0.065883789 L 8.9715279,0.065883789 C 8.933724,0.065404289 8.884445,0.065883789 8.846528,0.065883789 C 8.69486,0.065883789 8.558818,0.058281889 8.409028,0.065883789 z "
       id="path4017" />
    <g
       id="g23472">
      <path
         id="path15548"
         d="M 8.19028,0.065888831 C 3.6490196,0.40817883 0.065279552,4.2183988 0.065279552,8.8471388 C 0.065269552,8.8660958 0.065159552,8.8907068 0.065279552,8.9096388 C 0.066109552,9.0421628 0.058629552,9.1848088 0.065279552,9.3158888 L 0.065279552,167.84714 C 0.059569552,167.95948 0.066719552,168.07747 0.065279552,168.19089 L 0.065279552,168.25339 C 0.065149552,168.27231 0.065279552,168.29693 0.065279552,168.31589 C 0.065269552,172.27106 2.6611696,175.58965 6.2527796,176.69089 C 98.863106,173.46061 173.43643,98.920249 176.69028,6.3158888 C 176.68534,6.2996338 176.69531,6.2696038 176.69028,6.2533888 C 175.57927,2.6698838 172.25866,0.065888831 168.31528,0.065888831 C 168.29631,0.065885831 168.27171,0.065768831 168.25278,0.065888831 L 8.97153,0.065888831 C 8.93372,0.065405831 8.88445,0.065888831 8.84653,0.065888831 C 8.69485,0.065885831 8.55882,0.058286831 8.40903,0.065888831 C 8.33648,0.069570831 8.26236,0.060455831 8.19028,0.065888831 z "
         style="opacity:1;fill:url(#radialGradient21724);fill-opacity:1;fill-rule:evenodd;stroke:none;stroke-width:0.1;stroke-miterlimit:4;stroke-dasharray:none;stroke-opacity:1" />
      <path
         style="opacity:1;fill:url(#radialGradient20841);fill-opacity:1;fill-rule:evenodd;stroke:none;stroke-width:0.1;stroke-miterlimit:4;stroke-dasharray:none;stroke-opacity:1"
         d="M 168.97507,177.09948 C 173.51633,176.75719 177.10007,172.94697 177.10007,168.31823 C 177.10008,168.29928 177.10019,168.27466 177.10007,168.25573 C 177.09924,168.12321 177.10672,167.98056 177.10007,167.84948 L 177.10007,9.318229 C 177.10578,9.205889 177.09863,9.087899 177.10007,8.974479 L 177.10007,8.911979 C 177.1002,8.893059 177.10007,8.868439 177.10007,8.849479 C 177.10008,4.894309 174.50418,1.575719 170.91257,0.474479 C 78.302246,3.704759 3.728926,78.245119 0.47507598,170.84948 C 0.48001598,170.86574 0.47004598,170.89577 0.47507598,170.91198 C 1.586086,174.49549 4.906696,177.09948 8.850076,177.09948 C 8.869046,177.09949 8.893646,177.0996 8.912576,177.09948 L 168.19382,177.09948 C 168.23163,177.09997 168.2809,177.09948 168.31882,177.09948 C 168.4705,177.09949 168.60653,177.10708 168.75632,177.09948 C 168.82887,177.0958 168.90299,177.10492 168.97507,177.09948 z "
         id="path19960" />
    </g>
    <g
       id="g3125"
       style="fill:#000000;fill-opacity:1"
       transform="matrix(0.45,0,0,0.45,-1.41732,-1.41732)">
      <path
         d="M 196.96276,34.370814 C 196.96223,34.37164 196.96321,34.398707 196.96276,34.399494 C 196.97223,34.396897 196.98235,34.374315 196.99131,34.370814 C 196.98781,34.370814 196.9663,34.370656 196.96276,34.370814 z M 194.81545,34.456774 C 194.79528,34.459234 194.77824,34.482465 194.75813,34.485356 C 194.83494,34.480635 194.91041,34.46124 194.9873,34.456774 C 194.96827,34.456972 194.9487,34.455889 194.92995,34.456774 C 194.88822,34.458683 194.85584,34.451699 194.81545,34.456774 z M 205.23692,34.513997 C 205.38959,34.52521 205.54263,34.530521 205.69499,34.542638 C 205.54509,34.53353 205.38719,34.522416 205.23692,34.513997 z M 205.69499,34.542638 C 244.2501,37.607029 274.6086,69.929316 274.6086,109.26809 C 274.6086,149.32253 243.09999,181.99128 203.54767,184.02229 L 203.54767,199.36827 C 214.34585,201.07545 222.61566,210.453 222.61566,221.7287 C 222.61566,224.48841 222.11885,227.12754 221.21275,229.57342 L 235.24173,237.67585 C 256.92211,204.92632 300.66318,194.24019 335.1334,214.14155 C 369.52161,233.99561 382.21904,277.06796 364.88043,312.1723 C 388.6763,265.85682 372.12902,208.45113 326.5443,182.13273 C 315.13894,175.54788 302.98682,171.53625 290.69893,169.8789 C 295.40247,158.41122 297.99966,145.85418 297.99966,132.68785 C 297.99966,80.434433 257.1701,37.65776 205.69499,34.542638 z M 193.12625,34.599899 C 141.9084,37.982801 101.33692,80.619181 101.33692,132.68785 C 101.33692,145.47933 103.78172,157.70429 108.23687,168.90539 C 96.31463,170.65086 84.49602,174.62269 73.42224,181.0161 C 28.142701,207.15828 11.555948,263.96004 34.656659,310.11094 C 17.977784,275.17473 30.768495,232.68009 64.861735,212.99631 C 99.54987,192.96918 143.59064,203.92275 165.12558,237.16048 L 178.66788,229.34437 C 177.81679,226.96516 177.37953,224.39926 177.37953,221.7287 C 177.37953,210.93171 184.94929,201.90125 195.07313,199.65453 L 195.07313,183.99374 C 155.87099,181.59261 124.75672,149.07097 124.75672,109.26809 C 124.75672,70.109303 154.82269,37.915487 193.12625,34.599899 z M 197.50672,128.73685 C 177.72017,129.19202 159.4794,135.92805 144.51171,146.88864 C 145.70745,148.65813 146.99224,150.37063 148.34815,152.01347 C 149.70418,153.6563 151.13779,155.23251 152.64276,156.73747 C 154.14771,158.24244 155.72394,159.67615 157.36685,161.03207 C 158.57472,162.02901 159.86884,162.92659 161.14604,163.83785 C 172.19453,156.5837 185.4254,152.32848 199.68268,152.32848 C 213.93981,152.32842 227.14215,156.5837 238.19063,163.83785 C 239.46784,162.92659 240.7619,162.02901 241.96983,161.03207 C 243.61271,159.67615 245.18891,158.24244 246.69382,156.73747 C 248.19889,155.23251 249.6325,153.6563 250.98847,152.01347 C 252.34439,150.37063 253.62912,148.65813 254.82494,146.88864 C 239.31627,135.5319 220.29621,128.73685 199.68268,128.73685 C 199.19948,128.73685 198.70387,128.72941 198.22244,128.73685 C 197.98745,128.74049 197.74133,128.73144 197.50672,128.73685 z M 107.32075,211.30719 C 105.23979,230.4164 108.86705,250.28681 119.17376,268.13867 C 129.48053,285.99046 144.8735,299.09455 162.463,306.84703 C 163.39758,304.92673 164.2377,302.94488 164.98249,300.94916 C 165.72734,298.95348 166.37853,296.93541 166.92931,294.87956 C 167.48025,292.82371 167.95069,290.73878 168.30359,288.63809 C 168.56314,287.09352 168.69708,285.53296 168.8477,283.97128 C 157.04108,278.03009 146.74453,268.69004 139.61593,256.34287 C 132.4873,243.99574 129.55295,230.42904 130.311,217.2337 C 128.88333,216.5832 127.45514,215.92027 125.98776,215.37269 C 123.99208,214.62799 121.97398,213.97671 119.91813,213.42583 C 117.86228,212.87493 115.77742,212.43309 113.67671,212.08018 C 111.57602,211.7273 109.45105,211.45794 107.32075,211.30719 z M 292.67443,212.42372 C 290.54403,212.57463 288.41919,212.84389 286.31847,213.19678 C 284.21775,213.54977 282.1328,213.99152 280.07695,214.54245 C 278.0212,215.09336 275.97446,215.74452 273.97871,216.48934 C 272.51136,217.03683 271.11184,217.72843 269.68418,218.37886 C 270.44216,231.57418 267.50782,245.14103 260.37921,257.48815 C 253.25064,269.83517 242.95405,279.14665 231.14758,285.08787 C 231.29805,286.64951 231.432,288.21012 231.69153,289.75464 C 232.04442,291.85537 232.48623,293.94024 233.03713,295.99615 C 233.58801,298.05195 234.23929,300.09875 234.98405,302.09439 C 235.72875,304.09021 236.56902,306.04329 237.5035,307.96366 C 255.09305,300.21114 270.48601,287.13569 280.79273,269.2839 C 291.09961,251.43204 294.75532,231.53295 292.67443,212.42372 z M 182.96243,236.58785 L 169.33431,244.48991 C 186.85602,279.6404 174.25789,322.84826 139.78779,342.74968 C 105.4873,362.55301 61.970546,352.13178 40.182297,319.75942 C 68.455467,363.32467 126.27235,377.60574 171.76793,351.33875 C 182.78883,344.97582 192.08565,336.77303 199.53949,327.37515 C 207.1397,337.25429 216.75874,345.83409 228.22721,352.4554 C 273.77398,378.75175 331.66045,364.41268 359.89878,320.73286 C 338.15089,353.24529 294.57081,363.76324 260.20749,343.92353 C 225.5194,323.89629 212.98717,280.27402 231.00439,245.00527 L 216.83235,236.81693 C 212.69062,241.42837 206.67908,244.34676 199.99759,244.34676 C 193.20631,244.34676 187.10951,241.33182 182.96243,236.58785 z "
         style="color:#000000;fill:#000000;fill-opacity:1;fill-rule:nonzero;stroke:none;stroke-width:60.62099838;stroke-linecap:butt;stroke-linejoin:miter;marker:none;marker-start:none;marker-mid:none;marker-end:none;stroke-miterlimit:4;stroke-dasharray:none;stroke-dashoffset:0;stroke-opacity:1;visibility:visible;display:inline;overflow:visible"
         id="path7214" />
    </g>
  </g>
</svg>
