<?xml version="1.0" encoding="UTF-8" standalone="no"?>
<!-- Created with Inkscape (http://www.inkscape.org/) -->
<svg
   xmlns:dc="http://purl.org/dc/elements/1.1/"
   xmlns:cc="http://web.resource.org/cc/"
   xmlns:rdf="http://www.w3.org/1999/02/22-rdf-syntax-ns#"
   xmlns:svg="http://www.w3.org/2000/svg"
   xmlns="http://www.w3.org/2000/svg"
   xmlns:xlink="http://www.w3.org/1999/xlink"
   xmlns:sodipodi="http://inkscape.sourceforge.net/DTD/sodipodi-0.dtd"
   xmlns:inkscape="http://www.inkscape.org/namespaces/inkscape"
   width="10cm"
   height="10cm"
   id="svg4001"
   sodipodi:version="0.32"
   inkscape:version="0.43"
   version="1.0"
   sodipodi:docbase="/home/dylan/src/mfgames/wordplay/src/themes/default"
   sodipodi:docname="copper.svg">
  <defs
     id="defs4003">
    <linearGradient
       id="linearGradient2285">
      <stop
         style="stop-color:#ffffff;stop-opacity:0;"
         offset="0"
         id="stop2287" />
      <stop
         id="stop2293"
         offset="0.5"
         style="stop-color:#ffffff;stop-opacity:1;" />
      <stop
         style="stop-color:#ffffff;stop-opacity:0;"
         offset="1"
         id="stop2289" />
    </linearGradient>
    <linearGradient
       id="linearGradient2275">
      <stop
         style="stop-color:#b87333;stop-opacity:1;"
         offset="0"
         id="stop2277" />
      <stop
         style="stop-color:#b87333;stop-opacity:0;"
         offset="1"
         id="stop2279" />
    </linearGradient>
    <linearGradient
       id="linearGradient19076">
      <stop
         style="stop-color:#000000;stop-opacity:1;"
         offset="0"
         id="stop19078" />
      <stop
         style="stop-color:#000000;stop-opacity:0;"
         offset="1"
         id="stop19080" />
    </linearGradient>
    <linearGradient
       id="linearGradient17316">
      <stop
         id="stop17318"
         offset="0"
         style="stop-color:#ffffff;stop-opacity:1;" />
      <stop
         id="stop17320"
         offset="1"
         style="stop-color:#ffffff;stop-opacity:0;" />
    </linearGradient>
    <linearGradient
       id="linearGradient11248">
      <stop
         id="stop11250"
         offset="0"
         style="stop-color:#df6542;stop-opacity:1;" />
      <stop
         id="stop11252"
         offset="1"
         style="stop-color:#541616;stop-opacity:1;" />
    </linearGradient>
    <linearGradient
       id="linearGradient11242">
      <stop
         style="stop-color:#e0a441;stop-opacity:1;"
         offset="0"
         id="stop11244" />
      <stop
         style="stop-color:#982828;stop-opacity:1;"
         offset="1"
         id="stop11246" />
    </linearGradient>
    <linearGradient
       id="linearGradient11236">
      <stop
         id="stop11238"
         offset="0"
         style="stop-color:#b91f1f;stop-opacity:1;" />
      <stop
         id="stop11240"
         offset="1"
         style="stop-color:#541624;stop-opacity:1;" />
    </linearGradient>
    <linearGradient
       id="linearGradient8465">
      <stop
         style="stop-color:#df4242;stop-opacity:1;"
         offset="0"
         id="stop8467" />
      <stop
         style="stop-color:#541616;stop-opacity:1;"
         offset="1"
         id="stop8469" />
    </linearGradient>
    <linearGradient
       id="linearGradient7582">
      <stop
         id="stop7584"
         offset="0"
         style="stop-color:#000000;stop-opacity:1;" />
      <stop
         id="stop7586"
         offset="1"
         style="stop-color:#000000;stop-opacity:0;" />
    </linearGradient>
    <linearGradient
       id="linearGradient6689">
      <stop
         style="stop-color:#ffffff;stop-opacity:1;"
         offset="0"
         id="stop6691" />
      <stop
         style="stop-color:#ffffff;stop-opacity:0;"
         offset="1"
         id="stop6693" />
    </linearGradient>
    <linearGradient
       id="linearGradient4919">
      <stop
         style="stop-color:#f4f3db;stop-opacity:1;"
         offset="0"
         id="stop4921" />
      <stop
         id="stop4931"
         offset="0.30000001"
         style="stop-color:#eae8bb;stop-opacity:1;" />
      <stop
         style="stop-color:#eae8bb;stop-opacity:1;"
         offset="0.69999999"
         id="stop4933" />
      <stop
         id="stop4927"
         offset="1"
         style="stop-color:#c9c34e;stop-opacity:1;" />
    </linearGradient>
    <linearGradient
       inkscape:collect="always"
       xlink:href="#linearGradient6689"
       id="linearGradient6699"
       x1="-0.0027778889"
       y1="88.576546"
       x2="177.16077"
       y2="88.576546"
       gradientUnits="userSpaceOnUse" />
    <linearGradient
       inkscape:collect="always"
       xlink:href="#linearGradient6689"
       id="linearGradient6703"
       gradientUnits="userSpaceOnUse"
       x1="-0.0027778889"
       y1="88.576546"
       x2="177.16077"
       y2="88.576546"
       gradientTransform="matrix(0,1,-1,0,177.1555,-2.447048e-3)" />
    <linearGradient
       inkscape:collect="always"
       xlink:href="#linearGradient7582"
       id="linearGradient6707"
       gradientUnits="userSpaceOnUse"
       gradientTransform="matrix(-1,0,0,-1,177.158,177.1531)"
       x1="-0.0027778889"
       y1="88.576546"
       x2="177.16077"
       y2="88.576546" />
    <linearGradient
       inkscape:collect="always"
       xlink:href="#linearGradient7582"
       id="linearGradient7590"
       gradientUnits="userSpaceOnUse"
       gradientTransform="matrix(0,-1,1,0,2.429418e-3,177.1555)"
       x1="-0.0027778889"
       y1="88.576546"
       x2="177.16077"
       y2="88.576546" />
    <radialGradient
       inkscape:collect="always"
       xlink:href="#linearGradient17316"
       id="radialGradient1386"
       gradientUnits="userSpaceOnUse"
       gradientTransform="matrix(1.065198e-14,0.999995,-2,2.172646e-14,-8.421063e-4,9.497463e-6)"
       cx="1.0694882e-10"
       cy="-0.00042105324"
       fx="1.0694882e-10"
       fy="-0.00042105324"
       r="88.377121" />
    <radialGradient
       inkscape:collect="always"
       xlink:href="#linearGradient19076"
       id="radialGradient1388"
       gradientUnits="userSpaceOnUse"
       gradientTransform="matrix(2.7304e-7,-0.999997,2.000055,5.42668e-7,-177.1761,354.3301)"
       cx="177.16534"
       cy="177.16582"
       fx="177.16534"
       fy="177.16582"
       r="88.377121" />
    <radialGradient
       inkscape:collect="always"
       xlink:href="#linearGradient17316"
       id="radialGradient1390"
       gradientUnits="userSpaceOnUse"
       gradientTransform="matrix(1.065198e-14,0.999995,-2,2.172646e-14,-8.421063e-4,9.497463e-6)"
       cx="1.0694882e-10"
       cy="-0.00042105324"
       fx="1.0694882e-10"
       fy="-0.00042105324"
       r="88.377121" />
    <radialGradient
       inkscape:collect="always"
       xlink:href="#linearGradient19076"
       id="radialGradient1392"
       gradientUnits="userSpaceOnUse"
       gradientTransform="matrix(2.7304e-7,-0.999997,2.000055,5.42668e-7,-177.1761,354.3301)"
       cx="177.16534"
       cy="177.16582"
       fx="177.16534"
       fy="177.16582"
       r="88.377121" />
    <radialGradient
       inkscape:collect="always"
       xlink:href="#linearGradient17316"
       id="radialGradient1394"
       gradientUnits="userSpaceOnUse"
       gradientTransform="matrix(1.065198e-14,0.999995,-2,2.172646e-14,-8.421063e-4,9.497463e-6)"
       cx="1.0694882e-10"
       cy="-0.00042105324"
       fx="1.0694882e-10"
       fy="-0.00042105324"
       r="88.377121" />
    <radialGradient
       inkscape:collect="always"
       xlink:href="#linearGradient19076"
       id="radialGradient1396"
       gradientUnits="userSpaceOnUse"
       gradientTransform="matrix(2.7304e-7,-0.999997,2.000055,5.42668e-7,-177.1761,354.3301)"
       cx="177.16534"
       cy="177.16582"
       fx="177.16534"
       fy="177.16582"
       r="88.377121" />
    <radialGradient
       inkscape:collect="always"
       xlink:href="#linearGradient17316"
       id="radialGradient1398"
       gradientUnits="userSpaceOnUse"
       gradientTransform="matrix(1.065198e-14,0.999995,-2,2.172646e-14,-8.421063e-4,9.497463e-6)"
       cx="1.0694882e-10"
       cy="-0.00042105324"
       fx="1.0694882e-10"
       fy="-0.00042105324"
       r="88.377121" />
    <radialGradient
       inkscape:collect="always"
       xlink:href="#linearGradient19076"
       id="radialGradient1400"
       gradientUnits="userSpaceOnUse"
       gradientTransform="matrix(2.7304e-7,-0.999997,2.000055,5.42668e-7,-177.1761,354.3301)"
       cx="177.16534"
       cy="177.16582"
       fx="177.16534"
       fy="177.16582"
       r="88.377121" />
    <linearGradient
       inkscape:collect="always"
       xlink:href="#linearGradient2285"
       id="linearGradient2291"
       x1="376.16534"
       y1="0.005535739"
       x2="464.74713"
       y2="42.83667"
       gradientUnits="userSpaceOnUse"
       gradientTransform="translate(-199,0)" />
    <linearGradient
       inkscape:collect="always"
       xlink:href="#linearGradient2285"
       id="linearGradient2297"
       gradientUnits="userSpaceOnUse"
       gradientTransform="translate(-376.1654,177.1598)"
       x1="431.71744"
       y1="0.0055722222"
       x2="525.20093"
       y2="42.83667" />
    <linearGradient
       inkscape:collect="always"
       xlink:href="#linearGradient2285"
       id="linearGradient2309"
       gradientUnits="userSpaceOnUse"
       gradientTransform="translate(-199.0625,177.0973)"
       x1="501.22519"
       y1="0.068072222"
       x2="591.90973"
       y2="45.868889" />
    <radialGradient
       inkscape:collect="always"
       xlink:href="#linearGradient17316"
       id="radialGradient2324"
       gradientUnits="userSpaceOnUse"
       gradientTransform="matrix(1.065198e-14,0.999995,-2,2.172646e-14,-8.421063e-4,9.497463e-6)"
       cx="1.0694882e-10"
       cy="-0.00042105324"
       fx="1.0694882e-10"
       fy="-0.00042105324"
       r="88.377121" />
    <radialGradient
       inkscape:collect="always"
       xlink:href="#linearGradient19076"
       id="radialGradient2326"
       gradientUnits="userSpaceOnUse"
       gradientTransform="matrix(2.7304e-7,-0.999997,2.000055,5.42668e-7,-177.1761,354.3301)"
       cx="177.16534"
       cy="177.16582"
       fx="177.16534"
       fy="177.16582"
       r="88.377121" />
    <radialGradient
       inkscape:collect="always"
       xlink:href="#linearGradient17316"
       id="radialGradient2328"
       gradientUnits="userSpaceOnUse"
       gradientTransform="matrix(1.065198e-14,0.999995,-2,2.172646e-14,-8.421063e-4,9.497463e-6)"
       cx="1.0694882e-10"
       cy="-0.00042105324"
       fx="1.0694882e-10"
       fy="-0.00042105324"
       r="88.377121" />
    <radialGradient
       inkscape:collect="always"
       xlink:href="#linearGradient19076"
       id="radialGradient2330"
       gradientUnits="userSpaceOnUse"
       gradientTransform="matrix(2.7304e-7,-0.999997,2.000055,5.42668e-7,-177.1761,354.3301)"
       cx="177.16534"
       cy="177.16582"
       fx="177.16534"
       fy="177.16582"
       r="88.377121" />
    <radialGradient
       inkscape:collect="always"
       xlink:href="#linearGradient17316"
       id="radialGradient2332"
       gradientUnits="userSpaceOnUse"
       gradientTransform="matrix(1.065198e-14,0.999995,-2,2.172646e-14,-8.421063e-4,9.497463e-6)"
       cx="1.0694882e-10"
       cy="-0.00042105324"
       fx="1.0694882e-10"
       fy="-0.00042105324"
       r="88.377121" />
    <radialGradient
       inkscape:collect="always"
       xlink:href="#linearGradient19076"
       id="radialGradient2334"
       gradientUnits="userSpaceOnUse"
       gradientTransform="matrix(2.7304e-7,-0.999997,2.000055,5.42668e-7,-177.1761,354.3301)"
       cx="177.16534"
       cy="177.16582"
       fx="177.16534"
       fy="177.16582"
       r="88.377121" />
    <radialGradient
       inkscape:collect="always"
       xlink:href="#linearGradient17316"
       id="radialGradient2336"
       gradientUnits="userSpaceOnUse"
       gradientTransform="matrix(1.065198e-14,0.999995,-2,2.172646e-14,-8.421063e-4,9.497463e-6)"
       cx="1.0694882e-10"
       cy="-0.00042105324"
       fx="1.0694882e-10"
       fy="-0.00042105324"
       r="88.377121" />
    <radialGradient
       inkscape:collect="always"
       xlink:href="#linearGradient19076"
       id="radialGradient2338"
       gradientUnits="userSpaceOnUse"
       gradientTransform="matrix(2.7304e-7,-0.999997,2.000055,5.42668e-7,-177.1761,354.3301)"
       cx="177.16534"
       cy="177.16582"
       fx="177.16534"
       fy="177.16582"
       r="88.377121" />
  </defs>
  <sodipodi:namedview
     id="base"
     pagecolor="#ffffff"
     bordercolor="#666666"
     borderopacity="1.0"
     inkscape:pageopacity="0.0"
     inkscape:pageshadow="2"
     inkscape:zoom="1.5711214"
     inkscape:cx="61.16944"
     inkscape:cy="183.77394"
     inkscape:document-units="px"
     inkscape:current-layer="layer1"
     inkscape:showpageshadow="false"
     showguides="true"
     inkscape:guide-bbox="true"
     showgrid="true"
     gridtolerance="2mm"
     gridspacingy="0.1mm"
     gridspacingx="0.1mm"
     gridoriginy="0mm"
     gridoriginx="0mm"
     inkscape:window-width="1280"
     inkscape:window-height="940"
     inkscape:window-x="0"
     inkscape:window-y="31">
    <sodipodi:guide
       orientation="vertical"
       position="0"
       id="guide4009" />
    <sodipodi:guide
       orientation="vertical"
       position="17.716535"
       id="guide4011" />
    <sodipodi:guide
       orientation="horizontal"
       position="177.16535"
       id="guide4013" />
    <sodipodi:guide
       orientation="horizontal"
       position="159.44882"
       id="guide4015" />
    <sodipodi:guide
       orientation="vertical"
       position="159.44882"
       id="guide4937" />
    <sodipodi:guide
       orientation="horizontal"
       position="17.716535"
       id="guide4939" />
    <sodipodi:guide
       orientation="vertical"
       position="88.582677"
       id="guide8479" />
  </sodipodi:namedview>
  <metadata
     id="metadata4006">
    <rdf:RDF>
      <cc:Work
         rdf:about="">
        <dc:format>image/svg+xml</dc:format>
        <dc:type
           rdf:resource="http://purl.org/dc/dcmitype/StillImage" />
      </cc:Work>
    </rdf:RDF>
  </metadata>
  <g
     inkscape:label="Layer 1"
     inkscape:groupmode="layer"
     id="layer1">
    <path
       style="opacity:1;fill:#b87333;fill-opacity:1;fill-rule:evenodd;stroke:#000000;stroke-width:0.1;stroke-miterlimit:4;stroke-dasharray:none;stroke-opacity:1"
       d="M 8.409028,0.065883789 C 3.765534,0.30153999 0.065277975,4.144922 0.065277975,8.8471338 C 0.065277975,8.8660938 0.065157975,8.8907018 0.065277975,8.9096338 C 0.066117975,9.0421608 0.058626975,9.1848038 0.065277975,9.3158838 L 0.065277975,167.84713 C 0.059576975,167.95948 0.066715975,168.07746 0.065277975,168.19088 L 0.065277975,168.25338 C 0.065157975,168.27231 0.065277975,168.29692 0.065277975,168.31588 C 0.065277975,173.16978 3.99314,177.09713 8.846528,177.09713 C 8.884445,177.09713 8.933724,177.09761 8.9715279,177.09713 L 168.25278,177.09713 C 168.27171,177.09725 168.29632,177.09713 168.31528,177.09713 C 173.16867,177.09713 177.09653,173.16977 177.09653,168.31588 C 177.09653,168.29692 177.09665,168.27231 177.09653,168.25338 C 177.09545,168.08299 177.10719,167.92135 177.09653,167.75338 L 177.09653,9.4408838 L 177.09653,8.9096338 C 177.09658,8.8970058 177.09653,8.8910238 177.09653,8.8783838 C 177.09653,4.0244882 173.16867,0.065883789 168.31528,0.065883789 C 168.29632,0.065883789 168.27171,0.065763689 168.25278,0.065883789 L 8.9715279,0.065883789 C 8.933724,0.065404289 8.884445,0.065883789 8.846528,0.065883789 C 8.69486,0.065883789 8.558818,0.058281889 8.409028,0.065883789 z "
       id="path4017" />
    <path
       id="path10351"
       d="M 185.57438,177.23125 C 180.93089,177.46691 177.23063,181.31029 177.23063,186.0125 C 177.23063,186.03146 177.23051,186.05607 177.23063,186.075 C 177.23147,186.20753 177.22398,186.35017 177.23063,186.48125 L 177.23063,345.0125 C 177.22493,345.12485 177.23207,345.24283 177.23063,345.35625 L 177.23063,345.41875 C 177.23051,345.43768 177.23063,345.46229 177.23063,345.48125 C 177.23063,350.33515 181.15849,354.2625 186.01188,354.2625 C 186.0498,354.2625 186.09908,354.26298 186.13688,354.2625 L 345.41813,354.2625 C 345.43706,354.26262 345.46167,354.2625 345.48063,354.2625 C 350.33402,354.2625 354.26188,350.33514 354.26188,345.48125 C 354.26188,345.46229 354.262,345.43768 354.26188,345.41875 C 354.2608,345.24836 354.27254,345.08672 354.26188,344.91875 L 354.26188,186.60625 L 354.26188,186.075 C 354.26193,186.06238 354.26188,186.05639 354.26188,186.04375 C 354.26188,181.18986 350.33402,177.23125 345.48063,177.23125 C 345.46167,177.23125 345.43706,177.23113 345.41813,177.23125 L 186.13688,177.23125 C 186.09908,177.23077 186.0498,177.23125 186.01188,177.23125 C 185.86021,177.23125 185.72417,177.22365 185.57438,177.23125 z "
       style="opacity:1;fill:#b87333;fill-opacity:1;fill-rule:evenodd;stroke:#000000;stroke-width:0.1;stroke-miterlimit:4;stroke-dasharray:none;stroke-opacity:1" />
    <path
       style="opacity:1;fill:#b87333;fill-opacity:1;fill-rule:evenodd;stroke:#000000;stroke-width:0.1;stroke-miterlimit:4;stroke-dasharray:none;stroke-opacity:1"
       d="M 8.4090275,177.23125 C 3.7655375,177.46691 0.065277532,181.31029 0.065277532,186.0125 C 0.065277532,186.03146 0.065157532,186.05607 0.065277532,186.075 C 0.066117532,186.20753 0.058627532,186.35017 0.065277532,186.48125 L 0.065277532,345.0125 C 0.059577532,345.12485 0.066717532,345.24283 0.065277532,345.35625 L 0.065277532,345.41875 C 0.065157532,345.43768 0.065277532,345.46229 0.065277532,345.48125 C 0.065277532,350.33515 3.9931375,354.2625 8.8465275,354.2625 C 8.8844475,354.2625 8.9337275,354.26298 8.9715275,354.2625 L 168.25278,354.2625 C 168.27171,354.26262 168.29632,354.2625 168.31528,354.2625 C 173.16867,354.2625 177.09653,350.33514 177.09653,345.48125 C 177.09653,345.46229 177.09665,345.43768 177.09653,345.41875 C 177.09545,345.24836 177.10719,345.08672 177.09653,344.91875 L 177.09653,186.60625 L 177.09653,186.075 C 177.09658,186.06238 177.09653,186.05639 177.09653,186.04375 C 177.09653,181.18986 173.16867,177.23125 168.31528,177.23125 C 168.29632,177.23125 168.27171,177.23113 168.25278,177.23125 L 8.9715275,177.23125 C 8.9337275,177.23077 8.8844475,177.23125 8.8465275,177.23125 C 8.6948575,177.23125 8.5588175,177.22365 8.4090275,177.23125 z "
       id="path10355" />
    <path
       id="path10359"
       d="M 185.57438,0.071414361 C 180.93089,0.30707056 177.23063,4.1504526 177.23063,8.8526647 C 177.23063,8.8716247 177.23051,8.8962327 177.23063,8.9151647 C 177.23147,9.0476917 177.22398,9.1903347 177.23063,9.3214147 L 177.23063,167.85266 C 177.22493,167.96501 177.23207,168.08299 177.23063,168.19641 L 177.23063,168.25891 C 177.23051,168.27784 177.23063,168.30245 177.23063,168.32141 C 177.23063,173.17531 181.15849,177.10266 186.01188,177.10266 C 186.0498,177.10266 186.09908,177.10314 186.13688,177.10266 L 345.41813,177.10266 C 345.43706,177.10278 345.46167,177.10266 345.48063,177.10266 C 350.33402,177.10266 354.26188,173.1753 354.26188,168.32141 C 354.26188,168.30245 354.262,168.27784 354.26188,168.25891 C 354.2608,168.08852 354.27254,167.92688 354.26188,167.75891 L 354.26188,9.4464147 L 354.26188,8.9151647 C 354.26193,8.9025367 354.26188,8.8965547 354.26188,8.8839147 C 354.26188,4.0300188 350.33402,0.071414361 345.48063,0.071414361 C 345.46167,0.071414361 345.43706,0.071294261 345.41813,0.071414361 L 186.13688,0.071414361 C 186.09908,0.070934861 186.0498,0.071414361 186.01188,0.071414361 C 185.86021,0.071414361 185.72417,0.063812461 185.57438,0.071414361 z "
       style="opacity:1;fill:#b87333;fill-opacity:1;fill-rule:evenodd;stroke:#000000;stroke-width:0.1;stroke-miterlimit:4;stroke-dasharray:none;stroke-opacity:1" />
    <g
       id="g1372">
      <g
         transform="translate(-6.25e-2,-6.25205e-2)"
         id="g23472">
        <path
           style="opacity:1;fill:url(#radialGradient2324);fill-opacity:1;fill-rule:evenodd;stroke:none;stroke-width:0.1;stroke-miterlimit:4;stroke-dasharray:none;stroke-opacity:1"
           d="M 8.19028,0.065888831 C 3.6490196,0.40817883 0.065279552,4.2183988 0.065279552,8.8471388 C 0.065269552,8.8660958 0.065159552,8.8907068 0.065279552,8.9096388 C 0.066109552,9.0421628 0.058629552,9.1848088 0.065279552,9.3158888 L 0.065279552,167.84714 C 0.059569552,167.95948 0.066719552,168.07747 0.065279552,168.19089 L 0.065279552,168.25339 C 0.065149552,168.27231 0.065279552,168.29693 0.065279552,168.31589 C 0.065269552,172.27106 2.6611696,175.58965 6.2527796,176.69089 C 98.863106,173.46061 173.43643,98.920249 176.69028,6.3158888 C 176.68534,6.2996338 176.69531,6.2696038 176.69028,6.2533888 C 175.57927,2.6698838 172.25866,0.065888831 168.31528,0.065888831 C 168.29631,0.065885831 168.27171,0.065768831 168.25278,0.065888831 L 8.97153,0.065888831 C 8.93372,0.065405831 8.88445,0.065888831 8.84653,0.065888831 C 8.69485,0.065885831 8.55882,0.058286831 8.40903,0.065888831 C 8.33648,0.069570831 8.26236,0.060455831 8.19028,0.065888831 z "
           id="path15548" />
        <path
           id="path19960"
           d="M 168.97507,177.09948 C 173.51633,176.75719 177.10007,172.94697 177.10007,168.31823 C 177.10008,168.29928 177.10019,168.27466 177.10007,168.25573 C 177.09924,168.12321 177.10672,167.98056 177.10007,167.84948 L 177.10007,9.318229 C 177.10578,9.205889 177.09863,9.087899 177.10007,8.974479 L 177.10007,8.911979 C 177.1002,8.893059 177.10007,8.868439 177.10007,8.849479 C 177.10008,4.894309 174.50418,1.575719 170.91257,0.474479 C 78.302246,3.704759 3.728926,78.245119 0.47507598,170.84948 C 0.48001598,170.86574 0.47004598,170.89577 0.47507598,170.91198 C 1.586086,174.49549 4.906696,177.09948 8.850076,177.09948 C 8.869046,177.09949 8.893646,177.0996 8.912576,177.09948 L 168.19382,177.09948 C 168.23163,177.09997 168.2809,177.09948 168.31882,177.09948 C 168.4705,177.09949 168.60653,177.10708 168.75632,177.09948 C 168.82887,177.0958 168.90299,177.10492 168.97507,177.09948 z "
           style="opacity:1;fill:url(#radialGradient2326);fill-opacity:1;fill-rule:evenodd;stroke:none;stroke-width:0.1;stroke-miterlimit:4;stroke-dasharray:none;stroke-opacity:1" />
      </g>
      <g
         id="g23487"
         transform="translate(177.1029,-6.25205e-2)">
        <path
           id="path23489"
           d="M 8.19028,0.065888831 C 3.6490196,0.40817883 0.065279552,4.2183988 0.065279552,8.8471388 C 0.065269552,8.8660958 0.065159552,8.8907068 0.065279552,8.9096388 C 0.066109552,9.0421628 0.058629552,9.1848088 0.065279552,9.3158888 L 0.065279552,167.84714 C 0.059569552,167.95948 0.066719552,168.07747 0.065279552,168.19089 L 0.065279552,168.25339 C 0.065149552,168.27231 0.065279552,168.29693 0.065279552,168.31589 C 0.065269552,172.27106 2.6611696,175.58965 6.2527796,176.69089 C 98.863106,173.46061 173.43643,98.920249 176.69028,6.3158888 C 176.68534,6.2996338 176.69531,6.2696038 176.69028,6.2533888 C 175.57927,2.6698838 172.25866,0.065888831 168.31528,0.065888831 C 168.29631,0.065885831 168.27171,0.065768831 168.25278,0.065888831 L 8.97153,0.065888831 C 8.93372,0.065405831 8.88445,0.065888831 8.84653,0.065888831 C 8.69485,0.065885831 8.55882,0.058286831 8.40903,0.065888831 C 8.33648,0.069570831 8.26236,0.060455831 8.19028,0.065888831 z "
           style="opacity:1;fill:url(#radialGradient2328);fill-opacity:1;fill-rule:evenodd;stroke:none;stroke-width:0.1;stroke-miterlimit:4;stroke-dasharray:none;stroke-opacity:1" />
        <path
           style="opacity:1;fill:url(#radialGradient2330);fill-opacity:1;fill-rule:evenodd;stroke:none;stroke-width:0.1;stroke-miterlimit:4;stroke-dasharray:none;stroke-opacity:1"
           d="M 168.97507,177.09948 C 173.51633,176.75719 177.10007,172.94697 177.10007,168.31823 C 177.10008,168.29928 177.10019,168.27466 177.10007,168.25573 C 177.09924,168.12321 177.10672,167.98056 177.10007,167.84948 L 177.10007,9.318229 C 177.10578,9.205889 177.09863,9.087899 177.10007,8.974479 L 177.10007,8.911979 C 177.1002,8.893059 177.10007,8.868439 177.10007,8.849479 C 177.10008,4.894309 174.50418,1.575719 170.91257,0.474479 C 78.302246,3.704759 3.728926,78.245119 0.47507598,170.84948 C 0.48001598,170.86574 0.47004598,170.89577 0.47507598,170.91198 C 1.586086,174.49549 4.906696,177.09948 8.850076,177.09948 C 8.869046,177.09949 8.893646,177.0996 8.912576,177.09948 L 168.19382,177.09948 C 168.23163,177.09997 168.2809,177.09948 168.31882,177.09948 C 168.4705,177.09949 168.60653,177.10708 168.75632,177.09948 C 168.82887,177.0958 168.90299,177.10492 168.97507,177.09948 z "
           id="path23491" />
      </g>
      <g
         id="g23497"
         transform="translate(-6.25e-2,177.1029)">
        <path
           id="path23499"
           d="M 8.19028,0.065888831 C 3.6490196,0.40817883 0.065279552,4.2183988 0.065279552,8.8471388 C 0.065269552,8.8660958 0.065159552,8.8907068 0.065279552,8.9096388 C 0.066109552,9.0421628 0.058629552,9.1848088 0.065279552,9.3158888 L 0.065279552,167.84714 C 0.059569552,167.95948 0.066719552,168.07747 0.065279552,168.19089 L 0.065279552,168.25339 C 0.065149552,168.27231 0.065279552,168.29693 0.065279552,168.31589 C 0.065269552,172.27106 2.6611696,175.58965 6.2527796,176.69089 C 98.863106,173.46061 173.43643,98.920249 176.69028,6.3158888 C 176.68534,6.2996338 176.69531,6.2696038 176.69028,6.2533888 C 175.57927,2.6698838 172.25866,0.065888831 168.31528,0.065888831 C 168.29631,0.065885831 168.27171,0.065768831 168.25278,0.065888831 L 8.97153,0.065888831 C 8.93372,0.065405831 8.88445,0.065888831 8.84653,0.065888831 C 8.69485,0.065885831 8.55882,0.058286831 8.40903,0.065888831 C 8.33648,0.069570831 8.26236,0.060455831 8.19028,0.065888831 z "
           style="opacity:1;fill:url(#radialGradient2332);fill-opacity:1;fill-rule:evenodd;stroke:none;stroke-width:0.1;stroke-miterlimit:4;stroke-dasharray:none;stroke-opacity:1" />
        <path
           style="opacity:1;fill:url(#radialGradient2334);fill-opacity:1;fill-rule:evenodd;stroke:none;stroke-width:0.1;stroke-miterlimit:4;stroke-dasharray:none;stroke-opacity:1"
           d="M 168.97507,177.09948 C 173.51633,176.75719 177.10007,172.94697 177.10007,168.31823 C 177.10008,168.29928 177.10019,168.27466 177.10007,168.25573 C 177.09924,168.12321 177.10672,167.98056 177.10007,167.84948 L 177.10007,9.318229 C 177.10578,9.205889 177.09863,9.087899 177.10007,8.974479 L 177.10007,8.911979 C 177.1002,8.893059 177.10007,8.868439 177.10007,8.849479 C 177.10008,4.894309 174.50418,1.575719 170.91257,0.474479 C 78.302246,3.704759 3.728926,78.245119 0.47507598,170.84948 C 0.48001598,170.86574 0.47004598,170.89577 0.47507598,170.91198 C 1.586086,174.49549 4.906696,177.09948 8.850076,177.09948 C 8.869046,177.09949 8.893646,177.0996 8.912576,177.09948 L 168.19382,177.09948 C 168.23163,177.09997 168.2809,177.09948 168.31882,177.09948 C 168.4705,177.09949 168.60653,177.10708 168.75632,177.09948 C 168.82887,177.0958 168.90299,177.10492 168.97507,177.09948 z "
           id="path23501" />
      </g>
      <g
         transform="translate(177.1029,177.1029)"
         id="g23503">
        <path
           style="opacity:1;fill:url(#radialGradient2336);fill-opacity:1;fill-rule:evenodd;stroke:none;stroke-width:0.1;stroke-miterlimit:4;stroke-dasharray:none;stroke-opacity:1"
           d="M 8.19028,0.065888831 C 3.6490196,0.40817883 0.065279552,4.2183988 0.065279552,8.8471388 C 0.065269552,8.8660958 0.065159552,8.8907068 0.065279552,8.9096388 C 0.066109552,9.0421628 0.058629552,9.1848088 0.065279552,9.3158888 L 0.065279552,167.84714 C 0.059569552,167.95948 0.066719552,168.07747 0.065279552,168.19089 L 0.065279552,168.25339 C 0.065149552,168.27231 0.065279552,168.29693 0.065279552,168.31589 C 0.065269552,172.27106 2.6611696,175.58965 6.2527796,176.69089 C 98.863106,173.46061 173.43643,98.920249 176.69028,6.3158888 C 176.68534,6.2996338 176.69531,6.2696038 176.69028,6.2533888 C 175.57927,2.6698838 172.25866,0.065888831 168.31528,0.065888831 C 168.29631,0.065885831 168.27171,0.065768831 168.25278,0.065888831 L 8.97153,0.065888831 C 8.93372,0.065405831 8.88445,0.065888831 8.84653,0.065888831 C 8.69485,0.065885831 8.55882,0.058286831 8.40903,0.065888831 C 8.33648,0.069570831 8.26236,0.060455831 8.19028,0.065888831 z "
           id="path23505" />
        <path
           id="path23507"
           d="M 168.97507,177.09948 C 173.51633,176.75719 177.10007,172.94697 177.10007,168.31823 C 177.10008,168.29928 177.10019,168.27466 177.10007,168.25573 C 177.09924,168.12321 177.10672,167.98056 177.10007,167.84948 L 177.10007,9.318229 C 177.10578,9.205889 177.09863,9.087899 177.10007,8.974479 L 177.10007,8.911979 C 177.1002,8.893059 177.10007,8.868439 177.10007,8.849479 C 177.10008,4.894309 174.50418,1.575719 170.91257,0.474479 C 78.302246,3.704759 3.728926,78.245119 0.47507598,170.84948 C 0.48001598,170.86574 0.47004598,170.89577 0.47507598,170.91198 C 1.586086,174.49549 4.906696,177.09948 8.850076,177.09948 C 8.869046,177.09949 8.893646,177.0996 8.912576,177.09948 L 168.19382,177.09948 C 168.23163,177.09997 168.2809,177.09948 168.31882,177.09948 C 168.4705,177.09949 168.60653,177.10708 168.75632,177.09948 C 168.82887,177.0958 168.90299,177.10492 168.97507,177.09948 z "
           style="opacity:1;fill:url(#radialGradient2338);fill-opacity:1;fill-rule:evenodd;stroke:none;stroke-width:0.1;stroke-miterlimit:4;stroke-dasharray:none;stroke-opacity:1" />
      </g>
    </g>
    <path
       style="opacity:1;fill:url(#linearGradient2291);fill-opacity:1;fill-rule:evenodd;stroke:none;stroke-width:0.1;stroke-miterlimit:4;stroke-dasharray:none;stroke-opacity:1"
       d="M 185.57438,0.071414361 C 180.93089,0.30707056 177.23063,4.1504526 177.23063,8.8526647 C 177.23063,8.8716247 177.23051,8.8962327 177.23063,8.9151647 C 177.23147,9.0476917 177.22398,9.1903347 177.23063,9.3214147 L 177.23063,167.85266 C 177.22493,167.96501 177.23207,168.08299 177.23063,168.19641 L 177.23063,168.25891 C 177.23051,168.27784 177.23063,168.30245 177.23063,168.32141 C 177.23063,173.17531 181.15849,177.10266 186.01188,177.10266 C 186.0498,177.10266 186.09908,177.10314 186.13688,177.10266 L 345.41813,177.10266 C 345.43706,177.10278 345.46167,177.10266 345.48063,177.10266 C 350.33402,177.10266 354.26188,173.1753 354.26188,168.32141 C 354.26188,168.30245 354.262,168.27784 354.26188,168.25891 C 354.2608,168.08852 354.27254,167.92688 354.26188,167.75891 L 354.26188,9.4464147 L 354.26188,8.9151647 C 354.26193,8.9025367 354.26188,8.8965547 354.26188,8.8839147 C 354.26188,4.0300188 350.33402,0.071414361 345.48063,0.071414361 C 345.46167,0.071414361 345.43706,0.071294261 345.41813,0.071414361 L 186.13688,0.071414361 C 186.09908,0.070934861 186.0498,0.071414361 186.01188,0.071414361 C 185.86021,0.071414361 185.72417,0.063812461 185.57438,0.071414361 z "
       id="path2283" />
    <path
       id="path2295"
       d="M 8.4090275,177.23125 C 3.7655375,177.46691 0.065277532,181.31029 0.065277532,186.0125 C 0.065277532,186.03146 0.065157532,186.05607 0.065277532,186.075 C 0.066117532,186.20753 0.058627532,186.35017 0.065277532,186.48125 L 0.065277532,345.0125 C 0.059577532,345.12485 0.066717532,345.24283 0.065277532,345.35625 L 0.065277532,345.41875 C 0.065157532,345.43768 0.065277532,345.46229 0.065277532,345.48125 C 0.065277532,350.33515 3.9931375,354.2625 8.8465275,354.2625 C 8.8844475,354.2625 8.9337275,354.26298 8.9715275,354.2625 L 168.25278,354.2625 C 168.27171,354.26262 168.29632,354.2625 168.31528,354.2625 C 173.16867,354.2625 177.09653,350.33514 177.09653,345.48125 C 177.09653,345.46229 177.09665,345.43768 177.09653,345.41875 C 177.09545,345.24836 177.10719,345.08672 177.09653,344.91875 L 177.09653,186.60625 L 177.09653,186.075 C 177.09658,186.06238 177.09653,186.05639 177.09653,186.04375 C 177.09653,181.18986 173.16867,177.23125 168.31528,177.23125 C 168.29632,177.23125 168.27171,177.23113 168.25278,177.23125 L 8.9715275,177.23125 C 8.9337275,177.23077 8.8844475,177.23125 8.8465275,177.23125 C 8.6948575,177.23125 8.5588175,177.22365 8.4090275,177.23125 z "
       style="opacity:1;fill:url(#linearGradient2297);fill-opacity:1;fill-rule:evenodd;stroke:none;stroke-width:0.1;stroke-miterlimit:4;stroke-dasharray:none;stroke-opacity:1" />
    <path
       style="opacity:1;fill:url(#linearGradient2309);fill-opacity:1;fill-rule:evenodd;stroke:none;stroke-width:0.1;stroke-miterlimit:4;stroke-dasharray:none;stroke-opacity:1"
       d="M 185.51188,177.16875 C 180.86839,177.40441 177.16813,181.24779 177.16813,185.95 C 177.16813,185.96896 177.16801,185.99357 177.16813,186.0125 C 177.16897,186.14503 177.16148,186.28767 177.16813,186.41875 L 177.16813,344.95 C 177.16243,345.06235 177.16957,345.18033 177.16813,345.29375 L 177.16813,345.35625 C 177.16801,345.37518 177.16813,345.39979 177.16813,345.41875 C 177.16813,350.27265 181.09599,354.2 185.94938,354.2 C 185.9873,354.2 186.03658,354.20048 186.07438,354.2 L 345.35563,354.2 C 345.37456,354.20012 345.39917,354.2 345.41813,354.2 C 350.27152,354.2 354.19938,350.27264 354.19938,345.41875 C 354.19938,345.39979 354.1995,345.37518 354.19938,345.35625 C 354.1983,345.18586 354.21004,345.02422 354.19938,344.85625 L 354.19938,186.54375 L 354.19938,186.0125 C 354.19943,185.99988 354.19938,185.99389 354.19938,185.98125 C 354.19938,181.12736 350.27152,177.16875 345.41813,177.16875 C 345.39917,177.16875 345.37456,177.16863 345.35563,177.16875 L 186.07438,177.16875 C 186.03658,177.16827 185.9873,177.16875 185.94938,177.16875 C 185.79771,177.16875 185.66167,177.16115 185.51188,177.16875 z "
       id="path2307" />
  </g>
</svg>
