<?xml version="1.0" encoding="UTF-8" standalone="no"?>
<!-- Created with Inkscape (http://www.inkscape.org/) -->
<svg
   xmlns:dc="http://purl.org/dc/elements/1.1/"
   xmlns:cc="http://web.resource.org/cc/"
   xmlns:rdf="http://www.w3.org/1999/02/22-rdf-syntax-ns#"
   xmlns:svg="http://www.w3.org/2000/svg"
   xmlns="http://www.w3.org/2000/svg"
   xmlns:xlink="http://www.w3.org/1999/xlink"
   xmlns:sodipodi="http://inkscape.sourceforge.net/DTD/sodipodi-0.dtd"
   xmlns:inkscape="http://www.inkscape.org/namespaces/inkscape"
   width="5cm"
   height="5cm"
   id="svg4001"
   sodipodi:version="0.32"
   inkscape:version="0.43"
   version="1.0"
   sodipodi:docbase="/home/dylan/src/mfgames/wordplay/src/themes/default"
   sodipodi:docname="poison.svg">
  <defs
     id="defs4003">
    <linearGradient
       id="linearGradient4144">
      <stop
         style="stop-color:#006f0d;stop-opacity:1;"
         offset="0"
         id="stop4146" />
      <stop
         style="stop-color:#94e700;stop-opacity:1;"
         offset="1"
         id="stop4148" />
    </linearGradient>
    <linearGradient
       id="linearGradient19076">
      <stop
         style="stop-color:#000000;stop-opacity:1;"
         offset="0"
         id="stop19078" />
      <stop
         style="stop-color:#000000;stop-opacity:0;"
         offset="1"
         id="stop19080" />
    </linearGradient>
    <linearGradient
       id="linearGradient17316">
      <stop
         id="stop17318"
         offset="0"
         style="stop-color:#ffffff;stop-opacity:1;" />
      <stop
         id="stop17320"
         offset="1"
         style="stop-color:#ffffff;stop-opacity:0;" />
    </linearGradient>
    <linearGradient
       id="linearGradient16429">
      <stop
         style="stop-color:#ffffff;stop-opacity:1;"
         offset="0"
         id="stop16431" />
      <stop
         style="stop-color:none"
         offset="1"
         id="stop16433" />
    </linearGradient>
    <linearGradient
       id="linearGradient8465">
      <stop
         style="stop-color:#fff835;stop-opacity:1;"
         offset="0"
         id="stop8467" />
      <stop
         style="stop-color:#e4d011;stop-opacity:1;"
         offset="1"
         id="stop8469" />
    </linearGradient>
    <linearGradient
       id="linearGradient7582">
      <stop
         id="stop7584"
         offset="0"
         style="stop-color:#000000;stop-opacity:1;" />
      <stop
         id="stop7586"
         offset="1"
         style="stop-color:#000000;stop-opacity:0;" />
    </linearGradient>
    <linearGradient
       id="linearGradient6689">
      <stop
         style="stop-color:#ffffff;stop-opacity:1;"
         offset="0"
         id="stop6691" />
      <stop
         style="stop-color:#ffffff;stop-opacity:0;"
         offset="1"
         id="stop6693" />
    </linearGradient>
    <linearGradient
       id="linearGradient4919">
      <stop
         style="stop-color:#f4f3db;stop-opacity:1;"
         offset="0"
         id="stop4921" />
      <stop
         id="stop4931"
         offset="0.30000001"
         style="stop-color:#eae8bb;stop-opacity:1;" />
      <stop
         style="stop-color:#eae8bb;stop-opacity:1;"
         offset="0.69999999"
         id="stop4933" />
      <stop
         id="stop4927"
         offset="1"
         style="stop-color:#c9c34e;stop-opacity:1;" />
    </linearGradient>
    <linearGradient
       inkscape:collect="always"
       xlink:href="#linearGradient6689"
       id="linearGradient6699"
       x1="-0.0027778889"
       y1="88.576546"
       x2="177.16077"
       y2="88.576546"
       gradientUnits="userSpaceOnUse" />
    <linearGradient
       inkscape:collect="always"
       xlink:href="#linearGradient6689"
       id="linearGradient6703"
       gradientUnits="userSpaceOnUse"
       x1="-0.0027778889"
       y1="88.576546"
       x2="177.16077"
       y2="88.576546"
       gradientTransform="matrix(0,1,-1,0,177.1555,-2.447048e-3)" />
    <linearGradient
       inkscape:collect="always"
       xlink:href="#linearGradient7582"
       id="linearGradient6707"
       gradientUnits="userSpaceOnUse"
       gradientTransform="matrix(-1,0,0,-1,177.158,177.1531)"
       x1="-0.0027778889"
       y1="88.576546"
       x2="177.16077"
       y2="88.576546" />
    <linearGradient
       inkscape:collect="always"
       xlink:href="#linearGradient7582"
       id="linearGradient7590"
       gradientUnits="userSpaceOnUse"
       gradientTransform="matrix(0,-1,1,0,2.429418e-3,177.1555)"
       x1="-0.0027778889"
       y1="88.576546"
       x2="177.16077"
       y2="88.576546" />
    <radialGradient
       inkscape:collect="always"
       xlink:href="#linearGradient19076"
       id="radialGradient18201"
       gradientUnits="userSpaceOnUse"
       gradientTransform="matrix(2.682822e-6,-1.994277,2,2.69052e-6,511.0618,1198.658)"
       cx="476.5748"
       cy="71.418839"
       fx="476.5748"
       fy="71.418839"
       r="54.501389" />
    <radialGradient
       inkscape:collect="always"
       xlink:href="#linearGradient19076"
       id="radialGradient20841"
       cx="177.16534"
       cy="177.16582"
       fx="177.16534"
       fy="177.16582"
       r="88.377121"
       gradientTransform="matrix(2.7304e-7,-0.999997,2.000055,5.42668e-7,-177.1761,354.3301)"
       gradientUnits="userSpaceOnUse" />
    <radialGradient
       inkscape:collect="always"
       xlink:href="#linearGradient17316"
       id="radialGradient21724"
       cx="1.0694882e-10"
       cy="-0.00042105324"
       fx="1.0694882e-10"
       fy="-0.00042105324"
       r="88.377121"
       gradientTransform="matrix(1.065198e-14,0.999995,-2,2.172646e-14,-8.421063e-4,9.497463e-6)"
       gradientUnits="userSpaceOnUse" />
    <radialGradient
       inkscape:collect="always"
       xlink:href="#linearGradient4144"
       id="radialGradient4152"
       cx="88.581764"
       cy="88.579926"
       fx="88.581764"
       fy="88.579926"
       r="88.581764"
       gradientTransform="matrix(1,0,0,0.999979,0,1.849245e-3)"
       gradientUnits="userSpaceOnUse" />
  </defs>
  <sodipodi:namedview
     id="base"
     pagecolor="#ffffff"
     bordercolor="#666666"
     borderopacity="1.0"
     inkscape:pageopacity="0.0"
     inkscape:pageshadow="2"
     inkscape:zoom="4.2841332"
     inkscape:cx="88.58268"
     inkscape:cy="88.58268"
     inkscape:document-units="px"
     inkscape:current-layer="layer1"
     inkscape:showpageshadow="false"
     showguides="true"
     inkscape:guide-bbox="true"
     showgrid="true"
     gridtolerance="2mm"
     gridspacingy="0.1mm"
     gridspacingx="0.1mm"
     gridoriginy="0mm"
     gridoriginx="0mm"
     inkscape:window-width="1280"
     inkscape:window-height="940"
     inkscape:window-x="0"
     inkscape:window-y="31">
    <sodipodi:guide
       orientation="vertical"
       position="0"
       id="guide4009" />
    <sodipodi:guide
       orientation="vertical"
       position="17.716535"
       id="guide4011" />
    <sodipodi:guide
       orientation="horizontal"
       position="177.16535"
       id="guide4013" />
    <sodipodi:guide
       orientation="horizontal"
       position="159.44882"
       id="guide4015" />
    <sodipodi:guide
       orientation="vertical"
       position="159.44882"
       id="guide4937" />
    <sodipodi:guide
       orientation="horizontal"
       position="17.716535"
       id="guide4939" />
    <sodipodi:guide
       orientation="vertical"
       position="88.582677"
       id="guide8479" />
    <sodipodi:guide
       orientation="horizontal"
       position="88.582677"
       id="guide20843" />
  </sodipodi:namedview>
  <metadata
     id="metadata4006">
    <rdf:RDF>
      <cc:Work
         rdf:about="">
        <dc:format>image/svg+xml</dc:format>
        <dc:type
           rdf:resource="http://purl.org/dc/dcmitype/StillImage" />
      </cc:Work>
    </rdf:RDF>
  </metadata>
  <g
     inkscape:label="Layer 1"
     inkscape:groupmode="layer"
     id="layer1">
    <path
       style="opacity:1;fill:url(#radialGradient4152);fill-opacity:1.0;fill-rule:evenodd;stroke:#000000;stroke-width:0.1;stroke-miterlimit:4;stroke-dasharray:none;stroke-opacity:1"
       d="M 8.409028,0.065883789 C 3.765534,0.30153999 0.065277975,4.144922 0.065277975,8.8471338 C 0.065277975,8.8660938 0.065157975,8.8907018 0.065277975,8.9096338 C 0.066117975,9.0421608 0.058626975,9.1848038 0.065277975,9.3158838 L 0.065277975,167.84713 C 0.059576975,167.95948 0.066715975,168.07746 0.065277975,168.19088 L 0.065277975,168.25338 C 0.065157975,168.27231 0.065277975,168.29692 0.065277975,168.31588 C 0.065277975,173.16978 3.99314,177.09713 8.846528,177.09713 C 8.884445,177.09713 8.933724,177.09761 8.9715279,177.09713 L 168.25278,177.09713 C 168.27171,177.09725 168.29632,177.09713 168.31528,177.09713 C 173.16867,177.09713 177.09653,173.16977 177.09653,168.31588 C 177.09653,168.29692 177.09665,168.27231 177.09653,168.25338 C 177.09545,168.08299 177.10719,167.92135 177.09653,167.75338 L 177.09653,9.4408838 L 177.09653,8.9096338 C 177.09658,8.8970058 177.09653,8.8910238 177.09653,8.8783838 C 177.09653,4.0244882 173.16867,0.065883789 168.31528,0.065883789 C 168.29632,0.065883789 168.27171,0.065763689 168.25278,0.065883789 L 8.9715279,0.065883789 C 8.933724,0.065404289 8.884445,0.065883789 8.846528,0.065883789 C 8.69486,0.065883789 8.558818,0.058281889 8.409028,0.065883789 z "
       id="path4017" />
    <g
       id="g23472">
      <path
         id="path15548"
         d="M 8.19028,0.065888831 C 3.6490196,0.40817883 0.065279552,4.2183988 0.065279552,8.8471388 C 0.065269552,8.8660958 0.065159552,8.8907068 0.065279552,8.9096388 C 0.066109552,9.0421628 0.058629552,9.1848088 0.065279552,9.3158888 L 0.065279552,167.84714 C 0.059569552,167.95948 0.066719552,168.07747 0.065279552,168.19089 L 0.065279552,168.25339 C 0.065149552,168.27231 0.065279552,168.29693 0.065279552,168.31589 C 0.065269552,172.27106 2.6611696,175.58965 6.2527796,176.69089 C 98.863106,173.46061 173.43643,98.920249 176.69028,6.3158888 C 176.68534,6.2996338 176.69531,6.2696038 176.69028,6.2533888 C 175.57927,2.6698838 172.25866,0.065888831 168.31528,0.065888831 C 168.29631,0.065885831 168.27171,0.065768831 168.25278,0.065888831 L 8.97153,0.065888831 C 8.93372,0.065405831 8.88445,0.065888831 8.84653,0.065888831 C 8.69485,0.065885831 8.55882,0.058286831 8.40903,0.065888831 C 8.33648,0.069570831 8.26236,0.060455831 8.19028,0.065888831 z "
         style="opacity:1;fill:url(#radialGradient21724);fill-opacity:1;fill-rule:evenodd;stroke:none;stroke-width:0.1;stroke-miterlimit:4;stroke-dasharray:none;stroke-opacity:1" />
      <path
         style="opacity:1;fill:url(#radialGradient20841);fill-opacity:1;fill-rule:evenodd;stroke:none;stroke-width:0.1;stroke-miterlimit:4;stroke-dasharray:none;stroke-opacity:1"
         d="M 168.97507,177.09948 C 173.51633,176.75719 177.10007,172.94697 177.10007,168.31823 C 177.10008,168.29928 177.10019,168.27466 177.10007,168.25573 C 177.09924,168.12321 177.10672,167.98056 177.10007,167.84948 L 177.10007,9.318229 C 177.10578,9.205889 177.09863,9.087899 177.10007,8.974479 L 177.10007,8.911979 C 177.1002,8.893059 177.10007,8.868439 177.10007,8.849479 C 177.10008,4.894309 174.50418,1.575719 170.91257,0.474479 C 78.302246,3.704759 3.728926,78.245119 0.47507598,170.84948 C 0.48001598,170.86574 0.47004598,170.89577 0.47507598,170.91198 C 1.586086,174.49549 4.906696,177.09948 8.850076,177.09948 C 8.869046,177.09949 8.893646,177.0996 8.912576,177.09948 L 168.19382,177.09948 C 168.23163,177.09997 168.2809,177.09948 168.31882,177.09948 C 168.4705,177.09949 168.60653,177.10708 168.75632,177.09948 C 168.82887,177.0958 168.90299,177.10492 168.97507,177.09948 z "
         id="path19960" />
    </g>
    <g
       id="g3232"
       transform="matrix(0.478297,0,0,0.478297,-7.076722,-7.076721)">
      <g
         transform="matrix(0.651999,0,0,0.651999,-51.23088,-96.82474)"
         id="g879">
        <g
           transform="translate(87.13029,195.4545)"
           style="font-size:12px;fill:#000000;fill-opacity:1;stroke:#000000;stroke-opacity:0.99122799"
           id="g670">
          <path
             d="M 294.895,259.711 C 285.199,267.084 283.042,269.56 277.684,277.719 C 275.745,280.868 272.124,288.227 271.134,293.164 C 270.145,298.1 269.404,305.262 269.407,309.055 C 269.419,321.908 273.51,329.971 277.978,329.69 C 281.97,329.232 287.05,325.069 294.748,315.614"
             style="fill:#000000;fill-opacity:1;fill-rule:evenodd;stroke:#000000;stroke-width:1pt;stroke-linecap:butt;stroke-linejoin:miter;stroke-opacity:0.99122799"
             id="path584" />
          <path
             d="M 294.895,259.711 C 285.199,267.084 283.042,269.56 277.684,277.719 C 275.745,280.868 272.124,288.227 271.134,293.164 C 270.145,298.1 269.404,305.262 269.407,309.055 C 269.419,321.908 273.51,329.971 277.978,329.69 C 281.97,329.232 287.05,325.069 294.748,315.614"
             transform="matrix(-1,0,0,1,596.772,0.208099)"
             style="fill:#000000;fill-opacity:1;fill-rule:evenodd;stroke:#000000;stroke-width:1pt;stroke-linecap:butt;stroke-linejoin:bevel;stroke-opacity:0.99122799"
             id="path585" />
          <path
             d="M 211.888,203.561 C 225.348,201.202 238.391,199.676 251.851,198.15 C 269.474,193.709 278.355,213.83 273.498,228.955 C 267.393,242.415 258.79,254.21 248.938,265.588 C 241.306,274.191 232.214,275.583 223.544,272.664 C 216.546,270.724 210.083,266.421 203.145,256.43 C 200.093,247.826 197.457,243.385 193.571,232.701 C 190.519,222.849 195.266,208.101 211.888,203.561 z "
             transform="translate(0.588722,-3.051758e-5)"
             style="fill:#000000;fill-opacity:1;fill-rule:evenodd;stroke:#000000;stroke-width:1pt;stroke-linecap:butt;stroke-linejoin:miter;stroke-opacity:0.99122799"
             id="path586" />
          <path
             d="M 211.888,203.561 C 225.348,201.202 238.391,199.676 251.851,198.15 C 269.474,193.709 278.355,213.83 273.498,228.955 C 267.393,242.415 258.79,254.21 248.938,265.588 C 241.306,274.191 232.214,275.583 223.544,272.664 C 216.546,270.724 210.083,266.421 203.145,256.43 C 200.093,247.826 197.457,243.385 193.571,232.701 C 190.519,222.849 195.266,208.101 211.888,203.561 z "
             transform="matrix(-1,0,0,1,596.4468,-3.051758e-5)"
             style="fill:#000000;fill-opacity:1;fill-rule:evenodd;stroke:#000000;stroke-width:1pt;stroke-linecap:butt;stroke-linejoin:miter;stroke-opacity:0.99122799"
             id="path587" />
        </g>
        <g
           transform="translate(87.13029,195.4545)"
           style="font-size:12px;stroke:#000000;stroke-opacity:0.99122799"
           id="g775">
          <g
             style="fill:none;fill-opacity:1;stroke:#000000;stroke-opacity:0.99122799"
             id="g740">
            <g
               style="font-size:12px;fill:none;fill-opacity:1;stroke:#000000;stroke-opacity:0.99122799"
               id="g652">
              <path
                 d="M 212.232,318.53 C 217.922,331.874 219.682,336.945 223.785,350.248 C 227.281,362.537 228.566,370.042 230.726,387.506"
                 style="fill:none;fill-opacity:1;fill-rule:evenodd;stroke:#000000;stroke-width:6.25;stroke-linecap:butt;stroke-linejoin:miter;stroke-dasharray:none;stroke-opacity:0.99122799"
                 id="path611" />
              <path
                 d="M 212.232,318.53 C 217.922,331.874 219.682,336.945 223.785,350.248 C 227.281,362.537 228.566,370.042 230.726,387.506"
                 transform="matrix(-1,0,0,1,596.3183,-0.735886)"
                 style="fill:none;fill-opacity:1;fill-rule:evenodd;stroke:#000000;stroke-width:6.25;stroke-linecap:butt;stroke-linejoin:miter;stroke-dasharray:none;stroke-opacity:0.99122799"
                 id="path612" />
              <g
                 style="fill:none;fill-opacity:1;stroke:#000000;stroke-opacity:0.99122799"
                 id="g637">
                <path
                   d="M 236.516,349.732 C 251.234,358.759 276.677,360.151 299.472,359.741 C 324.866,359.612 346.605,357.778 360.881,349.144"
                   style="fill:none;fill-opacity:1;fill-rule:evenodd;stroke:#000000;stroke-width:5;stroke-linecap:butt;stroke-linejoin:miter;stroke-dasharray:none;stroke-opacity:0.99122799"
                   id="path588" />
                <path
                   d="M 241.667,373.282 C 257.905,383.486 277.001,386.99 298.993,386.16 C 321.835,385.604 339.344,383.682 354.994,372.988"
                   style="fill:none;fill-opacity:1;fill-rule:evenodd;stroke:#000000;stroke-width:5;stroke-linecap:butt;stroke-linejoin:miter;stroke-dasharray:none;stroke-opacity:0.99122799"
                   id="path608" />
                <g
                   style="fill:none;fill-opacity:1;stroke:#000000;stroke-opacity:0.99122799"
                   id="g625">
                  <path
                     d="M 229.893,385.644 C 247.26,406.592 271.501,410.229 299.066,410.959 C 328.585,412.036 358.232,400.314 365.885,385.645"
                     style="fill:none;fill-opacity:1;fill-rule:evenodd;stroke:#000000;stroke-width:6.25;stroke-linecap:butt;stroke-linejoin:miter;stroke-dasharray:none;stroke-opacity:0.99122799"
                     id="path609" />
                  <g
                     style="fill:none;fill-opacity:1;stroke:#000000;stroke-opacity:0.99122799"
                     id="g615">
                    <path
                       d="M 241.444,354.256 L 241.028,395.468"
                       style="fill:none;fill-opacity:1;fill-rule:evenodd;stroke:#000000;stroke-width:5;stroke-linecap:butt;stroke-linejoin:miter;stroke-dasharray:none;stroke-opacity:0.99122799"
                       id="path589" />
                    <path
                       d="M 254.973,358.627 L 254.765,402.753"
                       style="fill:none;fill-opacity:1;fill-rule:evenodd;stroke:#000000;stroke-width:5;stroke-linecap:butt;stroke-linejoin:miter;stroke-dasharray:none;stroke-opacity:0.99122799"
                       id="path592" />
                    <path
                       d="M 269.959,360.5 L 269.543,406.708"
                       style="fill:none;fill-opacity:1;fill-rule:evenodd;stroke:#000000;stroke-width:5;stroke-linecap:butt;stroke-linejoin:miter;stroke-dasharray:none;stroke-opacity:0.99122799"
                       id="path593" />
                    <path
                       d="M 283.489,361.541 L 283.28,408.373"
                       style="fill:none;fill-opacity:1;fill-rule:evenodd;stroke:#000000;stroke-width:5;stroke-linecap:butt;stroke-linejoin:miter;stroke-dasharray:none;stroke-opacity:0.99122799"
                       id="path594" />
                    <path
                       d="M 298.683,361.957 L 298.683,408.789"
                       style="fill:none;fill-opacity:1;fill-rule:evenodd;stroke:#000000;stroke-width:5;stroke-linecap:butt;stroke-linejoin:miter;stroke-dasharray:none;stroke-opacity:0.99122799"
                       id="path595" />
                    <path
                       d="M 313.253,361.749 L 313.461,408.581"
                       style="fill:none;fill-opacity:1;fill-rule:evenodd;stroke:#000000;stroke-width:5;stroke-linecap:butt;stroke-linejoin:miter;stroke-dasharray:none;stroke-opacity:0.99122799"
                       id="path598" />
                    <path
                       d="M 326.782,360.5 L 327.198,406.5"
                       transform="translate(-0.41626,-3.051758e-5)"
                       style="fill:none;fill-opacity:1;fill-rule:evenodd;stroke:#000000;stroke-width:5;stroke-linecap:butt;stroke-linejoin:miter;stroke-dasharray:none;stroke-opacity:0.99122799"
                       id="path599" />
                    <path
                       d="M 341.56,358.003 L 341.768,402.129"
                       style="fill:none;fill-opacity:1;fill-rule:evenodd;stroke:#000000;stroke-width:5;stroke-linecap:butt;stroke-linejoin:miter;stroke-dasharray:none;stroke-opacity:0.99122799"
                       id="path604" />
                    <path
                       d="M 355.297,352.591 L 355.714,394.219"
                       style="fill:none;fill-opacity:1;fill-rule:evenodd;stroke:#000000;stroke-width:5;stroke-linecap:butt;stroke-linejoin:miter;stroke-dasharray:none;stroke-opacity:0.99122799"
                       id="path606" />
                  </g>
                </g>
              </g>
            </g>
            <g
               style="font-size:12px;fill:none;fill-opacity:1;stroke:#000000;stroke-opacity:0.99122799"
               id="g675">
              <path
                 d="M 171.498,235.561 C 152.362,216.958 138.988,184.673 137.132,149.809 C 135.117,111.389 155.35,73.2389 185.669,51.4898 C 219.638,27.5804 276.435,20.9678 311.751,22.7523 C 335.672,22.7689 388.957,35.1725 407.766,49.18 C 440.76,73.1701 458.454,107.22 459.68,146.03 C 461.493,185.013 445.074,214.705 424.969,233.236"
                 style="fill:none;fill-opacity:1;fill-rule:evenodd;stroke:#000000;stroke-width:12.5;stroke-linecap:round;stroke-linejoin:round;stroke-dasharray:none;stroke-opacity:0.99122799"
                 id="path573" />
              <path
                 d="M 172.662,126.267 C 164.91,133.049 165.888,143.244 167.284,158.459 C 168.386,170.019 175.762,181.398 176.15,191.959 C 178.862,214.244 172.274,236.529 169.173,254.745 C 167.041,275.673 173.05,293.695 180.801,300.671 C 188.552,307.551 198.557,310.4 209.069,313.607 C 218.62,316.105 223.573,320.449 230.797,325.835 C 239.403,334.972 241.456,342.529 241.262,351.831"
                 style="fill:none;fill-opacity:1;fill-rule:evenodd;stroke:#000000;stroke-width:12.5;stroke-linecap:butt;stroke-linejoin:round;stroke-dasharray:none;stroke-opacity:0.99122799"
                 id="path580" />
              <path
                 d="M 172.662,126.267 C 164.91,133.049 165.888,143.244 167.284,158.459 C 168.386,170.019 175.762,181.398 176.15,191.959 C 178.862,214.244 172.274,236.529 169.173,254.745 C 167.041,275.673 173.05,293.695 180.801,300.671 C 188.552,307.551 202.738,311.246 209.069,313.607 C 216.446,316.188 223.989,320.865 230.797,326.251 C 238.987,334.139 241.456,342.529 241.262,351.831"
                 transform="matrix(-1,0,0,1,597.7228,-0.58139)"
                 style="fill:none;fill-opacity:1;fill-rule:evenodd;stroke:#000000;stroke-width:12.5;stroke-linecap:butt;stroke-linejoin:round;stroke-dasharray:none;stroke-opacity:0.99122799"
                 id="path581" />
              <path
                 d="M 194.821,310.959 C 201.759,327.749 209.113,344.123 209.807,361.329 C 206.616,375.205 207.587,391.579 211.056,404.623 C 215.497,422.523 232.842,443.753 250.188,450.83 C 267.949,457.282 279.05,458.948 298.892,458.948"
                 style="fill:none;fill-opacity:1;fill-rule:evenodd;stroke:#000000;stroke-width:12.5;stroke-linecap:butt;stroke-linejoin:miter;stroke-dasharray:none;stroke-opacity:0.99122799"
                 id="path613" />
              <path
                 d="M 194.821,310.959 C 201.759,327.749 209.113,344.123 209.807,361.329 C 206.616,375.205 207.587,391.579 211.056,404.623 C 215.497,422.523 233.05,443.129 250.396,450.206 C 267.741,457.283 278.841,458.948 298.684,458.948"
                 transform="matrix(-1,0,0,1,596.7438,-3.051758e-5)"
                 style="fill:none;fill-opacity:1;fill-rule:evenodd;stroke:#000000;stroke-width:12.5;stroke-linecap:butt;stroke-linejoin:miter;stroke-dasharray:none;stroke-opacity:0.99122799"
                 id="path614" />
            </g>
          </g>
          <g
             style="stroke:#000000;stroke-opacity:0.99122799"
             id="g770">
            <path
               d="M 391.308,389.636 L 459.58,421.274 C 467.905,424.743 474.565,423.633 480.81,421.69 C 490.662,418.776 498.432,420.442 506.619,423.772 C 516.471,428.767 516.75,435.844 510.367,442.921 C 504.539,449.72 498.71,453.189 491.634,459.988 C 490.107,470.95 491.078,481.08 486.221,491.21 C 480.116,500.09 473.594,498.564 463.326,489.128 C 452.919,481.079 456.665,472.199 441.679,459.155 L 378.403,426.269 L 378.403,426.269"
               style="fill:none;fill-opacity:1;fill-rule:evenodd;stroke:#000000;stroke-width:12.5;stroke-linecap:butt;stroke-linejoin:round;stroke-dasharray:none;stroke-opacity:0.99122799"
               id="path765" />
            <path
               d="M 204.812,389.22 C 182.055,401.292 161.38,412.531 135.293,422.522 C 114.062,427.795 114.895,414.752 89.0851,423.355 C 81.7307,429.183 81.8695,437.508 87.8363,443.752 C 94.7745,450.552 99.6313,454.854 105.737,460.821 C 107.68,469.424 107.957,476.778 109.067,487.046 C 113.23,499.674 122.388,498.98 130.297,492.875 C 133.766,488.573 138.068,484.688 140.704,479.97 C 144.312,473.726 148.336,466.649 153.193,460.821 L 216.052,427.518"
               style="fill:none;fill-opacity:1;fill-rule:evenodd;stroke:#000000;stroke-width:12.5;stroke-linecap:butt;stroke-linejoin:round;stroke-dasharray:none;stroke-opacity:0.99122799"
               id="path766" />
            <path
               d="M 401.299,321.365 C 427.109,308.599 448.339,298.33 471.651,286.813 C 485.943,274.88 482.336,263.362 493.715,254.759 C 504.954,244.074 512.447,246.711 516.61,252.678 C 520.634,262.807 522.577,272.937 522.022,283.483 C 532.706,293.335 538.396,299.024 544.502,308.045 C 545.334,319.423 535.343,324.14 523.271,324.279 C 507.452,327.193 504.954,317.202 487.054,324.279 L 392.557,368.821 L 392.557,368.821"
               style="fill:none;fill-opacity:1;fill-rule:evenodd;stroke:#000000;stroke-width:12.5;stroke-linecap:square;stroke-linejoin:round;stroke-dasharray:none;stroke-opacity:0.99122799"
               id="path767" />
            <path
               d="M 197.22,322.353 C 171.12,309.597 149.436,300.079 123.63,285.852 C 109.599,274.666 114.113,262.008 97.1383,251.706 C 89.6812,247.978 84.2847,246.31 78.2994,256.416 C 74.4727,265.444 74.7671,275.059 74.1784,284.381 C 67.5063,291.543 59.9511,295.763 54.4564,304.692 C 46.5087,317.448 58.5773,321.667 65.0532,323.237 C 83.4995,327.848 90.1715,319.508 107.146,322.942 C 140.213,338.347 173.573,354.34 205.462,370.039"
               style="fill:none;fill-opacity:1;fill-rule:evenodd;stroke:#000000;stroke-width:12.5;stroke-linecap:butt;stroke-linejoin:round;stroke-dasharray:none;stroke-opacity:0.99122799"
               id="path769" />
          </g>
        </g>
      </g>
    </g>
  </g>
</svg>
